G04 EAGLE Gerber X2 export*
%TF.Part,Single*%
%TF.FileFunction,Copper,L2,Bot,Mixed*%
%TF.FilePolarity,Positive*%
%TF.GenerationSoftware,Autodesk,EAGLE,8.7.0*%
%TF.CreationDate,2018-03-20T01:19:31Z*%
G75*
%MOMM*%
%FSLAX34Y34*%
%LPD*%
%AMOC8*
5,1,8,0,0,1.08239X$1,22.5*%
G01*
%ADD10P,2.336880X8X112.500000*%
%ADD11P,2.336880X8X292.500000*%
%ADD12P,2.336880X8X22.500000*%
%ADD13C,1.800000*%
%ADD14C,0.756400*%
%ADD15C,0.203200*%
%ADD16C,0.304800*%

G36*
X317558Y-1007D02*
X317558Y-1007D01*
X317616Y-1009D01*
X317698Y-987D01*
X317782Y-975D01*
X317835Y-952D01*
X317891Y-937D01*
X317964Y-894D01*
X318041Y-859D01*
X318086Y-821D01*
X318136Y-792D01*
X318194Y-730D01*
X318258Y-676D01*
X318290Y-627D01*
X318330Y-584D01*
X318369Y-509D01*
X318416Y-439D01*
X318433Y-383D01*
X318460Y-331D01*
X318471Y-263D01*
X318501Y-168D01*
X318504Y-68D01*
X318515Y0D01*
X318515Y368300D01*
X318507Y368358D01*
X318509Y368416D01*
X318487Y368498D01*
X318475Y368582D01*
X318452Y368635D01*
X318437Y368691D01*
X318394Y368764D01*
X318359Y368841D01*
X318321Y368886D01*
X318292Y368936D01*
X318230Y368994D01*
X318176Y369058D01*
X318127Y369090D01*
X318084Y369130D01*
X318009Y369169D01*
X317939Y369216D01*
X317883Y369233D01*
X317831Y369260D01*
X317763Y369271D01*
X317668Y369301D01*
X317568Y369304D01*
X317500Y369315D01*
X0Y369315D01*
X-58Y369307D01*
X-116Y369309D01*
X-198Y369287D01*
X-282Y369275D01*
X-335Y369252D01*
X-391Y369237D01*
X-464Y369194D01*
X-541Y369159D01*
X-586Y369121D01*
X-636Y369092D01*
X-694Y369030D01*
X-758Y368976D01*
X-790Y368927D01*
X-830Y368884D01*
X-869Y368809D01*
X-916Y368739D01*
X-933Y368683D01*
X-960Y368631D01*
X-971Y368563D01*
X-1001Y368468D01*
X-1004Y368368D01*
X-1015Y368300D01*
X-1015Y0D01*
X-1007Y-58D01*
X-1009Y-116D01*
X-987Y-198D01*
X-975Y-282D01*
X-952Y-335D01*
X-937Y-391D01*
X-894Y-464D01*
X-859Y-541D01*
X-821Y-586D01*
X-792Y-636D01*
X-730Y-694D01*
X-676Y-758D01*
X-627Y-790D01*
X-584Y-830D01*
X-509Y-869D01*
X-439Y-916D01*
X-383Y-933D01*
X-331Y-960D01*
X-263Y-971D01*
X-168Y-1001D01*
X-68Y-1004D01*
X0Y-1015D01*
X317500Y-1015D01*
X317558Y-1007D01*
G37*
%LPC*%
G36*
X138644Y152173D02*
X138644Y152173D01*
X136694Y152981D01*
X135201Y154474D01*
X134393Y156424D01*
X134393Y158536D01*
X135201Y160486D01*
X136763Y162048D01*
X136777Y162056D01*
X136778Y162058D01*
X136780Y162058D01*
X136878Y162163D01*
X136973Y162263D01*
X136973Y162265D01*
X136974Y162266D01*
X137039Y162391D01*
X137103Y162516D01*
X137103Y162517D01*
X137104Y162519D01*
X137106Y162534D01*
X137158Y162795D01*
X137155Y162825D01*
X137159Y162850D01*
X137159Y200688D01*
X137151Y200746D01*
X137153Y200804D01*
X137131Y200886D01*
X137119Y200970D01*
X137096Y201023D01*
X137081Y201079D01*
X137038Y201152D01*
X137003Y201229D01*
X136965Y201274D01*
X136936Y201324D01*
X136874Y201382D01*
X136820Y201446D01*
X136771Y201478D01*
X136728Y201518D01*
X136653Y201557D01*
X136583Y201604D01*
X136527Y201621D01*
X136475Y201648D01*
X136407Y201659D01*
X136312Y201689D01*
X136212Y201692D01*
X136144Y201703D01*
X134834Y201703D01*
X132884Y202511D01*
X131391Y204004D01*
X130583Y205954D01*
X130583Y208066D01*
X131391Y210016D01*
X132884Y211509D01*
X134834Y212317D01*
X136465Y212317D01*
X136551Y212329D01*
X136639Y212332D01*
X136691Y212349D01*
X136746Y212357D01*
X136826Y212392D01*
X136909Y212419D01*
X136948Y212447D01*
X137006Y212473D01*
X137119Y212569D01*
X137183Y212614D01*
X154134Y229565D01*
X154186Y229635D01*
X154246Y229699D01*
X154272Y229749D01*
X154305Y229793D01*
X154336Y229874D01*
X154376Y229952D01*
X154384Y230000D01*
X154406Y230058D01*
X154418Y230206D01*
X154431Y230283D01*
X154431Y291033D01*
X154419Y291120D01*
X154416Y291207D01*
X154399Y291260D01*
X154391Y291315D01*
X154356Y291395D01*
X154329Y291478D01*
X154301Y291517D01*
X154275Y291574D01*
X154179Y291687D01*
X154134Y291751D01*
X152981Y292904D01*
X152173Y294854D01*
X152173Y296485D01*
X152166Y296538D01*
X152167Y296569D01*
X152160Y296593D01*
X152158Y296659D01*
X152141Y296711D01*
X152133Y296766D01*
X152098Y296846D01*
X152071Y296929D01*
X152043Y296968D01*
X152017Y297026D01*
X151921Y297139D01*
X151876Y297203D01*
X145541Y303537D01*
X145541Y340563D01*
X145529Y340650D01*
X145526Y340737D01*
X145509Y340790D01*
X145501Y340845D01*
X145466Y340925D01*
X145439Y341008D01*
X145411Y341047D01*
X145385Y341104D01*
X145289Y341218D01*
X145244Y341281D01*
X144091Y342434D01*
X143283Y344384D01*
X143283Y346496D01*
X144091Y348446D01*
X145584Y349939D01*
X147534Y350747D01*
X149646Y350747D01*
X151596Y349939D01*
X153089Y348446D01*
X153897Y346496D01*
X153897Y344384D01*
X153089Y342434D01*
X151936Y341281D01*
X151884Y341211D01*
X151824Y341148D01*
X151798Y341098D01*
X151765Y341054D01*
X151734Y340972D01*
X151694Y340894D01*
X151686Y340847D01*
X151664Y340788D01*
X151652Y340641D01*
X151639Y340563D01*
X151639Y306483D01*
X151651Y306397D01*
X151654Y306309D01*
X151671Y306257D01*
X151679Y306202D01*
X151714Y306122D01*
X151741Y306039D01*
X151769Y306000D01*
X151795Y305942D01*
X151891Y305829D01*
X151936Y305765D01*
X156187Y301514D01*
X156257Y301462D01*
X156321Y301402D01*
X156371Y301376D01*
X156415Y301343D01*
X156496Y301312D01*
X156574Y301272D01*
X156622Y301264D01*
X156680Y301242D01*
X156828Y301230D01*
X156905Y301217D01*
X158536Y301217D01*
X160486Y300409D01*
X161979Y298916D01*
X162787Y296966D01*
X162787Y294854D01*
X161979Y292904D01*
X160826Y291751D01*
X160774Y291681D01*
X160714Y291618D01*
X160688Y291568D01*
X160655Y291524D01*
X160624Y291442D01*
X160584Y291364D01*
X160576Y291317D01*
X160554Y291258D01*
X160542Y291111D01*
X160529Y291033D01*
X160529Y227337D01*
X141494Y208303D01*
X141442Y208233D01*
X141382Y208169D01*
X141356Y208119D01*
X141323Y208075D01*
X141292Y207994D01*
X141252Y207916D01*
X141244Y207868D01*
X141222Y207810D01*
X141210Y207662D01*
X141197Y207585D01*
X141197Y205857D01*
X141193Y205842D01*
X141193Y205840D01*
X141192Y205837D01*
X141197Y205698D01*
X141201Y205558D01*
X141201Y205556D01*
X141201Y205553D01*
X141244Y205420D01*
X141287Y205287D01*
X141288Y205285D01*
X141289Y205283D01*
X141301Y205265D01*
X141445Y205051D01*
X141469Y205030D01*
X141484Y205009D01*
X142241Y204252D01*
X142241Y162850D01*
X142241Y162848D01*
X142241Y162847D01*
X142261Y162706D01*
X142281Y162568D01*
X142281Y162567D01*
X142281Y162565D01*
X142340Y162436D01*
X142397Y162309D01*
X142398Y162308D01*
X142399Y162306D01*
X142489Y162200D01*
X142580Y162092D01*
X142582Y162091D01*
X142583Y162090D01*
X142595Y162082D01*
X142618Y162067D01*
X144199Y160486D01*
X145007Y158536D01*
X145007Y156424D01*
X144199Y154474D01*
X142706Y152981D01*
X140756Y152173D01*
X138644Y152173D01*
G37*
%LPD*%
%LPC*%
G36*
X25399Y114299D02*
X25399Y114299D01*
X25399Y115316D01*
X25391Y115374D01*
X25392Y115432D01*
X25371Y115514D01*
X25359Y115597D01*
X25335Y115651D01*
X25321Y115707D01*
X25278Y115780D01*
X25243Y115857D01*
X25205Y115902D01*
X25175Y115952D01*
X25114Y116010D01*
X25059Y116074D01*
X25011Y116106D01*
X24968Y116146D01*
X24893Y116185D01*
X24823Y116231D01*
X24767Y116249D01*
X24715Y116276D01*
X24647Y116287D01*
X24552Y116317D01*
X24452Y116320D01*
X24384Y116331D01*
X12064Y116331D01*
X12064Y119824D01*
X19241Y127001D01*
X19276Y127047D01*
X19319Y127088D01*
X19361Y127160D01*
X19412Y127228D01*
X19433Y127282D01*
X19462Y127333D01*
X19483Y127414D01*
X19513Y127493D01*
X19518Y127552D01*
X19532Y127608D01*
X19530Y127693D01*
X19537Y127777D01*
X19525Y127834D01*
X19523Y127892D01*
X19497Y127973D01*
X19481Y128055D01*
X19454Y128107D01*
X19436Y128163D01*
X19396Y128219D01*
X19350Y128308D01*
X19281Y128380D01*
X19241Y128436D01*
X13080Y134597D01*
X13080Y144803D01*
X19959Y151682D01*
X19995Y151729D01*
X20037Y151769D01*
X20080Y151842D01*
X20130Y151909D01*
X20151Y151964D01*
X20181Y152014D01*
X20201Y152096D01*
X20232Y152175D01*
X20236Y152233D01*
X20251Y152290D01*
X20248Y152374D01*
X20255Y152458D01*
X20244Y152516D01*
X20242Y152574D01*
X20216Y152654D01*
X20199Y152737D01*
X20172Y152789D01*
X20154Y152845D01*
X20114Y152901D01*
X20068Y152989D01*
X19999Y153062D01*
X19959Y153118D01*
X13080Y159997D01*
X13080Y170203D01*
X20297Y177420D01*
X30503Y177420D01*
X37720Y170203D01*
X37720Y159997D01*
X30841Y153118D01*
X30806Y153071D01*
X30763Y153031D01*
X30720Y152958D01*
X30670Y152891D01*
X30649Y152836D01*
X30619Y152786D01*
X30599Y152704D01*
X30568Y152625D01*
X30564Y152567D01*
X30549Y152510D01*
X30552Y152426D01*
X30545Y152342D01*
X30556Y152284D01*
X30558Y152226D01*
X30584Y152146D01*
X30601Y152063D01*
X30628Y152011D01*
X30646Y151955D01*
X30686Y151899D01*
X30732Y151811D01*
X30801Y151738D01*
X30841Y151682D01*
X37720Y144803D01*
X37720Y134597D01*
X31559Y128436D01*
X31524Y128390D01*
X31481Y128349D01*
X31439Y128277D01*
X31388Y128209D01*
X31367Y128154D01*
X31338Y128104D01*
X31317Y128022D01*
X31287Y127943D01*
X31282Y127885D01*
X31268Y127829D01*
X31270Y127744D01*
X31263Y127660D01*
X31275Y127603D01*
X31277Y127544D01*
X31303Y127464D01*
X31319Y127381D01*
X31346Y127330D01*
X31364Y127274D01*
X31404Y127218D01*
X31450Y127129D01*
X31519Y127057D01*
X31559Y127001D01*
X38736Y119824D01*
X38736Y116331D01*
X26416Y116331D01*
X26358Y116323D01*
X26300Y116325D01*
X26218Y116303D01*
X26135Y116291D01*
X26081Y116267D01*
X26025Y116253D01*
X25952Y116210D01*
X25875Y116175D01*
X25831Y116137D01*
X25780Y116107D01*
X25723Y116046D01*
X25658Y115991D01*
X25626Y115943D01*
X25586Y115900D01*
X25547Y115825D01*
X25501Y115755D01*
X25483Y115699D01*
X25456Y115647D01*
X25445Y115579D01*
X25415Y115484D01*
X25412Y115384D01*
X25401Y115316D01*
X25401Y114299D01*
X25399Y114299D01*
G37*
%LPD*%
%LPC*%
G36*
X292099Y114299D02*
X292099Y114299D01*
X292099Y115316D01*
X292091Y115374D01*
X292092Y115432D01*
X292071Y115514D01*
X292059Y115597D01*
X292035Y115651D01*
X292021Y115707D01*
X291978Y115780D01*
X291943Y115857D01*
X291905Y115902D01*
X291875Y115952D01*
X291814Y116010D01*
X291759Y116074D01*
X291711Y116106D01*
X291668Y116146D01*
X291593Y116185D01*
X291523Y116231D01*
X291467Y116249D01*
X291415Y116276D01*
X291347Y116287D01*
X291252Y116317D01*
X291152Y116320D01*
X291084Y116331D01*
X278764Y116331D01*
X278764Y119824D01*
X285941Y127001D01*
X285976Y127047D01*
X286019Y127088D01*
X286061Y127160D01*
X286112Y127228D01*
X286133Y127282D01*
X286162Y127333D01*
X286183Y127414D01*
X286213Y127493D01*
X286218Y127552D01*
X286232Y127608D01*
X286230Y127693D01*
X286237Y127777D01*
X286225Y127834D01*
X286223Y127892D01*
X286197Y127973D01*
X286181Y128055D01*
X286154Y128107D01*
X286136Y128163D01*
X286096Y128219D01*
X286050Y128308D01*
X285981Y128380D01*
X285941Y128436D01*
X279780Y134597D01*
X279780Y144803D01*
X286659Y151682D01*
X286695Y151729D01*
X286737Y151769D01*
X286780Y151842D01*
X286830Y151909D01*
X286851Y151964D01*
X286881Y152014D01*
X286901Y152096D01*
X286932Y152175D01*
X286936Y152233D01*
X286951Y152290D01*
X286948Y152374D01*
X286955Y152458D01*
X286944Y152516D01*
X286942Y152574D01*
X286916Y152654D01*
X286899Y152737D01*
X286872Y152789D01*
X286854Y152845D01*
X286814Y152901D01*
X286768Y152989D01*
X286699Y153062D01*
X286659Y153118D01*
X279780Y159997D01*
X279780Y170203D01*
X286997Y177420D01*
X297203Y177420D01*
X304420Y170203D01*
X304420Y159997D01*
X297541Y153118D01*
X297506Y153071D01*
X297463Y153031D01*
X297420Y152958D01*
X297370Y152891D01*
X297349Y152836D01*
X297319Y152786D01*
X297299Y152704D01*
X297268Y152625D01*
X297264Y152567D01*
X297249Y152510D01*
X297252Y152426D01*
X297245Y152342D01*
X297256Y152284D01*
X297258Y152226D01*
X297284Y152146D01*
X297301Y152063D01*
X297328Y152011D01*
X297346Y151955D01*
X297386Y151899D01*
X297432Y151811D01*
X297501Y151738D01*
X297541Y151682D01*
X304420Y144803D01*
X304420Y134597D01*
X298259Y128436D01*
X298224Y128390D01*
X298181Y128349D01*
X298139Y128277D01*
X298088Y128209D01*
X298067Y128154D01*
X298038Y128104D01*
X298017Y128022D01*
X297987Y127943D01*
X297982Y127885D01*
X297968Y127829D01*
X297970Y127744D01*
X297963Y127660D01*
X297975Y127603D01*
X297977Y127544D01*
X298003Y127464D01*
X298019Y127381D01*
X298046Y127330D01*
X298064Y127274D01*
X298104Y127218D01*
X298150Y127129D01*
X298219Y127057D01*
X298259Y127001D01*
X305436Y119824D01*
X305436Y116331D01*
X293116Y116331D01*
X293058Y116323D01*
X293000Y116325D01*
X292918Y116303D01*
X292835Y116291D01*
X292781Y116267D01*
X292725Y116253D01*
X292652Y116210D01*
X292575Y116175D01*
X292531Y116137D01*
X292480Y116107D01*
X292423Y116046D01*
X292358Y115991D01*
X292326Y115943D01*
X292286Y115900D01*
X292247Y115825D01*
X292201Y115755D01*
X292183Y115699D01*
X292156Y115647D01*
X292145Y115579D01*
X292115Y115484D01*
X292112Y115384D01*
X292101Y115316D01*
X292101Y114299D01*
X292099Y114299D01*
G37*
%LPD*%
%LPC*%
G36*
X292099Y203199D02*
X292099Y203199D01*
X292099Y204216D01*
X292091Y204274D01*
X292092Y204332D01*
X292071Y204414D01*
X292059Y204497D01*
X292035Y204551D01*
X292021Y204607D01*
X291978Y204680D01*
X291943Y204757D01*
X291905Y204802D01*
X291875Y204852D01*
X291814Y204910D01*
X291759Y204974D01*
X291711Y205006D01*
X291668Y205046D01*
X291593Y205085D01*
X291523Y205131D01*
X291467Y205149D01*
X291415Y205176D01*
X291347Y205187D01*
X291252Y205217D01*
X291152Y205220D01*
X291084Y205231D01*
X278764Y205231D01*
X278764Y208724D01*
X285941Y215901D01*
X285976Y215947D01*
X286019Y215988D01*
X286061Y216060D01*
X286112Y216128D01*
X286133Y216182D01*
X286162Y216233D01*
X286183Y216314D01*
X286213Y216393D01*
X286218Y216452D01*
X286232Y216508D01*
X286230Y216593D01*
X286237Y216677D01*
X286225Y216734D01*
X286223Y216792D01*
X286197Y216873D01*
X286181Y216955D01*
X286154Y217007D01*
X286136Y217063D01*
X286096Y217119D01*
X286050Y217208D01*
X285981Y217280D01*
X285941Y217336D01*
X279780Y223497D01*
X279780Y233703D01*
X286659Y240582D01*
X286695Y240629D01*
X286737Y240669D01*
X286780Y240742D01*
X286830Y240809D01*
X286851Y240864D01*
X286881Y240914D01*
X286901Y240996D01*
X286932Y241075D01*
X286936Y241133D01*
X286951Y241190D01*
X286948Y241274D01*
X286955Y241358D01*
X286944Y241416D01*
X286942Y241474D01*
X286916Y241554D01*
X286899Y241637D01*
X286872Y241689D01*
X286854Y241745D01*
X286814Y241801D01*
X286768Y241889D01*
X286699Y241962D01*
X286659Y242018D01*
X279780Y248897D01*
X279780Y259103D01*
X286997Y266320D01*
X297203Y266320D01*
X304420Y259103D01*
X304420Y248897D01*
X297541Y242018D01*
X297506Y241971D01*
X297463Y241931D01*
X297420Y241858D01*
X297370Y241791D01*
X297349Y241736D01*
X297319Y241686D01*
X297299Y241604D01*
X297268Y241525D01*
X297264Y241467D01*
X297249Y241410D01*
X297252Y241326D01*
X297245Y241242D01*
X297256Y241184D01*
X297258Y241126D01*
X297284Y241046D01*
X297301Y240963D01*
X297328Y240911D01*
X297346Y240855D01*
X297386Y240799D01*
X297432Y240711D01*
X297501Y240638D01*
X297541Y240582D01*
X304420Y233703D01*
X304420Y223497D01*
X298259Y217336D01*
X298224Y217290D01*
X298181Y217249D01*
X298139Y217177D01*
X298088Y217109D01*
X298067Y217054D01*
X298038Y217004D01*
X298017Y216922D01*
X297987Y216843D01*
X297982Y216785D01*
X297968Y216729D01*
X297970Y216644D01*
X297963Y216560D01*
X297975Y216503D01*
X297977Y216444D01*
X298003Y216364D01*
X298019Y216281D01*
X298046Y216230D01*
X298064Y216174D01*
X298104Y216118D01*
X298150Y216029D01*
X298219Y215957D01*
X298259Y215901D01*
X305436Y208724D01*
X305436Y205231D01*
X293116Y205231D01*
X293058Y205223D01*
X293000Y205225D01*
X292918Y205203D01*
X292835Y205191D01*
X292781Y205167D01*
X292725Y205153D01*
X292652Y205110D01*
X292575Y205075D01*
X292531Y205037D01*
X292480Y205007D01*
X292423Y204946D01*
X292358Y204891D01*
X292326Y204843D01*
X292286Y204800D01*
X292247Y204725D01*
X292201Y204655D01*
X292183Y204599D01*
X292156Y204547D01*
X292145Y204479D01*
X292115Y204384D01*
X292112Y204284D01*
X292101Y204216D01*
X292101Y203199D01*
X292099Y203199D01*
G37*
%LPD*%
%LPC*%
G36*
X25399Y203199D02*
X25399Y203199D01*
X25399Y204216D01*
X25391Y204274D01*
X25392Y204332D01*
X25371Y204414D01*
X25359Y204497D01*
X25335Y204551D01*
X25321Y204607D01*
X25278Y204680D01*
X25243Y204757D01*
X25205Y204802D01*
X25175Y204852D01*
X25114Y204910D01*
X25059Y204974D01*
X25011Y205006D01*
X24968Y205046D01*
X24893Y205085D01*
X24823Y205131D01*
X24767Y205149D01*
X24715Y205176D01*
X24647Y205187D01*
X24552Y205217D01*
X24452Y205220D01*
X24384Y205231D01*
X12064Y205231D01*
X12064Y208724D01*
X19241Y215901D01*
X19276Y215947D01*
X19319Y215988D01*
X19361Y216060D01*
X19412Y216128D01*
X19433Y216182D01*
X19462Y216233D01*
X19483Y216314D01*
X19513Y216393D01*
X19518Y216452D01*
X19532Y216508D01*
X19530Y216593D01*
X19537Y216677D01*
X19525Y216734D01*
X19523Y216792D01*
X19497Y216873D01*
X19481Y216955D01*
X19454Y217007D01*
X19436Y217063D01*
X19396Y217119D01*
X19350Y217208D01*
X19281Y217280D01*
X19241Y217336D01*
X13080Y223497D01*
X13080Y233703D01*
X19959Y240582D01*
X19995Y240629D01*
X20037Y240669D01*
X20080Y240742D01*
X20130Y240809D01*
X20151Y240864D01*
X20181Y240914D01*
X20201Y240996D01*
X20232Y241075D01*
X20236Y241133D01*
X20251Y241190D01*
X20248Y241274D01*
X20255Y241358D01*
X20244Y241416D01*
X20242Y241474D01*
X20216Y241554D01*
X20199Y241637D01*
X20172Y241689D01*
X20154Y241745D01*
X20114Y241801D01*
X20068Y241889D01*
X19999Y241962D01*
X19959Y242018D01*
X13080Y248897D01*
X13080Y259103D01*
X20297Y266320D01*
X30503Y266320D01*
X37720Y259103D01*
X37720Y248897D01*
X30841Y242018D01*
X30806Y241971D01*
X30763Y241931D01*
X30720Y241858D01*
X30670Y241791D01*
X30649Y241736D01*
X30619Y241686D01*
X30599Y241604D01*
X30568Y241525D01*
X30564Y241467D01*
X30549Y241410D01*
X30552Y241326D01*
X30545Y241242D01*
X30556Y241184D01*
X30558Y241126D01*
X30584Y241046D01*
X30601Y240963D01*
X30628Y240911D01*
X30646Y240855D01*
X30686Y240799D01*
X30732Y240711D01*
X30801Y240638D01*
X30841Y240582D01*
X37720Y233703D01*
X37720Y223497D01*
X31559Y217336D01*
X31524Y217290D01*
X31481Y217249D01*
X31439Y217177D01*
X31388Y217109D01*
X31367Y217054D01*
X31338Y217004D01*
X31317Y216922D01*
X31287Y216843D01*
X31282Y216785D01*
X31268Y216729D01*
X31270Y216644D01*
X31263Y216560D01*
X31275Y216503D01*
X31277Y216444D01*
X31303Y216364D01*
X31319Y216281D01*
X31346Y216230D01*
X31364Y216174D01*
X31404Y216118D01*
X31450Y216029D01*
X31519Y215957D01*
X31559Y215901D01*
X38736Y208724D01*
X38736Y205231D01*
X26416Y205231D01*
X26358Y205223D01*
X26300Y205225D01*
X26218Y205203D01*
X26135Y205191D01*
X26081Y205167D01*
X26025Y205153D01*
X25952Y205110D01*
X25875Y205075D01*
X25831Y205037D01*
X25780Y205007D01*
X25723Y204946D01*
X25658Y204891D01*
X25626Y204843D01*
X25586Y204800D01*
X25547Y204725D01*
X25501Y204655D01*
X25483Y204599D01*
X25456Y204547D01*
X25445Y204479D01*
X25415Y204384D01*
X25412Y204284D01*
X25401Y204216D01*
X25401Y203199D01*
X25399Y203199D01*
G37*
%LPD*%
%LPC*%
G36*
X292099Y292099D02*
X292099Y292099D01*
X292099Y293116D01*
X292091Y293174D01*
X292092Y293232D01*
X292071Y293314D01*
X292059Y293397D01*
X292035Y293451D01*
X292021Y293507D01*
X291978Y293580D01*
X291943Y293657D01*
X291905Y293702D01*
X291875Y293752D01*
X291814Y293810D01*
X291759Y293874D01*
X291711Y293906D01*
X291668Y293946D01*
X291593Y293985D01*
X291523Y294031D01*
X291467Y294049D01*
X291415Y294076D01*
X291347Y294087D01*
X291252Y294117D01*
X291152Y294120D01*
X291084Y294131D01*
X278764Y294131D01*
X278764Y297624D01*
X285941Y304801D01*
X285976Y304847D01*
X286019Y304888D01*
X286061Y304960D01*
X286112Y305028D01*
X286133Y305082D01*
X286162Y305133D01*
X286183Y305214D01*
X286213Y305293D01*
X286218Y305352D01*
X286232Y305408D01*
X286230Y305493D01*
X286237Y305577D01*
X286225Y305634D01*
X286223Y305692D01*
X286197Y305773D01*
X286181Y305855D01*
X286154Y305907D01*
X286136Y305963D01*
X286096Y306019D01*
X286050Y306108D01*
X285981Y306180D01*
X285941Y306236D01*
X279780Y312397D01*
X279780Y322603D01*
X286659Y329482D01*
X286695Y329529D01*
X286737Y329569D01*
X286780Y329642D01*
X286830Y329709D01*
X286851Y329764D01*
X286881Y329814D01*
X286901Y329896D01*
X286932Y329975D01*
X286936Y330033D01*
X286951Y330090D01*
X286948Y330174D01*
X286955Y330258D01*
X286944Y330316D01*
X286942Y330374D01*
X286916Y330454D01*
X286899Y330537D01*
X286872Y330589D01*
X286854Y330645D01*
X286814Y330701D01*
X286768Y330789D01*
X286699Y330862D01*
X286659Y330918D01*
X279780Y337797D01*
X279780Y348003D01*
X286997Y355220D01*
X297203Y355220D01*
X304420Y348003D01*
X304420Y337797D01*
X297541Y330918D01*
X297506Y330871D01*
X297463Y330831D01*
X297420Y330758D01*
X297370Y330691D01*
X297349Y330636D01*
X297319Y330586D01*
X297299Y330504D01*
X297268Y330425D01*
X297264Y330367D01*
X297249Y330310D01*
X297252Y330226D01*
X297245Y330142D01*
X297256Y330084D01*
X297258Y330026D01*
X297284Y329946D01*
X297301Y329863D01*
X297328Y329811D01*
X297346Y329755D01*
X297386Y329699D01*
X297432Y329611D01*
X297501Y329538D01*
X297541Y329482D01*
X304420Y322603D01*
X304420Y312397D01*
X298259Y306236D01*
X298224Y306190D01*
X298181Y306149D01*
X298139Y306077D01*
X298088Y306009D01*
X298067Y305954D01*
X298038Y305904D01*
X298017Y305822D01*
X297987Y305743D01*
X297982Y305685D01*
X297968Y305629D01*
X297970Y305544D01*
X297963Y305460D01*
X297975Y305403D01*
X297977Y305344D01*
X298003Y305264D01*
X298019Y305181D01*
X298046Y305130D01*
X298064Y305074D01*
X298104Y305018D01*
X298150Y304929D01*
X298219Y304857D01*
X298259Y304801D01*
X305436Y297624D01*
X305436Y294131D01*
X293116Y294131D01*
X293058Y294123D01*
X293000Y294125D01*
X292918Y294103D01*
X292835Y294091D01*
X292781Y294067D01*
X292725Y294053D01*
X292652Y294010D01*
X292575Y293975D01*
X292531Y293937D01*
X292480Y293907D01*
X292423Y293846D01*
X292358Y293791D01*
X292326Y293743D01*
X292286Y293700D01*
X292247Y293625D01*
X292201Y293555D01*
X292183Y293499D01*
X292156Y293447D01*
X292145Y293379D01*
X292115Y293284D01*
X292112Y293184D01*
X292101Y293116D01*
X292101Y292099D01*
X292099Y292099D01*
G37*
%LPD*%
%LPC*%
G36*
X25399Y292099D02*
X25399Y292099D01*
X25399Y293116D01*
X25391Y293174D01*
X25392Y293232D01*
X25371Y293314D01*
X25359Y293397D01*
X25335Y293451D01*
X25321Y293507D01*
X25278Y293580D01*
X25243Y293657D01*
X25205Y293702D01*
X25175Y293752D01*
X25114Y293810D01*
X25059Y293874D01*
X25011Y293906D01*
X24968Y293946D01*
X24893Y293985D01*
X24823Y294031D01*
X24767Y294049D01*
X24715Y294076D01*
X24647Y294087D01*
X24552Y294117D01*
X24452Y294120D01*
X24384Y294131D01*
X12064Y294131D01*
X12064Y297624D01*
X19241Y304801D01*
X19276Y304847D01*
X19319Y304888D01*
X19361Y304960D01*
X19412Y305028D01*
X19433Y305082D01*
X19462Y305133D01*
X19483Y305214D01*
X19513Y305293D01*
X19518Y305352D01*
X19532Y305408D01*
X19530Y305493D01*
X19537Y305577D01*
X19525Y305634D01*
X19523Y305692D01*
X19497Y305773D01*
X19481Y305855D01*
X19454Y305907D01*
X19436Y305963D01*
X19396Y306019D01*
X19350Y306108D01*
X19281Y306180D01*
X19241Y306236D01*
X13080Y312397D01*
X13080Y322603D01*
X19959Y329482D01*
X19995Y329529D01*
X20037Y329569D01*
X20080Y329642D01*
X20130Y329709D01*
X20151Y329764D01*
X20181Y329814D01*
X20201Y329896D01*
X20232Y329975D01*
X20236Y330033D01*
X20251Y330090D01*
X20248Y330174D01*
X20255Y330258D01*
X20244Y330316D01*
X20242Y330374D01*
X20216Y330454D01*
X20199Y330537D01*
X20172Y330589D01*
X20154Y330645D01*
X20114Y330701D01*
X20068Y330789D01*
X19999Y330862D01*
X19959Y330918D01*
X13080Y337797D01*
X13080Y348003D01*
X20297Y355220D01*
X30503Y355220D01*
X37720Y348003D01*
X37720Y337797D01*
X30841Y330918D01*
X30806Y330871D01*
X30763Y330831D01*
X30720Y330758D01*
X30670Y330691D01*
X30649Y330636D01*
X30619Y330586D01*
X30599Y330504D01*
X30568Y330425D01*
X30564Y330367D01*
X30549Y330310D01*
X30552Y330226D01*
X30545Y330142D01*
X30556Y330084D01*
X30558Y330026D01*
X30584Y329946D01*
X30601Y329863D01*
X30628Y329811D01*
X30646Y329755D01*
X30686Y329699D01*
X30732Y329611D01*
X30801Y329538D01*
X30841Y329482D01*
X37720Y322603D01*
X37720Y312397D01*
X31559Y306236D01*
X31524Y306190D01*
X31481Y306149D01*
X31439Y306077D01*
X31388Y306009D01*
X31367Y305954D01*
X31338Y305904D01*
X31317Y305822D01*
X31287Y305743D01*
X31282Y305685D01*
X31268Y305629D01*
X31270Y305544D01*
X31263Y305460D01*
X31275Y305403D01*
X31277Y305344D01*
X31303Y305264D01*
X31319Y305181D01*
X31346Y305130D01*
X31364Y305074D01*
X31404Y305018D01*
X31450Y304929D01*
X31519Y304857D01*
X31559Y304801D01*
X38736Y297624D01*
X38736Y294131D01*
X26416Y294131D01*
X26358Y294123D01*
X26300Y294125D01*
X26218Y294103D01*
X26135Y294091D01*
X26081Y294067D01*
X26025Y294053D01*
X25952Y294010D01*
X25875Y293975D01*
X25831Y293937D01*
X25780Y293907D01*
X25723Y293846D01*
X25658Y293791D01*
X25626Y293743D01*
X25586Y293700D01*
X25547Y293625D01*
X25501Y293555D01*
X25483Y293499D01*
X25456Y293447D01*
X25445Y293379D01*
X25415Y293284D01*
X25412Y293184D01*
X25401Y293116D01*
X25401Y292099D01*
X25399Y292099D01*
G37*
%LPD*%
%LPC*%
G36*
X292099Y25399D02*
X292099Y25399D01*
X292099Y26416D01*
X292091Y26471D01*
X292092Y26513D01*
X292092Y26515D01*
X292092Y26532D01*
X292071Y26614D01*
X292059Y26697D01*
X292035Y26751D01*
X292021Y26807D01*
X291978Y26880D01*
X291943Y26957D01*
X291905Y27002D01*
X291875Y27052D01*
X291814Y27110D01*
X291759Y27174D01*
X291711Y27206D01*
X291668Y27246D01*
X291593Y27285D01*
X291523Y27331D01*
X291467Y27349D01*
X291415Y27376D01*
X291347Y27387D01*
X291252Y27417D01*
X291152Y27420D01*
X291084Y27431D01*
X278764Y27431D01*
X278764Y30924D01*
X285941Y38101D01*
X285976Y38147D01*
X286019Y38188D01*
X286061Y38260D01*
X286112Y38328D01*
X286133Y38382D01*
X286162Y38433D01*
X286183Y38514D01*
X286213Y38593D01*
X286218Y38652D01*
X286232Y38708D01*
X286230Y38793D01*
X286237Y38877D01*
X286225Y38934D01*
X286223Y38992D01*
X286197Y39073D01*
X286181Y39155D01*
X286154Y39207D01*
X286136Y39263D01*
X286096Y39319D01*
X286050Y39408D01*
X285981Y39480D01*
X285941Y39536D01*
X279780Y45697D01*
X279780Y55903D01*
X286659Y62782D01*
X286695Y62829D01*
X286737Y62869D01*
X286780Y62942D01*
X286830Y63009D01*
X286851Y63064D01*
X286881Y63114D01*
X286901Y63196D01*
X286932Y63275D01*
X286936Y63333D01*
X286951Y63390D01*
X286948Y63474D01*
X286955Y63558D01*
X286944Y63616D01*
X286942Y63674D01*
X286916Y63754D01*
X286899Y63837D01*
X286872Y63889D01*
X286854Y63945D01*
X286814Y64001D01*
X286768Y64089D01*
X286699Y64162D01*
X286659Y64218D01*
X279780Y71097D01*
X279780Y81303D01*
X286997Y88520D01*
X297203Y88520D01*
X304420Y81303D01*
X304420Y71097D01*
X297541Y64218D01*
X297506Y64171D01*
X297463Y64131D01*
X297420Y64058D01*
X297370Y63991D01*
X297349Y63936D01*
X297319Y63886D01*
X297299Y63804D01*
X297268Y63725D01*
X297264Y63667D01*
X297249Y63610D01*
X297252Y63526D01*
X297245Y63442D01*
X297256Y63384D01*
X297258Y63326D01*
X297284Y63246D01*
X297301Y63163D01*
X297328Y63111D01*
X297346Y63055D01*
X297386Y62999D01*
X297432Y62911D01*
X297501Y62838D01*
X297541Y62782D01*
X304420Y55903D01*
X304420Y45697D01*
X298259Y39536D01*
X298224Y39490D01*
X298181Y39449D01*
X298139Y39377D01*
X298088Y39309D01*
X298067Y39254D01*
X298038Y39204D01*
X298017Y39122D01*
X297987Y39043D01*
X297982Y38985D01*
X297968Y38929D01*
X297970Y38844D01*
X297963Y38760D01*
X297975Y38703D01*
X297977Y38644D01*
X298003Y38564D01*
X298019Y38481D01*
X298046Y38430D01*
X298064Y38374D01*
X298104Y38318D01*
X298150Y38229D01*
X298219Y38157D01*
X298259Y38101D01*
X305436Y30924D01*
X305436Y27431D01*
X293116Y27431D01*
X293058Y27423D01*
X293000Y27425D01*
X292918Y27403D01*
X292835Y27391D01*
X292781Y27367D01*
X292725Y27353D01*
X292652Y27310D01*
X292575Y27275D01*
X292531Y27237D01*
X292480Y27207D01*
X292423Y27146D01*
X292358Y27091D01*
X292326Y27043D01*
X292286Y27000D01*
X292247Y26925D01*
X292201Y26855D01*
X292183Y26799D01*
X292156Y26747D01*
X292145Y26679D01*
X292115Y26584D01*
X292112Y26484D01*
X292101Y26416D01*
X292101Y25399D01*
X292099Y25399D01*
G37*
%LPD*%
%LPC*%
G36*
X25399Y25399D02*
X25399Y25399D01*
X25399Y26416D01*
X25391Y26471D01*
X25392Y26513D01*
X25392Y26515D01*
X25392Y26532D01*
X25371Y26614D01*
X25359Y26697D01*
X25335Y26751D01*
X25321Y26807D01*
X25278Y26880D01*
X25243Y26957D01*
X25205Y27002D01*
X25175Y27052D01*
X25114Y27110D01*
X25059Y27174D01*
X25011Y27206D01*
X24968Y27246D01*
X24893Y27285D01*
X24823Y27331D01*
X24767Y27349D01*
X24715Y27376D01*
X24647Y27387D01*
X24552Y27417D01*
X24452Y27420D01*
X24384Y27431D01*
X12064Y27431D01*
X12064Y30924D01*
X19241Y38101D01*
X19276Y38147D01*
X19319Y38188D01*
X19361Y38260D01*
X19412Y38328D01*
X19433Y38382D01*
X19462Y38433D01*
X19483Y38514D01*
X19513Y38593D01*
X19518Y38652D01*
X19532Y38708D01*
X19530Y38793D01*
X19537Y38877D01*
X19525Y38934D01*
X19523Y38992D01*
X19497Y39073D01*
X19481Y39155D01*
X19454Y39207D01*
X19436Y39263D01*
X19396Y39319D01*
X19350Y39408D01*
X19281Y39480D01*
X19241Y39536D01*
X13080Y45697D01*
X13080Y55903D01*
X19959Y62782D01*
X19995Y62829D01*
X20037Y62869D01*
X20080Y62942D01*
X20130Y63009D01*
X20151Y63064D01*
X20181Y63114D01*
X20201Y63196D01*
X20232Y63275D01*
X20236Y63333D01*
X20251Y63390D01*
X20248Y63474D01*
X20255Y63558D01*
X20244Y63616D01*
X20242Y63674D01*
X20216Y63754D01*
X20199Y63837D01*
X20172Y63889D01*
X20154Y63945D01*
X20114Y64001D01*
X20068Y64089D01*
X19999Y64162D01*
X19959Y64218D01*
X13080Y71097D01*
X13080Y81303D01*
X20297Y88520D01*
X30503Y88520D01*
X37720Y81303D01*
X37720Y71097D01*
X30841Y64218D01*
X30806Y64171D01*
X30763Y64131D01*
X30720Y64058D01*
X30670Y63991D01*
X30649Y63936D01*
X30619Y63886D01*
X30599Y63804D01*
X30568Y63725D01*
X30564Y63667D01*
X30549Y63610D01*
X30552Y63526D01*
X30545Y63442D01*
X30556Y63384D01*
X30558Y63326D01*
X30584Y63246D01*
X30601Y63163D01*
X30628Y63111D01*
X30646Y63055D01*
X30686Y62999D01*
X30732Y62911D01*
X30801Y62838D01*
X30841Y62782D01*
X37720Y55903D01*
X37720Y45697D01*
X31559Y39536D01*
X31524Y39490D01*
X31481Y39449D01*
X31439Y39377D01*
X31388Y39309D01*
X31367Y39254D01*
X31338Y39204D01*
X31317Y39122D01*
X31287Y39043D01*
X31282Y38985D01*
X31268Y38929D01*
X31270Y38844D01*
X31263Y38760D01*
X31275Y38703D01*
X31277Y38644D01*
X31303Y38564D01*
X31319Y38481D01*
X31346Y38430D01*
X31364Y38374D01*
X31404Y38318D01*
X31450Y38229D01*
X31519Y38157D01*
X31559Y38101D01*
X38736Y30924D01*
X38736Y27431D01*
X26416Y27431D01*
X26358Y27423D01*
X26300Y27425D01*
X26218Y27403D01*
X26135Y27391D01*
X26081Y27367D01*
X26025Y27353D01*
X25952Y27310D01*
X25875Y27275D01*
X25831Y27237D01*
X25780Y27207D01*
X25723Y27146D01*
X25658Y27091D01*
X25626Y27043D01*
X25586Y27000D01*
X25547Y26925D01*
X25501Y26855D01*
X25483Y26799D01*
X25456Y26747D01*
X25445Y26679D01*
X25415Y26584D01*
X25412Y26484D01*
X25401Y26416D01*
X25401Y25399D01*
X25399Y25399D01*
G37*
%LPD*%
%LPC*%
G36*
X210797Y13080D02*
X210797Y13080D01*
X203580Y20297D01*
X203580Y30503D01*
X210797Y37720D01*
X221003Y37720D01*
X228220Y30503D01*
X228220Y20297D01*
X221003Y13080D01*
X210797Y13080D01*
G37*
%LPD*%
%LPC*%
G36*
X172697Y13080D02*
X172697Y13080D01*
X165480Y20297D01*
X165480Y30503D01*
X172697Y37720D01*
X182903Y37720D01*
X190120Y30503D01*
X190120Y20297D01*
X182903Y13080D01*
X172697Y13080D01*
G37*
%LPD*%
%LPC*%
G36*
X96497Y13080D02*
X96497Y13080D01*
X89280Y20297D01*
X89280Y30503D01*
X96497Y37720D01*
X106703Y37720D01*
X113920Y30503D01*
X113920Y20297D01*
X106703Y13080D01*
X96497Y13080D01*
G37*
%LPD*%
%LPC*%
G36*
X208727Y255775D02*
X208727Y255775D01*
X204858Y257378D01*
X201898Y260338D01*
X200295Y264207D01*
X200295Y268393D01*
X201898Y272262D01*
X204858Y275222D01*
X208727Y276825D01*
X212913Y276825D01*
X216782Y275222D01*
X219742Y272262D01*
X221345Y268393D01*
X221345Y264207D01*
X219742Y260338D01*
X216782Y257378D01*
X212913Y255775D01*
X208727Y255775D01*
G37*
%LPD*%
%LPC*%
G36*
X208727Y230775D02*
X208727Y230775D01*
X204858Y232378D01*
X201898Y235338D01*
X200295Y239207D01*
X200295Y243393D01*
X201898Y247262D01*
X204858Y250222D01*
X208727Y251825D01*
X212913Y251825D01*
X216782Y250222D01*
X219742Y247262D01*
X221345Y243393D01*
X221345Y239207D01*
X219742Y235338D01*
X216782Y232378D01*
X212913Y230775D01*
X208727Y230775D01*
G37*
%LPD*%
%LPC*%
G36*
X208727Y205775D02*
X208727Y205775D01*
X204858Y207378D01*
X201898Y210338D01*
X200295Y214207D01*
X200295Y218393D01*
X201898Y222262D01*
X204858Y225222D01*
X208727Y226825D01*
X212913Y226825D01*
X216782Y225222D01*
X219742Y222262D01*
X221345Y218393D01*
X221345Y214207D01*
X219742Y210338D01*
X216782Y207378D01*
X212913Y205775D01*
X208727Y205775D01*
G37*
%LPD*%
%LPC*%
G36*
X141731Y27431D02*
X141731Y27431D01*
X141731Y38736D01*
X145224Y38736D01*
X153036Y30924D01*
X153036Y27431D01*
X141731Y27431D01*
G37*
%LPD*%
%LPC*%
G36*
X126364Y27431D02*
X126364Y27431D01*
X126364Y30924D01*
X134176Y38736D01*
X137669Y38736D01*
X137669Y27431D01*
X126364Y27431D01*
G37*
%LPD*%
%LPC*%
G36*
X141731Y12064D02*
X141731Y12064D01*
X141731Y23369D01*
X153036Y23369D01*
X153036Y19876D01*
X145224Y12064D01*
X141731Y12064D01*
G37*
%LPD*%
%LPC*%
G36*
X27431Y100964D02*
X27431Y100964D01*
X27431Y112269D01*
X38736Y112269D01*
X38736Y108776D01*
X30924Y100964D01*
X27431Y100964D01*
G37*
%LPD*%
%LPC*%
G36*
X294131Y100964D02*
X294131Y100964D01*
X294131Y112269D01*
X305436Y112269D01*
X305436Y108776D01*
X297624Y100964D01*
X294131Y100964D01*
G37*
%LPD*%
%LPC*%
G36*
X27431Y278764D02*
X27431Y278764D01*
X27431Y290069D01*
X38736Y290069D01*
X38736Y286576D01*
X30924Y278764D01*
X27431Y278764D01*
G37*
%LPD*%
%LPC*%
G36*
X294131Y278764D02*
X294131Y278764D01*
X294131Y290069D01*
X305436Y290069D01*
X305436Y286576D01*
X297624Y278764D01*
X294131Y278764D01*
G37*
%LPD*%
%LPC*%
G36*
X294131Y189864D02*
X294131Y189864D01*
X294131Y201169D01*
X305436Y201169D01*
X305436Y197676D01*
X297624Y189864D01*
X294131Y189864D01*
G37*
%LPD*%
%LPC*%
G36*
X27431Y189864D02*
X27431Y189864D01*
X27431Y201169D01*
X38736Y201169D01*
X38736Y197676D01*
X30924Y189864D01*
X27431Y189864D01*
G37*
%LPD*%
%LPC*%
G36*
X294131Y12064D02*
X294131Y12064D01*
X294131Y23369D01*
X305436Y23369D01*
X305436Y19876D01*
X297624Y12064D01*
X294131Y12064D01*
G37*
%LPD*%
%LPC*%
G36*
X27431Y12064D02*
X27431Y12064D01*
X27431Y23369D01*
X38736Y23369D01*
X38736Y19876D01*
X30924Y12064D01*
X27431Y12064D01*
G37*
%LPD*%
%LPC*%
G36*
X286576Y189864D02*
X286576Y189864D01*
X278764Y197676D01*
X278764Y201169D01*
X290069Y201169D01*
X290069Y189864D01*
X286576Y189864D01*
G37*
%LPD*%
%LPC*%
G36*
X286576Y100964D02*
X286576Y100964D01*
X278764Y108776D01*
X278764Y112269D01*
X290069Y112269D01*
X290069Y100964D01*
X286576Y100964D01*
G37*
%LPD*%
%LPC*%
G36*
X19876Y100964D02*
X19876Y100964D01*
X12064Y108776D01*
X12064Y112269D01*
X23369Y112269D01*
X23369Y100964D01*
X19876Y100964D01*
G37*
%LPD*%
%LPC*%
G36*
X286576Y278764D02*
X286576Y278764D01*
X278764Y286576D01*
X278764Y290069D01*
X290069Y290069D01*
X290069Y278764D01*
X286576Y278764D01*
G37*
%LPD*%
%LPC*%
G36*
X286576Y12064D02*
X286576Y12064D01*
X278764Y19876D01*
X278764Y23369D01*
X290069Y23369D01*
X290069Y12064D01*
X286576Y12064D01*
G37*
%LPD*%
%LPC*%
G36*
X19876Y278764D02*
X19876Y278764D01*
X12064Y286576D01*
X12064Y290069D01*
X23369Y290069D01*
X23369Y278764D01*
X19876Y278764D01*
G37*
%LPD*%
%LPC*%
G36*
X19876Y189864D02*
X19876Y189864D01*
X12064Y197676D01*
X12064Y201169D01*
X23369Y201169D01*
X23369Y189864D01*
X19876Y189864D01*
G37*
%LPD*%
%LPC*%
G36*
X19876Y12064D02*
X19876Y12064D01*
X12064Y19876D01*
X12064Y23369D01*
X23369Y23369D01*
X23369Y12064D01*
X19876Y12064D01*
G37*
%LPD*%
%LPC*%
G36*
X134176Y12064D02*
X134176Y12064D01*
X126364Y19876D01*
X126364Y23369D01*
X137669Y23369D01*
X137669Y12064D01*
X134176Y12064D01*
G37*
%LPD*%
%LPC*%
G36*
X49999Y337899D02*
X49999Y337899D01*
X47069Y340829D01*
X47069Y344971D01*
X49999Y347901D01*
X54141Y347901D01*
X57071Y344971D01*
X57071Y340829D01*
X54141Y337899D01*
X49999Y337899D01*
G37*
%LPD*%
%LPC*%
G36*
X263359Y337899D02*
X263359Y337899D01*
X260429Y340829D01*
X260429Y344971D01*
X263359Y347901D01*
X267501Y347901D01*
X270431Y344971D01*
X270431Y340829D01*
X267501Y337899D01*
X263359Y337899D01*
G37*
%LPD*%
%LPC*%
G36*
X263359Y20399D02*
X263359Y20399D01*
X260429Y23329D01*
X260429Y27471D01*
X263359Y30401D01*
X267501Y30401D01*
X270431Y27471D01*
X270431Y23329D01*
X267501Y20399D01*
X263359Y20399D01*
G37*
%LPD*%
%LPC*%
G36*
X49999Y20399D02*
X49999Y20399D01*
X47069Y23329D01*
X47069Y27471D01*
X49999Y30401D01*
X54141Y30401D01*
X57071Y27471D01*
X57071Y23329D01*
X54141Y20399D01*
X49999Y20399D01*
G37*
%LPD*%
%LPC*%
G36*
X139699Y25399D02*
X139699Y25399D01*
X139699Y25401D01*
X139701Y25401D01*
X139701Y25399D01*
X139699Y25399D01*
G37*
%LPD*%
D10*
X25400Y50800D03*
X25400Y139700D03*
X25400Y228600D03*
X25400Y317500D03*
D11*
X292100Y317500D03*
X292100Y228600D03*
X292100Y139700D03*
X292100Y50800D03*
D10*
X25400Y76200D03*
X25400Y165100D03*
X25400Y254000D03*
X25400Y342900D03*
D11*
X292100Y342900D03*
X292100Y254000D03*
X292100Y165100D03*
X292100Y76200D03*
D10*
X25400Y25400D03*
X25400Y114300D03*
X25400Y203200D03*
X25400Y292100D03*
D11*
X292100Y292100D03*
X292100Y203200D03*
X292100Y114300D03*
X292100Y25400D03*
D12*
X101600Y25400D03*
X139700Y25400D03*
X215900Y25400D03*
X177800Y25400D03*
D13*
X210820Y266300D03*
X210820Y241300D03*
X210820Y216300D03*
D14*
X210820Y149860D03*
X74930Y284480D03*
X146050Y207010D03*
X147320Y246380D03*
X227330Y43180D03*
X148590Y345440D03*
X139700Y157480D03*
X135890Y207010D03*
D15*
X139700Y203200D01*
X139700Y157480D01*
D14*
X157480Y295910D03*
D16*
X148590Y304800D02*
X148590Y345440D01*
X148590Y304800D02*
X157480Y295910D01*
X157480Y228600D01*
X135890Y207010D01*
M02*
