G04 EAGLE Gerber X2 export*
%TF.Part,Single*%
%TF.FileFunction,Copper,L1,Top,Mixed*%
%TF.FilePolarity,Positive*%
%TF.GenerationSoftware,Autodesk,EAGLE,8.7.0*%
%TF.CreationDate,2018-03-20T01:19:31Z*%
G75*
%MOMM*%
%FSLAX34Y34*%
%LPD*%
%AMOC8*
5,1,8,0,0,1.08239X$1,22.5*%
G01*
%ADD10C,0.102500*%
%ADD11P,2.336880X8X112.500000*%
%ADD12P,2.336880X8X292.500000*%
%ADD13R,1.000000X1.100000*%
%ADD14R,1.100000X1.000000*%
%ADD15P,2.336880X8X22.500000*%
%ADD16R,0.400000X1.190000*%
%ADD17C,1.800000*%
%ADD18R,1.400000X1.000000*%
%ADD19C,0.203200*%
%ADD20C,0.304800*%
%ADD21C,0.756400*%


D10*
X127378Y274548D02*
X127378Y259872D01*
X124302Y259872D01*
X124302Y274548D01*
X127378Y274548D01*
X127378Y260896D02*
X124302Y260896D01*
X124302Y261920D02*
X127378Y261920D01*
X127378Y262944D02*
X124302Y262944D01*
X124302Y263968D02*
X127378Y263968D01*
X127378Y264992D02*
X124302Y264992D01*
X124302Y266016D02*
X127378Y266016D01*
X127378Y267040D02*
X124302Y267040D01*
X124302Y268064D02*
X127378Y268064D01*
X127378Y269088D02*
X124302Y269088D01*
X124302Y270112D02*
X127378Y270112D01*
X127378Y271136D02*
X124302Y271136D01*
X124302Y272160D02*
X127378Y272160D01*
X127378Y273184D02*
X124302Y273184D01*
X124302Y274208D02*
X127378Y274208D01*
X133878Y274548D02*
X133878Y259872D01*
X130802Y259872D01*
X130802Y274548D01*
X133878Y274548D01*
X133878Y260896D02*
X130802Y260896D01*
X130802Y261920D02*
X133878Y261920D01*
X133878Y262944D02*
X130802Y262944D01*
X130802Y263968D02*
X133878Y263968D01*
X133878Y264992D02*
X130802Y264992D01*
X130802Y266016D02*
X133878Y266016D01*
X133878Y267040D02*
X130802Y267040D01*
X130802Y268064D02*
X133878Y268064D01*
X133878Y269088D02*
X130802Y269088D01*
X130802Y270112D02*
X133878Y270112D01*
X133878Y271136D02*
X130802Y271136D01*
X130802Y272160D02*
X133878Y272160D01*
X133878Y273184D02*
X130802Y273184D01*
X130802Y274208D02*
X133878Y274208D01*
X140378Y274548D02*
X140378Y259872D01*
X137302Y259872D01*
X137302Y274548D01*
X140378Y274548D01*
X140378Y260896D02*
X137302Y260896D01*
X137302Y261920D02*
X140378Y261920D01*
X140378Y262944D02*
X137302Y262944D01*
X137302Y263968D02*
X140378Y263968D01*
X140378Y264992D02*
X137302Y264992D01*
X137302Y266016D02*
X140378Y266016D01*
X140378Y267040D02*
X137302Y267040D01*
X137302Y268064D02*
X140378Y268064D01*
X140378Y269088D02*
X137302Y269088D01*
X137302Y270112D02*
X140378Y270112D01*
X140378Y271136D02*
X137302Y271136D01*
X137302Y272160D02*
X140378Y272160D01*
X140378Y273184D02*
X137302Y273184D01*
X137302Y274208D02*
X140378Y274208D01*
X146878Y274548D02*
X146878Y259872D01*
X143802Y259872D01*
X143802Y274548D01*
X146878Y274548D01*
X146878Y260896D02*
X143802Y260896D01*
X143802Y261920D02*
X146878Y261920D01*
X146878Y262944D02*
X143802Y262944D01*
X143802Y263968D02*
X146878Y263968D01*
X146878Y264992D02*
X143802Y264992D01*
X143802Y266016D02*
X146878Y266016D01*
X146878Y267040D02*
X143802Y267040D01*
X143802Y268064D02*
X146878Y268064D01*
X146878Y269088D02*
X143802Y269088D01*
X143802Y270112D02*
X146878Y270112D01*
X146878Y271136D02*
X143802Y271136D01*
X143802Y272160D02*
X146878Y272160D01*
X146878Y273184D02*
X143802Y273184D01*
X143802Y274208D02*
X146878Y274208D01*
X153378Y274548D02*
X153378Y259872D01*
X150302Y259872D01*
X150302Y274548D01*
X153378Y274548D01*
X153378Y260896D02*
X150302Y260896D01*
X150302Y261920D02*
X153378Y261920D01*
X153378Y262944D02*
X150302Y262944D01*
X150302Y263968D02*
X153378Y263968D01*
X153378Y264992D02*
X150302Y264992D01*
X150302Y266016D02*
X153378Y266016D01*
X153378Y267040D02*
X150302Y267040D01*
X150302Y268064D02*
X153378Y268064D01*
X153378Y269088D02*
X150302Y269088D01*
X150302Y270112D02*
X153378Y270112D01*
X153378Y271136D02*
X150302Y271136D01*
X150302Y272160D02*
X153378Y272160D01*
X153378Y273184D02*
X150302Y273184D01*
X150302Y274208D02*
X153378Y274208D01*
X159878Y274548D02*
X159878Y259872D01*
X156802Y259872D01*
X156802Y274548D01*
X159878Y274548D01*
X159878Y260896D02*
X156802Y260896D01*
X156802Y261920D02*
X159878Y261920D01*
X159878Y262944D02*
X156802Y262944D01*
X156802Y263968D02*
X159878Y263968D01*
X159878Y264992D02*
X156802Y264992D01*
X156802Y266016D02*
X159878Y266016D01*
X159878Y267040D02*
X156802Y267040D01*
X156802Y268064D02*
X159878Y268064D01*
X159878Y269088D02*
X156802Y269088D01*
X156802Y270112D02*
X159878Y270112D01*
X159878Y271136D02*
X156802Y271136D01*
X156802Y272160D02*
X159878Y272160D01*
X159878Y273184D02*
X156802Y273184D01*
X156802Y274208D02*
X159878Y274208D01*
X166378Y274548D02*
X166378Y259872D01*
X163302Y259872D01*
X163302Y274548D01*
X166378Y274548D01*
X166378Y260896D02*
X163302Y260896D01*
X163302Y261920D02*
X166378Y261920D01*
X166378Y262944D02*
X163302Y262944D01*
X163302Y263968D02*
X166378Y263968D01*
X166378Y264992D02*
X163302Y264992D01*
X163302Y266016D02*
X166378Y266016D01*
X166378Y267040D02*
X163302Y267040D01*
X163302Y268064D02*
X166378Y268064D01*
X166378Y269088D02*
X163302Y269088D01*
X163302Y270112D02*
X166378Y270112D01*
X166378Y271136D02*
X163302Y271136D01*
X163302Y272160D02*
X166378Y272160D01*
X166378Y273184D02*
X163302Y273184D01*
X163302Y274208D02*
X166378Y274208D01*
X172878Y274548D02*
X172878Y259872D01*
X169802Y259872D01*
X169802Y274548D01*
X172878Y274548D01*
X172878Y260896D02*
X169802Y260896D01*
X169802Y261920D02*
X172878Y261920D01*
X172878Y262944D02*
X169802Y262944D01*
X169802Y263968D02*
X172878Y263968D01*
X172878Y264992D02*
X169802Y264992D01*
X169802Y266016D02*
X172878Y266016D01*
X172878Y267040D02*
X169802Y267040D01*
X169802Y268064D02*
X172878Y268064D01*
X172878Y269088D02*
X169802Y269088D01*
X169802Y270112D02*
X172878Y270112D01*
X172878Y271136D02*
X169802Y271136D01*
X169802Y272160D02*
X172878Y272160D01*
X172878Y273184D02*
X169802Y273184D01*
X169802Y274208D02*
X172878Y274208D01*
X172878Y317272D02*
X172878Y331948D01*
X172878Y317272D02*
X169802Y317272D01*
X169802Y331948D01*
X172878Y331948D01*
X172878Y318296D02*
X169802Y318296D01*
X169802Y319320D02*
X172878Y319320D01*
X172878Y320344D02*
X169802Y320344D01*
X169802Y321368D02*
X172878Y321368D01*
X172878Y322392D02*
X169802Y322392D01*
X169802Y323416D02*
X172878Y323416D01*
X172878Y324440D02*
X169802Y324440D01*
X169802Y325464D02*
X172878Y325464D01*
X172878Y326488D02*
X169802Y326488D01*
X169802Y327512D02*
X172878Y327512D01*
X172878Y328536D02*
X169802Y328536D01*
X169802Y329560D02*
X172878Y329560D01*
X172878Y330584D02*
X169802Y330584D01*
X169802Y331608D02*
X172878Y331608D01*
X166378Y331948D02*
X166378Y317272D01*
X163302Y317272D01*
X163302Y331948D01*
X166378Y331948D01*
X166378Y318296D02*
X163302Y318296D01*
X163302Y319320D02*
X166378Y319320D01*
X166378Y320344D02*
X163302Y320344D01*
X163302Y321368D02*
X166378Y321368D01*
X166378Y322392D02*
X163302Y322392D01*
X163302Y323416D02*
X166378Y323416D01*
X166378Y324440D02*
X163302Y324440D01*
X163302Y325464D02*
X166378Y325464D01*
X166378Y326488D02*
X163302Y326488D01*
X163302Y327512D02*
X166378Y327512D01*
X166378Y328536D02*
X163302Y328536D01*
X163302Y329560D02*
X166378Y329560D01*
X166378Y330584D02*
X163302Y330584D01*
X163302Y331608D02*
X166378Y331608D01*
X159878Y331948D02*
X159878Y317272D01*
X156802Y317272D01*
X156802Y331948D01*
X159878Y331948D01*
X159878Y318296D02*
X156802Y318296D01*
X156802Y319320D02*
X159878Y319320D01*
X159878Y320344D02*
X156802Y320344D01*
X156802Y321368D02*
X159878Y321368D01*
X159878Y322392D02*
X156802Y322392D01*
X156802Y323416D02*
X159878Y323416D01*
X159878Y324440D02*
X156802Y324440D01*
X156802Y325464D02*
X159878Y325464D01*
X159878Y326488D02*
X156802Y326488D01*
X156802Y327512D02*
X159878Y327512D01*
X159878Y328536D02*
X156802Y328536D01*
X156802Y329560D02*
X159878Y329560D01*
X159878Y330584D02*
X156802Y330584D01*
X156802Y331608D02*
X159878Y331608D01*
X153378Y331948D02*
X153378Y317272D01*
X150302Y317272D01*
X150302Y331948D01*
X153378Y331948D01*
X153378Y318296D02*
X150302Y318296D01*
X150302Y319320D02*
X153378Y319320D01*
X153378Y320344D02*
X150302Y320344D01*
X150302Y321368D02*
X153378Y321368D01*
X153378Y322392D02*
X150302Y322392D01*
X150302Y323416D02*
X153378Y323416D01*
X153378Y324440D02*
X150302Y324440D01*
X150302Y325464D02*
X153378Y325464D01*
X153378Y326488D02*
X150302Y326488D01*
X150302Y327512D02*
X153378Y327512D01*
X153378Y328536D02*
X150302Y328536D01*
X150302Y329560D02*
X153378Y329560D01*
X153378Y330584D02*
X150302Y330584D01*
X150302Y331608D02*
X153378Y331608D01*
X146878Y331948D02*
X146878Y317272D01*
X143802Y317272D01*
X143802Y331948D01*
X146878Y331948D01*
X146878Y318296D02*
X143802Y318296D01*
X143802Y319320D02*
X146878Y319320D01*
X146878Y320344D02*
X143802Y320344D01*
X143802Y321368D02*
X146878Y321368D01*
X146878Y322392D02*
X143802Y322392D01*
X143802Y323416D02*
X146878Y323416D01*
X146878Y324440D02*
X143802Y324440D01*
X143802Y325464D02*
X146878Y325464D01*
X146878Y326488D02*
X143802Y326488D01*
X143802Y327512D02*
X146878Y327512D01*
X146878Y328536D02*
X143802Y328536D01*
X143802Y329560D02*
X146878Y329560D01*
X146878Y330584D02*
X143802Y330584D01*
X143802Y331608D02*
X146878Y331608D01*
X140378Y331948D02*
X140378Y317272D01*
X137302Y317272D01*
X137302Y331948D01*
X140378Y331948D01*
X140378Y318296D02*
X137302Y318296D01*
X137302Y319320D02*
X140378Y319320D01*
X140378Y320344D02*
X137302Y320344D01*
X137302Y321368D02*
X140378Y321368D01*
X140378Y322392D02*
X137302Y322392D01*
X137302Y323416D02*
X140378Y323416D01*
X140378Y324440D02*
X137302Y324440D01*
X137302Y325464D02*
X140378Y325464D01*
X140378Y326488D02*
X137302Y326488D01*
X137302Y327512D02*
X140378Y327512D01*
X140378Y328536D02*
X137302Y328536D01*
X137302Y329560D02*
X140378Y329560D01*
X140378Y330584D02*
X137302Y330584D01*
X137302Y331608D02*
X140378Y331608D01*
X133878Y331948D02*
X133878Y317272D01*
X130802Y317272D01*
X130802Y331948D01*
X133878Y331948D01*
X133878Y318296D02*
X130802Y318296D01*
X130802Y319320D02*
X133878Y319320D01*
X133878Y320344D02*
X130802Y320344D01*
X130802Y321368D02*
X133878Y321368D01*
X133878Y322392D02*
X130802Y322392D01*
X130802Y323416D02*
X133878Y323416D01*
X133878Y324440D02*
X130802Y324440D01*
X130802Y325464D02*
X133878Y325464D01*
X133878Y326488D02*
X130802Y326488D01*
X130802Y327512D02*
X133878Y327512D01*
X133878Y328536D02*
X130802Y328536D01*
X130802Y329560D02*
X133878Y329560D01*
X133878Y330584D02*
X130802Y330584D01*
X130802Y331608D02*
X133878Y331608D01*
X127378Y331948D02*
X127378Y317272D01*
X124302Y317272D01*
X124302Y331948D01*
X127378Y331948D01*
X127378Y318296D02*
X124302Y318296D01*
X124302Y319320D02*
X127378Y319320D01*
X127378Y320344D02*
X124302Y320344D01*
X124302Y321368D02*
X127378Y321368D01*
X127378Y322392D02*
X124302Y322392D01*
X124302Y323416D02*
X127378Y323416D01*
X127378Y324440D02*
X124302Y324440D01*
X124302Y325464D02*
X127378Y325464D01*
X127378Y326488D02*
X124302Y326488D01*
X124302Y327512D02*
X127378Y327512D01*
X127378Y328536D02*
X124302Y328536D01*
X124302Y329560D02*
X127378Y329560D01*
X127378Y330584D02*
X124302Y330584D01*
X124302Y331608D02*
X127378Y331608D01*
D11*
X25400Y50800D03*
X25400Y139700D03*
X25400Y228600D03*
X25400Y317500D03*
D12*
X292100Y317500D03*
X292100Y228600D03*
X292100Y139700D03*
X292100Y50800D03*
D13*
X131690Y194310D03*
X114690Y194310D03*
X169790Y194310D03*
X152790Y194310D03*
X131690Y219710D03*
X114690Y219710D03*
X169790Y219710D03*
X152790Y219710D03*
D14*
X105020Y308610D03*
X88020Y308610D03*
X105020Y284480D03*
X88020Y284480D03*
D11*
X25400Y76200D03*
X25400Y165100D03*
X25400Y254000D03*
X25400Y342900D03*
D12*
X292100Y342900D03*
X292100Y254000D03*
X292100Y165100D03*
X292100Y76200D03*
D11*
X25400Y25400D03*
X25400Y114300D03*
X25400Y203200D03*
X25400Y292100D03*
D12*
X292100Y292100D03*
X292100Y203200D03*
X292100Y114300D03*
X292100Y25400D03*
D15*
X101600Y25400D03*
X139700Y25400D03*
D13*
X148980Y93980D03*
X165980Y93980D03*
X104530Y93980D03*
X121530Y93980D03*
D15*
X215900Y25400D03*
X177800Y25400D03*
D16*
X227480Y118820D03*
X220980Y118820D03*
X214480Y118820D03*
X214480Y99620D03*
X227480Y99620D03*
D14*
X228210Y138430D03*
X211210Y138430D03*
D17*
X210820Y266300D03*
X210820Y241300D03*
X210820Y216300D03*
D13*
X154060Y157480D03*
X171060Y157480D03*
X121530Y157480D03*
X104530Y157480D03*
D18*
X171020Y125730D03*
X149020Y116230D03*
X149020Y135230D03*
X126570Y125730D03*
X104570Y116230D03*
X104570Y135230D03*
D13*
X227330Y72000D03*
X227330Y55000D03*
D19*
X210820Y138040D02*
X211210Y138430D01*
X220980Y128660D02*
X220980Y118820D01*
X220980Y128660D02*
X211210Y138430D01*
D20*
X88020Y284480D02*
X88020Y308610D01*
D19*
X169790Y219710D02*
X169790Y207010D01*
D21*
X210820Y149860D03*
D19*
X169790Y194310D02*
X169790Y207010D01*
X211210Y149470D02*
X211210Y138430D01*
X211210Y149470D02*
X210820Y149860D01*
D21*
X74930Y284480D03*
D20*
X88020Y284480D01*
D21*
X146050Y207010D03*
D19*
X169790Y207010D01*
D21*
X147320Y246380D03*
D20*
X145340Y248360D02*
X145340Y267210D01*
X145340Y248360D02*
X147320Y246380D01*
D21*
X227330Y43180D03*
D19*
X227330Y55000D01*
X114690Y219710D02*
X113420Y220980D01*
X114690Y219710D02*
X114690Y207010D01*
X114690Y194310D01*
X114690Y219710D02*
X114690Y223910D01*
D20*
X292100Y342900D02*
X309880Y325120D01*
D21*
X148590Y345440D03*
D20*
X105020Y308610D02*
X105020Y284480D01*
X125730Y284480D02*
X146050Y284480D01*
X125730Y284480D02*
X105020Y284480D01*
X151840Y278690D02*
X151840Y267210D01*
X151840Y278690D02*
X146050Y284480D01*
X125840Y284370D02*
X125840Y267210D01*
X125840Y284370D02*
X125730Y284480D01*
X168910Y295910D02*
X194310Y270510D01*
X194310Y246380D01*
X199390Y241300D01*
X210820Y241300D01*
X133350Y360680D02*
X17780Y360680D01*
X133350Y360680D02*
X148590Y345440D01*
X101600Y5080D02*
X17780Y5080D01*
X101600Y5080D02*
X299720Y5080D01*
X101600Y5080D02*
X101600Y25400D01*
D21*
X139700Y157480D03*
X135890Y207010D03*
D19*
X114690Y207010D01*
X139700Y157480D02*
X154060Y157480D01*
X139700Y157480D02*
X121530Y157480D01*
D20*
X6350Y16510D02*
X17780Y5080D01*
X6350Y16510D02*
X6350Y76200D01*
X6350Y165100D01*
X6350Y254000D01*
X6350Y342900D01*
X6350Y349250D01*
X17780Y360680D01*
X25400Y76200D02*
X6350Y76200D01*
X6350Y165100D02*
X25400Y165100D01*
X25400Y254000D02*
X6350Y254000D01*
X6350Y342900D02*
X25400Y342900D01*
X309880Y76200D02*
X309880Y15240D01*
X309880Y76200D02*
X309880Y165100D01*
X309880Y254000D01*
X309880Y325120D01*
X309880Y15240D02*
X299720Y5080D01*
X292100Y76200D02*
X309880Y76200D01*
X309880Y165100D02*
X292100Y165100D01*
X292100Y254000D02*
X309880Y254000D01*
D21*
X157480Y295910D03*
D20*
X168910Y295910D01*
X157480Y295910D02*
X144780Y308610D01*
X105020Y308610D01*
D19*
X142240Y194310D02*
X152790Y194310D01*
X142240Y194310D02*
X131690Y194310D01*
X171340Y240140D02*
X171340Y267210D01*
X171340Y240140D02*
X179070Y232410D01*
X142240Y186690D02*
X146050Y182880D01*
X175260Y182880D01*
X179070Y186690D01*
X179070Y232410D01*
X142240Y194310D02*
X142240Y186690D01*
X142240Y219710D02*
X152790Y219710D01*
X142240Y219710D02*
X131690Y219710D01*
X165100Y266950D02*
X164840Y267210D01*
X142240Y229870D02*
X142240Y219710D01*
X164840Y241040D02*
X164840Y267210D01*
X158750Y234950D02*
X147320Y234950D01*
X142240Y229870D01*
X158750Y234950D02*
X164840Y241040D01*
X126610Y125770D02*
X126570Y125730D01*
X100584Y231343D02*
X106477Y237236D01*
X100584Y231343D02*
X100584Y161426D01*
X106477Y237236D02*
X128016Y237236D01*
X132340Y241560D01*
X132340Y267210D01*
X126570Y140130D02*
X126570Y125730D01*
X121920Y144780D02*
X110490Y144780D01*
X104530Y150740D01*
X104530Y157480D01*
X121920Y144780D02*
X126570Y140130D01*
X104530Y157480D02*
X100584Y161426D01*
X145340Y324610D02*
X145340Y337260D01*
X132842Y349758D01*
X84481Y349758D02*
X52223Y317500D01*
X25400Y317500D01*
X84481Y349758D02*
X132842Y349758D01*
X261620Y228600D02*
X292100Y228600D01*
X261620Y228600D02*
X249682Y240538D01*
X158340Y324610D02*
X158340Y337410D01*
X167132Y346202D01*
X223926Y346202D02*
X249682Y320446D01*
X223926Y346202D02*
X167132Y346202D01*
X249682Y320446D02*
X249682Y240538D01*
X266700Y50800D02*
X292100Y50800D01*
X171340Y324610D02*
X171340Y336440D01*
X173990Y339090D01*
X242570Y74930D02*
X266700Y50800D01*
X242570Y74930D02*
X242570Y317500D01*
X220980Y339090D01*
X173990Y339090D01*
X258826Y139700D02*
X292100Y139700D01*
X258826Y139700D02*
X246126Y152400D01*
X164840Y324610D02*
X164840Y336290D01*
X171196Y342646D01*
X222453Y342646D02*
X246126Y318973D01*
X222453Y342646D02*
X171196Y342646D01*
X246126Y318973D02*
X246126Y152400D01*
X151840Y324610D02*
X151840Y337260D01*
X164338Y349758D01*
X225399Y349758D02*
X257657Y317500D01*
X292100Y317500D01*
X225399Y349758D02*
X164338Y349758D01*
X138840Y336140D02*
X138840Y324610D01*
X138840Y336140D02*
X128778Y346202D01*
X58166Y237490D02*
X49276Y228600D01*
X25400Y228600D01*
X58166Y318414D02*
X85954Y346202D01*
X58166Y318414D02*
X58166Y237490D01*
X85954Y346202D02*
X128778Y346202D01*
X54102Y139700D02*
X25400Y139700D01*
X54102Y139700D02*
X61722Y147320D01*
X132340Y324610D02*
X132340Y335020D01*
X124714Y342646D01*
X87427Y342646D02*
X61722Y316941D01*
X61722Y147320D01*
X87427Y342646D02*
X124714Y342646D01*
X50800Y50800D02*
X25400Y50800D01*
X125840Y324610D02*
X125840Y333900D01*
X120650Y339090D01*
X88900Y339090D01*
X65278Y65278D02*
X50800Y50800D01*
X65278Y315468D02*
X88900Y339090D01*
X65278Y315468D02*
X65278Y65278D01*
X171060Y125770D02*
X171060Y157480D01*
X171060Y125770D02*
X171020Y125730D01*
X171060Y157480D02*
X171060Y169300D01*
X161290Y179070D01*
X109220Y179070D01*
X104140Y184150D01*
X104140Y229870D01*
X107950Y233680D01*
X134620Y233680D01*
X138840Y237900D01*
X138840Y267210D01*
X148980Y116190D02*
X148980Y93980D01*
X148980Y116190D02*
X149020Y116230D01*
X215900Y63500D02*
X215900Y25400D01*
X215900Y63500D02*
X203200Y76200D01*
X152400Y76200D01*
X148980Y79620D01*
X148980Y93980D01*
X104570Y94020D02*
X104570Y116230D01*
X104570Y94020D02*
X104530Y93980D01*
X177800Y50800D02*
X177800Y25400D01*
X177800Y50800D02*
X165100Y63500D01*
X114300Y63500D01*
X104530Y73270D01*
X104530Y93980D01*
X149020Y131822D02*
X149020Y135230D01*
X149020Y131822D02*
X165980Y114862D01*
X165980Y105410D01*
X165980Y93980D01*
X104570Y131822D02*
X104570Y135230D01*
X104570Y131822D02*
X121530Y114862D01*
X121530Y93980D01*
X203170Y132378D02*
X203200Y132348D01*
X203200Y101600D01*
X203200Y88900D01*
X203170Y132378D02*
X203170Y152370D01*
X165980Y93980D02*
X165100Y93100D01*
X199390Y105410D02*
X203200Y101600D01*
X199390Y105410D02*
X165980Y105410D01*
X138430Y124640D02*
X149020Y135230D01*
X138430Y124640D02*
X138430Y119380D01*
X133912Y114862D01*
X121530Y114862D01*
X203170Y152370D02*
X210820Y160020D01*
X210820Y216300D01*
X227480Y72150D02*
X227330Y72000D01*
X227480Y72150D02*
X227480Y83820D01*
X227480Y99620D01*
X208280Y83820D02*
X203200Y88900D01*
X208280Y83820D02*
X227480Y83820D01*
X227480Y118820D02*
X227480Y137700D01*
X228210Y138430D01*
X214480Y118820D02*
X214480Y110640D01*
X215900Y109220D01*
X227480Y110640D02*
X227480Y118820D01*
X227480Y110640D02*
X226060Y109220D01*
X215900Y109220D01*
X228210Y138430D02*
X228600Y138820D01*
X228210Y138430D02*
X233680Y143900D01*
X233680Y243440D02*
X210820Y266300D01*
X233680Y243440D02*
X233680Y143900D01*
M02*
