G04 EAGLE Gerber X2 export*
%TF.Part,Single*%
%TF.FileFunction,Copper,L2,Bot,Mixed*%
%TF.FilePolarity,Positive*%
%TF.GenerationSoftware,Autodesk,EAGLE,9.0.0*%
%TF.CreationDate,2018-04-29T23:01:41Z*%
G75*
%MOMM*%
%FSLAX34Y34*%
%LPD*%
%AMOC8*
5,1,8,0,0,1.08239X$1,22.5*%
G01*
%ADD10C,1.950000*%
%ADD11P,2.336880X8X22.500000*%
%ADD12C,0.756400*%

G36*
X304858Y-1007D02*
X304858Y-1007D01*
X304916Y-1009D01*
X304998Y-987D01*
X305082Y-975D01*
X305135Y-952D01*
X305191Y-937D01*
X305264Y-894D01*
X305341Y-859D01*
X305386Y-821D01*
X305436Y-792D01*
X305494Y-730D01*
X305558Y-676D01*
X305590Y-627D01*
X305630Y-584D01*
X305669Y-509D01*
X305716Y-439D01*
X305733Y-383D01*
X305760Y-331D01*
X305771Y-263D01*
X305801Y-168D01*
X305804Y-68D01*
X305815Y0D01*
X305815Y203200D01*
X305807Y203258D01*
X305809Y203316D01*
X305787Y203398D01*
X305775Y203482D01*
X305752Y203535D01*
X305737Y203591D01*
X305694Y203664D01*
X305659Y203741D01*
X305621Y203786D01*
X305592Y203836D01*
X305530Y203894D01*
X305476Y203958D01*
X305427Y203990D01*
X305384Y204030D01*
X305309Y204069D01*
X305239Y204116D01*
X305183Y204133D01*
X305131Y204160D01*
X305063Y204171D01*
X304968Y204201D01*
X304868Y204204D01*
X304800Y204215D01*
X0Y204215D01*
X-58Y204207D01*
X-116Y204209D01*
X-198Y204187D01*
X-282Y204175D01*
X-335Y204152D01*
X-391Y204137D01*
X-464Y204094D01*
X-541Y204059D01*
X-586Y204021D01*
X-636Y203992D01*
X-694Y203930D01*
X-758Y203876D01*
X-790Y203827D01*
X-830Y203784D01*
X-869Y203709D01*
X-916Y203639D01*
X-933Y203583D01*
X-960Y203531D01*
X-971Y203463D01*
X-1001Y203368D01*
X-1004Y203268D01*
X-1015Y203200D01*
X-1015Y0D01*
X-1007Y-58D01*
X-1009Y-116D01*
X-987Y-198D01*
X-975Y-282D01*
X-952Y-335D01*
X-937Y-391D01*
X-894Y-464D01*
X-859Y-541D01*
X-821Y-586D01*
X-792Y-636D01*
X-730Y-694D01*
X-676Y-758D01*
X-627Y-790D01*
X-584Y-830D01*
X-509Y-869D01*
X-439Y-916D01*
X-383Y-933D01*
X-331Y-960D01*
X-263Y-971D01*
X-168Y-1001D01*
X-68Y-1004D01*
X0Y-1015D01*
X304800Y-1015D01*
X304858Y-1007D01*
G37*
%LPC*%
G36*
X263716Y1904D02*
X263716Y1904D01*
X256539Y9081D01*
X256493Y9116D01*
X256452Y9159D01*
X256380Y9201D01*
X256312Y9252D01*
X256258Y9273D01*
X256207Y9302D01*
X256126Y9323D01*
X256047Y9353D01*
X255988Y9358D01*
X255932Y9372D01*
X255847Y9370D01*
X255763Y9377D01*
X255706Y9365D01*
X255648Y9363D01*
X255567Y9337D01*
X255485Y9321D01*
X255433Y9294D01*
X255377Y9276D01*
X255321Y9236D01*
X255232Y9190D01*
X255160Y9121D01*
X255104Y9081D01*
X248943Y2920D01*
X238737Y2920D01*
X231858Y9799D01*
X231811Y9834D01*
X231771Y9877D01*
X231698Y9920D01*
X231631Y9970D01*
X231576Y9991D01*
X231526Y10021D01*
X231444Y10041D01*
X231365Y10072D01*
X231307Y10076D01*
X231250Y10091D01*
X231166Y10088D01*
X231082Y10095D01*
X231024Y10084D01*
X230966Y10082D01*
X230886Y10056D01*
X230803Y10039D01*
X230751Y10012D01*
X230695Y9994D01*
X230639Y9954D01*
X230551Y9908D01*
X230478Y9839D01*
X230422Y9799D01*
X223543Y2920D01*
X213337Y2920D01*
X206120Y10137D01*
X206120Y20343D01*
X213337Y27560D01*
X223543Y27560D01*
X230422Y20681D01*
X230469Y20645D01*
X230509Y20603D01*
X230582Y20560D01*
X230649Y20510D01*
X230704Y20489D01*
X230754Y20459D01*
X230836Y20439D01*
X230915Y20408D01*
X230973Y20404D01*
X231030Y20389D01*
X231114Y20392D01*
X231198Y20385D01*
X231256Y20396D01*
X231314Y20398D01*
X231394Y20424D01*
X231477Y20441D01*
X231529Y20468D01*
X231585Y20486D01*
X231641Y20526D01*
X231729Y20572D01*
X231802Y20641D01*
X231858Y20681D01*
X238737Y27560D01*
X248943Y27560D01*
X255104Y21399D01*
X255150Y21364D01*
X255191Y21321D01*
X255263Y21279D01*
X255331Y21228D01*
X255386Y21207D01*
X255436Y21178D01*
X255518Y21157D01*
X255597Y21127D01*
X255655Y21122D01*
X255711Y21108D01*
X255796Y21110D01*
X255880Y21103D01*
X255937Y21115D01*
X255996Y21117D01*
X256076Y21143D01*
X256159Y21159D01*
X256210Y21186D01*
X256266Y21204D01*
X256322Y21244D01*
X256411Y21290D01*
X256483Y21359D01*
X256539Y21399D01*
X263716Y28576D01*
X267209Y28576D01*
X267209Y16256D01*
X267217Y16198D01*
X267215Y16140D01*
X267237Y16058D01*
X267249Y15975D01*
X267273Y15921D01*
X267287Y15865D01*
X267330Y15792D01*
X267365Y15715D01*
X267403Y15671D01*
X267433Y15620D01*
X267494Y15563D01*
X267549Y15498D01*
X267597Y15466D01*
X267640Y15426D01*
X267715Y15387D01*
X267785Y15341D01*
X267841Y15323D01*
X267893Y15296D01*
X267961Y15285D01*
X268056Y15255D01*
X268156Y15252D01*
X268224Y15241D01*
X269241Y15241D01*
X269241Y15239D01*
X268224Y15239D01*
X268166Y15231D01*
X268108Y15232D01*
X268026Y15211D01*
X267943Y15199D01*
X267889Y15175D01*
X267833Y15161D01*
X267760Y15118D01*
X267683Y15083D01*
X267638Y15045D01*
X267588Y15015D01*
X267530Y14954D01*
X267466Y14899D01*
X267434Y14851D01*
X267394Y14808D01*
X267355Y14733D01*
X267309Y14663D01*
X267291Y14607D01*
X267264Y14555D01*
X267253Y14487D01*
X267223Y14392D01*
X267220Y14292D01*
X267209Y14224D01*
X267209Y1904D01*
X263716Y1904D01*
G37*
%LPD*%
%LPC*%
G36*
X96757Y115325D02*
X96757Y115325D01*
X92613Y117042D01*
X89442Y120213D01*
X87725Y124357D01*
X87725Y128843D01*
X89442Y132987D01*
X92613Y136158D01*
X96757Y137875D01*
X101243Y137875D01*
X105387Y136158D01*
X108558Y132987D01*
X110275Y128843D01*
X110275Y124357D01*
X108558Y120213D01*
X105387Y117042D01*
X101243Y115325D01*
X96757Y115325D01*
G37*
%LPD*%
%LPC*%
G36*
X96757Y65325D02*
X96757Y65325D01*
X92613Y67042D01*
X89442Y70213D01*
X87725Y74357D01*
X87725Y78843D01*
X89442Y82987D01*
X92613Y86158D01*
X96757Y87875D01*
X101243Y87875D01*
X105387Y86158D01*
X108558Y82987D01*
X110275Y78843D01*
X110275Y74357D01*
X108558Y70213D01*
X105387Y67042D01*
X101243Y65325D01*
X96757Y65325D01*
G37*
%LPD*%
%LPC*%
G36*
X271271Y17271D02*
X271271Y17271D01*
X271271Y28576D01*
X274764Y28576D01*
X282576Y20764D01*
X282576Y17271D01*
X271271Y17271D01*
G37*
%LPD*%
%LPC*%
G36*
X271271Y1904D02*
X271271Y1904D01*
X271271Y13209D01*
X282576Y13209D01*
X282576Y9716D01*
X274764Y1904D01*
X271271Y1904D01*
G37*
%LPD*%
D10*
X99000Y126600D03*
X99000Y76600D03*
D11*
X218440Y15240D03*
X243840Y15240D03*
X269240Y15240D03*
D12*
X240030Y114300D03*
X139700Y59690D03*
X181610Y68580D03*
M02*
