G04 EAGLE Gerber X2 export*
%TF.Part,Single*%
%TF.FileFunction,Copper,L2,Bot,Mixed*%
%TF.FilePolarity,Positive*%
%TF.GenerationSoftware,Autodesk,EAGLE,9.0.0*%
%TF.CreationDate,2018-04-29T22:15:43Z*%
G75*
%MOMM*%
%FSLAX34Y34*%
%LPD*%
%AMOC8*
5,1,8,0,0,1.08239X$1,22.5*%
G01*
%ADD10C,1.950000*%
%ADD11P,2.336880X8X22.500000*%
%ADD12C,0.756400*%

G36*
X304858Y-1007D02*
X304858Y-1007D01*
X304916Y-1009D01*
X304998Y-987D01*
X305082Y-975D01*
X305135Y-952D01*
X305191Y-937D01*
X305264Y-894D01*
X305341Y-859D01*
X305386Y-821D01*
X305436Y-792D01*
X305494Y-730D01*
X305558Y-676D01*
X305590Y-627D01*
X305630Y-584D01*
X305669Y-509D01*
X305716Y-439D01*
X305733Y-383D01*
X305760Y-331D01*
X305771Y-263D01*
X305801Y-168D01*
X305804Y-68D01*
X305815Y0D01*
X305815Y203200D01*
X305807Y203258D01*
X305809Y203316D01*
X305787Y203398D01*
X305775Y203482D01*
X305752Y203535D01*
X305737Y203591D01*
X305694Y203664D01*
X305659Y203741D01*
X305621Y203786D01*
X305592Y203836D01*
X305530Y203894D01*
X305476Y203958D01*
X305427Y203990D01*
X305384Y204030D01*
X305309Y204069D01*
X305239Y204116D01*
X305183Y204133D01*
X305131Y204160D01*
X305063Y204171D01*
X304968Y204201D01*
X304868Y204204D01*
X304800Y204215D01*
X0Y204215D01*
X-58Y204207D01*
X-116Y204209D01*
X-198Y204187D01*
X-282Y204175D01*
X-335Y204152D01*
X-391Y204137D01*
X-464Y204094D01*
X-541Y204059D01*
X-586Y204021D01*
X-636Y203992D01*
X-694Y203930D01*
X-758Y203876D01*
X-790Y203827D01*
X-830Y203784D01*
X-869Y203709D01*
X-916Y203639D01*
X-933Y203583D01*
X-960Y203531D01*
X-971Y203463D01*
X-1001Y203368D01*
X-1004Y203268D01*
X-1015Y203200D01*
X-1015Y0D01*
X-1007Y-58D01*
X-1009Y-116D01*
X-987Y-198D01*
X-975Y-282D01*
X-952Y-335D01*
X-937Y-391D01*
X-894Y-464D01*
X-859Y-541D01*
X-821Y-586D01*
X-792Y-636D01*
X-730Y-694D01*
X-676Y-758D01*
X-627Y-790D01*
X-584Y-830D01*
X-509Y-869D01*
X-439Y-916D01*
X-383Y-933D01*
X-331Y-960D01*
X-263Y-971D01*
X-168Y-1001D01*
X-68Y-1004D01*
X0Y-1015D01*
X304800Y-1015D01*
X304858Y-1007D01*
G37*
%LPC*%
G36*
X224346Y161924D02*
X224346Y161924D01*
X217169Y169101D01*
X217123Y169136D01*
X217082Y169179D01*
X217010Y169221D01*
X216942Y169272D01*
X216888Y169293D01*
X216837Y169322D01*
X216756Y169343D01*
X216677Y169373D01*
X216618Y169378D01*
X216562Y169392D01*
X216477Y169390D01*
X216393Y169397D01*
X216336Y169385D01*
X216278Y169383D01*
X216197Y169357D01*
X216115Y169341D01*
X216063Y169314D01*
X216007Y169296D01*
X215951Y169256D01*
X215862Y169210D01*
X215790Y169141D01*
X215734Y169101D01*
X209573Y162940D01*
X199367Y162940D01*
X192488Y169819D01*
X192441Y169854D01*
X192401Y169897D01*
X192328Y169940D01*
X192261Y169990D01*
X192206Y170011D01*
X192156Y170041D01*
X192074Y170061D01*
X191995Y170092D01*
X191937Y170096D01*
X191880Y170111D01*
X191796Y170108D01*
X191712Y170115D01*
X191654Y170104D01*
X191596Y170102D01*
X191516Y170076D01*
X191433Y170059D01*
X191381Y170032D01*
X191325Y170014D01*
X191269Y169974D01*
X191181Y169928D01*
X191108Y169859D01*
X191052Y169819D01*
X184173Y162940D01*
X173967Y162940D01*
X166750Y170157D01*
X166750Y180363D01*
X173967Y187580D01*
X184173Y187580D01*
X191052Y180701D01*
X191099Y180665D01*
X191139Y180623D01*
X191212Y180580D01*
X191279Y180530D01*
X191334Y180509D01*
X191384Y180479D01*
X191466Y180459D01*
X191545Y180428D01*
X191603Y180424D01*
X191660Y180409D01*
X191744Y180412D01*
X191828Y180405D01*
X191886Y180416D01*
X191944Y180418D01*
X192024Y180444D01*
X192107Y180461D01*
X192159Y180488D01*
X192215Y180506D01*
X192271Y180546D01*
X192359Y180592D01*
X192432Y180661D01*
X192488Y180701D01*
X199367Y187580D01*
X209573Y187580D01*
X215734Y181419D01*
X215780Y181384D01*
X215821Y181341D01*
X215893Y181299D01*
X215961Y181248D01*
X216016Y181227D01*
X216066Y181198D01*
X216148Y181177D01*
X216227Y181147D01*
X216285Y181142D01*
X216341Y181128D01*
X216426Y181130D01*
X216510Y181123D01*
X216567Y181135D01*
X216626Y181137D01*
X216706Y181163D01*
X216789Y181179D01*
X216840Y181206D01*
X216896Y181224D01*
X216952Y181264D01*
X217041Y181310D01*
X217113Y181379D01*
X217169Y181419D01*
X224346Y188596D01*
X227839Y188596D01*
X227839Y176276D01*
X227847Y176218D01*
X227845Y176160D01*
X227867Y176078D01*
X227879Y175995D01*
X227903Y175941D01*
X227917Y175885D01*
X227960Y175812D01*
X227995Y175735D01*
X228033Y175691D01*
X228063Y175640D01*
X228124Y175583D01*
X228179Y175518D01*
X228227Y175486D01*
X228270Y175446D01*
X228345Y175407D01*
X228415Y175361D01*
X228471Y175343D01*
X228523Y175316D01*
X228591Y175305D01*
X228686Y175275D01*
X228786Y175272D01*
X228854Y175261D01*
X229871Y175261D01*
X229871Y175259D01*
X228854Y175259D01*
X228796Y175251D01*
X228738Y175252D01*
X228656Y175231D01*
X228573Y175219D01*
X228519Y175195D01*
X228463Y175181D01*
X228390Y175138D01*
X228313Y175103D01*
X228268Y175065D01*
X228218Y175035D01*
X228160Y174974D01*
X228096Y174919D01*
X228064Y174871D01*
X228024Y174828D01*
X227985Y174753D01*
X227939Y174683D01*
X227921Y174627D01*
X227894Y174575D01*
X227883Y174507D01*
X227853Y174412D01*
X227850Y174312D01*
X227839Y174244D01*
X227839Y161924D01*
X224346Y161924D01*
G37*
%LPD*%
%LPC*%
G36*
X96757Y115325D02*
X96757Y115325D01*
X92613Y117042D01*
X89442Y120213D01*
X87725Y124357D01*
X87725Y128843D01*
X89442Y132987D01*
X92613Y136158D01*
X96757Y137875D01*
X101243Y137875D01*
X105387Y136158D01*
X108558Y132987D01*
X110275Y128843D01*
X110275Y124357D01*
X108558Y120213D01*
X105387Y117042D01*
X101243Y115325D01*
X96757Y115325D01*
G37*
%LPD*%
%LPC*%
G36*
X96757Y65325D02*
X96757Y65325D01*
X92613Y67042D01*
X89442Y70213D01*
X87725Y74357D01*
X87725Y78843D01*
X89442Y82987D01*
X92613Y86158D01*
X96757Y87875D01*
X101243Y87875D01*
X105387Y86158D01*
X108558Y82987D01*
X110275Y78843D01*
X110275Y74357D01*
X108558Y70213D01*
X105387Y67042D01*
X101243Y65325D01*
X96757Y65325D01*
G37*
%LPD*%
%LPC*%
G36*
X231901Y177291D02*
X231901Y177291D01*
X231901Y188596D01*
X235394Y188596D01*
X243206Y180784D01*
X243206Y177291D01*
X231901Y177291D01*
G37*
%LPD*%
%LPC*%
G36*
X231901Y161924D02*
X231901Y161924D01*
X231901Y173229D01*
X243206Y173229D01*
X243206Y169736D01*
X235394Y161924D01*
X231901Y161924D01*
G37*
%LPD*%
D10*
X99000Y126600D03*
X99000Y76600D03*
D11*
X179070Y175260D03*
X204470Y175260D03*
X229870Y175260D03*
D12*
X160020Y71120D03*
M02*
