G04 EAGLE Gerber X2 export*
%TF.Part,Single*%
%TF.FileFunction,Copper,L1,Top,Mixed*%
%TF.FilePolarity,Positive*%
%TF.GenerationSoftware,Autodesk,EAGLE,9.0.0*%
%TF.CreationDate,2018-04-29T22:15:43Z*%
G75*
%MOMM*%
%FSLAX34Y34*%
%LPD*%
%AMOC8*
5,1,8,0,0,1.08239X$1,22.5*%
G01*
%ADD10R,2.500000X0.900000*%
%ADD11R,5.150000X2.500000*%
%ADD12C,1.950000*%
%ADD13R,0.558800X1.270000*%
%ADD14R,2.000000X2.100000*%
%ADD15R,1.900000X1.600000*%
%ADD16R,1.350000X0.400000*%
%ADD17P,2.336880X8X22.500000*%
%ADD18R,1.100000X1.000000*%
%ADD19C,0.203200*%
%ADD20C,0.756400*%


D10*
X139800Y131600D03*
X139800Y111600D03*
X139800Y91600D03*
X139800Y71600D03*
D11*
X115000Y174100D03*
X115000Y29100D03*
D12*
X99000Y126600D03*
X99000Y76600D03*
D13*
X206248Y127254D03*
X196850Y127254D03*
X187452Y127254D03*
X187452Y101346D03*
X206248Y101346D03*
D14*
X255900Y70600D03*
X255900Y132600D03*
D15*
X279400Y60600D03*
X279400Y142600D03*
D16*
X252650Y88600D03*
X252650Y95100D03*
X252650Y101600D03*
X252650Y108100D03*
X252650Y114600D03*
D17*
X179070Y175260D03*
X204470Y175260D03*
X229870Y175260D03*
D18*
X171450Y105800D03*
X171450Y122800D03*
X218440Y146930D03*
X218440Y129930D03*
D19*
X193294Y114300D02*
X206248Y101346D01*
X165579Y114300D02*
X157683Y122196D01*
X165579Y114300D02*
X193294Y114300D01*
X147320Y143510D02*
X179070Y175260D01*
X147320Y143510D02*
X124460Y143510D01*
X118110Y137160D01*
X122914Y122196D02*
X157683Y122196D01*
X122914Y122196D02*
X118110Y127000D01*
X118110Y137160D01*
X239829Y95100D02*
X252650Y95100D01*
X239829Y95100D02*
X229289Y84560D01*
X126248Y84560D02*
X124760Y86048D01*
X124760Y86060D01*
X120650Y90170D01*
X126248Y84560D02*
X229289Y84560D01*
X139800Y111600D02*
X123190Y111600D01*
X123030Y111600D01*
X120650Y109060D02*
X120650Y90170D01*
X120650Y109060D02*
X123190Y111600D01*
X252350Y114300D02*
X252650Y114600D01*
X252350Y114300D02*
X229870Y114300D01*
X203200Y114300D01*
X229870Y147320D02*
X229870Y175260D01*
D20*
X160020Y71120D03*
D19*
X229870Y114300D02*
X229870Y147320D01*
X160020Y71120D02*
X140280Y71120D01*
X139800Y71600D01*
X196850Y120650D02*
X196850Y127254D01*
X196850Y120650D02*
X203200Y114300D01*
X218440Y146930D02*
X229480Y146930D01*
X229870Y147320D01*
X175904Y127254D02*
X171450Y122800D01*
X175904Y127254D02*
X187452Y127254D01*
X171450Y122800D02*
X162650Y131600D01*
X139800Y131600D01*
X241300Y101600D02*
X252650Y101600D01*
X231300Y91600D02*
X139800Y91600D01*
X231300Y91600D02*
X241300Y101600D01*
X187452Y101346D02*
X175904Y101346D01*
X171450Y105800D01*
X238358Y88600D02*
X252650Y88600D01*
X238358Y88600D02*
X230762Y81004D01*
X124775Y81004D02*
X117094Y88685D01*
X117094Y110693D01*
X124775Y81004D02*
X230762Y81004D01*
X156210Y118640D02*
X125041Y118640D01*
X117094Y110693D01*
X169050Y105800D02*
X171450Y105800D01*
X169050Y105800D02*
X156210Y118640D01*
X206248Y127254D02*
X215764Y127254D01*
X218440Y129930D01*
X206248Y127254D02*
X206248Y173482D01*
X204470Y175260D01*
M02*
