G04 EAGLE Gerber X2 export*
%TF.Part,Single*%
%TF.FileFunction,Copper,L1,Top,Mixed*%
%TF.FilePolarity,Positive*%
%TF.GenerationSoftware,Autodesk,EAGLE,9.0.0*%
%TF.CreationDate,2018-04-29T23:01:41Z*%
G75*
%MOMM*%
%FSLAX34Y34*%
%LPD*%
%AMOC8*
5,1,8,0,0,1.08239X$1,22.5*%
G01*
%ADD10R,2.500000X0.900000*%
%ADD11R,5.150000X2.500000*%
%ADD12C,1.950000*%
%ADD13R,0.558800X1.270000*%
%ADD14R,2.000000X2.100000*%
%ADD15R,1.900000X1.600000*%
%ADD16R,1.350000X0.400000*%
%ADD17P,2.336880X8X22.500000*%
%ADD18R,1.100000X1.000000*%
%ADD19R,1.000000X1.100000*%
%ADD20C,0.203200*%
%ADD21C,0.756400*%


D10*
X139800Y131600D03*
X139800Y111600D03*
X139800Y91600D03*
X139800Y71600D03*
D11*
X115000Y174100D03*
X115000Y29100D03*
D12*
X99000Y126600D03*
X99000Y76600D03*
D13*
X172212Y55626D03*
X181610Y55626D03*
X191008Y55626D03*
X191008Y81534D03*
X172212Y81534D03*
D14*
X260980Y70600D03*
X260980Y132600D03*
D15*
X284480Y60600D03*
X284480Y142600D03*
D16*
X257730Y88600D03*
X257730Y95100D03*
X257730Y101600D03*
X257730Y108100D03*
X257730Y114600D03*
D17*
X218440Y15240D03*
X243840Y15240D03*
X269240Y15240D03*
D18*
X207010Y77080D03*
X207010Y60080D03*
D19*
X188840Y39370D03*
X171840Y39370D03*
D20*
X172212Y81534D02*
X164084Y81534D01*
X161290Y78740D01*
X161290Y27940D01*
X173990Y15240D02*
X218440Y15240D01*
X173990Y15240D02*
X161290Y27940D01*
X163892Y95100D02*
X257730Y95100D01*
X163892Y95100D02*
X153352Y84560D01*
X126248Y84560D02*
X124760Y86048D01*
X124760Y86060D01*
X121920Y88900D01*
X126248Y84560D02*
X153352Y84560D01*
X121920Y88900D02*
X121920Y109220D01*
X124300Y111600D02*
X139800Y111600D01*
X124300Y111600D02*
X121920Y109220D01*
X181610Y55626D02*
X181610Y46600D01*
X188840Y39370D01*
D21*
X240030Y114300D03*
D20*
X252350Y114300D02*
X257730Y114600D01*
X252350Y114300D02*
X240030Y114300D01*
D21*
X139700Y59690D03*
D20*
X139800Y59790D01*
X139800Y71600D01*
D21*
X181610Y68580D03*
D20*
X181610Y55626D01*
X139800Y131600D02*
X125250Y131600D01*
X118364Y124714D01*
X118364Y87415D02*
X124775Y81004D01*
X118364Y87415D02*
X118364Y124714D01*
X124775Y81004D02*
X154825Y81004D01*
X165365Y91544D01*
X198016Y91544D01*
X207010Y82550D02*
X207010Y77080D01*
X207010Y82550D02*
X198016Y91544D01*
X202556Y81534D02*
X191008Y81534D01*
X202556Y81534D02*
X207010Y77080D01*
X153510Y91600D02*
X139800Y91600D01*
X153510Y91600D02*
X153670Y91440D01*
X163830Y101600D02*
X257730Y101600D01*
X163830Y101600D02*
X153670Y91440D01*
X191008Y55626D02*
X202556Y55626D01*
X207010Y60080D01*
X244810Y88600D02*
X257730Y88600D01*
X208670Y58420D02*
X207010Y60080D01*
X241300Y85090D02*
X244810Y88600D01*
X241300Y85090D02*
X241300Y67310D01*
X234070Y60080D02*
X207010Y60080D01*
X234070Y60080D02*
X241300Y67310D01*
X172212Y55626D02*
X172212Y39742D01*
X171840Y39370D01*
X171840Y32630D01*
X229870Y29210D02*
X243840Y15240D01*
X175260Y29210D02*
X171840Y32630D01*
X175260Y29210D02*
X229870Y29210D01*
M02*
