M48
;GenerationSoftware,Autodesk,EAGLE,8.7.0*%
;CreationDate,2018-03-20T01:19:31Z*%
FMAT,2
ICI,OFF
METRIC,TZ,000.000
T4C0.350
T3C1.000
T2C1.016
T1C1.200
%
G90
M71
T1
X21082Y21630
X21082Y24130
X21082Y26630
T2
X2540Y20320
X2540Y29210
X29210Y20320
X29210Y11430
X29210Y2540
X2540Y16510
X10160Y2540
X21590Y2540
X17780Y2540
X13970Y2540
X2540Y5080
X2540Y13970
X2540Y22860
X2540Y31750
X29210Y31750
X29210Y22860
X29210Y13970
X29210Y5080
X2540Y7620
X29210Y29210
X2540Y25400
X2540Y34290
X29210Y34290
X29210Y25400
X29210Y16510
X29210Y7620
X2540Y2540
X2540Y11430
T3
X26543Y2540
X5207Y2540
X5207Y34290
X26543Y34290
T4
X7493Y28448
X14605Y20701
X14732Y24638
X22733Y4318
X13970Y15748
X13589Y20701
X15748Y29591
X21082Y14986
X14859Y34544
M30