G04 EAGLE Gerber X2 export*
%TF.Part,Single*%
%TF.FileFunction,Legend,Top,1*%
%TF.FilePolarity,Positive*%
%TF.GenerationSoftware,Autodesk,EAGLE,8.7.0*%
%TF.CreationDate,2018-03-20T01:19:31Z*%
G75*
%MOMM*%
%FSLAX34Y34*%
%LPD*%
%AMOC8*
5,1,8,0,0,1.08239X$1,22.5*%
G01*
%ADD10C,0.101600*%
%ADD11C,0.127000*%
%ADD12C,0.200000*%
%ADD13C,0.152400*%
%ADD14C,0.200000*%


D10*
X199898Y169418D02*
X203793Y169418D01*
X203892Y169420D01*
X203992Y169426D01*
X204091Y169435D01*
X204189Y169448D01*
X204287Y169465D01*
X204385Y169486D01*
X204481Y169511D01*
X204576Y169539D01*
X204670Y169571D01*
X204763Y169606D01*
X204855Y169645D01*
X204945Y169688D01*
X205033Y169733D01*
X205120Y169783D01*
X205204Y169835D01*
X205287Y169891D01*
X205367Y169949D01*
X205445Y170011D01*
X205520Y170076D01*
X205593Y170144D01*
X205663Y170214D01*
X205731Y170287D01*
X205796Y170362D01*
X205858Y170440D01*
X205916Y170520D01*
X205972Y170603D01*
X206024Y170687D01*
X206074Y170774D01*
X206119Y170862D01*
X206162Y170952D01*
X206201Y171044D01*
X206236Y171137D01*
X206268Y171231D01*
X206296Y171326D01*
X206321Y171422D01*
X206342Y171520D01*
X206359Y171618D01*
X206372Y171716D01*
X206381Y171815D01*
X206387Y171915D01*
X206389Y172014D01*
X206389Y173313D01*
X206387Y173412D01*
X206381Y173512D01*
X206372Y173611D01*
X206359Y173709D01*
X206342Y173807D01*
X206321Y173905D01*
X206296Y174001D01*
X206268Y174096D01*
X206236Y174190D01*
X206201Y174283D01*
X206162Y174375D01*
X206119Y174465D01*
X206074Y174553D01*
X206024Y174640D01*
X205972Y174724D01*
X205916Y174807D01*
X205858Y174887D01*
X205796Y174965D01*
X205731Y175040D01*
X205663Y175113D01*
X205593Y175183D01*
X205520Y175251D01*
X205445Y175316D01*
X205367Y175378D01*
X205287Y175436D01*
X205204Y175492D01*
X205120Y175544D01*
X205033Y175594D01*
X204945Y175639D01*
X204855Y175682D01*
X204763Y175721D01*
X204670Y175756D01*
X204576Y175788D01*
X204481Y175816D01*
X204385Y175841D01*
X204287Y175862D01*
X204189Y175879D01*
X204091Y175892D01*
X203992Y175901D01*
X203892Y175907D01*
X203793Y175909D01*
X199898Y175909D01*
X199898Y181102D01*
X206389Y181102D01*
X210679Y181102D02*
X214574Y169418D01*
X218468Y181102D01*
X194254Y301498D02*
X191008Y301498D01*
X194254Y301498D02*
X194367Y301500D01*
X194480Y301506D01*
X194593Y301516D01*
X194706Y301530D01*
X194818Y301547D01*
X194929Y301569D01*
X195039Y301594D01*
X195149Y301624D01*
X195257Y301657D01*
X195364Y301694D01*
X195470Y301734D01*
X195574Y301779D01*
X195677Y301827D01*
X195778Y301878D01*
X195877Y301933D01*
X195974Y301991D01*
X196069Y302053D01*
X196162Y302118D01*
X196252Y302186D01*
X196340Y302257D01*
X196426Y302332D01*
X196509Y302409D01*
X196589Y302489D01*
X196666Y302572D01*
X196741Y302658D01*
X196812Y302746D01*
X196880Y302836D01*
X196945Y302929D01*
X197007Y303024D01*
X197065Y303121D01*
X197120Y303220D01*
X197171Y303321D01*
X197219Y303424D01*
X197264Y303528D01*
X197304Y303634D01*
X197341Y303741D01*
X197374Y303849D01*
X197404Y303959D01*
X197429Y304069D01*
X197451Y304180D01*
X197468Y304292D01*
X197482Y304405D01*
X197492Y304518D01*
X197498Y304631D01*
X197500Y304744D01*
X197498Y304857D01*
X197492Y304970D01*
X197482Y305083D01*
X197468Y305196D01*
X197451Y305308D01*
X197429Y305419D01*
X197404Y305529D01*
X197374Y305639D01*
X197341Y305747D01*
X197304Y305854D01*
X197264Y305960D01*
X197219Y306064D01*
X197171Y306167D01*
X197120Y306268D01*
X197065Y306367D01*
X197007Y306464D01*
X196945Y306559D01*
X196880Y306652D01*
X196812Y306742D01*
X196741Y306830D01*
X196666Y306916D01*
X196589Y306999D01*
X196509Y307079D01*
X196426Y307156D01*
X196340Y307231D01*
X196252Y307302D01*
X196162Y307370D01*
X196069Y307435D01*
X195974Y307497D01*
X195877Y307555D01*
X195778Y307610D01*
X195677Y307661D01*
X195574Y307709D01*
X195470Y307754D01*
X195364Y307794D01*
X195257Y307831D01*
X195149Y307864D01*
X195039Y307894D01*
X194929Y307919D01*
X194818Y307941D01*
X194706Y307958D01*
X194593Y307972D01*
X194480Y307982D01*
X194367Y307988D01*
X194254Y307990D01*
X194903Y313182D02*
X191008Y313182D01*
X194903Y313182D02*
X195004Y313180D01*
X195104Y313174D01*
X195204Y313164D01*
X195304Y313151D01*
X195403Y313133D01*
X195502Y313112D01*
X195599Y313087D01*
X195696Y313058D01*
X195791Y313025D01*
X195885Y312989D01*
X195977Y312949D01*
X196068Y312906D01*
X196157Y312859D01*
X196244Y312809D01*
X196330Y312755D01*
X196413Y312698D01*
X196493Y312638D01*
X196572Y312575D01*
X196648Y312508D01*
X196721Y312439D01*
X196791Y312367D01*
X196859Y312293D01*
X196924Y312216D01*
X196985Y312136D01*
X197044Y312054D01*
X197099Y311970D01*
X197151Y311884D01*
X197200Y311796D01*
X197245Y311706D01*
X197287Y311614D01*
X197325Y311521D01*
X197359Y311426D01*
X197390Y311331D01*
X197417Y311234D01*
X197440Y311136D01*
X197460Y311037D01*
X197475Y310937D01*
X197487Y310837D01*
X197495Y310737D01*
X197499Y310636D01*
X197499Y310536D01*
X197495Y310435D01*
X197487Y310335D01*
X197475Y310235D01*
X197460Y310135D01*
X197440Y310036D01*
X197417Y309938D01*
X197390Y309841D01*
X197359Y309746D01*
X197325Y309651D01*
X197287Y309558D01*
X197245Y309466D01*
X197200Y309376D01*
X197151Y309288D01*
X197099Y309202D01*
X197044Y309118D01*
X196985Y309036D01*
X196924Y308956D01*
X196859Y308879D01*
X196791Y308805D01*
X196721Y308733D01*
X196648Y308664D01*
X196572Y308597D01*
X196493Y308534D01*
X196413Y308474D01*
X196330Y308417D01*
X196244Y308363D01*
X196157Y308313D01*
X196068Y308266D01*
X195977Y308223D01*
X195885Y308183D01*
X195791Y308147D01*
X195696Y308114D01*
X195599Y308085D01*
X195502Y308060D01*
X195403Y308039D01*
X195304Y308021D01*
X195204Y308008D01*
X195104Y307998D01*
X195004Y307992D01*
X194903Y307990D01*
X194903Y307989D02*
X192306Y307989D01*
X201930Y302147D02*
X201930Y301498D01*
X201930Y302147D02*
X202579Y302147D01*
X202579Y301498D01*
X201930Y301498D01*
X207010Y301498D02*
X210255Y301498D01*
X210368Y301500D01*
X210481Y301506D01*
X210594Y301516D01*
X210707Y301530D01*
X210819Y301547D01*
X210930Y301569D01*
X211040Y301594D01*
X211150Y301624D01*
X211258Y301657D01*
X211365Y301694D01*
X211471Y301734D01*
X211575Y301779D01*
X211678Y301827D01*
X211779Y301878D01*
X211878Y301933D01*
X211975Y301991D01*
X212070Y302053D01*
X212163Y302118D01*
X212253Y302186D01*
X212341Y302257D01*
X212427Y302332D01*
X212510Y302409D01*
X212590Y302489D01*
X212667Y302572D01*
X212742Y302658D01*
X212813Y302746D01*
X212881Y302836D01*
X212946Y302929D01*
X213008Y303024D01*
X213066Y303121D01*
X213121Y303220D01*
X213172Y303321D01*
X213220Y303424D01*
X213265Y303528D01*
X213305Y303634D01*
X213342Y303741D01*
X213375Y303849D01*
X213405Y303959D01*
X213430Y304069D01*
X213452Y304180D01*
X213469Y304292D01*
X213483Y304405D01*
X213493Y304518D01*
X213499Y304631D01*
X213501Y304744D01*
X213499Y304857D01*
X213493Y304970D01*
X213483Y305083D01*
X213469Y305196D01*
X213452Y305308D01*
X213430Y305419D01*
X213405Y305529D01*
X213375Y305639D01*
X213342Y305747D01*
X213305Y305854D01*
X213265Y305960D01*
X213220Y306064D01*
X213172Y306167D01*
X213121Y306268D01*
X213066Y306367D01*
X213008Y306464D01*
X212946Y306559D01*
X212881Y306652D01*
X212813Y306742D01*
X212742Y306830D01*
X212667Y306916D01*
X212590Y306999D01*
X212510Y307079D01*
X212427Y307156D01*
X212341Y307231D01*
X212253Y307302D01*
X212163Y307370D01*
X212070Y307435D01*
X211975Y307497D01*
X211878Y307555D01*
X211779Y307610D01*
X211678Y307661D01*
X211575Y307709D01*
X211471Y307754D01*
X211365Y307794D01*
X211258Y307831D01*
X211150Y307864D01*
X211040Y307894D01*
X210930Y307919D01*
X210819Y307941D01*
X210707Y307958D01*
X210594Y307972D01*
X210481Y307982D01*
X210368Y307988D01*
X210255Y307990D01*
X210905Y313182D02*
X207010Y313182D01*
X210905Y313182D02*
X211006Y313180D01*
X211106Y313174D01*
X211206Y313164D01*
X211306Y313151D01*
X211405Y313133D01*
X211504Y313112D01*
X211601Y313087D01*
X211698Y313058D01*
X211793Y313025D01*
X211887Y312989D01*
X211979Y312949D01*
X212070Y312906D01*
X212159Y312859D01*
X212246Y312809D01*
X212332Y312755D01*
X212415Y312698D01*
X212495Y312638D01*
X212574Y312575D01*
X212650Y312508D01*
X212723Y312439D01*
X212793Y312367D01*
X212861Y312293D01*
X212926Y312216D01*
X212987Y312136D01*
X213046Y312054D01*
X213101Y311970D01*
X213153Y311884D01*
X213202Y311796D01*
X213247Y311706D01*
X213289Y311614D01*
X213327Y311521D01*
X213361Y311426D01*
X213392Y311331D01*
X213419Y311234D01*
X213442Y311136D01*
X213462Y311037D01*
X213477Y310937D01*
X213489Y310837D01*
X213497Y310737D01*
X213501Y310636D01*
X213501Y310536D01*
X213497Y310435D01*
X213489Y310335D01*
X213477Y310235D01*
X213462Y310135D01*
X213442Y310036D01*
X213419Y309938D01*
X213392Y309841D01*
X213361Y309746D01*
X213327Y309651D01*
X213289Y309558D01*
X213247Y309466D01*
X213202Y309376D01*
X213153Y309288D01*
X213101Y309202D01*
X213046Y309118D01*
X212987Y309036D01*
X212926Y308956D01*
X212861Y308879D01*
X212793Y308805D01*
X212723Y308733D01*
X212650Y308664D01*
X212574Y308597D01*
X212495Y308534D01*
X212415Y308474D01*
X212332Y308417D01*
X212246Y308363D01*
X212159Y308313D01*
X212070Y308266D01*
X211979Y308223D01*
X211887Y308183D01*
X211793Y308147D01*
X211698Y308114D01*
X211601Y308085D01*
X211504Y308060D01*
X211405Y308039D01*
X211306Y308021D01*
X211206Y308008D01*
X211106Y307998D01*
X211006Y307992D01*
X210905Y307990D01*
X210905Y307989D02*
X208308Y307989D01*
X217791Y313182D02*
X221685Y301498D01*
X225580Y313182D01*
X90763Y225552D02*
X86868Y213868D01*
X94657Y213868D02*
X90763Y225552D01*
X93684Y216789D02*
X87842Y216789D01*
X98948Y219710D02*
X98951Y219940D01*
X98959Y220170D01*
X98973Y220399D01*
X98992Y220628D01*
X99017Y220857D01*
X99047Y221084D01*
X99082Y221312D01*
X99123Y221538D01*
X99169Y221763D01*
X99221Y221987D01*
X99278Y222209D01*
X99340Y222431D01*
X99408Y222650D01*
X99481Y222868D01*
X99559Y223085D01*
X99642Y223299D01*
X99730Y223511D01*
X99823Y223721D01*
X99922Y223929D01*
X99921Y223929D02*
X99954Y224019D01*
X99990Y224108D01*
X100030Y224196D01*
X100074Y224281D01*
X100121Y224365D01*
X100171Y224447D01*
X100225Y224527D01*
X100281Y224604D01*
X100341Y224680D01*
X100404Y224753D01*
X100469Y224823D01*
X100538Y224891D01*
X100609Y224955D01*
X100682Y225017D01*
X100758Y225076D01*
X100836Y225132D01*
X100917Y225185D01*
X100999Y225234D01*
X101083Y225280D01*
X101170Y225323D01*
X101257Y225362D01*
X101347Y225398D01*
X101437Y225430D01*
X101529Y225458D01*
X101622Y225483D01*
X101716Y225504D01*
X101810Y225521D01*
X101905Y225535D01*
X102001Y225544D01*
X102097Y225550D01*
X102193Y225552D01*
X102289Y225550D01*
X102385Y225544D01*
X102481Y225535D01*
X102576Y225521D01*
X102670Y225504D01*
X102764Y225483D01*
X102857Y225458D01*
X102949Y225430D01*
X103039Y225398D01*
X103129Y225362D01*
X103216Y225323D01*
X103303Y225280D01*
X103387Y225234D01*
X103469Y225185D01*
X103550Y225132D01*
X103628Y225076D01*
X103704Y225017D01*
X103777Y224955D01*
X103848Y224891D01*
X103917Y224823D01*
X103982Y224753D01*
X104045Y224680D01*
X104105Y224604D01*
X104161Y224527D01*
X104215Y224447D01*
X104265Y224365D01*
X104312Y224281D01*
X104356Y224196D01*
X104396Y224108D01*
X104432Y224019D01*
X104465Y223929D01*
X104564Y223722D01*
X104657Y223512D01*
X104745Y223299D01*
X104828Y223085D01*
X104906Y222869D01*
X104979Y222651D01*
X105047Y222431D01*
X105109Y222210D01*
X105166Y221987D01*
X105218Y221763D01*
X105264Y221538D01*
X105305Y221312D01*
X105340Y221085D01*
X105370Y220857D01*
X105395Y220628D01*
X105414Y220399D01*
X105428Y220170D01*
X105436Y219940D01*
X105439Y219710D01*
X98947Y219710D02*
X98950Y219480D01*
X98958Y219250D01*
X98972Y219021D01*
X98991Y218792D01*
X99016Y218563D01*
X99046Y218335D01*
X99081Y218108D01*
X99122Y217882D01*
X99168Y217657D01*
X99220Y217433D01*
X99277Y217210D01*
X99339Y216989D01*
X99407Y216769D01*
X99480Y216551D01*
X99558Y216335D01*
X99641Y216121D01*
X99729Y215909D01*
X99822Y215698D01*
X99921Y215491D01*
X99954Y215401D01*
X99990Y215312D01*
X100031Y215224D01*
X100074Y215139D01*
X100121Y215055D01*
X100171Y214973D01*
X100225Y214893D01*
X100281Y214816D01*
X100341Y214740D01*
X100404Y214667D01*
X100469Y214597D01*
X100538Y214529D01*
X100609Y214465D01*
X100682Y214403D01*
X100758Y214344D01*
X100836Y214288D01*
X100917Y214235D01*
X100999Y214186D01*
X101083Y214140D01*
X101170Y214097D01*
X101257Y214058D01*
X101347Y214022D01*
X101437Y213990D01*
X101529Y213962D01*
X101622Y213937D01*
X101716Y213916D01*
X101810Y213899D01*
X101905Y213885D01*
X102001Y213876D01*
X102097Y213870D01*
X102193Y213868D01*
X104464Y215491D02*
X104563Y215698D01*
X104656Y215909D01*
X104744Y216121D01*
X104827Y216335D01*
X104905Y216551D01*
X104978Y216769D01*
X105046Y216989D01*
X105108Y217210D01*
X105165Y217433D01*
X105217Y217657D01*
X105263Y217882D01*
X105304Y218108D01*
X105339Y218335D01*
X105369Y218563D01*
X105394Y218792D01*
X105413Y219021D01*
X105427Y219250D01*
X105435Y219480D01*
X105438Y219710D01*
X104465Y215491D02*
X104432Y215401D01*
X104396Y215312D01*
X104356Y215224D01*
X104312Y215139D01*
X104265Y215055D01*
X104215Y214973D01*
X104161Y214893D01*
X104105Y214816D01*
X104045Y214740D01*
X103982Y214667D01*
X103917Y214597D01*
X103848Y214529D01*
X103777Y214465D01*
X103704Y214403D01*
X103628Y214344D01*
X103550Y214288D01*
X103469Y214235D01*
X103387Y214186D01*
X103303Y214140D01*
X103216Y214097D01*
X103129Y214058D01*
X103039Y214022D01*
X102949Y213990D01*
X102857Y213962D01*
X102764Y213937D01*
X102670Y213916D01*
X102576Y213899D01*
X102481Y213885D01*
X102385Y213876D01*
X102289Y213870D01*
X102193Y213868D01*
X99596Y216464D02*
X104789Y222956D01*
X90763Y200152D02*
X86868Y188468D01*
X94657Y188468D02*
X90763Y200152D01*
X93684Y191389D02*
X87842Y191389D01*
X98947Y197556D02*
X102193Y200152D01*
X102193Y188468D01*
X105438Y188468D02*
X98947Y188468D01*
X108458Y230378D02*
X108458Y242062D01*
X108458Y236869D02*
X114949Y236869D01*
X114949Y242062D02*
X114949Y230378D01*
X121229Y230378D02*
X121229Y242062D01*
X119930Y230378D02*
X122527Y230378D01*
X122527Y242062D02*
X119930Y242062D01*
X146558Y242062D02*
X146558Y230378D01*
X151751Y230378D01*
X156060Y233624D02*
X156060Y238816D01*
X156062Y238929D01*
X156068Y239042D01*
X156078Y239155D01*
X156092Y239268D01*
X156109Y239380D01*
X156131Y239491D01*
X156156Y239601D01*
X156186Y239711D01*
X156219Y239819D01*
X156256Y239926D01*
X156296Y240032D01*
X156341Y240136D01*
X156389Y240239D01*
X156440Y240340D01*
X156495Y240439D01*
X156553Y240536D01*
X156615Y240631D01*
X156680Y240724D01*
X156748Y240814D01*
X156819Y240902D01*
X156894Y240988D01*
X156971Y241071D01*
X157051Y241151D01*
X157134Y241228D01*
X157220Y241303D01*
X157308Y241374D01*
X157398Y241442D01*
X157491Y241507D01*
X157586Y241569D01*
X157683Y241627D01*
X157782Y241682D01*
X157883Y241733D01*
X157986Y241781D01*
X158090Y241826D01*
X158196Y241866D01*
X158303Y241903D01*
X158411Y241936D01*
X158521Y241966D01*
X158631Y241991D01*
X158742Y242013D01*
X158854Y242030D01*
X158967Y242044D01*
X159080Y242054D01*
X159193Y242060D01*
X159306Y242062D01*
X159419Y242060D01*
X159532Y242054D01*
X159645Y242044D01*
X159758Y242030D01*
X159870Y242013D01*
X159981Y241991D01*
X160091Y241966D01*
X160201Y241936D01*
X160309Y241903D01*
X160416Y241866D01*
X160522Y241826D01*
X160626Y241781D01*
X160729Y241733D01*
X160830Y241682D01*
X160929Y241627D01*
X161026Y241569D01*
X161121Y241507D01*
X161214Y241442D01*
X161304Y241374D01*
X161392Y241303D01*
X161478Y241228D01*
X161561Y241151D01*
X161641Y241071D01*
X161718Y240988D01*
X161793Y240902D01*
X161864Y240814D01*
X161932Y240724D01*
X161997Y240631D01*
X162059Y240536D01*
X162117Y240439D01*
X162172Y240340D01*
X162223Y240239D01*
X162271Y240136D01*
X162316Y240032D01*
X162356Y239926D01*
X162393Y239819D01*
X162426Y239711D01*
X162456Y239601D01*
X162481Y239491D01*
X162503Y239380D01*
X162520Y239268D01*
X162534Y239155D01*
X162544Y239042D01*
X162550Y238929D01*
X162552Y238816D01*
X162552Y233624D01*
X162550Y233511D01*
X162544Y233398D01*
X162534Y233285D01*
X162520Y233172D01*
X162503Y233060D01*
X162481Y232949D01*
X162456Y232839D01*
X162426Y232729D01*
X162393Y232621D01*
X162356Y232514D01*
X162316Y232408D01*
X162271Y232304D01*
X162223Y232201D01*
X162172Y232100D01*
X162117Y232001D01*
X162059Y231904D01*
X161997Y231809D01*
X161932Y231716D01*
X161864Y231626D01*
X161793Y231538D01*
X161718Y231452D01*
X161641Y231369D01*
X161561Y231289D01*
X161478Y231212D01*
X161392Y231137D01*
X161304Y231066D01*
X161214Y230998D01*
X161121Y230933D01*
X161026Y230871D01*
X160929Y230813D01*
X160830Y230758D01*
X160729Y230707D01*
X160626Y230659D01*
X160522Y230614D01*
X160416Y230574D01*
X160309Y230537D01*
X160201Y230504D01*
X160091Y230474D01*
X159981Y230449D01*
X159870Y230427D01*
X159758Y230410D01*
X159645Y230396D01*
X159532Y230386D01*
X159419Y230380D01*
X159306Y230378D01*
X159193Y230380D01*
X159080Y230386D01*
X158967Y230396D01*
X158854Y230410D01*
X158742Y230427D01*
X158631Y230449D01*
X158521Y230474D01*
X158411Y230504D01*
X158303Y230537D01*
X158196Y230574D01*
X158090Y230614D01*
X157986Y230659D01*
X157883Y230707D01*
X157782Y230758D01*
X157683Y230813D01*
X157586Y230871D01*
X157491Y230933D01*
X157398Y230998D01*
X157308Y231066D01*
X157220Y231137D01*
X157134Y231212D01*
X157051Y231289D01*
X156971Y231369D01*
X156894Y231452D01*
X156819Y231538D01*
X156748Y231626D01*
X156680Y231716D01*
X156615Y231809D01*
X156553Y231904D01*
X156495Y232001D01*
X156440Y232100D01*
X156389Y232201D01*
X156341Y232304D01*
X156296Y232408D01*
X156256Y232514D01*
X156219Y232621D01*
X156186Y232729D01*
X156156Y232839D01*
X156131Y232949D01*
X156109Y233060D01*
X156092Y233172D01*
X156078Y233285D01*
X156068Y233398D01*
X156062Y233511D01*
X156060Y233624D01*
D11*
X175190Y273410D02*
X175190Y318410D01*
X121990Y318410D02*
X121990Y273410D01*
D12*
X124190Y253110D02*
X124192Y253173D01*
X124198Y253235D01*
X124208Y253297D01*
X124221Y253359D01*
X124239Y253419D01*
X124260Y253478D01*
X124285Y253536D01*
X124314Y253592D01*
X124346Y253646D01*
X124381Y253698D01*
X124419Y253747D01*
X124461Y253795D01*
X124505Y253839D01*
X124553Y253881D01*
X124602Y253919D01*
X124654Y253954D01*
X124708Y253986D01*
X124764Y254015D01*
X124822Y254040D01*
X124881Y254061D01*
X124941Y254079D01*
X125003Y254092D01*
X125065Y254102D01*
X125127Y254108D01*
X125190Y254110D01*
X125253Y254108D01*
X125315Y254102D01*
X125377Y254092D01*
X125439Y254079D01*
X125499Y254061D01*
X125558Y254040D01*
X125616Y254015D01*
X125672Y253986D01*
X125726Y253954D01*
X125778Y253919D01*
X125827Y253881D01*
X125875Y253839D01*
X125919Y253795D01*
X125961Y253747D01*
X125999Y253698D01*
X126034Y253646D01*
X126066Y253592D01*
X126095Y253536D01*
X126120Y253478D01*
X126141Y253419D01*
X126159Y253359D01*
X126172Y253297D01*
X126182Y253235D01*
X126188Y253173D01*
X126190Y253110D01*
X126188Y253047D01*
X126182Y252985D01*
X126172Y252923D01*
X126159Y252861D01*
X126141Y252801D01*
X126120Y252742D01*
X126095Y252684D01*
X126066Y252628D01*
X126034Y252574D01*
X125999Y252522D01*
X125961Y252473D01*
X125919Y252425D01*
X125875Y252381D01*
X125827Y252339D01*
X125778Y252301D01*
X125726Y252266D01*
X125672Y252234D01*
X125616Y252205D01*
X125558Y252180D01*
X125499Y252159D01*
X125439Y252141D01*
X125377Y252128D01*
X125315Y252118D01*
X125253Y252112D01*
X125190Y252110D01*
X125127Y252112D01*
X125065Y252118D01*
X125003Y252128D01*
X124941Y252141D01*
X124881Y252159D01*
X124822Y252180D01*
X124764Y252205D01*
X124708Y252234D01*
X124654Y252266D01*
X124602Y252301D01*
X124553Y252339D01*
X124505Y252381D01*
X124461Y252425D01*
X124419Y252473D01*
X124381Y252522D01*
X124346Y252574D01*
X124314Y252628D01*
X124285Y252684D01*
X124260Y252742D01*
X124239Y252801D01*
X124221Y252861D01*
X124208Y252923D01*
X124198Y252985D01*
X124192Y253047D01*
X124190Y253110D01*
D13*
X27940Y38100D02*
X22860Y38100D01*
X22860Y63500D02*
X27940Y63500D01*
X22860Y63500D02*
X22860Y62230D01*
X27940Y62230D02*
X27940Y63500D01*
X27940Y39370D02*
X27940Y38100D01*
X22860Y38100D02*
X22860Y39370D01*
D11*
X40005Y51435D02*
X40005Y62865D01*
X38735Y51435D02*
X41275Y51435D01*
X41275Y62865D02*
X38735Y62865D01*
X46355Y62865D02*
X46355Y51435D01*
X52705Y51435D02*
X46355Y62865D01*
X52705Y62865D02*
X52705Y51435D01*
X58166Y57150D02*
X58169Y57375D01*
X58177Y57600D01*
X58190Y57824D01*
X58209Y58048D01*
X58233Y58272D01*
X58262Y58495D01*
X58297Y58717D01*
X58337Y58938D01*
X58383Y59158D01*
X58433Y59377D01*
X58489Y59595D01*
X58550Y59812D01*
X58616Y60027D01*
X58687Y60240D01*
X58764Y60451D01*
X58845Y60661D01*
X58931Y60869D01*
X59022Y61074D01*
X59118Y61277D01*
X59118Y61278D02*
X59150Y61366D01*
X59186Y61453D01*
X59225Y61539D01*
X59268Y61623D01*
X59314Y61705D01*
X59363Y61785D01*
X59415Y61863D01*
X59471Y61939D01*
X59529Y62013D01*
X59591Y62084D01*
X59655Y62153D01*
X59722Y62219D01*
X59791Y62282D01*
X59863Y62343D01*
X59937Y62401D01*
X60014Y62455D01*
X60092Y62507D01*
X60173Y62555D01*
X60255Y62600D01*
X60340Y62642D01*
X60426Y62680D01*
X60513Y62715D01*
X60601Y62747D01*
X60691Y62774D01*
X60782Y62799D01*
X60874Y62819D01*
X60966Y62836D01*
X61060Y62849D01*
X61153Y62858D01*
X61247Y62864D01*
X61341Y62866D01*
X61435Y62864D01*
X61529Y62858D01*
X61622Y62849D01*
X61716Y62836D01*
X61808Y62819D01*
X61900Y62799D01*
X61991Y62774D01*
X62081Y62747D01*
X62169Y62715D01*
X62256Y62680D01*
X62342Y62642D01*
X62427Y62600D01*
X62509Y62555D01*
X62590Y62507D01*
X62668Y62455D01*
X62745Y62401D01*
X62819Y62343D01*
X62891Y62282D01*
X62960Y62219D01*
X63027Y62153D01*
X63091Y62084D01*
X63153Y62013D01*
X63211Y61939D01*
X63267Y61863D01*
X63319Y61785D01*
X63368Y61705D01*
X63414Y61623D01*
X63457Y61539D01*
X63496Y61453D01*
X63532Y61366D01*
X63564Y61278D01*
X63564Y61277D02*
X63660Y61074D01*
X63751Y60869D01*
X63837Y60661D01*
X63918Y60451D01*
X63995Y60240D01*
X64066Y60027D01*
X64132Y59812D01*
X64193Y59595D01*
X64249Y59377D01*
X64299Y59158D01*
X64345Y58938D01*
X64385Y58717D01*
X64420Y58495D01*
X64449Y58272D01*
X64473Y58048D01*
X64492Y57824D01*
X64505Y57600D01*
X64513Y57375D01*
X64516Y57150D01*
X58166Y57150D02*
X58169Y56925D01*
X58177Y56700D01*
X58190Y56476D01*
X58209Y56252D01*
X58233Y56028D01*
X58262Y55805D01*
X58297Y55583D01*
X58337Y55362D01*
X58383Y55142D01*
X58433Y54923D01*
X58489Y54705D01*
X58550Y54488D01*
X58616Y54273D01*
X58687Y54060D01*
X58764Y53849D01*
X58845Y53639D01*
X58931Y53431D01*
X59022Y53226D01*
X59118Y53023D01*
X59150Y52935D01*
X59186Y52848D01*
X59225Y52762D01*
X59268Y52678D01*
X59314Y52596D01*
X59363Y52516D01*
X59415Y52438D01*
X59471Y52362D01*
X59529Y52288D01*
X59591Y52217D01*
X59655Y52148D01*
X59722Y52082D01*
X59791Y52019D01*
X59863Y51958D01*
X59937Y51900D01*
X60014Y51846D01*
X60092Y51794D01*
X60173Y51746D01*
X60255Y51701D01*
X60340Y51659D01*
X60426Y51621D01*
X60513Y51586D01*
X60601Y51554D01*
X60691Y51527D01*
X60782Y51502D01*
X60874Y51482D01*
X60966Y51465D01*
X61060Y51452D01*
X61153Y51443D01*
X61247Y51437D01*
X61341Y51435D01*
X63564Y53023D02*
X63660Y53226D01*
X63751Y53431D01*
X63837Y53639D01*
X63918Y53849D01*
X63995Y54060D01*
X64066Y54273D01*
X64132Y54488D01*
X64193Y54705D01*
X64249Y54923D01*
X64299Y55142D01*
X64345Y55362D01*
X64385Y55583D01*
X64420Y55805D01*
X64449Y56028D01*
X64473Y56252D01*
X64492Y56476D01*
X64505Y56700D01*
X64513Y56925D01*
X64516Y57150D01*
X63564Y53023D02*
X63532Y52935D01*
X63496Y52848D01*
X63457Y52762D01*
X63414Y52678D01*
X63368Y52596D01*
X63319Y52516D01*
X63267Y52438D01*
X63211Y52362D01*
X63153Y52288D01*
X63091Y52217D01*
X63027Y52148D01*
X62960Y52082D01*
X62891Y52019D01*
X62819Y51958D01*
X62745Y51900D01*
X62668Y51846D01*
X62590Y51794D01*
X62509Y51746D01*
X62427Y51701D01*
X62342Y51659D01*
X62256Y51621D01*
X62169Y51586D01*
X62081Y51554D01*
X61991Y51527D01*
X61900Y51502D01*
X61808Y51482D01*
X61716Y51465D01*
X61622Y51452D01*
X61529Y51443D01*
X61435Y51437D01*
X61341Y51435D01*
X58801Y53975D02*
X63881Y60325D01*
D13*
X27940Y127000D02*
X22860Y127000D01*
X22860Y152400D02*
X27940Y152400D01*
X22860Y152400D02*
X22860Y151130D01*
X27940Y151130D02*
X27940Y152400D01*
X27940Y128270D02*
X27940Y127000D01*
X22860Y127000D02*
X22860Y128270D01*
D11*
X40005Y140335D02*
X40005Y151765D01*
X38735Y140335D02*
X41275Y140335D01*
X41275Y151765D02*
X38735Y151765D01*
X46355Y151765D02*
X46355Y140335D01*
X52705Y140335D02*
X46355Y151765D01*
X52705Y151765D02*
X52705Y140335D01*
X58166Y149225D02*
X61341Y151765D01*
X61341Y140335D01*
X58166Y140335D02*
X64516Y140335D01*
D13*
X27940Y215900D02*
X22860Y215900D01*
X22860Y241300D02*
X27940Y241300D01*
X22860Y241300D02*
X22860Y240030D01*
X27940Y240030D02*
X27940Y241300D01*
X27940Y217170D02*
X27940Y215900D01*
X22860Y215900D02*
X22860Y217170D01*
D11*
X40005Y229235D02*
X40005Y240665D01*
X38735Y229235D02*
X41275Y229235D01*
X41275Y240665D02*
X38735Y240665D01*
X46355Y240665D02*
X46355Y229235D01*
X52705Y229235D02*
X46355Y240665D01*
X52705Y240665D02*
X52705Y229235D01*
X61659Y240666D02*
X61763Y240664D01*
X61868Y240658D01*
X61972Y240649D01*
X62075Y240636D01*
X62178Y240618D01*
X62280Y240598D01*
X62382Y240573D01*
X62482Y240545D01*
X62582Y240513D01*
X62680Y240477D01*
X62777Y240438D01*
X62872Y240396D01*
X62966Y240350D01*
X63058Y240300D01*
X63148Y240248D01*
X63236Y240192D01*
X63322Y240132D01*
X63406Y240070D01*
X63487Y240005D01*
X63566Y239937D01*
X63643Y239865D01*
X63716Y239792D01*
X63788Y239715D01*
X63856Y239636D01*
X63921Y239555D01*
X63983Y239471D01*
X64043Y239385D01*
X64099Y239297D01*
X64151Y239207D01*
X64201Y239115D01*
X64247Y239021D01*
X64289Y238926D01*
X64328Y238829D01*
X64364Y238731D01*
X64396Y238631D01*
X64424Y238531D01*
X64449Y238429D01*
X64469Y238327D01*
X64487Y238224D01*
X64500Y238121D01*
X64509Y238017D01*
X64515Y237912D01*
X64517Y237808D01*
X61659Y240665D02*
X61541Y240663D01*
X61422Y240657D01*
X61304Y240648D01*
X61187Y240635D01*
X61070Y240617D01*
X60953Y240597D01*
X60837Y240572D01*
X60722Y240544D01*
X60609Y240511D01*
X60496Y240476D01*
X60384Y240436D01*
X60274Y240394D01*
X60165Y240347D01*
X60057Y240297D01*
X59952Y240244D01*
X59848Y240187D01*
X59746Y240127D01*
X59646Y240064D01*
X59548Y239997D01*
X59452Y239928D01*
X59359Y239855D01*
X59268Y239779D01*
X59179Y239701D01*
X59093Y239619D01*
X59010Y239535D01*
X58929Y239449D01*
X58852Y239359D01*
X58777Y239268D01*
X58705Y239174D01*
X58636Y239077D01*
X58571Y238979D01*
X58508Y238878D01*
X58449Y238775D01*
X58393Y238671D01*
X58341Y238565D01*
X58292Y238457D01*
X58247Y238348D01*
X58205Y238237D01*
X58167Y238125D01*
X63564Y235586D02*
X63640Y235661D01*
X63715Y235740D01*
X63786Y235821D01*
X63855Y235905D01*
X63920Y235991D01*
X63982Y236079D01*
X64042Y236169D01*
X64098Y236261D01*
X64151Y236356D01*
X64200Y236452D01*
X64246Y236550D01*
X64289Y236649D01*
X64328Y236750D01*
X64363Y236852D01*
X64395Y236955D01*
X64423Y237059D01*
X64448Y237164D01*
X64469Y237271D01*
X64486Y237377D01*
X64499Y237484D01*
X64508Y237592D01*
X64514Y237700D01*
X64516Y237808D01*
X63564Y235585D02*
X58166Y229235D01*
X64516Y229235D01*
D13*
X27940Y304800D02*
X22860Y304800D01*
X22860Y330200D02*
X27940Y330200D01*
X22860Y330200D02*
X22860Y328930D01*
X27940Y328930D02*
X27940Y330200D01*
X27940Y306070D02*
X27940Y304800D01*
X22860Y304800D02*
X22860Y306070D01*
D11*
X40005Y318135D02*
X40005Y329565D01*
X38735Y318135D02*
X41275Y318135D01*
X41275Y329565D02*
X38735Y329565D01*
X46355Y329565D02*
X46355Y318135D01*
X52705Y318135D02*
X46355Y329565D01*
X52705Y329565D02*
X52705Y318135D01*
X58166Y318135D02*
X61341Y318135D01*
X61452Y318137D01*
X61562Y318143D01*
X61673Y318152D01*
X61783Y318166D01*
X61892Y318183D01*
X62001Y318204D01*
X62109Y318229D01*
X62216Y318258D01*
X62322Y318290D01*
X62427Y318326D01*
X62530Y318366D01*
X62632Y318409D01*
X62733Y318456D01*
X62832Y318507D01*
X62928Y318560D01*
X63023Y318617D01*
X63116Y318678D01*
X63207Y318741D01*
X63296Y318808D01*
X63382Y318878D01*
X63465Y318951D01*
X63547Y319026D01*
X63625Y319104D01*
X63700Y319186D01*
X63773Y319269D01*
X63843Y319355D01*
X63910Y319444D01*
X63973Y319535D01*
X64034Y319628D01*
X64091Y319722D01*
X64144Y319819D01*
X64195Y319918D01*
X64242Y320019D01*
X64285Y320121D01*
X64325Y320224D01*
X64361Y320329D01*
X64393Y320435D01*
X64422Y320542D01*
X64447Y320650D01*
X64468Y320759D01*
X64485Y320868D01*
X64499Y320978D01*
X64508Y321089D01*
X64514Y321199D01*
X64516Y321310D01*
X64514Y321421D01*
X64508Y321531D01*
X64499Y321642D01*
X64485Y321752D01*
X64468Y321861D01*
X64447Y321970D01*
X64422Y322078D01*
X64393Y322185D01*
X64361Y322291D01*
X64325Y322396D01*
X64285Y322499D01*
X64242Y322601D01*
X64195Y322702D01*
X64144Y322801D01*
X64091Y322897D01*
X64034Y322992D01*
X63973Y323085D01*
X63910Y323176D01*
X63843Y323265D01*
X63773Y323351D01*
X63700Y323434D01*
X63625Y323516D01*
X63547Y323594D01*
X63465Y323669D01*
X63382Y323742D01*
X63296Y323812D01*
X63207Y323879D01*
X63116Y323942D01*
X63023Y324003D01*
X62929Y324060D01*
X62832Y324113D01*
X62733Y324164D01*
X62632Y324211D01*
X62530Y324254D01*
X62427Y324294D01*
X62322Y324330D01*
X62216Y324362D01*
X62109Y324391D01*
X62001Y324416D01*
X61892Y324437D01*
X61783Y324454D01*
X61673Y324468D01*
X61562Y324477D01*
X61452Y324483D01*
X61341Y324485D01*
X61976Y329565D02*
X58166Y329565D01*
X61976Y329565D02*
X62076Y329563D01*
X62175Y329557D01*
X62275Y329547D01*
X62373Y329534D01*
X62472Y329516D01*
X62569Y329495D01*
X62665Y329470D01*
X62761Y329441D01*
X62855Y329408D01*
X62948Y329372D01*
X63039Y329332D01*
X63129Y329288D01*
X63217Y329241D01*
X63303Y329191D01*
X63387Y329137D01*
X63469Y329080D01*
X63548Y329020D01*
X63626Y328956D01*
X63700Y328890D01*
X63772Y328821D01*
X63841Y328749D01*
X63907Y328675D01*
X63971Y328597D01*
X64031Y328518D01*
X64088Y328436D01*
X64142Y328352D01*
X64192Y328266D01*
X64239Y328178D01*
X64283Y328088D01*
X64323Y327997D01*
X64359Y327904D01*
X64392Y327810D01*
X64421Y327714D01*
X64446Y327618D01*
X64467Y327521D01*
X64485Y327422D01*
X64498Y327324D01*
X64508Y327224D01*
X64514Y327125D01*
X64516Y327025D01*
X64514Y326925D01*
X64508Y326826D01*
X64498Y326726D01*
X64485Y326628D01*
X64467Y326529D01*
X64446Y326432D01*
X64421Y326336D01*
X64392Y326240D01*
X64359Y326146D01*
X64323Y326053D01*
X64283Y325962D01*
X64239Y325872D01*
X64192Y325784D01*
X64142Y325698D01*
X64088Y325614D01*
X64031Y325532D01*
X63971Y325453D01*
X63907Y325375D01*
X63841Y325301D01*
X63772Y325229D01*
X63700Y325160D01*
X63626Y325094D01*
X63548Y325030D01*
X63469Y324970D01*
X63387Y324913D01*
X63303Y324859D01*
X63217Y324809D01*
X63129Y324762D01*
X63039Y324718D01*
X62948Y324678D01*
X62855Y324642D01*
X62761Y324609D01*
X62665Y324580D01*
X62569Y324555D01*
X62472Y324534D01*
X62373Y324516D01*
X62275Y324503D01*
X62175Y324493D01*
X62076Y324487D01*
X61976Y324485D01*
X59436Y324485D01*
D13*
X289560Y330200D02*
X294640Y330200D01*
X294640Y304800D02*
X289560Y304800D01*
X294640Y304800D02*
X294640Y306070D01*
X289560Y306070D02*
X289560Y304800D01*
X289560Y328930D02*
X289560Y330200D01*
X294640Y330200D02*
X294640Y328930D01*
D11*
X243205Y329565D02*
X243205Y318135D01*
X241935Y318135D02*
X244475Y318135D01*
X244475Y329565D02*
X241935Y329565D01*
X249555Y329565D02*
X249555Y318135D01*
X255905Y318135D02*
X249555Y329565D01*
X255905Y329565D02*
X255905Y318135D01*
X261366Y320675D02*
X263906Y329565D01*
X261366Y320675D02*
X267716Y320675D01*
X265811Y323215D02*
X265811Y318135D01*
D13*
X289560Y241300D02*
X294640Y241300D01*
X294640Y215900D02*
X289560Y215900D01*
X294640Y215900D02*
X294640Y217170D01*
X289560Y217170D02*
X289560Y215900D01*
X289560Y240030D02*
X289560Y241300D01*
X294640Y241300D02*
X294640Y240030D01*
D11*
X243205Y240665D02*
X243205Y229235D01*
X241935Y229235D02*
X244475Y229235D01*
X244475Y240665D02*
X241935Y240665D01*
X249555Y240665D02*
X249555Y229235D01*
X255905Y229235D02*
X249555Y240665D01*
X255905Y240665D02*
X255905Y229235D01*
X261366Y229235D02*
X265176Y229235D01*
X265276Y229237D01*
X265375Y229243D01*
X265475Y229253D01*
X265573Y229266D01*
X265672Y229284D01*
X265769Y229305D01*
X265865Y229330D01*
X265961Y229359D01*
X266055Y229392D01*
X266148Y229428D01*
X266239Y229468D01*
X266329Y229512D01*
X266417Y229559D01*
X266503Y229609D01*
X266587Y229663D01*
X266669Y229720D01*
X266748Y229780D01*
X266826Y229844D01*
X266900Y229910D01*
X266972Y229979D01*
X267041Y230051D01*
X267107Y230125D01*
X267171Y230203D01*
X267231Y230282D01*
X267288Y230364D01*
X267342Y230448D01*
X267392Y230534D01*
X267439Y230622D01*
X267483Y230712D01*
X267523Y230803D01*
X267559Y230896D01*
X267592Y230990D01*
X267621Y231086D01*
X267646Y231182D01*
X267667Y231279D01*
X267685Y231378D01*
X267698Y231476D01*
X267708Y231576D01*
X267714Y231675D01*
X267716Y231775D01*
X267716Y233045D01*
X267714Y233145D01*
X267708Y233244D01*
X267698Y233344D01*
X267685Y233442D01*
X267667Y233541D01*
X267646Y233638D01*
X267621Y233734D01*
X267592Y233830D01*
X267559Y233924D01*
X267523Y234017D01*
X267483Y234108D01*
X267439Y234198D01*
X267392Y234286D01*
X267342Y234372D01*
X267288Y234456D01*
X267231Y234538D01*
X267171Y234617D01*
X267107Y234695D01*
X267041Y234769D01*
X266972Y234841D01*
X266900Y234910D01*
X266826Y234976D01*
X266748Y235040D01*
X266669Y235100D01*
X266587Y235157D01*
X266503Y235211D01*
X266417Y235261D01*
X266329Y235308D01*
X266239Y235352D01*
X266148Y235392D01*
X266055Y235428D01*
X265961Y235461D01*
X265865Y235490D01*
X265769Y235515D01*
X265672Y235536D01*
X265573Y235554D01*
X265475Y235567D01*
X265375Y235577D01*
X265276Y235583D01*
X265176Y235585D01*
X261366Y235585D01*
X261366Y240665D01*
X267716Y240665D01*
D13*
X289560Y152400D02*
X294640Y152400D01*
X294640Y127000D02*
X289560Y127000D01*
X294640Y127000D02*
X294640Y128270D01*
X289560Y128270D02*
X289560Y127000D01*
X289560Y151130D02*
X289560Y152400D01*
X294640Y152400D02*
X294640Y151130D01*
D11*
X243205Y151765D02*
X243205Y140335D01*
X241935Y140335D02*
X244475Y140335D01*
X244475Y151765D02*
X241935Y151765D01*
X249555Y151765D02*
X249555Y140335D01*
X255905Y140335D02*
X249555Y151765D01*
X255905Y151765D02*
X255905Y140335D01*
X261366Y146685D02*
X265176Y146685D01*
X265276Y146683D01*
X265375Y146677D01*
X265475Y146667D01*
X265573Y146654D01*
X265672Y146636D01*
X265769Y146615D01*
X265865Y146590D01*
X265961Y146561D01*
X266055Y146528D01*
X266148Y146492D01*
X266239Y146452D01*
X266329Y146408D01*
X266417Y146361D01*
X266503Y146311D01*
X266587Y146257D01*
X266669Y146200D01*
X266748Y146140D01*
X266826Y146076D01*
X266900Y146010D01*
X266972Y145941D01*
X267041Y145869D01*
X267107Y145795D01*
X267171Y145717D01*
X267231Y145638D01*
X267288Y145556D01*
X267342Y145472D01*
X267392Y145386D01*
X267439Y145298D01*
X267483Y145208D01*
X267523Y145117D01*
X267559Y145024D01*
X267592Y144930D01*
X267621Y144834D01*
X267646Y144738D01*
X267667Y144641D01*
X267685Y144542D01*
X267698Y144444D01*
X267708Y144344D01*
X267714Y144245D01*
X267716Y144145D01*
X267716Y143510D01*
X267714Y143399D01*
X267708Y143289D01*
X267699Y143178D01*
X267685Y143068D01*
X267668Y142959D01*
X267647Y142850D01*
X267622Y142742D01*
X267593Y142635D01*
X267561Y142529D01*
X267525Y142424D01*
X267485Y142321D01*
X267442Y142219D01*
X267395Y142118D01*
X267344Y142019D01*
X267291Y141922D01*
X267234Y141828D01*
X267173Y141735D01*
X267110Y141644D01*
X267043Y141555D01*
X266973Y141469D01*
X266900Y141386D01*
X266825Y141304D01*
X266747Y141226D01*
X266665Y141151D01*
X266582Y141078D01*
X266496Y141008D01*
X266407Y140941D01*
X266316Y140878D01*
X266223Y140817D01*
X266128Y140760D01*
X266032Y140707D01*
X265933Y140656D01*
X265832Y140609D01*
X265730Y140566D01*
X265627Y140526D01*
X265522Y140490D01*
X265416Y140458D01*
X265309Y140429D01*
X265201Y140404D01*
X265092Y140383D01*
X264983Y140366D01*
X264873Y140352D01*
X264762Y140343D01*
X264652Y140337D01*
X264541Y140335D01*
X264430Y140337D01*
X264320Y140343D01*
X264209Y140352D01*
X264099Y140366D01*
X263990Y140383D01*
X263881Y140404D01*
X263773Y140429D01*
X263666Y140458D01*
X263560Y140490D01*
X263455Y140526D01*
X263352Y140566D01*
X263250Y140609D01*
X263149Y140656D01*
X263050Y140707D01*
X262954Y140760D01*
X262859Y140817D01*
X262766Y140878D01*
X262675Y140941D01*
X262586Y141008D01*
X262500Y141078D01*
X262417Y141151D01*
X262335Y141226D01*
X262257Y141304D01*
X262182Y141386D01*
X262109Y141469D01*
X262039Y141555D01*
X261972Y141644D01*
X261909Y141735D01*
X261848Y141828D01*
X261791Y141923D01*
X261738Y142019D01*
X261687Y142118D01*
X261640Y142219D01*
X261597Y142321D01*
X261557Y142424D01*
X261521Y142529D01*
X261489Y142635D01*
X261460Y142742D01*
X261435Y142850D01*
X261414Y142959D01*
X261397Y143068D01*
X261383Y143178D01*
X261374Y143289D01*
X261368Y143399D01*
X261366Y143510D01*
X261366Y146685D01*
X261368Y146825D01*
X261374Y146965D01*
X261383Y147105D01*
X261397Y147244D01*
X261414Y147383D01*
X261435Y147521D01*
X261460Y147659D01*
X261489Y147796D01*
X261521Y147932D01*
X261558Y148067D01*
X261598Y148201D01*
X261641Y148334D01*
X261689Y148466D01*
X261739Y148597D01*
X261794Y148726D01*
X261852Y148853D01*
X261913Y148979D01*
X261978Y149103D01*
X262047Y149225D01*
X262118Y149345D01*
X262193Y149463D01*
X262271Y149580D01*
X262353Y149694D01*
X262437Y149805D01*
X262525Y149914D01*
X262615Y150021D01*
X262709Y150126D01*
X262805Y150227D01*
X262904Y150326D01*
X263005Y150422D01*
X263110Y150516D01*
X263217Y150606D01*
X263326Y150694D01*
X263437Y150778D01*
X263551Y150860D01*
X263668Y150938D01*
X263786Y151013D01*
X263906Y151084D01*
X264028Y151153D01*
X264152Y151218D01*
X264278Y151279D01*
X264405Y151337D01*
X264534Y151392D01*
X264665Y151442D01*
X264797Y151490D01*
X264930Y151533D01*
X265064Y151573D01*
X265199Y151610D01*
X265335Y151642D01*
X265472Y151671D01*
X265610Y151696D01*
X265748Y151717D01*
X265887Y151734D01*
X266026Y151748D01*
X266166Y151757D01*
X266306Y151763D01*
X266446Y151765D01*
D13*
X289560Y63500D02*
X294640Y63500D01*
X294640Y38100D02*
X289560Y38100D01*
X294640Y38100D02*
X294640Y39370D01*
X289560Y39370D02*
X289560Y38100D01*
X289560Y62230D02*
X289560Y63500D01*
X294640Y63500D02*
X294640Y62230D01*
D11*
X243205Y62865D02*
X243205Y51435D01*
X241935Y51435D02*
X244475Y51435D01*
X244475Y62865D02*
X241935Y62865D01*
X249555Y62865D02*
X249555Y51435D01*
X255905Y51435D02*
X249555Y62865D01*
X255905Y62865D02*
X255905Y51435D01*
X261366Y61595D02*
X261366Y62865D01*
X267716Y62865D01*
X264541Y51435D01*
D13*
X27940Y63500D02*
X22860Y63500D01*
X22860Y88900D02*
X27940Y88900D01*
X22860Y88900D02*
X22860Y87630D01*
X27940Y87630D02*
X27940Y88900D01*
X27940Y64770D02*
X27940Y63500D01*
X22860Y63500D02*
X22860Y64770D01*
D11*
X40005Y76835D02*
X40005Y88265D01*
X38735Y76835D02*
X41275Y76835D01*
X41275Y88265D02*
X38735Y88265D01*
X46355Y88265D02*
X46355Y76835D01*
X52705Y76835D02*
X46355Y88265D01*
X52705Y88265D02*
X52705Y76835D01*
X58166Y82550D02*
X58169Y82775D01*
X58177Y83000D01*
X58190Y83224D01*
X58209Y83448D01*
X58233Y83672D01*
X58262Y83895D01*
X58297Y84117D01*
X58337Y84338D01*
X58383Y84558D01*
X58433Y84777D01*
X58489Y84995D01*
X58550Y85212D01*
X58616Y85427D01*
X58687Y85640D01*
X58764Y85851D01*
X58845Y86061D01*
X58931Y86269D01*
X59022Y86474D01*
X59118Y86677D01*
X59118Y86678D02*
X59150Y86766D01*
X59186Y86853D01*
X59225Y86939D01*
X59268Y87023D01*
X59314Y87105D01*
X59363Y87185D01*
X59415Y87263D01*
X59471Y87339D01*
X59529Y87413D01*
X59591Y87484D01*
X59655Y87553D01*
X59722Y87619D01*
X59791Y87682D01*
X59863Y87743D01*
X59937Y87801D01*
X60014Y87855D01*
X60092Y87907D01*
X60173Y87955D01*
X60255Y88000D01*
X60340Y88042D01*
X60426Y88080D01*
X60513Y88115D01*
X60601Y88147D01*
X60691Y88174D01*
X60782Y88199D01*
X60874Y88219D01*
X60966Y88236D01*
X61060Y88249D01*
X61153Y88258D01*
X61247Y88264D01*
X61341Y88266D01*
X61435Y88264D01*
X61529Y88258D01*
X61622Y88249D01*
X61716Y88236D01*
X61808Y88219D01*
X61900Y88199D01*
X61991Y88174D01*
X62081Y88147D01*
X62169Y88115D01*
X62256Y88080D01*
X62342Y88042D01*
X62427Y88000D01*
X62509Y87955D01*
X62590Y87907D01*
X62668Y87855D01*
X62745Y87801D01*
X62819Y87743D01*
X62891Y87682D01*
X62960Y87619D01*
X63027Y87553D01*
X63091Y87484D01*
X63153Y87413D01*
X63211Y87339D01*
X63267Y87263D01*
X63319Y87185D01*
X63368Y87105D01*
X63414Y87023D01*
X63457Y86939D01*
X63496Y86853D01*
X63532Y86766D01*
X63564Y86678D01*
X63564Y86677D02*
X63660Y86474D01*
X63751Y86269D01*
X63837Y86061D01*
X63918Y85851D01*
X63995Y85640D01*
X64066Y85427D01*
X64132Y85212D01*
X64193Y84995D01*
X64249Y84777D01*
X64299Y84558D01*
X64345Y84338D01*
X64385Y84117D01*
X64420Y83895D01*
X64449Y83672D01*
X64473Y83448D01*
X64492Y83224D01*
X64505Y83000D01*
X64513Y82775D01*
X64516Y82550D01*
X58166Y82550D02*
X58169Y82325D01*
X58177Y82100D01*
X58190Y81876D01*
X58209Y81652D01*
X58233Y81428D01*
X58262Y81205D01*
X58297Y80983D01*
X58337Y80762D01*
X58383Y80542D01*
X58433Y80323D01*
X58489Y80105D01*
X58550Y79888D01*
X58616Y79673D01*
X58687Y79460D01*
X58764Y79249D01*
X58845Y79039D01*
X58931Y78831D01*
X59022Y78626D01*
X59118Y78423D01*
X59150Y78335D01*
X59186Y78248D01*
X59225Y78162D01*
X59268Y78078D01*
X59314Y77996D01*
X59363Y77916D01*
X59415Y77838D01*
X59471Y77762D01*
X59529Y77688D01*
X59591Y77617D01*
X59655Y77548D01*
X59722Y77482D01*
X59791Y77419D01*
X59863Y77358D01*
X59937Y77300D01*
X60014Y77246D01*
X60092Y77194D01*
X60173Y77146D01*
X60255Y77101D01*
X60340Y77059D01*
X60426Y77021D01*
X60513Y76986D01*
X60601Y76954D01*
X60691Y76927D01*
X60782Y76902D01*
X60874Y76882D01*
X60966Y76865D01*
X61060Y76852D01*
X61153Y76843D01*
X61247Y76837D01*
X61341Y76835D01*
X63564Y78423D02*
X63660Y78626D01*
X63751Y78831D01*
X63837Y79039D01*
X63918Y79249D01*
X63995Y79460D01*
X64066Y79673D01*
X64132Y79888D01*
X64193Y80105D01*
X64249Y80323D01*
X64299Y80542D01*
X64345Y80762D01*
X64385Y80983D01*
X64420Y81205D01*
X64449Y81428D01*
X64473Y81652D01*
X64492Y81876D01*
X64505Y82100D01*
X64513Y82325D01*
X64516Y82550D01*
X63564Y78423D02*
X63532Y78335D01*
X63496Y78248D01*
X63457Y78162D01*
X63414Y78078D01*
X63368Y77996D01*
X63319Y77916D01*
X63267Y77838D01*
X63211Y77762D01*
X63153Y77688D01*
X63091Y77617D01*
X63027Y77548D01*
X62960Y77482D01*
X62891Y77419D01*
X62819Y77358D01*
X62745Y77300D01*
X62668Y77246D01*
X62590Y77194D01*
X62509Y77146D01*
X62427Y77101D01*
X62342Y77059D01*
X62256Y77021D01*
X62169Y76986D01*
X62081Y76954D01*
X61991Y76927D01*
X61900Y76902D01*
X61808Y76882D01*
X61716Y76865D01*
X61622Y76852D01*
X61529Y76843D01*
X61435Y76837D01*
X61341Y76835D01*
X58801Y79375D02*
X63881Y85725D01*
X69723Y81280D02*
X77343Y81280D01*
X73533Y77470D02*
X73533Y85090D01*
D13*
X27940Y152400D02*
X22860Y152400D01*
X22860Y177800D02*
X27940Y177800D01*
X22860Y177800D02*
X22860Y176530D01*
X27940Y176530D02*
X27940Y177800D01*
X27940Y153670D02*
X27940Y152400D01*
X22860Y152400D02*
X22860Y153670D01*
D11*
X40005Y165735D02*
X40005Y177165D01*
X38735Y165735D02*
X41275Y165735D01*
X41275Y177165D02*
X38735Y177165D01*
X46355Y177165D02*
X46355Y165735D01*
X52705Y165735D02*
X46355Y177165D01*
X52705Y177165D02*
X52705Y165735D01*
X58166Y174625D02*
X61341Y177165D01*
X61341Y165735D01*
X58166Y165735D02*
X64516Y165735D01*
X69723Y170180D02*
X77343Y170180D01*
X73533Y166370D02*
X73533Y173990D01*
D13*
X27940Y241300D02*
X22860Y241300D01*
X22860Y266700D02*
X27940Y266700D01*
X22860Y266700D02*
X22860Y265430D01*
X27940Y265430D02*
X27940Y266700D01*
X27940Y242570D02*
X27940Y241300D01*
X22860Y241300D02*
X22860Y242570D01*
D11*
X40005Y254635D02*
X40005Y266065D01*
X38735Y254635D02*
X41275Y254635D01*
X41275Y266065D02*
X38735Y266065D01*
X46355Y266065D02*
X46355Y254635D01*
X52705Y254635D02*
X46355Y266065D01*
X52705Y266065D02*
X52705Y254635D01*
X61659Y266066D02*
X61763Y266064D01*
X61868Y266058D01*
X61972Y266049D01*
X62075Y266036D01*
X62178Y266018D01*
X62280Y265998D01*
X62382Y265973D01*
X62482Y265945D01*
X62582Y265913D01*
X62680Y265877D01*
X62777Y265838D01*
X62872Y265796D01*
X62966Y265750D01*
X63058Y265700D01*
X63148Y265648D01*
X63236Y265592D01*
X63322Y265532D01*
X63406Y265470D01*
X63487Y265405D01*
X63566Y265337D01*
X63643Y265265D01*
X63716Y265192D01*
X63788Y265115D01*
X63856Y265036D01*
X63921Y264955D01*
X63983Y264871D01*
X64043Y264785D01*
X64099Y264697D01*
X64151Y264607D01*
X64201Y264515D01*
X64247Y264421D01*
X64289Y264326D01*
X64328Y264229D01*
X64364Y264131D01*
X64396Y264031D01*
X64424Y263931D01*
X64449Y263829D01*
X64469Y263727D01*
X64487Y263624D01*
X64500Y263521D01*
X64509Y263417D01*
X64515Y263312D01*
X64517Y263208D01*
X61659Y266065D02*
X61541Y266063D01*
X61422Y266057D01*
X61304Y266048D01*
X61187Y266035D01*
X61070Y266017D01*
X60953Y265997D01*
X60837Y265972D01*
X60722Y265944D01*
X60609Y265911D01*
X60496Y265876D01*
X60384Y265836D01*
X60274Y265794D01*
X60165Y265747D01*
X60057Y265697D01*
X59952Y265644D01*
X59848Y265587D01*
X59746Y265527D01*
X59646Y265464D01*
X59548Y265397D01*
X59452Y265328D01*
X59359Y265255D01*
X59268Y265179D01*
X59179Y265101D01*
X59093Y265019D01*
X59010Y264935D01*
X58929Y264849D01*
X58852Y264759D01*
X58777Y264668D01*
X58705Y264574D01*
X58636Y264477D01*
X58571Y264379D01*
X58508Y264278D01*
X58449Y264175D01*
X58393Y264071D01*
X58341Y263965D01*
X58292Y263857D01*
X58247Y263748D01*
X58205Y263637D01*
X58167Y263525D01*
X63564Y260986D02*
X63640Y261061D01*
X63715Y261140D01*
X63786Y261221D01*
X63855Y261305D01*
X63920Y261391D01*
X63982Y261479D01*
X64042Y261569D01*
X64098Y261661D01*
X64151Y261756D01*
X64200Y261852D01*
X64246Y261950D01*
X64289Y262049D01*
X64328Y262150D01*
X64363Y262252D01*
X64395Y262355D01*
X64423Y262459D01*
X64448Y262564D01*
X64469Y262671D01*
X64486Y262777D01*
X64499Y262884D01*
X64508Y262992D01*
X64514Y263100D01*
X64516Y263208D01*
X63564Y260985D02*
X58166Y254635D01*
X64516Y254635D01*
X69723Y259080D02*
X77343Y259080D01*
X73533Y255270D02*
X73533Y262890D01*
D13*
X27940Y330200D02*
X22860Y330200D01*
X22860Y355600D02*
X27940Y355600D01*
X22860Y355600D02*
X22860Y354330D01*
X27940Y354330D02*
X27940Y355600D01*
X27940Y331470D02*
X27940Y330200D01*
X22860Y330200D02*
X22860Y331470D01*
D11*
X40005Y354965D02*
X40005Y366395D01*
X38735Y354965D02*
X41275Y354965D01*
X41275Y366395D02*
X38735Y366395D01*
X46355Y366395D02*
X46355Y354965D01*
X52705Y354965D02*
X46355Y366395D01*
X52705Y366395D02*
X52705Y354965D01*
X58166Y354965D02*
X61341Y354965D01*
X61452Y354967D01*
X61562Y354973D01*
X61673Y354982D01*
X61783Y354996D01*
X61892Y355013D01*
X62001Y355034D01*
X62109Y355059D01*
X62216Y355088D01*
X62322Y355120D01*
X62427Y355156D01*
X62530Y355196D01*
X62632Y355239D01*
X62733Y355286D01*
X62832Y355337D01*
X62928Y355390D01*
X63023Y355447D01*
X63116Y355508D01*
X63207Y355571D01*
X63296Y355638D01*
X63382Y355708D01*
X63465Y355781D01*
X63547Y355856D01*
X63625Y355934D01*
X63700Y356016D01*
X63773Y356099D01*
X63843Y356185D01*
X63910Y356274D01*
X63973Y356365D01*
X64034Y356458D01*
X64091Y356552D01*
X64144Y356649D01*
X64195Y356748D01*
X64242Y356849D01*
X64285Y356951D01*
X64325Y357054D01*
X64361Y357159D01*
X64393Y357265D01*
X64422Y357372D01*
X64447Y357480D01*
X64468Y357589D01*
X64485Y357698D01*
X64499Y357808D01*
X64508Y357919D01*
X64514Y358029D01*
X64516Y358140D01*
X64514Y358251D01*
X64508Y358361D01*
X64499Y358472D01*
X64485Y358582D01*
X64468Y358691D01*
X64447Y358800D01*
X64422Y358908D01*
X64393Y359015D01*
X64361Y359121D01*
X64325Y359226D01*
X64285Y359329D01*
X64242Y359431D01*
X64195Y359532D01*
X64144Y359631D01*
X64091Y359727D01*
X64034Y359822D01*
X63973Y359915D01*
X63910Y360006D01*
X63843Y360095D01*
X63773Y360181D01*
X63700Y360264D01*
X63625Y360346D01*
X63547Y360424D01*
X63465Y360499D01*
X63382Y360572D01*
X63296Y360642D01*
X63207Y360709D01*
X63116Y360772D01*
X63023Y360833D01*
X62929Y360890D01*
X62832Y360943D01*
X62733Y360994D01*
X62632Y361041D01*
X62530Y361084D01*
X62427Y361124D01*
X62322Y361160D01*
X62216Y361192D01*
X62109Y361221D01*
X62001Y361246D01*
X61892Y361267D01*
X61783Y361284D01*
X61673Y361298D01*
X61562Y361307D01*
X61452Y361313D01*
X61341Y361315D01*
X61976Y366395D02*
X58166Y366395D01*
X61976Y366395D02*
X62076Y366393D01*
X62175Y366387D01*
X62275Y366377D01*
X62373Y366364D01*
X62472Y366346D01*
X62569Y366325D01*
X62665Y366300D01*
X62761Y366271D01*
X62855Y366238D01*
X62948Y366202D01*
X63039Y366162D01*
X63129Y366118D01*
X63217Y366071D01*
X63303Y366021D01*
X63387Y365967D01*
X63469Y365910D01*
X63548Y365850D01*
X63626Y365786D01*
X63700Y365720D01*
X63772Y365651D01*
X63841Y365579D01*
X63907Y365505D01*
X63971Y365427D01*
X64031Y365348D01*
X64088Y365266D01*
X64142Y365182D01*
X64192Y365096D01*
X64239Y365008D01*
X64283Y364918D01*
X64323Y364827D01*
X64359Y364734D01*
X64392Y364640D01*
X64421Y364544D01*
X64446Y364448D01*
X64467Y364351D01*
X64485Y364252D01*
X64498Y364154D01*
X64508Y364054D01*
X64514Y363955D01*
X64516Y363855D01*
X64514Y363755D01*
X64508Y363656D01*
X64498Y363556D01*
X64485Y363458D01*
X64467Y363359D01*
X64446Y363262D01*
X64421Y363166D01*
X64392Y363070D01*
X64359Y362976D01*
X64323Y362883D01*
X64283Y362792D01*
X64239Y362702D01*
X64192Y362614D01*
X64142Y362528D01*
X64088Y362444D01*
X64031Y362362D01*
X63971Y362283D01*
X63907Y362205D01*
X63841Y362131D01*
X63772Y362059D01*
X63700Y361990D01*
X63626Y361924D01*
X63548Y361860D01*
X63469Y361800D01*
X63387Y361743D01*
X63303Y361689D01*
X63217Y361639D01*
X63129Y361592D01*
X63039Y361548D01*
X62948Y361508D01*
X62855Y361472D01*
X62761Y361439D01*
X62665Y361410D01*
X62569Y361385D01*
X62472Y361364D01*
X62373Y361346D01*
X62275Y361333D01*
X62175Y361323D01*
X62076Y361317D01*
X61976Y361315D01*
X59436Y361315D01*
X69723Y359410D02*
X77343Y359410D01*
X73533Y355600D02*
X73533Y363220D01*
D13*
X289560Y355600D02*
X294640Y355600D01*
X294640Y330200D02*
X289560Y330200D01*
X294640Y330200D02*
X294640Y331470D01*
X289560Y331470D02*
X289560Y330200D01*
X289560Y354330D02*
X289560Y355600D01*
X294640Y355600D02*
X294640Y354330D01*
D11*
X243205Y354965D02*
X243205Y366395D01*
X241935Y354965D02*
X244475Y354965D01*
X244475Y366395D02*
X241935Y366395D01*
X249555Y366395D02*
X249555Y354965D01*
X255905Y354965D02*
X249555Y366395D01*
X255905Y366395D02*
X255905Y354965D01*
X261366Y357505D02*
X263906Y366395D01*
X261366Y357505D02*
X267716Y357505D01*
X265811Y360045D02*
X265811Y354965D01*
X272923Y359410D02*
X280543Y359410D01*
X276733Y355600D02*
X276733Y363220D01*
D13*
X289560Y266700D02*
X294640Y266700D01*
X294640Y241300D02*
X289560Y241300D01*
X294640Y241300D02*
X294640Y242570D01*
X289560Y242570D02*
X289560Y241300D01*
X289560Y265430D02*
X289560Y266700D01*
X294640Y266700D02*
X294640Y265430D01*
D11*
X243205Y266065D02*
X243205Y254635D01*
X241935Y254635D02*
X244475Y254635D01*
X244475Y266065D02*
X241935Y266065D01*
X249555Y266065D02*
X249555Y254635D01*
X255905Y254635D02*
X249555Y266065D01*
X255905Y266065D02*
X255905Y254635D01*
X261366Y254635D02*
X265176Y254635D01*
X265276Y254637D01*
X265375Y254643D01*
X265475Y254653D01*
X265573Y254666D01*
X265672Y254684D01*
X265769Y254705D01*
X265865Y254730D01*
X265961Y254759D01*
X266055Y254792D01*
X266148Y254828D01*
X266239Y254868D01*
X266329Y254912D01*
X266417Y254959D01*
X266503Y255009D01*
X266587Y255063D01*
X266669Y255120D01*
X266748Y255180D01*
X266826Y255244D01*
X266900Y255310D01*
X266972Y255379D01*
X267041Y255451D01*
X267107Y255525D01*
X267171Y255603D01*
X267231Y255682D01*
X267288Y255764D01*
X267342Y255848D01*
X267392Y255934D01*
X267439Y256022D01*
X267483Y256112D01*
X267523Y256203D01*
X267559Y256296D01*
X267592Y256390D01*
X267621Y256486D01*
X267646Y256582D01*
X267667Y256679D01*
X267685Y256778D01*
X267698Y256876D01*
X267708Y256976D01*
X267714Y257075D01*
X267716Y257175D01*
X267716Y258445D01*
X267714Y258545D01*
X267708Y258644D01*
X267698Y258744D01*
X267685Y258842D01*
X267667Y258941D01*
X267646Y259038D01*
X267621Y259134D01*
X267592Y259230D01*
X267559Y259324D01*
X267523Y259417D01*
X267483Y259508D01*
X267439Y259598D01*
X267392Y259686D01*
X267342Y259772D01*
X267288Y259856D01*
X267231Y259938D01*
X267171Y260017D01*
X267107Y260095D01*
X267041Y260169D01*
X266972Y260241D01*
X266900Y260310D01*
X266826Y260376D01*
X266748Y260440D01*
X266669Y260500D01*
X266587Y260557D01*
X266503Y260611D01*
X266417Y260661D01*
X266329Y260708D01*
X266239Y260752D01*
X266148Y260792D01*
X266055Y260828D01*
X265961Y260861D01*
X265865Y260890D01*
X265769Y260915D01*
X265672Y260936D01*
X265573Y260954D01*
X265475Y260967D01*
X265375Y260977D01*
X265276Y260983D01*
X265176Y260985D01*
X261366Y260985D01*
X261366Y266065D01*
X267716Y266065D01*
X272923Y259080D02*
X280543Y259080D01*
X276733Y255270D02*
X276733Y262890D01*
D13*
X289560Y177800D02*
X294640Y177800D01*
X294640Y152400D02*
X289560Y152400D01*
X294640Y152400D02*
X294640Y153670D01*
X289560Y153670D02*
X289560Y152400D01*
X289560Y176530D02*
X289560Y177800D01*
X294640Y177800D02*
X294640Y176530D01*
D11*
X243205Y177165D02*
X243205Y165735D01*
X241935Y165735D02*
X244475Y165735D01*
X244475Y177165D02*
X241935Y177165D01*
X249555Y177165D02*
X249555Y165735D01*
X255905Y165735D02*
X249555Y177165D01*
X255905Y177165D02*
X255905Y165735D01*
X261366Y172085D02*
X265176Y172085D01*
X265276Y172083D01*
X265375Y172077D01*
X265475Y172067D01*
X265573Y172054D01*
X265672Y172036D01*
X265769Y172015D01*
X265865Y171990D01*
X265961Y171961D01*
X266055Y171928D01*
X266148Y171892D01*
X266239Y171852D01*
X266329Y171808D01*
X266417Y171761D01*
X266503Y171711D01*
X266587Y171657D01*
X266669Y171600D01*
X266748Y171540D01*
X266826Y171476D01*
X266900Y171410D01*
X266972Y171341D01*
X267041Y171269D01*
X267107Y171195D01*
X267171Y171117D01*
X267231Y171038D01*
X267288Y170956D01*
X267342Y170872D01*
X267392Y170786D01*
X267439Y170698D01*
X267483Y170608D01*
X267523Y170517D01*
X267559Y170424D01*
X267592Y170330D01*
X267621Y170234D01*
X267646Y170138D01*
X267667Y170041D01*
X267685Y169942D01*
X267698Y169844D01*
X267708Y169744D01*
X267714Y169645D01*
X267716Y169545D01*
X267716Y168910D01*
X267714Y168799D01*
X267708Y168689D01*
X267699Y168578D01*
X267685Y168468D01*
X267668Y168359D01*
X267647Y168250D01*
X267622Y168142D01*
X267593Y168035D01*
X267561Y167929D01*
X267525Y167824D01*
X267485Y167721D01*
X267442Y167619D01*
X267395Y167518D01*
X267344Y167419D01*
X267291Y167322D01*
X267234Y167228D01*
X267173Y167135D01*
X267110Y167044D01*
X267043Y166955D01*
X266973Y166869D01*
X266900Y166786D01*
X266825Y166704D01*
X266747Y166626D01*
X266665Y166551D01*
X266582Y166478D01*
X266496Y166408D01*
X266407Y166341D01*
X266316Y166278D01*
X266223Y166217D01*
X266128Y166160D01*
X266032Y166107D01*
X265933Y166056D01*
X265832Y166009D01*
X265730Y165966D01*
X265627Y165926D01*
X265522Y165890D01*
X265416Y165858D01*
X265309Y165829D01*
X265201Y165804D01*
X265092Y165783D01*
X264983Y165766D01*
X264873Y165752D01*
X264762Y165743D01*
X264652Y165737D01*
X264541Y165735D01*
X264430Y165737D01*
X264320Y165743D01*
X264209Y165752D01*
X264099Y165766D01*
X263990Y165783D01*
X263881Y165804D01*
X263773Y165829D01*
X263666Y165858D01*
X263560Y165890D01*
X263455Y165926D01*
X263352Y165966D01*
X263250Y166009D01*
X263149Y166056D01*
X263050Y166107D01*
X262954Y166160D01*
X262859Y166217D01*
X262766Y166278D01*
X262675Y166341D01*
X262586Y166408D01*
X262500Y166478D01*
X262417Y166551D01*
X262335Y166626D01*
X262257Y166704D01*
X262182Y166786D01*
X262109Y166869D01*
X262039Y166955D01*
X261972Y167044D01*
X261909Y167135D01*
X261848Y167228D01*
X261791Y167323D01*
X261738Y167419D01*
X261687Y167518D01*
X261640Y167619D01*
X261597Y167721D01*
X261557Y167824D01*
X261521Y167929D01*
X261489Y168035D01*
X261460Y168142D01*
X261435Y168250D01*
X261414Y168359D01*
X261397Y168468D01*
X261383Y168578D01*
X261374Y168689D01*
X261368Y168799D01*
X261366Y168910D01*
X261366Y172085D01*
X261368Y172225D01*
X261374Y172365D01*
X261383Y172505D01*
X261397Y172644D01*
X261414Y172783D01*
X261435Y172921D01*
X261460Y173059D01*
X261489Y173196D01*
X261521Y173332D01*
X261558Y173467D01*
X261598Y173601D01*
X261641Y173734D01*
X261689Y173866D01*
X261739Y173997D01*
X261794Y174126D01*
X261852Y174253D01*
X261913Y174379D01*
X261978Y174503D01*
X262047Y174625D01*
X262118Y174745D01*
X262193Y174863D01*
X262271Y174980D01*
X262353Y175094D01*
X262437Y175205D01*
X262525Y175314D01*
X262615Y175421D01*
X262709Y175526D01*
X262805Y175627D01*
X262904Y175726D01*
X263005Y175822D01*
X263110Y175916D01*
X263217Y176006D01*
X263326Y176094D01*
X263437Y176178D01*
X263551Y176260D01*
X263668Y176338D01*
X263786Y176413D01*
X263906Y176484D01*
X264028Y176553D01*
X264152Y176618D01*
X264278Y176679D01*
X264405Y176737D01*
X264534Y176792D01*
X264665Y176842D01*
X264797Y176890D01*
X264930Y176933D01*
X265064Y176973D01*
X265199Y177010D01*
X265335Y177042D01*
X265472Y177071D01*
X265610Y177096D01*
X265748Y177117D01*
X265887Y177134D01*
X266026Y177148D01*
X266166Y177157D01*
X266306Y177163D01*
X266446Y177165D01*
X272923Y170180D02*
X280543Y170180D01*
X276733Y166370D02*
X276733Y173990D01*
D13*
X289560Y88900D02*
X294640Y88900D01*
X294640Y63500D02*
X289560Y63500D01*
X294640Y63500D02*
X294640Y64770D01*
X289560Y64770D02*
X289560Y63500D01*
X289560Y87630D02*
X289560Y88900D01*
X294640Y88900D02*
X294640Y87630D01*
D11*
X243205Y88265D02*
X243205Y76835D01*
X241935Y76835D02*
X244475Y76835D01*
X244475Y88265D02*
X241935Y88265D01*
X249555Y88265D02*
X249555Y76835D01*
X255905Y76835D02*
X249555Y88265D01*
X255905Y88265D02*
X255905Y76835D01*
X261366Y86995D02*
X261366Y88265D01*
X267716Y88265D01*
X264541Y76835D01*
X272923Y81280D02*
X280543Y81280D01*
X276733Y77470D02*
X276733Y85090D01*
D13*
X27940Y12700D02*
X22860Y12700D01*
X22860Y38100D02*
X27940Y38100D01*
X22860Y38100D02*
X22860Y36830D01*
X27940Y36830D02*
X27940Y38100D01*
X27940Y13970D02*
X27940Y12700D01*
X22860Y12700D02*
X22860Y13970D01*
D11*
X40005Y14605D02*
X40005Y3175D01*
X38735Y3175D02*
X41275Y3175D01*
X41275Y14605D02*
X38735Y14605D01*
X46355Y14605D02*
X46355Y3175D01*
X52705Y3175D02*
X46355Y14605D01*
X52705Y14605D02*
X52705Y3175D01*
X58166Y8890D02*
X58169Y9115D01*
X58177Y9340D01*
X58190Y9564D01*
X58209Y9788D01*
X58233Y10012D01*
X58262Y10235D01*
X58297Y10457D01*
X58337Y10678D01*
X58383Y10898D01*
X58433Y11117D01*
X58489Y11335D01*
X58550Y11552D01*
X58616Y11767D01*
X58687Y11980D01*
X58764Y12191D01*
X58845Y12401D01*
X58931Y12609D01*
X59022Y12814D01*
X59118Y13017D01*
X59118Y13018D02*
X59150Y13106D01*
X59186Y13193D01*
X59225Y13279D01*
X59268Y13363D01*
X59314Y13445D01*
X59363Y13525D01*
X59415Y13603D01*
X59471Y13679D01*
X59529Y13753D01*
X59591Y13824D01*
X59655Y13893D01*
X59722Y13959D01*
X59791Y14022D01*
X59863Y14083D01*
X59937Y14141D01*
X60014Y14195D01*
X60092Y14247D01*
X60173Y14295D01*
X60255Y14340D01*
X60340Y14382D01*
X60426Y14420D01*
X60513Y14455D01*
X60601Y14487D01*
X60691Y14514D01*
X60782Y14539D01*
X60874Y14559D01*
X60966Y14576D01*
X61060Y14589D01*
X61153Y14598D01*
X61247Y14604D01*
X61341Y14606D01*
X61435Y14604D01*
X61529Y14598D01*
X61622Y14589D01*
X61716Y14576D01*
X61808Y14559D01*
X61900Y14539D01*
X61991Y14514D01*
X62081Y14487D01*
X62169Y14455D01*
X62256Y14420D01*
X62342Y14382D01*
X62427Y14340D01*
X62509Y14295D01*
X62590Y14247D01*
X62668Y14195D01*
X62745Y14141D01*
X62819Y14083D01*
X62891Y14022D01*
X62960Y13959D01*
X63027Y13893D01*
X63091Y13824D01*
X63153Y13753D01*
X63211Y13679D01*
X63267Y13603D01*
X63319Y13525D01*
X63368Y13445D01*
X63414Y13363D01*
X63457Y13279D01*
X63496Y13193D01*
X63532Y13106D01*
X63564Y13018D01*
X63564Y13017D02*
X63660Y12814D01*
X63751Y12609D01*
X63837Y12401D01*
X63918Y12191D01*
X63995Y11980D01*
X64066Y11767D01*
X64132Y11552D01*
X64193Y11335D01*
X64249Y11117D01*
X64299Y10898D01*
X64345Y10678D01*
X64385Y10457D01*
X64420Y10235D01*
X64449Y10012D01*
X64473Y9788D01*
X64492Y9564D01*
X64505Y9340D01*
X64513Y9115D01*
X64516Y8890D01*
X58166Y8890D02*
X58169Y8665D01*
X58177Y8440D01*
X58190Y8216D01*
X58209Y7992D01*
X58233Y7768D01*
X58262Y7545D01*
X58297Y7323D01*
X58337Y7102D01*
X58383Y6882D01*
X58433Y6663D01*
X58489Y6445D01*
X58550Y6228D01*
X58616Y6013D01*
X58687Y5800D01*
X58764Y5589D01*
X58845Y5379D01*
X58931Y5171D01*
X59022Y4966D01*
X59118Y4763D01*
X59150Y4675D01*
X59186Y4588D01*
X59225Y4502D01*
X59268Y4418D01*
X59314Y4336D01*
X59363Y4256D01*
X59415Y4178D01*
X59471Y4102D01*
X59529Y4028D01*
X59591Y3957D01*
X59655Y3888D01*
X59722Y3822D01*
X59791Y3759D01*
X59863Y3698D01*
X59937Y3640D01*
X60014Y3586D01*
X60092Y3534D01*
X60173Y3486D01*
X60255Y3441D01*
X60340Y3399D01*
X60426Y3361D01*
X60513Y3326D01*
X60601Y3294D01*
X60691Y3267D01*
X60782Y3242D01*
X60874Y3222D01*
X60966Y3205D01*
X61060Y3192D01*
X61153Y3183D01*
X61247Y3177D01*
X61341Y3175D01*
X63564Y4763D02*
X63660Y4966D01*
X63751Y5171D01*
X63837Y5379D01*
X63918Y5589D01*
X63995Y5800D01*
X64066Y6013D01*
X64132Y6228D01*
X64193Y6445D01*
X64249Y6663D01*
X64299Y6882D01*
X64345Y7102D01*
X64385Y7323D01*
X64420Y7545D01*
X64449Y7768D01*
X64473Y7992D01*
X64492Y8216D01*
X64505Y8440D01*
X64513Y8665D01*
X64516Y8890D01*
X63564Y4763D02*
X63532Y4675D01*
X63496Y4588D01*
X63457Y4502D01*
X63414Y4418D01*
X63368Y4336D01*
X63319Y4256D01*
X63267Y4178D01*
X63211Y4102D01*
X63153Y4028D01*
X63091Y3957D01*
X63027Y3888D01*
X62960Y3822D01*
X62891Y3759D01*
X62819Y3698D01*
X62745Y3640D01*
X62668Y3586D01*
X62590Y3534D01*
X62509Y3486D01*
X62427Y3441D01*
X62342Y3399D01*
X62256Y3361D01*
X62169Y3326D01*
X62081Y3294D01*
X61991Y3267D01*
X61900Y3242D01*
X61808Y3222D01*
X61716Y3205D01*
X61622Y3192D01*
X61529Y3183D01*
X61435Y3177D01*
X61341Y3175D01*
X58801Y5715D02*
X63881Y12065D01*
X69723Y7620D02*
X77343Y7620D01*
D13*
X27940Y101600D02*
X22860Y101600D01*
X22860Y127000D02*
X27940Y127000D01*
X22860Y127000D02*
X22860Y125730D01*
X27940Y125730D02*
X27940Y127000D01*
X27940Y102870D02*
X27940Y101600D01*
X22860Y101600D02*
X22860Y102870D01*
D11*
X40005Y114935D02*
X40005Y126365D01*
X38735Y114935D02*
X41275Y114935D01*
X41275Y126365D02*
X38735Y126365D01*
X46355Y126365D02*
X46355Y114935D01*
X52705Y114935D02*
X46355Y126365D01*
X52705Y126365D02*
X52705Y114935D01*
X58166Y123825D02*
X61341Y126365D01*
X61341Y114935D01*
X58166Y114935D02*
X64516Y114935D01*
X69723Y119380D02*
X77343Y119380D01*
D13*
X27940Y190500D02*
X22860Y190500D01*
X22860Y215900D02*
X27940Y215900D01*
X22860Y215900D02*
X22860Y214630D01*
X27940Y214630D02*
X27940Y215900D01*
X27940Y191770D02*
X27940Y190500D01*
X22860Y190500D02*
X22860Y191770D01*
D11*
X40005Y203835D02*
X40005Y215265D01*
X38735Y203835D02*
X41275Y203835D01*
X41275Y215265D02*
X38735Y215265D01*
X46355Y215265D02*
X46355Y203835D01*
X52705Y203835D02*
X46355Y215265D01*
X52705Y215265D02*
X52705Y203835D01*
X61659Y215266D02*
X61763Y215264D01*
X61868Y215258D01*
X61972Y215249D01*
X62075Y215236D01*
X62178Y215218D01*
X62280Y215198D01*
X62382Y215173D01*
X62482Y215145D01*
X62582Y215113D01*
X62680Y215077D01*
X62777Y215038D01*
X62872Y214996D01*
X62966Y214950D01*
X63058Y214900D01*
X63148Y214848D01*
X63236Y214792D01*
X63322Y214732D01*
X63406Y214670D01*
X63487Y214605D01*
X63566Y214537D01*
X63643Y214465D01*
X63716Y214392D01*
X63788Y214315D01*
X63856Y214236D01*
X63921Y214155D01*
X63983Y214071D01*
X64043Y213985D01*
X64099Y213897D01*
X64151Y213807D01*
X64201Y213715D01*
X64247Y213621D01*
X64289Y213526D01*
X64328Y213429D01*
X64364Y213331D01*
X64396Y213231D01*
X64424Y213131D01*
X64449Y213029D01*
X64469Y212927D01*
X64487Y212824D01*
X64500Y212721D01*
X64509Y212617D01*
X64515Y212512D01*
X64517Y212408D01*
X61659Y215265D02*
X61541Y215263D01*
X61422Y215257D01*
X61304Y215248D01*
X61187Y215235D01*
X61070Y215217D01*
X60953Y215197D01*
X60837Y215172D01*
X60722Y215144D01*
X60609Y215111D01*
X60496Y215076D01*
X60384Y215036D01*
X60274Y214994D01*
X60165Y214947D01*
X60057Y214897D01*
X59952Y214844D01*
X59848Y214787D01*
X59746Y214727D01*
X59646Y214664D01*
X59548Y214597D01*
X59452Y214528D01*
X59359Y214455D01*
X59268Y214379D01*
X59179Y214301D01*
X59093Y214219D01*
X59010Y214135D01*
X58929Y214049D01*
X58852Y213959D01*
X58777Y213868D01*
X58705Y213774D01*
X58636Y213677D01*
X58571Y213579D01*
X58508Y213478D01*
X58449Y213375D01*
X58393Y213271D01*
X58341Y213165D01*
X58292Y213057D01*
X58247Y212948D01*
X58205Y212837D01*
X58167Y212725D01*
X63564Y210186D02*
X63640Y210261D01*
X63715Y210340D01*
X63786Y210421D01*
X63855Y210505D01*
X63920Y210591D01*
X63982Y210679D01*
X64042Y210769D01*
X64098Y210861D01*
X64151Y210956D01*
X64200Y211052D01*
X64246Y211150D01*
X64289Y211249D01*
X64328Y211350D01*
X64363Y211452D01*
X64395Y211555D01*
X64423Y211659D01*
X64448Y211764D01*
X64469Y211871D01*
X64486Y211977D01*
X64499Y212084D01*
X64508Y212192D01*
X64514Y212300D01*
X64516Y212408D01*
X63564Y210185D02*
X58166Y203835D01*
X64516Y203835D01*
X69723Y208280D02*
X77343Y208280D01*
D13*
X27940Y279400D02*
X22860Y279400D01*
X22860Y304800D02*
X27940Y304800D01*
X22860Y304800D02*
X22860Y303530D01*
X27940Y303530D02*
X27940Y304800D01*
X27940Y280670D02*
X27940Y279400D01*
X22860Y279400D02*
X22860Y280670D01*
D11*
X40005Y292735D02*
X40005Y304165D01*
X38735Y292735D02*
X41275Y292735D01*
X41275Y304165D02*
X38735Y304165D01*
X46355Y304165D02*
X46355Y292735D01*
X52705Y292735D02*
X46355Y304165D01*
X52705Y304165D02*
X52705Y292735D01*
X58166Y292735D02*
X61341Y292735D01*
X61452Y292737D01*
X61562Y292743D01*
X61673Y292752D01*
X61783Y292766D01*
X61892Y292783D01*
X62001Y292804D01*
X62109Y292829D01*
X62216Y292858D01*
X62322Y292890D01*
X62427Y292926D01*
X62530Y292966D01*
X62632Y293009D01*
X62733Y293056D01*
X62832Y293107D01*
X62928Y293160D01*
X63023Y293217D01*
X63116Y293278D01*
X63207Y293341D01*
X63296Y293408D01*
X63382Y293478D01*
X63465Y293551D01*
X63547Y293626D01*
X63625Y293704D01*
X63700Y293786D01*
X63773Y293869D01*
X63843Y293955D01*
X63910Y294044D01*
X63973Y294135D01*
X64034Y294228D01*
X64091Y294322D01*
X64144Y294419D01*
X64195Y294518D01*
X64242Y294619D01*
X64285Y294721D01*
X64325Y294824D01*
X64361Y294929D01*
X64393Y295035D01*
X64422Y295142D01*
X64447Y295250D01*
X64468Y295359D01*
X64485Y295468D01*
X64499Y295578D01*
X64508Y295689D01*
X64514Y295799D01*
X64516Y295910D01*
X64514Y296021D01*
X64508Y296131D01*
X64499Y296242D01*
X64485Y296352D01*
X64468Y296461D01*
X64447Y296570D01*
X64422Y296678D01*
X64393Y296785D01*
X64361Y296891D01*
X64325Y296996D01*
X64285Y297099D01*
X64242Y297201D01*
X64195Y297302D01*
X64144Y297401D01*
X64091Y297497D01*
X64034Y297592D01*
X63973Y297685D01*
X63910Y297776D01*
X63843Y297865D01*
X63773Y297951D01*
X63700Y298034D01*
X63625Y298116D01*
X63547Y298194D01*
X63465Y298269D01*
X63382Y298342D01*
X63296Y298412D01*
X63207Y298479D01*
X63116Y298542D01*
X63023Y298603D01*
X62929Y298660D01*
X62832Y298713D01*
X62733Y298764D01*
X62632Y298811D01*
X62530Y298854D01*
X62427Y298894D01*
X62322Y298930D01*
X62216Y298962D01*
X62109Y298991D01*
X62001Y299016D01*
X61892Y299037D01*
X61783Y299054D01*
X61673Y299068D01*
X61562Y299077D01*
X61452Y299083D01*
X61341Y299085D01*
X61976Y304165D02*
X58166Y304165D01*
X61976Y304165D02*
X62076Y304163D01*
X62175Y304157D01*
X62275Y304147D01*
X62373Y304134D01*
X62472Y304116D01*
X62569Y304095D01*
X62665Y304070D01*
X62761Y304041D01*
X62855Y304008D01*
X62948Y303972D01*
X63039Y303932D01*
X63129Y303888D01*
X63217Y303841D01*
X63303Y303791D01*
X63387Y303737D01*
X63469Y303680D01*
X63548Y303620D01*
X63626Y303556D01*
X63700Y303490D01*
X63772Y303421D01*
X63841Y303349D01*
X63907Y303275D01*
X63971Y303197D01*
X64031Y303118D01*
X64088Y303036D01*
X64142Y302952D01*
X64192Y302866D01*
X64239Y302778D01*
X64283Y302688D01*
X64323Y302597D01*
X64359Y302504D01*
X64392Y302410D01*
X64421Y302314D01*
X64446Y302218D01*
X64467Y302121D01*
X64485Y302022D01*
X64498Y301924D01*
X64508Y301824D01*
X64514Y301725D01*
X64516Y301625D01*
X64514Y301525D01*
X64508Y301426D01*
X64498Y301326D01*
X64485Y301228D01*
X64467Y301129D01*
X64446Y301032D01*
X64421Y300936D01*
X64392Y300840D01*
X64359Y300746D01*
X64323Y300653D01*
X64283Y300562D01*
X64239Y300472D01*
X64192Y300384D01*
X64142Y300298D01*
X64088Y300214D01*
X64031Y300132D01*
X63971Y300053D01*
X63907Y299975D01*
X63841Y299901D01*
X63772Y299829D01*
X63700Y299760D01*
X63626Y299694D01*
X63548Y299630D01*
X63469Y299570D01*
X63387Y299513D01*
X63303Y299459D01*
X63217Y299409D01*
X63129Y299362D01*
X63039Y299318D01*
X62948Y299278D01*
X62855Y299242D01*
X62761Y299209D01*
X62665Y299180D01*
X62569Y299155D01*
X62472Y299134D01*
X62373Y299116D01*
X62275Y299103D01*
X62175Y299093D01*
X62076Y299087D01*
X61976Y299085D01*
X59436Y299085D01*
X69723Y297180D02*
X77343Y297180D01*
D13*
X289560Y304800D02*
X294640Y304800D01*
X294640Y279400D02*
X289560Y279400D01*
X294640Y279400D02*
X294640Y280670D01*
X289560Y280670D02*
X289560Y279400D01*
X289560Y303530D02*
X289560Y304800D01*
X294640Y304800D02*
X294640Y303530D01*
D11*
X243205Y304165D02*
X243205Y292735D01*
X241935Y292735D02*
X244475Y292735D01*
X244475Y304165D02*
X241935Y304165D01*
X249555Y304165D02*
X249555Y292735D01*
X255905Y292735D02*
X249555Y304165D01*
X255905Y304165D02*
X255905Y292735D01*
X261366Y295275D02*
X263906Y304165D01*
X261366Y295275D02*
X267716Y295275D01*
X265811Y297815D02*
X265811Y292735D01*
X272923Y297180D02*
X280543Y297180D01*
D13*
X289560Y215900D02*
X294640Y215900D01*
X294640Y190500D02*
X289560Y190500D01*
X294640Y190500D02*
X294640Y191770D01*
X289560Y191770D02*
X289560Y190500D01*
X289560Y214630D02*
X289560Y215900D01*
X294640Y215900D02*
X294640Y214630D01*
D11*
X243205Y215265D02*
X243205Y203835D01*
X241935Y203835D02*
X244475Y203835D01*
X244475Y215265D02*
X241935Y215265D01*
X249555Y215265D02*
X249555Y203835D01*
X255905Y203835D02*
X249555Y215265D01*
X255905Y215265D02*
X255905Y203835D01*
X261366Y203835D02*
X265176Y203835D01*
X265276Y203837D01*
X265375Y203843D01*
X265475Y203853D01*
X265573Y203866D01*
X265672Y203884D01*
X265769Y203905D01*
X265865Y203930D01*
X265961Y203959D01*
X266055Y203992D01*
X266148Y204028D01*
X266239Y204068D01*
X266329Y204112D01*
X266417Y204159D01*
X266503Y204209D01*
X266587Y204263D01*
X266669Y204320D01*
X266748Y204380D01*
X266826Y204444D01*
X266900Y204510D01*
X266972Y204579D01*
X267041Y204651D01*
X267107Y204725D01*
X267171Y204803D01*
X267231Y204882D01*
X267288Y204964D01*
X267342Y205048D01*
X267392Y205134D01*
X267439Y205222D01*
X267483Y205312D01*
X267523Y205403D01*
X267559Y205496D01*
X267592Y205590D01*
X267621Y205686D01*
X267646Y205782D01*
X267667Y205879D01*
X267685Y205978D01*
X267698Y206076D01*
X267708Y206176D01*
X267714Y206275D01*
X267716Y206375D01*
X267716Y207645D01*
X267714Y207745D01*
X267708Y207844D01*
X267698Y207944D01*
X267685Y208042D01*
X267667Y208141D01*
X267646Y208238D01*
X267621Y208334D01*
X267592Y208430D01*
X267559Y208524D01*
X267523Y208617D01*
X267483Y208708D01*
X267439Y208798D01*
X267392Y208886D01*
X267342Y208972D01*
X267288Y209056D01*
X267231Y209138D01*
X267171Y209217D01*
X267107Y209295D01*
X267041Y209369D01*
X266972Y209441D01*
X266900Y209510D01*
X266826Y209576D01*
X266748Y209640D01*
X266669Y209700D01*
X266587Y209757D01*
X266503Y209811D01*
X266417Y209861D01*
X266329Y209908D01*
X266239Y209952D01*
X266148Y209992D01*
X266055Y210028D01*
X265961Y210061D01*
X265865Y210090D01*
X265769Y210115D01*
X265672Y210136D01*
X265573Y210154D01*
X265475Y210167D01*
X265375Y210177D01*
X265276Y210183D01*
X265176Y210185D01*
X261366Y210185D01*
X261366Y215265D01*
X267716Y215265D01*
X272923Y208280D02*
X280543Y208280D01*
D13*
X289560Y127000D02*
X294640Y127000D01*
X294640Y101600D02*
X289560Y101600D01*
X294640Y101600D02*
X294640Y102870D01*
X289560Y102870D02*
X289560Y101600D01*
X289560Y125730D02*
X289560Y127000D01*
X294640Y127000D02*
X294640Y125730D01*
D11*
X243205Y126365D02*
X243205Y114935D01*
X241935Y114935D02*
X244475Y114935D01*
X244475Y126365D02*
X241935Y126365D01*
X249555Y126365D02*
X249555Y114935D01*
X255905Y114935D02*
X249555Y126365D01*
X255905Y126365D02*
X255905Y114935D01*
X261366Y121285D02*
X265176Y121285D01*
X265276Y121283D01*
X265375Y121277D01*
X265475Y121267D01*
X265573Y121254D01*
X265672Y121236D01*
X265769Y121215D01*
X265865Y121190D01*
X265961Y121161D01*
X266055Y121128D01*
X266148Y121092D01*
X266239Y121052D01*
X266329Y121008D01*
X266417Y120961D01*
X266503Y120911D01*
X266587Y120857D01*
X266669Y120800D01*
X266748Y120740D01*
X266826Y120676D01*
X266900Y120610D01*
X266972Y120541D01*
X267041Y120469D01*
X267107Y120395D01*
X267171Y120317D01*
X267231Y120238D01*
X267288Y120156D01*
X267342Y120072D01*
X267392Y119986D01*
X267439Y119898D01*
X267483Y119808D01*
X267523Y119717D01*
X267559Y119624D01*
X267592Y119530D01*
X267621Y119434D01*
X267646Y119338D01*
X267667Y119241D01*
X267685Y119142D01*
X267698Y119044D01*
X267708Y118944D01*
X267714Y118845D01*
X267716Y118745D01*
X267716Y118110D01*
X267714Y117999D01*
X267708Y117889D01*
X267699Y117778D01*
X267685Y117668D01*
X267668Y117559D01*
X267647Y117450D01*
X267622Y117342D01*
X267593Y117235D01*
X267561Y117129D01*
X267525Y117024D01*
X267485Y116921D01*
X267442Y116819D01*
X267395Y116718D01*
X267344Y116619D01*
X267291Y116522D01*
X267234Y116428D01*
X267173Y116335D01*
X267110Y116244D01*
X267043Y116155D01*
X266973Y116069D01*
X266900Y115986D01*
X266825Y115904D01*
X266747Y115826D01*
X266665Y115751D01*
X266582Y115678D01*
X266496Y115608D01*
X266407Y115541D01*
X266316Y115478D01*
X266223Y115417D01*
X266128Y115360D01*
X266032Y115307D01*
X265933Y115256D01*
X265832Y115209D01*
X265730Y115166D01*
X265627Y115126D01*
X265522Y115090D01*
X265416Y115058D01*
X265309Y115029D01*
X265201Y115004D01*
X265092Y114983D01*
X264983Y114966D01*
X264873Y114952D01*
X264762Y114943D01*
X264652Y114937D01*
X264541Y114935D01*
X264430Y114937D01*
X264320Y114943D01*
X264209Y114952D01*
X264099Y114966D01*
X263990Y114983D01*
X263881Y115004D01*
X263773Y115029D01*
X263666Y115058D01*
X263560Y115090D01*
X263455Y115126D01*
X263352Y115166D01*
X263250Y115209D01*
X263149Y115256D01*
X263050Y115307D01*
X262954Y115360D01*
X262859Y115417D01*
X262766Y115478D01*
X262675Y115541D01*
X262586Y115608D01*
X262500Y115678D01*
X262417Y115751D01*
X262335Y115826D01*
X262257Y115904D01*
X262182Y115986D01*
X262109Y116069D01*
X262039Y116155D01*
X261972Y116244D01*
X261909Y116335D01*
X261848Y116428D01*
X261791Y116523D01*
X261738Y116619D01*
X261687Y116718D01*
X261640Y116819D01*
X261597Y116921D01*
X261557Y117024D01*
X261521Y117129D01*
X261489Y117235D01*
X261460Y117342D01*
X261435Y117450D01*
X261414Y117559D01*
X261397Y117668D01*
X261383Y117778D01*
X261374Y117889D01*
X261368Y117999D01*
X261366Y118110D01*
X261366Y121285D01*
X261368Y121425D01*
X261374Y121565D01*
X261383Y121705D01*
X261397Y121844D01*
X261414Y121983D01*
X261435Y122121D01*
X261460Y122259D01*
X261489Y122396D01*
X261521Y122532D01*
X261558Y122667D01*
X261598Y122801D01*
X261641Y122934D01*
X261689Y123066D01*
X261739Y123197D01*
X261794Y123326D01*
X261852Y123453D01*
X261913Y123579D01*
X261978Y123703D01*
X262047Y123825D01*
X262118Y123945D01*
X262193Y124063D01*
X262271Y124180D01*
X262353Y124294D01*
X262437Y124405D01*
X262525Y124514D01*
X262615Y124621D01*
X262709Y124726D01*
X262805Y124827D01*
X262904Y124926D01*
X263005Y125022D01*
X263110Y125116D01*
X263217Y125206D01*
X263326Y125294D01*
X263437Y125378D01*
X263551Y125460D01*
X263668Y125538D01*
X263786Y125613D01*
X263906Y125684D01*
X264028Y125753D01*
X264152Y125818D01*
X264278Y125879D01*
X264405Y125937D01*
X264534Y125992D01*
X264665Y126042D01*
X264797Y126090D01*
X264930Y126133D01*
X265064Y126173D01*
X265199Y126210D01*
X265335Y126242D01*
X265472Y126271D01*
X265610Y126296D01*
X265748Y126317D01*
X265887Y126334D01*
X266026Y126348D01*
X266166Y126357D01*
X266306Y126363D01*
X266446Y126365D01*
X272923Y119380D02*
X280543Y119380D01*
D13*
X289560Y38100D02*
X294640Y38100D01*
X294640Y12700D02*
X289560Y12700D01*
X294640Y12700D02*
X294640Y13970D01*
X289560Y13970D02*
X289560Y12700D01*
X289560Y36830D02*
X289560Y38100D01*
X294640Y38100D02*
X294640Y36830D01*
D11*
X243205Y14605D02*
X243205Y3175D01*
X241935Y3175D02*
X244475Y3175D01*
X244475Y14605D02*
X241935Y14605D01*
X249555Y14605D02*
X249555Y3175D01*
X255905Y3175D02*
X249555Y14605D01*
X255905Y14605D02*
X255905Y3175D01*
X261366Y13335D02*
X261366Y14605D01*
X267716Y14605D01*
X264541Y3175D01*
X272923Y7620D02*
X280543Y7620D01*
D13*
X88900Y22860D02*
X88900Y27940D01*
X114300Y27940D02*
X114300Y22860D01*
X114300Y27940D02*
X113030Y27940D01*
X113030Y22860D02*
X114300Y22860D01*
X90170Y22860D02*
X88900Y22860D01*
X88900Y27940D02*
X90170Y27940D01*
D11*
X96520Y38735D02*
X96520Y46355D01*
X100330Y42545D02*
X92710Y42545D01*
X100965Y51562D02*
X100965Y55372D01*
X100963Y55472D01*
X100957Y55571D01*
X100947Y55671D01*
X100934Y55769D01*
X100916Y55868D01*
X100895Y55965D01*
X100870Y56061D01*
X100841Y56157D01*
X100808Y56251D01*
X100772Y56344D01*
X100732Y56435D01*
X100688Y56525D01*
X100641Y56613D01*
X100591Y56699D01*
X100537Y56783D01*
X100480Y56865D01*
X100420Y56944D01*
X100356Y57022D01*
X100290Y57096D01*
X100221Y57168D01*
X100149Y57237D01*
X100075Y57303D01*
X99997Y57367D01*
X99918Y57427D01*
X99836Y57484D01*
X99752Y57538D01*
X99666Y57588D01*
X99578Y57635D01*
X99488Y57679D01*
X99397Y57719D01*
X99304Y57755D01*
X99210Y57788D01*
X99114Y57817D01*
X99018Y57842D01*
X98921Y57863D01*
X98822Y57881D01*
X98724Y57894D01*
X98624Y57904D01*
X98525Y57910D01*
X98425Y57912D01*
X97155Y57912D01*
X97055Y57910D01*
X96956Y57904D01*
X96856Y57894D01*
X96758Y57881D01*
X96659Y57863D01*
X96562Y57842D01*
X96466Y57817D01*
X96370Y57788D01*
X96276Y57755D01*
X96183Y57719D01*
X96092Y57679D01*
X96002Y57635D01*
X95914Y57588D01*
X95828Y57538D01*
X95744Y57484D01*
X95662Y57427D01*
X95583Y57367D01*
X95505Y57303D01*
X95431Y57237D01*
X95359Y57168D01*
X95290Y57096D01*
X95224Y57022D01*
X95160Y56944D01*
X95100Y56865D01*
X95043Y56783D01*
X94989Y56699D01*
X94939Y56613D01*
X94892Y56525D01*
X94848Y56435D01*
X94808Y56344D01*
X94772Y56251D01*
X94739Y56157D01*
X94710Y56061D01*
X94685Y55965D01*
X94664Y55868D01*
X94646Y55769D01*
X94633Y55671D01*
X94623Y55571D01*
X94617Y55472D01*
X94615Y55372D01*
X94615Y51562D01*
X89535Y51562D01*
X89535Y57912D01*
X89535Y62357D02*
X100965Y66167D01*
X89535Y69977D01*
D13*
X127000Y27940D02*
X127000Y22860D01*
X152400Y22860D02*
X152400Y27940D01*
X151130Y27940D01*
X151130Y22860D02*
X152400Y22860D01*
X128270Y22860D02*
X127000Y22860D01*
X127000Y27940D02*
X128270Y27940D01*
D11*
X132715Y43180D02*
X132715Y45085D01*
X139065Y45085D01*
X139065Y41275D01*
X139063Y41175D01*
X139057Y41076D01*
X139047Y40976D01*
X139034Y40878D01*
X139016Y40779D01*
X138995Y40682D01*
X138970Y40586D01*
X138941Y40490D01*
X138908Y40396D01*
X138872Y40303D01*
X138832Y40212D01*
X138788Y40122D01*
X138741Y40034D01*
X138691Y39948D01*
X138637Y39864D01*
X138580Y39782D01*
X138520Y39703D01*
X138456Y39625D01*
X138390Y39551D01*
X138321Y39479D01*
X138249Y39410D01*
X138175Y39344D01*
X138097Y39280D01*
X138018Y39220D01*
X137936Y39163D01*
X137852Y39109D01*
X137766Y39059D01*
X137678Y39012D01*
X137588Y38968D01*
X137497Y38928D01*
X137404Y38892D01*
X137310Y38859D01*
X137214Y38830D01*
X137118Y38805D01*
X137021Y38784D01*
X136922Y38766D01*
X136824Y38753D01*
X136724Y38743D01*
X136625Y38737D01*
X136525Y38735D01*
X130175Y38735D01*
X130075Y38737D01*
X129976Y38743D01*
X129876Y38753D01*
X129778Y38766D01*
X129679Y38784D01*
X129582Y38805D01*
X129486Y38830D01*
X129390Y38859D01*
X129296Y38892D01*
X129203Y38928D01*
X129112Y38968D01*
X129022Y39012D01*
X128934Y39059D01*
X128848Y39109D01*
X128764Y39163D01*
X128682Y39220D01*
X128603Y39280D01*
X128525Y39344D01*
X128451Y39410D01*
X128379Y39479D01*
X128310Y39551D01*
X128244Y39625D01*
X128180Y39703D01*
X128120Y39782D01*
X128063Y39864D01*
X128009Y39948D01*
X127959Y40034D01*
X127912Y40122D01*
X127868Y40212D01*
X127828Y40303D01*
X127792Y40396D01*
X127759Y40490D01*
X127730Y40586D01*
X127705Y40682D01*
X127684Y40779D01*
X127666Y40878D01*
X127653Y40976D01*
X127643Y41076D01*
X127637Y41175D01*
X127635Y41275D01*
X127635Y45085D01*
X127635Y50927D02*
X139065Y50927D01*
X139065Y57277D02*
X127635Y50927D01*
X127635Y57277D02*
X139065Y57277D01*
X139065Y63119D02*
X127635Y63119D01*
X127635Y66294D01*
X127637Y66405D01*
X127643Y66515D01*
X127652Y66626D01*
X127666Y66736D01*
X127683Y66845D01*
X127704Y66954D01*
X127729Y67062D01*
X127758Y67169D01*
X127790Y67275D01*
X127826Y67380D01*
X127866Y67483D01*
X127909Y67585D01*
X127956Y67686D01*
X128007Y67785D01*
X128060Y67882D01*
X128117Y67976D01*
X128178Y68069D01*
X128241Y68160D01*
X128308Y68249D01*
X128378Y68335D01*
X128451Y68418D01*
X128526Y68500D01*
X128604Y68578D01*
X128686Y68653D01*
X128769Y68726D01*
X128855Y68796D01*
X128944Y68863D01*
X129035Y68926D01*
X129128Y68987D01*
X129223Y69044D01*
X129319Y69097D01*
X129418Y69148D01*
X129519Y69195D01*
X129621Y69238D01*
X129724Y69278D01*
X129829Y69314D01*
X129935Y69346D01*
X130042Y69375D01*
X130150Y69400D01*
X130259Y69421D01*
X130368Y69438D01*
X130478Y69452D01*
X130589Y69461D01*
X130699Y69467D01*
X130810Y69469D01*
X135890Y69469D01*
X136001Y69467D01*
X136111Y69461D01*
X136222Y69452D01*
X136332Y69438D01*
X136441Y69421D01*
X136550Y69400D01*
X136658Y69375D01*
X136765Y69346D01*
X136871Y69314D01*
X136976Y69278D01*
X137079Y69238D01*
X137181Y69195D01*
X137282Y69148D01*
X137381Y69097D01*
X137478Y69044D01*
X137572Y68987D01*
X137665Y68926D01*
X137756Y68863D01*
X137845Y68796D01*
X137931Y68726D01*
X138014Y68653D01*
X138096Y68578D01*
X138174Y68500D01*
X138249Y68418D01*
X138322Y68335D01*
X138392Y68249D01*
X138459Y68160D01*
X138522Y68069D01*
X138583Y67976D01*
X138640Y67882D01*
X138693Y67785D01*
X138744Y67686D01*
X138791Y67585D01*
X138834Y67483D01*
X138874Y67380D01*
X138910Y67275D01*
X138942Y67169D01*
X138971Y67062D01*
X138996Y66954D01*
X139017Y66845D01*
X139034Y66736D01*
X139048Y66626D01*
X139057Y66515D01*
X139063Y66405D01*
X139065Y66294D01*
X139065Y63119D01*
D13*
X203200Y27940D02*
X203200Y22860D01*
X228600Y22860D02*
X228600Y27940D01*
X227330Y27940D01*
X227330Y22860D02*
X228600Y22860D01*
X204470Y22860D02*
X203200Y22860D01*
X203200Y27940D02*
X204470Y27940D01*
D11*
X215265Y42545D02*
X215263Y42645D01*
X215257Y42744D01*
X215247Y42844D01*
X215234Y42942D01*
X215216Y43041D01*
X215195Y43138D01*
X215170Y43234D01*
X215141Y43330D01*
X215108Y43424D01*
X215072Y43517D01*
X215032Y43608D01*
X214988Y43698D01*
X214941Y43786D01*
X214891Y43872D01*
X214837Y43956D01*
X214780Y44038D01*
X214720Y44117D01*
X214656Y44195D01*
X214590Y44269D01*
X214521Y44341D01*
X214449Y44410D01*
X214375Y44476D01*
X214297Y44540D01*
X214218Y44600D01*
X214136Y44657D01*
X214052Y44711D01*
X213966Y44761D01*
X213878Y44808D01*
X213788Y44852D01*
X213697Y44892D01*
X213604Y44928D01*
X213510Y44961D01*
X213414Y44990D01*
X213318Y45015D01*
X213221Y45036D01*
X213122Y45054D01*
X213024Y45067D01*
X212924Y45077D01*
X212825Y45083D01*
X212725Y45085D01*
X215265Y42545D02*
X215263Y42404D01*
X215258Y42263D01*
X215248Y42122D01*
X215235Y41981D01*
X215219Y41841D01*
X215198Y41701D01*
X215174Y41562D01*
X215146Y41423D01*
X215115Y41286D01*
X215080Y41149D01*
X215042Y41013D01*
X215000Y40878D01*
X214954Y40745D01*
X214905Y40612D01*
X214852Y40481D01*
X214796Y40352D01*
X214737Y40223D01*
X214674Y40097D01*
X214608Y39972D01*
X214539Y39849D01*
X214466Y39728D01*
X214390Y39609D01*
X214311Y39491D01*
X214230Y39376D01*
X214145Y39264D01*
X214057Y39153D01*
X213966Y39045D01*
X213873Y38939D01*
X213776Y38836D01*
X213677Y38735D01*
X206375Y39053D02*
X206275Y39055D01*
X206176Y39061D01*
X206076Y39071D01*
X205978Y39084D01*
X205879Y39102D01*
X205782Y39123D01*
X205686Y39148D01*
X205590Y39177D01*
X205496Y39210D01*
X205403Y39246D01*
X205312Y39286D01*
X205222Y39330D01*
X205134Y39377D01*
X205048Y39427D01*
X204964Y39481D01*
X204882Y39538D01*
X204803Y39598D01*
X204725Y39662D01*
X204651Y39728D01*
X204579Y39797D01*
X204510Y39869D01*
X204444Y39943D01*
X204380Y40021D01*
X204320Y40100D01*
X204263Y40182D01*
X204209Y40266D01*
X204159Y40352D01*
X204112Y40440D01*
X204068Y40530D01*
X204028Y40621D01*
X203992Y40714D01*
X203959Y40808D01*
X203930Y40904D01*
X203905Y41000D01*
X203884Y41097D01*
X203866Y41196D01*
X203853Y41294D01*
X203843Y41394D01*
X203837Y41493D01*
X203835Y41593D01*
X203837Y41726D01*
X203842Y41859D01*
X203852Y41992D01*
X203865Y42125D01*
X203882Y42257D01*
X203902Y42389D01*
X203926Y42520D01*
X203954Y42650D01*
X203985Y42780D01*
X204020Y42908D01*
X204059Y43036D01*
X204101Y43162D01*
X204147Y43287D01*
X204196Y43411D01*
X204248Y43534D01*
X204304Y43655D01*
X204364Y43774D01*
X204426Y43892D01*
X204492Y44007D01*
X204561Y44121D01*
X204634Y44233D01*
X204709Y44343D01*
X204788Y44451D01*
X208598Y40322D02*
X208546Y40238D01*
X208491Y40155D01*
X208432Y40075D01*
X208371Y39997D01*
X208307Y39922D01*
X208239Y39849D01*
X208169Y39778D01*
X208097Y39711D01*
X208022Y39646D01*
X207944Y39584D01*
X207864Y39525D01*
X207782Y39469D01*
X207698Y39417D01*
X207612Y39368D01*
X207524Y39322D01*
X207434Y39279D01*
X207343Y39240D01*
X207250Y39205D01*
X207156Y39173D01*
X207061Y39145D01*
X206965Y39120D01*
X206868Y39100D01*
X206770Y39082D01*
X206672Y39069D01*
X206573Y39060D01*
X206474Y39054D01*
X206375Y39052D01*
X210502Y43815D02*
X210554Y43899D01*
X210609Y43982D01*
X210668Y44062D01*
X210729Y44140D01*
X210793Y44215D01*
X210861Y44288D01*
X210931Y44359D01*
X211003Y44426D01*
X211078Y44491D01*
X211156Y44553D01*
X211236Y44612D01*
X211318Y44668D01*
X211402Y44720D01*
X211488Y44769D01*
X211576Y44815D01*
X211666Y44858D01*
X211757Y44897D01*
X211850Y44932D01*
X211944Y44964D01*
X212039Y44992D01*
X212135Y45017D01*
X212232Y45037D01*
X212330Y45055D01*
X212428Y45068D01*
X212527Y45077D01*
X212626Y45083D01*
X212725Y45085D01*
X210503Y43815D02*
X208598Y40323D01*
X215265Y52287D02*
X215265Y54827D01*
X215265Y52287D02*
X215263Y52187D01*
X215257Y52088D01*
X215247Y51988D01*
X215234Y51890D01*
X215216Y51791D01*
X215195Y51694D01*
X215170Y51598D01*
X215141Y51502D01*
X215108Y51408D01*
X215072Y51315D01*
X215032Y51224D01*
X214988Y51134D01*
X214941Y51046D01*
X214891Y50960D01*
X214837Y50876D01*
X214780Y50794D01*
X214720Y50715D01*
X214656Y50637D01*
X214590Y50563D01*
X214521Y50491D01*
X214449Y50422D01*
X214375Y50356D01*
X214297Y50292D01*
X214218Y50232D01*
X214136Y50175D01*
X214052Y50121D01*
X213966Y50071D01*
X213878Y50024D01*
X213788Y49980D01*
X213697Y49940D01*
X213604Y49904D01*
X213510Y49871D01*
X213414Y49842D01*
X213318Y49817D01*
X213221Y49796D01*
X213122Y49778D01*
X213024Y49765D01*
X212924Y49755D01*
X212825Y49749D01*
X212725Y49747D01*
X206375Y49747D01*
X206275Y49749D01*
X206176Y49755D01*
X206076Y49765D01*
X205978Y49778D01*
X205879Y49796D01*
X205782Y49817D01*
X205686Y49842D01*
X205590Y49871D01*
X205496Y49904D01*
X205403Y49940D01*
X205312Y49980D01*
X205222Y50024D01*
X205134Y50071D01*
X205048Y50121D01*
X204964Y50175D01*
X204882Y50232D01*
X204803Y50292D01*
X204725Y50356D01*
X204651Y50422D01*
X204579Y50491D01*
X204510Y50563D01*
X204444Y50637D01*
X204380Y50715D01*
X204320Y50794D01*
X204263Y50876D01*
X204209Y50960D01*
X204159Y51046D01*
X204112Y51134D01*
X204068Y51224D01*
X204028Y51315D01*
X203992Y51408D01*
X203959Y51502D01*
X203930Y51598D01*
X203905Y51694D01*
X203884Y51791D01*
X203866Y51890D01*
X203853Y51988D01*
X203843Y52088D01*
X203837Y52187D01*
X203835Y52287D01*
X203835Y54827D01*
X203835Y59715D02*
X215265Y59715D01*
X215265Y64795D01*
D13*
X165100Y27940D02*
X165100Y22860D01*
X190500Y22860D02*
X190500Y27940D01*
X189230Y27940D01*
X189230Y22860D02*
X190500Y22860D01*
X166370Y22860D02*
X165100Y22860D01*
X165100Y27940D02*
X166370Y27940D01*
D11*
X177165Y42545D02*
X177163Y42645D01*
X177157Y42744D01*
X177147Y42844D01*
X177134Y42942D01*
X177116Y43041D01*
X177095Y43138D01*
X177070Y43234D01*
X177041Y43330D01*
X177008Y43424D01*
X176972Y43517D01*
X176932Y43608D01*
X176888Y43698D01*
X176841Y43786D01*
X176791Y43872D01*
X176737Y43956D01*
X176680Y44038D01*
X176620Y44117D01*
X176556Y44195D01*
X176490Y44269D01*
X176421Y44341D01*
X176349Y44410D01*
X176275Y44476D01*
X176197Y44540D01*
X176118Y44600D01*
X176036Y44657D01*
X175952Y44711D01*
X175866Y44761D01*
X175778Y44808D01*
X175688Y44852D01*
X175597Y44892D01*
X175504Y44928D01*
X175410Y44961D01*
X175314Y44990D01*
X175218Y45015D01*
X175121Y45036D01*
X175022Y45054D01*
X174924Y45067D01*
X174824Y45077D01*
X174725Y45083D01*
X174625Y45085D01*
X177165Y42545D02*
X177163Y42404D01*
X177158Y42263D01*
X177148Y42122D01*
X177135Y41981D01*
X177119Y41841D01*
X177098Y41701D01*
X177074Y41562D01*
X177046Y41423D01*
X177015Y41286D01*
X176980Y41149D01*
X176942Y41013D01*
X176900Y40878D01*
X176854Y40745D01*
X176805Y40612D01*
X176752Y40481D01*
X176696Y40352D01*
X176637Y40223D01*
X176574Y40097D01*
X176508Y39972D01*
X176439Y39849D01*
X176366Y39728D01*
X176290Y39609D01*
X176211Y39491D01*
X176130Y39376D01*
X176045Y39264D01*
X175957Y39153D01*
X175866Y39045D01*
X175773Y38939D01*
X175676Y38836D01*
X175577Y38735D01*
X168275Y39053D02*
X168175Y39055D01*
X168076Y39061D01*
X167976Y39071D01*
X167878Y39084D01*
X167779Y39102D01*
X167682Y39123D01*
X167586Y39148D01*
X167490Y39177D01*
X167396Y39210D01*
X167303Y39246D01*
X167212Y39286D01*
X167122Y39330D01*
X167034Y39377D01*
X166948Y39427D01*
X166864Y39481D01*
X166782Y39538D01*
X166703Y39598D01*
X166625Y39662D01*
X166551Y39728D01*
X166479Y39797D01*
X166410Y39869D01*
X166344Y39943D01*
X166280Y40021D01*
X166220Y40100D01*
X166163Y40182D01*
X166109Y40266D01*
X166059Y40352D01*
X166012Y40440D01*
X165968Y40530D01*
X165928Y40621D01*
X165892Y40714D01*
X165859Y40808D01*
X165830Y40904D01*
X165805Y41000D01*
X165784Y41097D01*
X165766Y41196D01*
X165753Y41294D01*
X165743Y41394D01*
X165737Y41493D01*
X165735Y41593D01*
X165737Y41726D01*
X165742Y41859D01*
X165752Y41992D01*
X165765Y42125D01*
X165782Y42257D01*
X165802Y42389D01*
X165826Y42520D01*
X165854Y42650D01*
X165885Y42780D01*
X165920Y42908D01*
X165959Y43036D01*
X166001Y43162D01*
X166047Y43287D01*
X166096Y43411D01*
X166148Y43534D01*
X166204Y43655D01*
X166264Y43774D01*
X166326Y43892D01*
X166392Y44007D01*
X166461Y44121D01*
X166534Y44233D01*
X166609Y44343D01*
X166688Y44451D01*
X170498Y40322D02*
X170446Y40238D01*
X170391Y40155D01*
X170332Y40075D01*
X170271Y39997D01*
X170207Y39922D01*
X170139Y39849D01*
X170069Y39778D01*
X169997Y39711D01*
X169922Y39646D01*
X169844Y39584D01*
X169764Y39525D01*
X169682Y39469D01*
X169598Y39417D01*
X169512Y39368D01*
X169424Y39322D01*
X169334Y39279D01*
X169243Y39240D01*
X169150Y39205D01*
X169056Y39173D01*
X168961Y39145D01*
X168865Y39120D01*
X168768Y39100D01*
X168670Y39082D01*
X168572Y39069D01*
X168473Y39060D01*
X168374Y39054D01*
X168275Y39052D01*
X172402Y43815D02*
X172454Y43899D01*
X172509Y43982D01*
X172568Y44062D01*
X172629Y44140D01*
X172693Y44215D01*
X172761Y44288D01*
X172831Y44359D01*
X172903Y44426D01*
X172978Y44491D01*
X173056Y44553D01*
X173136Y44612D01*
X173218Y44668D01*
X173302Y44720D01*
X173388Y44769D01*
X173476Y44815D01*
X173566Y44858D01*
X173657Y44897D01*
X173750Y44932D01*
X173844Y44964D01*
X173939Y44992D01*
X174035Y45017D01*
X174132Y45037D01*
X174230Y45055D01*
X174328Y45068D01*
X174427Y45077D01*
X174526Y45083D01*
X174625Y45085D01*
X172403Y43815D02*
X170498Y40323D01*
X165735Y50165D02*
X177165Y50165D01*
X165735Y50165D02*
X165735Y53340D01*
X165737Y53451D01*
X165743Y53561D01*
X165752Y53672D01*
X165766Y53782D01*
X165783Y53891D01*
X165804Y54000D01*
X165829Y54108D01*
X165858Y54215D01*
X165890Y54321D01*
X165926Y54426D01*
X165966Y54529D01*
X166009Y54631D01*
X166056Y54732D01*
X166107Y54831D01*
X166160Y54927D01*
X166217Y55022D01*
X166278Y55115D01*
X166341Y55206D01*
X166408Y55295D01*
X166478Y55381D01*
X166551Y55464D01*
X166626Y55546D01*
X166704Y55624D01*
X166786Y55699D01*
X166869Y55772D01*
X166955Y55842D01*
X167044Y55909D01*
X167135Y55972D01*
X167228Y56033D01*
X167323Y56090D01*
X167419Y56143D01*
X167518Y56194D01*
X167619Y56241D01*
X167721Y56284D01*
X167824Y56324D01*
X167929Y56360D01*
X168035Y56392D01*
X168142Y56421D01*
X168250Y56446D01*
X168359Y56467D01*
X168468Y56484D01*
X168578Y56498D01*
X168689Y56507D01*
X168799Y56513D01*
X168910Y56515D01*
X173990Y56515D01*
X174101Y56513D01*
X174211Y56507D01*
X174322Y56498D01*
X174432Y56484D01*
X174541Y56467D01*
X174650Y56446D01*
X174758Y56421D01*
X174865Y56392D01*
X174971Y56360D01*
X175076Y56324D01*
X175179Y56284D01*
X175281Y56241D01*
X175382Y56194D01*
X175481Y56143D01*
X175578Y56090D01*
X175672Y56033D01*
X175765Y55972D01*
X175856Y55909D01*
X175945Y55842D01*
X176031Y55772D01*
X176114Y55699D01*
X176196Y55624D01*
X176274Y55546D01*
X176349Y55464D01*
X176422Y55381D01*
X176492Y55295D01*
X176559Y55206D01*
X176622Y55115D01*
X176683Y55022D01*
X176740Y54928D01*
X176793Y54831D01*
X176844Y54732D01*
X176891Y54631D01*
X176934Y54529D01*
X176974Y54426D01*
X177010Y54321D01*
X177042Y54215D01*
X177071Y54108D01*
X177096Y54000D01*
X177117Y53891D01*
X177134Y53782D01*
X177148Y53672D01*
X177157Y53561D01*
X177163Y53451D01*
X177165Y53340D01*
X177165Y50165D01*
X177165Y61341D02*
X165735Y65151D01*
X177165Y68961D01*
X174308Y68009D02*
X174308Y62294D01*
X231980Y102420D02*
X231980Y116020D01*
X209980Y116020D02*
X209980Y102420D01*
D12*
X232480Y129220D02*
X232482Y129283D01*
X232488Y129345D01*
X232498Y129407D01*
X232511Y129469D01*
X232529Y129529D01*
X232550Y129588D01*
X232575Y129646D01*
X232604Y129702D01*
X232636Y129756D01*
X232671Y129808D01*
X232709Y129857D01*
X232751Y129905D01*
X232795Y129949D01*
X232843Y129991D01*
X232892Y130029D01*
X232944Y130064D01*
X232998Y130096D01*
X233054Y130125D01*
X233112Y130150D01*
X233171Y130171D01*
X233231Y130189D01*
X233293Y130202D01*
X233355Y130212D01*
X233417Y130218D01*
X233480Y130220D01*
X233543Y130218D01*
X233605Y130212D01*
X233667Y130202D01*
X233729Y130189D01*
X233789Y130171D01*
X233848Y130150D01*
X233906Y130125D01*
X233962Y130096D01*
X234016Y130064D01*
X234068Y130029D01*
X234117Y129991D01*
X234165Y129949D01*
X234209Y129905D01*
X234251Y129857D01*
X234289Y129808D01*
X234324Y129756D01*
X234356Y129702D01*
X234385Y129646D01*
X234410Y129588D01*
X234431Y129529D01*
X234449Y129469D01*
X234462Y129407D01*
X234472Y129345D01*
X234478Y129283D01*
X234480Y129220D01*
X234478Y129157D01*
X234472Y129095D01*
X234462Y129033D01*
X234449Y128971D01*
X234431Y128911D01*
X234410Y128852D01*
X234385Y128794D01*
X234356Y128738D01*
X234324Y128684D01*
X234289Y128632D01*
X234251Y128583D01*
X234209Y128535D01*
X234165Y128491D01*
X234117Y128449D01*
X234068Y128411D01*
X234016Y128376D01*
X233962Y128344D01*
X233906Y128315D01*
X233848Y128290D01*
X233789Y128269D01*
X233729Y128251D01*
X233667Y128238D01*
X233605Y128228D01*
X233543Y128222D01*
X233480Y128220D01*
X233417Y128222D01*
X233355Y128228D01*
X233293Y128238D01*
X233231Y128251D01*
X233171Y128269D01*
X233112Y128290D01*
X233054Y128315D01*
X232998Y128344D01*
X232944Y128376D01*
X232892Y128411D01*
X232843Y128449D01*
X232795Y128491D01*
X232751Y128535D01*
X232709Y128583D01*
X232671Y128632D01*
X232636Y128684D01*
X232604Y128738D01*
X232575Y128794D01*
X232550Y128852D01*
X232529Y128911D01*
X232511Y128971D01*
X232498Y129033D01*
X232488Y129095D01*
X232482Y129157D01*
X232480Y129220D01*
D11*
X190820Y183300D02*
X190820Y299300D01*
X190820Y183300D02*
X230820Y183300D01*
X230820Y290843D01*
X222363Y299300D01*
X190820Y299300D01*
D14*
X142020Y143730D03*
D11*
X166520Y140230D02*
X166520Y133230D01*
X166520Y118230D02*
X166520Y111230D01*
X158520Y111230D01*
X158520Y140230D02*
X166520Y140230D01*
D14*
X97570Y143730D03*
D11*
X122070Y140230D02*
X122070Y133230D01*
X122070Y118230D02*
X122070Y111230D01*
X114070Y111230D01*
X114070Y140230D02*
X122070Y140230D01*
M02*
