G04 EAGLE Gerber RS-274X export*
G75*
%MOMM*%
%FSLAX34Y34*%
%LPD*%
%INTop Copper*%
%IPPOS*%
%AMOC8*
5,1,8,0,0,1.08239X$1,22.5*%
G01*
%ADD10P,2.749271X8X22.500000*%
%ADD11R,0.558800X1.270000*%
%ADD12R,1.803000X1.600000*%
%ADD13R,1.600000X1.803000*%
%ADD14R,2.200000X1.600000*%
%ADD15C,2.700000*%
%ADD16R,1.700000X1.300000*%
%ADD17C,3.316000*%
%ADD18R,2.880000X1.120000*%
%ADD19C,0.304800*%
%ADD20C,0.508000*%
%ADD21C,0.812800*%

G36*
X378742Y315980D02*
X378742Y315980D01*
X378768Y315978D01*
X378915Y316000D01*
X379062Y316017D01*
X379087Y316025D01*
X379113Y316029D01*
X379251Y316084D01*
X379390Y316134D01*
X379412Y316148D01*
X379437Y316158D01*
X379558Y316243D01*
X379683Y316323D01*
X379701Y316342D01*
X379723Y316357D01*
X379822Y316467D01*
X379925Y316574D01*
X379939Y316596D01*
X379956Y316616D01*
X380028Y316746D01*
X380104Y316873D01*
X380112Y316898D01*
X380125Y316921D01*
X380165Y317064D01*
X380210Y317205D01*
X380212Y317231D01*
X380220Y317256D01*
X380239Y317500D01*
X380239Y495300D01*
X380236Y495326D01*
X380238Y495352D01*
X380216Y495499D01*
X380199Y495646D01*
X380191Y495671D01*
X380187Y495697D01*
X380132Y495835D01*
X380082Y495974D01*
X380068Y495996D01*
X380058Y496021D01*
X379973Y496142D01*
X379893Y496267D01*
X379874Y496285D01*
X379859Y496307D01*
X379749Y496406D01*
X379642Y496509D01*
X379620Y496523D01*
X379600Y496540D01*
X379470Y496612D01*
X379343Y496688D01*
X379318Y496696D01*
X379295Y496709D01*
X379152Y496749D01*
X379011Y496794D01*
X378985Y496796D01*
X378960Y496804D01*
X378716Y496823D01*
X38100Y496823D01*
X38074Y496820D01*
X38048Y496822D01*
X37901Y496800D01*
X37754Y496783D01*
X37729Y496775D01*
X37703Y496771D01*
X37565Y496716D01*
X37426Y496666D01*
X37404Y496652D01*
X37379Y496642D01*
X37258Y496557D01*
X37133Y496477D01*
X37115Y496458D01*
X37093Y496443D01*
X36994Y496333D01*
X36891Y496226D01*
X36877Y496204D01*
X36860Y496184D01*
X36788Y496054D01*
X36712Y495927D01*
X36704Y495902D01*
X36691Y495879D01*
X36651Y495736D01*
X36606Y495595D01*
X36604Y495569D01*
X36596Y495544D01*
X36577Y495300D01*
X36577Y438725D01*
X36580Y438700D01*
X36578Y438674D01*
X36600Y438526D01*
X36617Y438379D01*
X36625Y438355D01*
X36629Y438329D01*
X36684Y438191D01*
X36734Y438051D01*
X36748Y438029D01*
X36757Y438005D01*
X36842Y437883D01*
X36923Y437758D01*
X36942Y437740D01*
X36956Y437719D01*
X37067Y437619D01*
X37174Y437516D01*
X37196Y437502D01*
X37215Y437485D01*
X37345Y437413D01*
X37473Y437337D01*
X37497Y437329D01*
X37520Y437317D01*
X37663Y437276D01*
X37805Y437231D01*
X37830Y437228D01*
X37855Y437222D01*
X38004Y437215D01*
X38152Y437203D01*
X38178Y437206D01*
X38203Y437205D01*
X38349Y437232D01*
X38497Y437254D01*
X38521Y437264D01*
X38546Y437268D01*
X38682Y437328D01*
X38821Y437383D01*
X38842Y437398D01*
X38865Y437408D01*
X38985Y437497D01*
X39107Y437582D01*
X39124Y437601D01*
X39145Y437616D01*
X39308Y437798D01*
X39796Y438434D01*
X39797Y438434D01*
X40614Y439499D01*
X42101Y440986D01*
X43769Y442266D01*
X45590Y443317D01*
X47533Y444122D01*
X49564Y444666D01*
X49653Y444678D01*
X49653Y430424D01*
X49656Y430398D01*
X49654Y430372D01*
X49676Y430225D01*
X49693Y430078D01*
X49701Y430053D01*
X49705Y430027D01*
X49760Y429889D01*
X49810Y429750D01*
X49824Y429728D01*
X49834Y429703D01*
X49919Y429582D01*
X49999Y429457D01*
X50018Y429439D01*
X50033Y429417D01*
X50143Y429318D01*
X50250Y429215D01*
X50272Y429201D01*
X50292Y429184D01*
X50422Y429112D01*
X50549Y429036D01*
X50574Y429028D01*
X50597Y429015D01*
X50740Y428975D01*
X50881Y428930D01*
X50907Y428928D01*
X50932Y428921D01*
X51176Y428901D01*
X52701Y428901D01*
X52701Y428899D01*
X51176Y428899D01*
X51150Y428896D01*
X51124Y428898D01*
X50977Y428876D01*
X50830Y428859D01*
X50805Y428850D01*
X50779Y428847D01*
X50641Y428792D01*
X50502Y428742D01*
X50480Y428727D01*
X50455Y428718D01*
X50334Y428633D01*
X50209Y428553D01*
X50191Y428534D01*
X50169Y428519D01*
X50070Y428409D01*
X49967Y428302D01*
X49953Y428280D01*
X49936Y428260D01*
X49864Y428130D01*
X49788Y428003D01*
X49780Y427978D01*
X49767Y427955D01*
X49727Y427812D01*
X49682Y427671D01*
X49680Y427645D01*
X49672Y427620D01*
X49653Y427376D01*
X49653Y413122D01*
X49564Y413134D01*
X47533Y413678D01*
X45590Y414483D01*
X43769Y415534D01*
X42101Y416814D01*
X40614Y418301D01*
X39308Y420002D01*
X39291Y420021D01*
X39277Y420042D01*
X39170Y420146D01*
X39066Y420253D01*
X39045Y420267D01*
X39026Y420284D01*
X38898Y420361D01*
X38773Y420442D01*
X38749Y420450D01*
X38727Y420463D01*
X38586Y420509D01*
X38445Y420559D01*
X38420Y420562D01*
X38395Y420569D01*
X38247Y420581D01*
X38099Y420598D01*
X38073Y420595D01*
X38048Y420597D01*
X37900Y420575D01*
X37752Y420558D01*
X37729Y420550D01*
X37703Y420546D01*
X37564Y420491D01*
X37424Y420440D01*
X37403Y420426D01*
X37379Y420417D01*
X37257Y420332D01*
X37132Y420251D01*
X37114Y420233D01*
X37093Y420218D01*
X36994Y420108D01*
X36890Y420000D01*
X36877Y419978D01*
X36860Y419959D01*
X36788Y419829D01*
X36711Y419701D01*
X36704Y419677D01*
X36691Y419654D01*
X36651Y419510D01*
X36605Y419369D01*
X36603Y419344D01*
X36596Y419319D01*
X36577Y419075D01*
X36577Y393725D01*
X36580Y393700D01*
X36578Y393674D01*
X36600Y393526D01*
X36617Y393379D01*
X36625Y393355D01*
X36629Y393329D01*
X36684Y393191D01*
X36734Y393051D01*
X36748Y393029D01*
X36757Y393005D01*
X36842Y392883D01*
X36923Y392758D01*
X36942Y392740D01*
X36956Y392719D01*
X37067Y392619D01*
X37174Y392516D01*
X37196Y392502D01*
X37215Y392485D01*
X37345Y392413D01*
X37473Y392337D01*
X37497Y392329D01*
X37520Y392317D01*
X37663Y392276D01*
X37805Y392231D01*
X37830Y392228D01*
X37855Y392222D01*
X38004Y392215D01*
X38152Y392203D01*
X38178Y392206D01*
X38203Y392205D01*
X38349Y392232D01*
X38497Y392254D01*
X38521Y392264D01*
X38546Y392268D01*
X38682Y392328D01*
X38821Y392383D01*
X38842Y392398D01*
X38865Y392408D01*
X38985Y392497D01*
X39107Y392582D01*
X39124Y392601D01*
X39145Y392616D01*
X39308Y392798D01*
X40430Y394259D01*
X40430Y394260D01*
X40614Y394499D01*
X42101Y395986D01*
X43769Y397266D01*
X45590Y398317D01*
X47533Y399122D01*
X49564Y399666D01*
X49653Y399678D01*
X49653Y385424D01*
X49656Y385398D01*
X49654Y385372D01*
X49676Y385225D01*
X49693Y385078D01*
X49701Y385053D01*
X49705Y385027D01*
X49760Y384889D01*
X49810Y384750D01*
X49824Y384728D01*
X49834Y384703D01*
X49919Y384582D01*
X49999Y384457D01*
X50018Y384439D01*
X50033Y384417D01*
X50143Y384318D01*
X50250Y384215D01*
X50272Y384201D01*
X50292Y384184D01*
X50422Y384112D01*
X50549Y384036D01*
X50574Y384028D01*
X50597Y384015D01*
X50740Y383975D01*
X50881Y383930D01*
X50907Y383928D01*
X50932Y383921D01*
X51176Y383901D01*
X52701Y383901D01*
X52701Y383899D01*
X51176Y383899D01*
X51150Y383896D01*
X51124Y383898D01*
X50977Y383876D01*
X50830Y383859D01*
X50805Y383850D01*
X50779Y383847D01*
X50641Y383792D01*
X50502Y383742D01*
X50480Y383727D01*
X50455Y383718D01*
X50334Y383633D01*
X50209Y383553D01*
X50191Y383534D01*
X50169Y383519D01*
X50070Y383409D01*
X49967Y383302D01*
X49953Y383280D01*
X49936Y383260D01*
X49864Y383130D01*
X49788Y383003D01*
X49780Y382978D01*
X49767Y382955D01*
X49727Y382812D01*
X49682Y382671D01*
X49680Y382645D01*
X49672Y382620D01*
X49653Y382376D01*
X49653Y368122D01*
X49564Y368134D01*
X47533Y368678D01*
X45590Y369483D01*
X43769Y370534D01*
X42101Y371814D01*
X40614Y373301D01*
X39308Y375002D01*
X39291Y375021D01*
X39277Y375042D01*
X39170Y375146D01*
X39066Y375253D01*
X39045Y375267D01*
X39026Y375284D01*
X38898Y375361D01*
X38773Y375442D01*
X38749Y375450D01*
X38727Y375463D01*
X38586Y375509D01*
X38445Y375559D01*
X38420Y375562D01*
X38395Y375569D01*
X38247Y375581D01*
X38099Y375598D01*
X38073Y375595D01*
X38048Y375597D01*
X37900Y375575D01*
X37752Y375558D01*
X37729Y375550D01*
X37703Y375546D01*
X37564Y375491D01*
X37424Y375440D01*
X37403Y375426D01*
X37379Y375417D01*
X37257Y375332D01*
X37132Y375251D01*
X37114Y375233D01*
X37093Y375218D01*
X36994Y375108D01*
X36890Y375000D01*
X36877Y374978D01*
X36860Y374959D01*
X36788Y374829D01*
X36711Y374701D01*
X36704Y374677D01*
X36691Y374654D01*
X36651Y374510D01*
X36605Y374369D01*
X36603Y374344D01*
X36596Y374319D01*
X36577Y374075D01*
X36577Y317500D01*
X36580Y317474D01*
X36578Y317448D01*
X36600Y317301D01*
X36617Y317154D01*
X36625Y317129D01*
X36629Y317103D01*
X36684Y316965D01*
X36734Y316826D01*
X36748Y316804D01*
X36758Y316779D01*
X36843Y316658D01*
X36923Y316533D01*
X36942Y316515D01*
X36957Y316493D01*
X37067Y316394D01*
X37174Y316291D01*
X37196Y316277D01*
X37216Y316260D01*
X37346Y316188D01*
X37473Y316112D01*
X37498Y316104D01*
X37521Y316091D01*
X37664Y316051D01*
X37805Y316006D01*
X37831Y316004D01*
X37856Y315996D01*
X38100Y315977D01*
X378716Y315977D01*
X378742Y315980D01*
G37*
%LPC*%
G36*
X87788Y324611D02*
X87788Y324611D01*
X85734Y325462D01*
X71462Y339734D01*
X70611Y341788D01*
X70611Y361852D01*
X70608Y361878D01*
X70610Y361904D01*
X70588Y362051D01*
X70571Y362198D01*
X70563Y362223D01*
X70559Y362249D01*
X70504Y362387D01*
X70454Y362526D01*
X70440Y362548D01*
X70430Y362573D01*
X70345Y362694D01*
X70265Y362819D01*
X70246Y362837D01*
X70231Y362859D01*
X70121Y362958D01*
X70014Y363061D01*
X69992Y363075D01*
X69972Y363092D01*
X69842Y363164D01*
X69715Y363240D01*
X69690Y363248D01*
X69667Y363261D01*
X69524Y363301D01*
X69383Y363346D01*
X69357Y363348D01*
X69332Y363356D01*
X69088Y363375D01*
X67068Y363375D01*
X66175Y364268D01*
X66175Y371013D01*
X66164Y371113D01*
X66162Y371213D01*
X66144Y371285D01*
X66135Y371359D01*
X66102Y371454D01*
X66077Y371551D01*
X66043Y371617D01*
X66018Y371687D01*
X65963Y371772D01*
X65917Y371861D01*
X65869Y371917D01*
X65829Y371980D01*
X65757Y372050D01*
X65692Y372126D01*
X65632Y372170D01*
X65578Y372222D01*
X65492Y372274D01*
X65411Y372333D01*
X65343Y372363D01*
X65279Y372401D01*
X65184Y372432D01*
X65091Y372471D01*
X65018Y372485D01*
X64947Y372507D01*
X64847Y372515D01*
X64748Y372533D01*
X64674Y372529D01*
X64600Y372535D01*
X64501Y372520D01*
X64400Y372515D01*
X64329Y372495D01*
X64255Y372483D01*
X64162Y372446D01*
X64065Y372419D01*
X64000Y372382D01*
X63931Y372355D01*
X63849Y372297D01*
X63761Y372248D01*
X63685Y372183D01*
X63645Y372156D01*
X63621Y372129D01*
X63575Y372090D01*
X63299Y371814D01*
X61631Y370534D01*
X59810Y369483D01*
X57867Y368678D01*
X55836Y368134D01*
X55747Y368122D01*
X55747Y380853D01*
X68511Y380853D01*
X68512Y380847D01*
X68511Y380798D01*
X68538Y380676D01*
X68556Y380551D01*
X68574Y380506D01*
X68585Y380458D01*
X68639Y380344D01*
X68685Y380227D01*
X68713Y380187D01*
X68734Y380143D01*
X68812Y380044D01*
X68884Y379941D01*
X68920Y379908D01*
X68951Y379870D01*
X69049Y379792D01*
X69143Y379708D01*
X69186Y379684D01*
X69224Y379654D01*
X69338Y379600D01*
X69448Y379539D01*
X69495Y379526D01*
X69539Y379505D01*
X69662Y379479D01*
X69783Y379444D01*
X69845Y379439D01*
X69880Y379432D01*
X69928Y379433D01*
X70027Y379425D01*
X85332Y379425D01*
X86225Y378532D01*
X86225Y378151D01*
X86236Y378051D01*
X86238Y377950D01*
X86256Y377878D01*
X86265Y377804D01*
X86298Y377710D01*
X86323Y377612D01*
X86357Y377546D01*
X86382Y377476D01*
X86437Y377392D01*
X86483Y377303D01*
X86531Y377246D01*
X86571Y377183D01*
X86643Y377114D01*
X86708Y377037D01*
X86768Y376993D01*
X86822Y376941D01*
X86908Y376890D01*
X86989Y376830D01*
X87057Y376801D01*
X87121Y376762D01*
X87217Y376732D01*
X87309Y376692D01*
X87382Y376679D01*
X87453Y376656D01*
X87553Y376648D01*
X87652Y376630D01*
X87726Y376634D01*
X87800Y376628D01*
X87900Y376643D01*
X88000Y376648D01*
X88071Y376669D01*
X88145Y376680D01*
X88238Y376717D01*
X88335Y376745D01*
X88400Y376781D01*
X88469Y376809D01*
X88551Y376866D01*
X88639Y376915D01*
X88715Y376980D01*
X88755Y377008D01*
X88779Y377034D01*
X88825Y377073D01*
X138889Y427138D01*
X139429Y427678D01*
X139500Y427767D01*
X139504Y427771D01*
X139506Y427774D01*
X139508Y427777D01*
X139592Y427870D01*
X139616Y427913D01*
X139646Y427951D01*
X139700Y428065D01*
X139761Y428175D01*
X139774Y428222D01*
X139795Y428266D01*
X139821Y428389D01*
X139856Y428511D01*
X139861Y428572D01*
X139868Y428606D01*
X139867Y428654D01*
X139875Y428755D01*
X139875Y434532D01*
X140768Y435425D01*
X155545Y435425D01*
X155671Y435439D01*
X155797Y435446D01*
X155844Y435459D01*
X155892Y435465D01*
X156011Y435507D01*
X156132Y435542D01*
X156174Y435566D01*
X156220Y435582D01*
X156326Y435651D01*
X156436Y435712D01*
X156482Y435752D01*
X156512Y435771D01*
X156546Y435806D01*
X156622Y435871D01*
X169570Y448819D01*
X175260Y448819D01*
X175286Y448822D01*
X175312Y448820D01*
X175459Y448842D01*
X175606Y448859D01*
X175631Y448867D01*
X175657Y448871D01*
X175795Y448926D01*
X175934Y448976D01*
X175956Y448990D01*
X175981Y449000D01*
X176102Y449085D01*
X176227Y449165D01*
X176245Y449184D01*
X176267Y449199D01*
X176366Y449309D01*
X176469Y449416D01*
X176483Y449438D01*
X176500Y449458D01*
X176572Y449588D01*
X176648Y449715D01*
X176656Y449740D01*
X176669Y449763D01*
X176709Y449906D01*
X176754Y450047D01*
X176756Y450073D01*
X176764Y450098D01*
X176783Y450342D01*
X176783Y451736D01*
X177676Y452629D01*
X184528Y452629D01*
X185421Y451736D01*
X185421Y437772D01*
X184528Y436879D01*
X177676Y436879D01*
X176783Y437772D01*
X176783Y439166D01*
X176780Y439192D01*
X176782Y439218D01*
X176760Y439365D01*
X176743Y439512D01*
X176735Y439537D01*
X176731Y439563D01*
X176676Y439701D01*
X176626Y439840D01*
X176612Y439862D01*
X176602Y439887D01*
X176517Y440008D01*
X176437Y440133D01*
X176418Y440151D01*
X176403Y440173D01*
X176293Y440272D01*
X176186Y440375D01*
X176164Y440389D01*
X176144Y440406D01*
X176014Y440478D01*
X175887Y440554D01*
X175862Y440562D01*
X175839Y440575D01*
X175696Y440615D01*
X175555Y440660D01*
X175529Y440662D01*
X175504Y440670D01*
X175260Y440689D01*
X173569Y440689D01*
X173443Y440675D01*
X173317Y440668D01*
X173270Y440655D01*
X173222Y440649D01*
X173103Y440607D01*
X172982Y440572D01*
X172940Y440548D01*
X172894Y440532D01*
X172788Y440463D01*
X172678Y440402D01*
X172632Y440362D01*
X172602Y440343D01*
X172568Y440308D01*
X172492Y440243D01*
X165371Y433122D01*
X165292Y433023D01*
X165208Y432930D01*
X165184Y432887D01*
X165154Y432849D01*
X165100Y432735D01*
X165039Y432625D01*
X165026Y432578D01*
X165005Y432534D01*
X164979Y432411D01*
X164944Y432289D01*
X164939Y432228D01*
X164932Y432194D01*
X164933Y432146D01*
X164925Y432045D01*
X164925Y417268D01*
X164032Y416375D01*
X140255Y416375D01*
X140129Y416361D01*
X140003Y416354D01*
X139956Y416341D01*
X139908Y416335D01*
X139789Y416293D01*
X139668Y416258D01*
X139626Y416234D01*
X139580Y416218D01*
X139474Y416149D01*
X139364Y416088D01*
X139318Y416048D01*
X139288Y416029D01*
X139254Y415994D01*
X139178Y415929D01*
X96511Y373262D01*
X96432Y373163D01*
X96348Y373070D01*
X96324Y373027D01*
X96294Y372989D01*
X96240Y372875D01*
X96179Y372765D01*
X96166Y372718D01*
X96145Y372674D01*
X96119Y372551D01*
X96084Y372429D01*
X96079Y372368D01*
X96072Y372334D01*
X96073Y372286D01*
X96065Y372185D01*
X96065Y369716D01*
X93684Y367335D01*
X87748Y367335D01*
X87722Y367332D01*
X87696Y367334D01*
X87549Y367312D01*
X87402Y367295D01*
X87377Y367287D01*
X87351Y367283D01*
X87213Y367228D01*
X87074Y367178D01*
X87052Y367164D01*
X87027Y367154D01*
X86906Y367069D01*
X86781Y366989D01*
X86763Y366970D01*
X86741Y366955D01*
X86642Y366845D01*
X86539Y366738D01*
X86525Y366716D01*
X86508Y366696D01*
X86436Y366566D01*
X86360Y366439D01*
X86352Y366414D01*
X86339Y366391D01*
X86299Y366248D01*
X86254Y366107D01*
X86252Y366081D01*
X86244Y366056D01*
X86225Y365812D01*
X86225Y364268D01*
X85332Y363375D01*
X83312Y363375D01*
X83286Y363372D01*
X83260Y363374D01*
X83113Y363352D01*
X82966Y363335D01*
X82941Y363327D01*
X82915Y363323D01*
X82777Y363268D01*
X82638Y363218D01*
X82616Y363204D01*
X82591Y363194D01*
X82470Y363109D01*
X82345Y363029D01*
X82327Y363010D01*
X82305Y362995D01*
X82206Y362885D01*
X82103Y362778D01*
X82089Y362756D01*
X82072Y362736D01*
X82000Y362606D01*
X81924Y362479D01*
X81916Y362454D01*
X81903Y362431D01*
X81863Y362288D01*
X81818Y362147D01*
X81816Y362121D01*
X81808Y362096D01*
X81789Y361852D01*
X81789Y345846D01*
X81803Y345720D01*
X81810Y345594D01*
X81823Y345548D01*
X81829Y345500D01*
X81871Y345381D01*
X81906Y345259D01*
X81930Y345217D01*
X81946Y345172D01*
X82015Y345065D01*
X82076Y344955D01*
X82116Y344909D01*
X82135Y344879D01*
X82170Y344845D01*
X82235Y344769D01*
X90769Y336235D01*
X90868Y336156D01*
X90962Y336072D01*
X91004Y336048D01*
X91042Y336018D01*
X91156Y335964D01*
X91267Y335903D01*
X91313Y335890D01*
X91357Y335869D01*
X91480Y335843D01*
X91602Y335808D01*
X91663Y335803D01*
X91698Y335796D01*
X91746Y335797D01*
X91846Y335789D01*
X238354Y335789D01*
X238480Y335803D01*
X238606Y335810D01*
X238652Y335823D01*
X238700Y335829D01*
X238819Y335871D01*
X238941Y335906D01*
X238983Y335930D01*
X239028Y335946D01*
X239135Y336015D01*
X239245Y336076D01*
X239291Y336116D01*
X239321Y336135D01*
X239355Y336170D01*
X239431Y336235D01*
X247965Y344769D01*
X248044Y344868D01*
X248128Y344962D01*
X248152Y345004D01*
X248182Y345042D01*
X248236Y345156D01*
X248297Y345267D01*
X248310Y345313D01*
X248331Y345357D01*
X248357Y345480D01*
X248392Y345602D01*
X248397Y345663D01*
X248404Y345698D01*
X248403Y345746D01*
X248411Y345846D01*
X248411Y355732D01*
X248408Y355758D01*
X248410Y355784D01*
X248388Y355931D01*
X248371Y356078D01*
X248363Y356103D01*
X248359Y356129D01*
X248304Y356267D01*
X248254Y356406D01*
X248240Y356428D01*
X248230Y356453D01*
X248145Y356574D01*
X248065Y356699D01*
X248046Y356717D01*
X248031Y356739D01*
X247921Y356838D01*
X247814Y356941D01*
X247792Y356955D01*
X247772Y356972D01*
X247642Y357044D01*
X247515Y357120D01*
X247490Y357128D01*
X247467Y357141D01*
X247324Y357181D01*
X247183Y357226D01*
X247157Y357228D01*
X247132Y357236D01*
X246888Y357255D01*
X244353Y357255D01*
X243460Y358148D01*
X243460Y370940D01*
X243446Y371066D01*
X243439Y371192D01*
X243426Y371239D01*
X243420Y371287D01*
X243378Y371406D01*
X243343Y371527D01*
X243319Y371569D01*
X243303Y371615D01*
X243234Y371721D01*
X243173Y371831D01*
X243133Y371877D01*
X243114Y371907D01*
X243079Y371941D01*
X243014Y372017D01*
X225842Y389189D01*
X225743Y389268D01*
X225650Y389352D01*
X225607Y389376D01*
X225569Y389406D01*
X225455Y389460D01*
X225345Y389521D01*
X225298Y389534D01*
X225254Y389555D01*
X225131Y389581D01*
X225009Y389616D01*
X224948Y389621D01*
X224914Y389628D01*
X224866Y389627D01*
X224765Y389635D01*
X201516Y389635D01*
X195833Y395318D01*
X195833Y408561D01*
X195827Y408612D01*
X195830Y408663D01*
X195808Y408784D01*
X195793Y408907D01*
X195776Y408955D01*
X195767Y409005D01*
X195718Y409119D01*
X195676Y409235D01*
X195648Y409278D01*
X195628Y409325D01*
X195554Y409424D01*
X195487Y409528D01*
X195450Y409563D01*
X195420Y409604D01*
X195325Y409684D01*
X195236Y409770D01*
X195192Y409796D01*
X195153Y409829D01*
X195043Y409886D01*
X194937Y409949D01*
X194889Y409965D01*
X194843Y409988D01*
X194723Y410018D01*
X194605Y410055D01*
X194554Y410059D01*
X194505Y410072D01*
X194381Y410073D01*
X194258Y410083D01*
X194207Y410076D01*
X194156Y410076D01*
X193916Y410032D01*
X193913Y410032D01*
X193629Y409955D01*
X192023Y409955D01*
X192023Y418846D01*
X192023Y427737D01*
X193629Y427737D01*
X194275Y427564D01*
X194854Y427229D01*
X194916Y427167D01*
X195015Y427088D01*
X195109Y427004D01*
X195151Y426980D01*
X195189Y426950D01*
X195303Y426896D01*
X195414Y426835D01*
X195461Y426822D01*
X195504Y426801D01*
X195628Y426775D01*
X195750Y426740D01*
X195810Y426735D01*
X195845Y426728D01*
X195893Y426729D01*
X195993Y426721D01*
X203324Y426721D01*
X204217Y425828D01*
X204217Y411814D01*
X204192Y411784D01*
X204138Y411669D01*
X204077Y411559D01*
X204064Y411512D01*
X204043Y411468D01*
X204017Y411345D01*
X203982Y411223D01*
X203977Y411163D01*
X203970Y411128D01*
X203971Y411080D01*
X203963Y410979D01*
X203963Y399317D01*
X203977Y399191D01*
X203984Y399065D01*
X203997Y399018D01*
X204003Y398970D01*
X204045Y398851D01*
X204080Y398730D01*
X204104Y398688D01*
X204120Y398642D01*
X204189Y398536D01*
X204250Y398426D01*
X204290Y398380D01*
X204309Y398350D01*
X204344Y398316D01*
X204363Y398293D01*
X204372Y398281D01*
X204380Y398274D01*
X204409Y398240D01*
X204438Y398211D01*
X204522Y398144D01*
X204560Y398107D01*
X204573Y398099D01*
X204630Y398048D01*
X204673Y398024D01*
X204711Y397994D01*
X204825Y397940D01*
X204935Y397879D01*
X204982Y397866D01*
X205026Y397845D01*
X205149Y397819D01*
X205271Y397784D01*
X205332Y397779D01*
X205366Y397772D01*
X205414Y397773D01*
X205515Y397765D01*
X228764Y397765D01*
X231591Y394938D01*
X240860Y385668D01*
X240938Y385606D01*
X241011Y385536D01*
X241075Y385498D01*
X241133Y385452D01*
X241224Y385409D01*
X241310Y385357D01*
X241381Y385335D01*
X241448Y385303D01*
X241546Y385282D01*
X241642Y385251D01*
X241716Y385245D01*
X241789Y385230D01*
X241889Y385231D01*
X241989Y385223D01*
X242063Y385234D01*
X242137Y385236D01*
X242234Y385260D01*
X242334Y385275D01*
X242403Y385302D01*
X242475Y385321D01*
X242565Y385367D01*
X242658Y385404D01*
X242719Y385446D01*
X242785Y385480D01*
X242862Y385545D01*
X242944Y385603D01*
X242994Y385658D01*
X243050Y385706D01*
X243110Y385787D01*
X243177Y385861D01*
X243213Y385926D01*
X243258Y385986D01*
X243297Y386079D01*
X243346Y386166D01*
X243366Y386238D01*
X243396Y386306D01*
X243413Y386405D01*
X243441Y386502D01*
X243449Y386602D01*
X243457Y386649D01*
X243455Y386685D01*
X243460Y386746D01*
X243460Y399380D01*
X243446Y399506D01*
X243439Y399632D01*
X243426Y399679D01*
X243420Y399727D01*
X243378Y399846D01*
X243343Y399967D01*
X243319Y400009D01*
X243303Y400055D01*
X243234Y400161D01*
X243173Y400271D01*
X243133Y400317D01*
X243114Y400347D01*
X243079Y400381D01*
X243014Y400457D01*
X206035Y437437D01*
X206015Y437453D01*
X205997Y437473D01*
X205889Y437553D01*
X205888Y437554D01*
X205887Y437554D01*
X205878Y437561D01*
X205762Y437653D01*
X205738Y437664D01*
X205717Y437680D01*
X205581Y437739D01*
X205447Y437802D01*
X205421Y437808D01*
X205397Y437818D01*
X205251Y437844D01*
X205106Y437875D01*
X205080Y437875D01*
X205054Y437880D01*
X204906Y437872D01*
X204758Y437869D01*
X204732Y437863D01*
X204706Y437862D01*
X204564Y437821D01*
X204420Y437784D01*
X204396Y437772D01*
X204371Y437765D01*
X204242Y437693D01*
X204110Y437625D01*
X204090Y437608D01*
X204067Y437595D01*
X203881Y437437D01*
X203324Y436879D01*
X196472Y436879D01*
X195579Y437772D01*
X195579Y451736D01*
X196472Y452629D01*
X203324Y452629D01*
X204217Y451736D01*
X204217Y450342D01*
X204220Y450316D01*
X204218Y450290D01*
X204240Y450143D01*
X204257Y449996D01*
X204265Y449971D01*
X204269Y449945D01*
X204324Y449807D01*
X204374Y449668D01*
X204388Y449646D01*
X204398Y449621D01*
X204483Y449500D01*
X204563Y449375D01*
X204582Y449357D01*
X204597Y449335D01*
X204707Y449236D01*
X204814Y449133D01*
X204836Y449119D01*
X204856Y449102D01*
X204986Y449030D01*
X205113Y448954D01*
X205138Y448946D01*
X205161Y448933D01*
X205304Y448893D01*
X205445Y448848D01*
X205471Y448846D01*
X205496Y448838D01*
X205740Y448819D01*
X206150Y448819D01*
X249778Y405191D01*
X249877Y405112D01*
X249970Y405028D01*
X250013Y405004D01*
X250051Y404974D01*
X250165Y404920D01*
X250275Y404859D01*
X250322Y404846D01*
X250366Y404825D01*
X250489Y404799D01*
X250611Y404764D01*
X250672Y404759D01*
X250706Y404752D01*
X250754Y404753D01*
X250855Y404745D01*
X263647Y404745D01*
X264540Y403852D01*
X264540Y400812D01*
X264543Y400786D01*
X264541Y400760D01*
X264563Y400613D01*
X264580Y400466D01*
X264588Y400441D01*
X264592Y400415D01*
X264647Y400277D01*
X264697Y400138D01*
X264711Y400116D01*
X264721Y400091D01*
X264806Y399970D01*
X264886Y399845D01*
X264905Y399827D01*
X264920Y399805D01*
X265030Y399706D01*
X265137Y399603D01*
X265159Y399589D01*
X265179Y399572D01*
X265309Y399500D01*
X265436Y399424D01*
X265461Y399416D01*
X265484Y399403D01*
X265627Y399363D01*
X265768Y399318D01*
X265794Y399316D01*
X265819Y399308D01*
X266063Y399289D01*
X267812Y399289D01*
X269866Y398438D01*
X290869Y377435D01*
X290968Y377356D01*
X291062Y377272D01*
X291104Y377248D01*
X291142Y377218D01*
X291256Y377164D01*
X291367Y377103D01*
X291413Y377090D01*
X291457Y377069D01*
X291580Y377043D01*
X291702Y377008D01*
X291763Y377003D01*
X291798Y376996D01*
X291846Y376997D01*
X291946Y376989D01*
X300301Y376989D01*
X300427Y377003D01*
X300553Y377010D01*
X300600Y377023D01*
X300648Y377029D01*
X300767Y377071D01*
X300888Y377106D01*
X300930Y377130D01*
X300976Y377146D01*
X301082Y377215D01*
X301192Y377276D01*
X301239Y377316D01*
X301269Y377335D01*
X301302Y377370D01*
X301379Y377435D01*
X302468Y378525D01*
X332532Y378525D01*
X333425Y377632D01*
X333425Y365168D01*
X332532Y364275D01*
X302468Y364275D01*
X301379Y365365D01*
X301280Y365444D01*
X301186Y365528D01*
X301143Y365552D01*
X301106Y365582D01*
X300991Y365636D01*
X300881Y365697D01*
X300834Y365710D01*
X300790Y365731D01*
X300667Y365757D01*
X300545Y365792D01*
X300485Y365797D01*
X300450Y365804D01*
X300402Y365803D01*
X300301Y365811D01*
X287888Y365811D01*
X285834Y366662D01*
X266301Y386195D01*
X266280Y386212D01*
X266263Y386232D01*
X266144Y386320D01*
X266028Y386412D01*
X266004Y386423D01*
X265983Y386439D01*
X265847Y386498D01*
X265713Y386561D01*
X265687Y386566D01*
X265663Y386577D01*
X265516Y386603D01*
X265372Y386634D01*
X265346Y386634D01*
X265320Y386639D01*
X265171Y386631D01*
X265024Y386628D01*
X264998Y386622D01*
X264972Y386621D01*
X264830Y386580D01*
X264686Y386543D01*
X264662Y386531D01*
X264637Y386524D01*
X264508Y386452D01*
X264376Y386384D01*
X264356Y386367D01*
X264333Y386354D01*
X264147Y386195D01*
X263647Y385695D01*
X244511Y385695D01*
X244411Y385684D01*
X244310Y385682D01*
X244238Y385664D01*
X244164Y385655D01*
X244070Y385622D01*
X243972Y385597D01*
X243906Y385563D01*
X243836Y385538D01*
X243752Y385483D01*
X243663Y385437D01*
X243606Y385389D01*
X243543Y385349D01*
X243474Y385277D01*
X243397Y385212D01*
X243353Y385152D01*
X243301Y385098D01*
X243250Y385012D01*
X243190Y384931D01*
X243161Y384863D01*
X243122Y384799D01*
X243092Y384703D01*
X243052Y384611D01*
X243039Y384538D01*
X243016Y384467D01*
X243008Y384367D01*
X242990Y384268D01*
X242994Y384194D01*
X242988Y384120D01*
X243003Y384020D01*
X243008Y383920D01*
X243029Y383849D01*
X243040Y383775D01*
X243077Y383682D01*
X243105Y383585D01*
X243141Y383520D01*
X243169Y383451D01*
X243226Y383369D01*
X243275Y383281D01*
X243340Y383205D01*
X243368Y383165D01*
X243394Y383141D01*
X243433Y383095D01*
X249778Y376751D01*
X249877Y376672D01*
X249970Y376588D01*
X250013Y376564D01*
X250051Y376534D01*
X250165Y376480D01*
X250275Y376419D01*
X250322Y376406D01*
X250366Y376385D01*
X250489Y376359D01*
X250611Y376324D01*
X250672Y376319D01*
X250706Y376312D01*
X250754Y376313D01*
X250855Y376305D01*
X263647Y376305D01*
X264540Y375412D01*
X264540Y358148D01*
X263647Y357255D01*
X261112Y357255D01*
X261086Y357252D01*
X261060Y357254D01*
X260913Y357232D01*
X260766Y357215D01*
X260741Y357207D01*
X260715Y357203D01*
X260577Y357148D01*
X260438Y357098D01*
X260416Y357084D01*
X260391Y357074D01*
X260270Y356989D01*
X260145Y356909D01*
X260127Y356890D01*
X260105Y356875D01*
X260006Y356765D01*
X259903Y356658D01*
X259889Y356636D01*
X259872Y356616D01*
X259800Y356486D01*
X259724Y356359D01*
X259716Y356334D01*
X259703Y356311D01*
X259663Y356168D01*
X259618Y356027D01*
X259616Y356001D01*
X259608Y355976D01*
X259589Y355732D01*
X259589Y341788D01*
X258738Y339734D01*
X244466Y325462D01*
X242412Y324611D01*
X87788Y324611D01*
G37*
%LPD*%
%LPC*%
G36*
X55747Y386947D02*
X55747Y386947D01*
X55747Y399678D01*
X55836Y399666D01*
X57867Y399122D01*
X59810Y398317D01*
X61631Y397266D01*
X63299Y395986D01*
X63575Y395710D01*
X63654Y395648D01*
X63726Y395578D01*
X63790Y395540D01*
X63848Y395493D01*
X63939Y395451D01*
X64025Y395399D01*
X64096Y395376D01*
X64163Y395345D01*
X64261Y395323D01*
X64357Y395293D01*
X64431Y395287D01*
X64504Y395271D01*
X64604Y395273D01*
X64704Y395265D01*
X64778Y395276D01*
X64852Y395277D01*
X64950Y395302D01*
X65049Y395317D01*
X65118Y395344D01*
X65190Y395362D01*
X65279Y395408D01*
X65373Y395445D01*
X65434Y395488D01*
X65500Y395522D01*
X65576Y395587D01*
X65659Y395644D01*
X65709Y395699D01*
X65765Y395748D01*
X65825Y395828D01*
X65892Y395903D01*
X65928Y395968D01*
X65973Y396028D01*
X66012Y396120D01*
X66061Y396208D01*
X66081Y396279D01*
X66111Y396348D01*
X66128Y396447D01*
X66156Y396543D01*
X66164Y396644D01*
X66172Y396691D01*
X66170Y396726D01*
X66175Y396787D01*
X66175Y403532D01*
X67068Y404425D01*
X85332Y404425D01*
X86225Y403532D01*
X86225Y401988D01*
X86228Y401962D01*
X86226Y401936D01*
X86248Y401789D01*
X86265Y401642D01*
X86273Y401617D01*
X86277Y401591D01*
X86332Y401453D01*
X86382Y401314D01*
X86396Y401292D01*
X86406Y401267D01*
X86491Y401146D01*
X86571Y401021D01*
X86590Y401003D01*
X86605Y400981D01*
X86715Y400882D01*
X86822Y400779D01*
X86844Y400765D01*
X86864Y400748D01*
X86994Y400676D01*
X87121Y400600D01*
X87146Y400592D01*
X87169Y400579D01*
X87312Y400539D01*
X87453Y400494D01*
X87479Y400492D01*
X87504Y400484D01*
X87748Y400465D01*
X89285Y400465D01*
X89411Y400479D01*
X89537Y400486D01*
X89584Y400499D01*
X89632Y400505D01*
X89751Y400547D01*
X89872Y400582D01*
X89914Y400606D01*
X89960Y400622D01*
X90066Y400691D01*
X90176Y400752D01*
X90222Y400792D01*
X90252Y400811D01*
X90286Y400846D01*
X90362Y400911D01*
X163416Y473965D01*
X217584Y473965D01*
X290638Y400911D01*
X290737Y400832D01*
X290830Y400748D01*
X290873Y400724D01*
X290911Y400694D01*
X291025Y400640D01*
X291135Y400579D01*
X291182Y400566D01*
X291226Y400545D01*
X291349Y400519D01*
X291471Y400484D01*
X291532Y400479D01*
X291566Y400472D01*
X291614Y400473D01*
X291715Y400465D01*
X300052Y400465D01*
X300078Y400468D01*
X300104Y400466D01*
X300251Y400488D01*
X300398Y400505D01*
X300423Y400513D01*
X300449Y400517D01*
X300587Y400572D01*
X300726Y400622D01*
X300748Y400636D01*
X300773Y400646D01*
X300894Y400731D01*
X301019Y400811D01*
X301037Y400830D01*
X301059Y400845D01*
X301158Y400955D01*
X301261Y401062D01*
X301275Y401084D01*
X301292Y401104D01*
X301364Y401234D01*
X301440Y401361D01*
X301448Y401386D01*
X301461Y401409D01*
X301501Y401552D01*
X301546Y401693D01*
X301548Y401719D01*
X301556Y401744D01*
X301575Y401988D01*
X301575Y402632D01*
X302468Y403525D01*
X332532Y403525D01*
X333425Y402632D01*
X333425Y390168D01*
X332532Y389275D01*
X302468Y389275D01*
X301575Y390168D01*
X301575Y390812D01*
X301572Y390838D01*
X301574Y390864D01*
X301552Y391011D01*
X301535Y391158D01*
X301527Y391183D01*
X301523Y391209D01*
X301468Y391347D01*
X301418Y391486D01*
X301404Y391508D01*
X301394Y391533D01*
X301309Y391654D01*
X301229Y391779D01*
X301210Y391797D01*
X301195Y391819D01*
X301085Y391918D01*
X300978Y392021D01*
X300956Y392035D01*
X300936Y392052D01*
X300806Y392124D01*
X300679Y392200D01*
X300654Y392208D01*
X300631Y392221D01*
X300488Y392261D01*
X300347Y392306D01*
X300321Y392308D01*
X300296Y392316D01*
X300052Y392335D01*
X287716Y392335D01*
X214662Y465389D01*
X214563Y465468D01*
X214470Y465552D01*
X214427Y465576D01*
X214389Y465606D01*
X214275Y465660D01*
X214165Y465721D01*
X214118Y465734D01*
X214074Y465755D01*
X213951Y465781D01*
X213829Y465816D01*
X213768Y465821D01*
X213734Y465828D01*
X213686Y465827D01*
X213585Y465835D01*
X167415Y465835D01*
X167289Y465821D01*
X167163Y465814D01*
X167116Y465801D01*
X167068Y465795D01*
X166949Y465753D01*
X166828Y465718D01*
X166786Y465694D01*
X166740Y465678D01*
X166634Y465609D01*
X166524Y465548D01*
X166478Y465508D01*
X166448Y465489D01*
X166414Y465454D01*
X166338Y465389D01*
X93284Y392335D01*
X87748Y392335D01*
X87722Y392332D01*
X87696Y392334D01*
X87549Y392312D01*
X87402Y392295D01*
X87377Y392287D01*
X87351Y392283D01*
X87213Y392228D01*
X87074Y392178D01*
X87052Y392164D01*
X87027Y392154D01*
X86906Y392069D01*
X86781Y391989D01*
X86763Y391970D01*
X86741Y391955D01*
X86642Y391845D01*
X86539Y391738D01*
X86525Y391716D01*
X86508Y391696D01*
X86436Y391566D01*
X86360Y391439D01*
X86352Y391414D01*
X86339Y391391D01*
X86299Y391248D01*
X86254Y391107D01*
X86252Y391081D01*
X86244Y391056D01*
X86225Y390812D01*
X86225Y389268D01*
X85332Y388375D01*
X70027Y388375D01*
X69902Y388361D01*
X69776Y388355D01*
X69729Y388341D01*
X69681Y388335D01*
X69562Y388293D01*
X69441Y388258D01*
X69399Y388234D01*
X69353Y388218D01*
X69247Y388150D01*
X69137Y388088D01*
X69101Y388055D01*
X69060Y388029D01*
X68972Y387938D01*
X68879Y387854D01*
X68852Y387813D01*
X68818Y387778D01*
X68753Y387670D01*
X68682Y387567D01*
X68664Y387521D01*
X68639Y387479D01*
X68600Y387359D01*
X68555Y387242D01*
X68547Y387194D01*
X68533Y387147D01*
X68522Y387022D01*
X68512Y386947D01*
X55747Y386947D01*
G37*
%LPD*%
%LPC*%
G36*
X67068Y408375D02*
X67068Y408375D01*
X66175Y409268D01*
X66175Y416013D01*
X66164Y416113D01*
X66162Y416213D01*
X66144Y416285D01*
X66135Y416359D01*
X66102Y416454D01*
X66077Y416551D01*
X66043Y416617D01*
X66018Y416687D01*
X65963Y416772D01*
X65917Y416861D01*
X65869Y416917D01*
X65829Y416980D01*
X65757Y417050D01*
X65692Y417126D01*
X65632Y417170D01*
X65578Y417222D01*
X65492Y417274D01*
X65411Y417333D01*
X65343Y417363D01*
X65279Y417401D01*
X65184Y417432D01*
X65091Y417471D01*
X65018Y417485D01*
X64947Y417507D01*
X64847Y417515D01*
X64748Y417533D01*
X64674Y417529D01*
X64600Y417535D01*
X64501Y417520D01*
X64400Y417515D01*
X64329Y417495D01*
X64255Y417483D01*
X64162Y417446D01*
X64065Y417419D01*
X64000Y417382D01*
X63931Y417355D01*
X63849Y417297D01*
X63761Y417248D01*
X63685Y417183D01*
X63645Y417156D01*
X63621Y417129D01*
X63575Y417090D01*
X63299Y416814D01*
X61631Y415534D01*
X59810Y414483D01*
X57867Y413678D01*
X55836Y413134D01*
X55747Y413122D01*
X55747Y425853D01*
X68511Y425853D01*
X68512Y425847D01*
X68511Y425798D01*
X68538Y425676D01*
X68556Y425551D01*
X68574Y425506D01*
X68585Y425458D01*
X68639Y425344D01*
X68685Y425227D01*
X68713Y425187D01*
X68734Y425143D01*
X68812Y425044D01*
X68884Y424941D01*
X68920Y424908D01*
X68951Y424870D01*
X69049Y424792D01*
X69143Y424708D01*
X69186Y424684D01*
X69224Y424654D01*
X69338Y424600D01*
X69448Y424539D01*
X69495Y424526D01*
X69539Y424505D01*
X69662Y424479D01*
X69783Y424444D01*
X69845Y424439D01*
X69880Y424432D01*
X69928Y424433D01*
X70027Y424425D01*
X85332Y424425D01*
X85827Y423929D01*
X85847Y423913D01*
X85864Y423893D01*
X85983Y423805D01*
X86100Y423713D01*
X86124Y423702D01*
X86145Y423686D01*
X86280Y423627D01*
X86415Y423564D01*
X86441Y423558D01*
X86465Y423548D01*
X86611Y423522D01*
X86756Y423491D01*
X86782Y423491D01*
X86808Y423486D01*
X86956Y423494D01*
X87104Y423497D01*
X87129Y423503D01*
X87156Y423504D01*
X87298Y423545D01*
X87442Y423582D01*
X87465Y423594D01*
X87491Y423601D01*
X87620Y423673D01*
X87752Y423741D01*
X87772Y423758D01*
X87795Y423771D01*
X87981Y423929D01*
X150716Y486665D01*
X230284Y486665D01*
X233111Y483838D01*
X296038Y420911D01*
X296137Y420832D01*
X296230Y420748D01*
X296273Y420724D01*
X296311Y420694D01*
X296425Y420640D01*
X296535Y420579D01*
X296582Y420566D01*
X296626Y420545D01*
X296749Y420519D01*
X296871Y420484D01*
X296932Y420479D01*
X296966Y420472D01*
X297014Y420473D01*
X297115Y420465D01*
X300052Y420465D01*
X300078Y420468D01*
X300104Y420466D01*
X300251Y420488D01*
X300398Y420505D01*
X300423Y420513D01*
X300449Y420517D01*
X300587Y420572D01*
X300726Y420622D01*
X300748Y420636D01*
X300773Y420646D01*
X300894Y420731D01*
X301019Y420811D01*
X301037Y420830D01*
X301059Y420845D01*
X301158Y420955D01*
X301261Y421062D01*
X301275Y421084D01*
X301292Y421104D01*
X301364Y421234D01*
X301440Y421361D01*
X301448Y421386D01*
X301461Y421409D01*
X301501Y421552D01*
X301546Y421693D01*
X301548Y421719D01*
X301556Y421744D01*
X301575Y421988D01*
X301575Y422632D01*
X302468Y423525D01*
X332532Y423525D01*
X333425Y422632D01*
X333425Y410168D01*
X332532Y409275D01*
X302468Y409275D01*
X301575Y410168D01*
X301575Y410812D01*
X301572Y410838D01*
X301574Y410864D01*
X301552Y411011D01*
X301535Y411158D01*
X301527Y411183D01*
X301523Y411209D01*
X301468Y411347D01*
X301418Y411486D01*
X301404Y411508D01*
X301394Y411533D01*
X301309Y411654D01*
X301229Y411779D01*
X301210Y411797D01*
X301195Y411819D01*
X301085Y411918D01*
X300978Y412021D01*
X300956Y412035D01*
X300936Y412052D01*
X300806Y412124D01*
X300679Y412200D01*
X300654Y412208D01*
X300631Y412221D01*
X300488Y412261D01*
X300347Y412306D01*
X300321Y412308D01*
X300296Y412316D01*
X300052Y412335D01*
X293116Y412335D01*
X290289Y415162D01*
X227362Y478089D01*
X227263Y478168D01*
X227170Y478252D01*
X227127Y478276D01*
X227089Y478306D01*
X226975Y478360D01*
X226865Y478421D01*
X226818Y478434D01*
X226774Y478455D01*
X226651Y478481D01*
X226529Y478516D01*
X226468Y478521D01*
X226434Y478528D01*
X226386Y478527D01*
X226285Y478535D01*
X154715Y478535D01*
X154589Y478521D01*
X154463Y478514D01*
X154416Y478501D01*
X154368Y478495D01*
X154249Y478453D01*
X154128Y478418D01*
X154086Y478394D01*
X154040Y478378D01*
X153934Y478309D01*
X153824Y478248D01*
X153778Y478208D01*
X153748Y478189D01*
X153714Y478154D01*
X153638Y478089D01*
X87884Y412335D01*
X87748Y412335D01*
X87722Y412332D01*
X87696Y412334D01*
X87549Y412312D01*
X87402Y412295D01*
X87377Y412287D01*
X87351Y412283D01*
X87213Y412228D01*
X87074Y412178D01*
X87052Y412164D01*
X87027Y412154D01*
X86906Y412069D01*
X86781Y411989D01*
X86763Y411970D01*
X86741Y411955D01*
X86642Y411845D01*
X86539Y411738D01*
X86525Y411716D01*
X86508Y411696D01*
X86436Y411566D01*
X86360Y411439D01*
X86352Y411414D01*
X86339Y411391D01*
X86299Y411248D01*
X86254Y411107D01*
X86252Y411081D01*
X86244Y411056D01*
X86225Y410812D01*
X86225Y409268D01*
X85332Y408375D01*
X67068Y408375D01*
G37*
%LPD*%
%LPC*%
G36*
X108408Y341375D02*
X108408Y341375D01*
X100075Y349708D01*
X100075Y361492D01*
X108408Y369825D01*
X120192Y369825D01*
X128525Y361492D01*
X128525Y361188D01*
X128528Y361162D01*
X128526Y361136D01*
X128548Y360989D01*
X128565Y360842D01*
X128573Y360817D01*
X128577Y360791D01*
X128632Y360653D01*
X128682Y360514D01*
X128696Y360492D01*
X128706Y360467D01*
X128791Y360346D01*
X128871Y360221D01*
X128890Y360203D01*
X128905Y360181D01*
X129015Y360082D01*
X129122Y359979D01*
X129144Y359965D01*
X129164Y359948D01*
X129294Y359876D01*
X129421Y359800D01*
X129446Y359792D01*
X129469Y359779D01*
X129612Y359739D01*
X129753Y359694D01*
X129779Y359692D01*
X129804Y359684D01*
X130048Y359665D01*
X139832Y359665D01*
X139858Y359668D01*
X139884Y359666D01*
X140031Y359688D01*
X140178Y359705D01*
X140203Y359713D01*
X140229Y359717D01*
X140367Y359772D01*
X140506Y359822D01*
X140528Y359836D01*
X140553Y359846D01*
X140674Y359931D01*
X140799Y360011D01*
X140817Y360030D01*
X140839Y360045D01*
X140938Y360155D01*
X141041Y360262D01*
X141055Y360284D01*
X141072Y360304D01*
X141144Y360434D01*
X141220Y360561D01*
X141228Y360586D01*
X141241Y360609D01*
X141281Y360752D01*
X141326Y360893D01*
X141328Y360919D01*
X141336Y360944D01*
X141355Y361188D01*
X141355Y365247D01*
X142248Y366140D01*
X156560Y366140D01*
X156686Y366154D01*
X156812Y366161D01*
X156859Y366174D01*
X156907Y366180D01*
X157026Y366222D01*
X157147Y366257D01*
X157189Y366281D01*
X157235Y366297D01*
X157341Y366366D01*
X157451Y366427D01*
X157498Y366467D01*
X157528Y366486D01*
X157561Y366521D01*
X157637Y366586D01*
X164811Y373759D01*
X164873Y373837D01*
X164943Y373910D01*
X164981Y373974D01*
X165027Y374032D01*
X165070Y374123D01*
X165122Y374209D01*
X165144Y374280D01*
X165176Y374347D01*
X165197Y374445D01*
X165228Y374541D01*
X165234Y374615D01*
X165249Y374688D01*
X165248Y374788D01*
X165256Y374888D01*
X165245Y374962D01*
X165243Y375036D01*
X165219Y375133D01*
X165204Y375233D01*
X165177Y375302D01*
X165158Y375374D01*
X165112Y375464D01*
X165075Y375557D01*
X165033Y375618D01*
X164999Y375684D01*
X164934Y375760D01*
X164876Y375843D01*
X164821Y375893D01*
X164773Y375949D01*
X164692Y376009D01*
X164618Y376076D01*
X164553Y376112D01*
X164493Y376157D01*
X164400Y376196D01*
X164313Y376245D01*
X164241Y376265D01*
X164173Y376295D01*
X164074Y376312D01*
X163977Y376340D01*
X163877Y376348D01*
X163830Y376356D01*
X163794Y376354D01*
X163733Y376359D01*
X155447Y376359D01*
X155447Y383853D01*
X165941Y383853D01*
X165941Y378567D01*
X165952Y378467D01*
X165954Y378366D01*
X165972Y378294D01*
X165981Y378220D01*
X166014Y378126D01*
X166039Y378028D01*
X166073Y377962D01*
X166098Y377892D01*
X166153Y377808D01*
X166199Y377719D01*
X166247Y377662D01*
X166287Y377599D01*
X166359Y377530D01*
X166424Y377453D01*
X166484Y377409D01*
X166538Y377357D01*
X166624Y377306D01*
X166705Y377246D01*
X166773Y377217D01*
X166837Y377178D01*
X166933Y377148D01*
X167025Y377108D01*
X167098Y377095D01*
X167169Y377072D01*
X167269Y377064D01*
X167368Y377046D01*
X167442Y377050D01*
X167516Y377044D01*
X167616Y377059D01*
X167716Y377064D01*
X167787Y377085D01*
X167861Y377096D01*
X167954Y377133D01*
X168051Y377161D01*
X168116Y377197D01*
X168185Y377225D01*
X168267Y377282D01*
X168355Y377331D01*
X168431Y377396D01*
X168471Y377424D01*
X168495Y377450D01*
X168541Y377489D01*
X176591Y385540D01*
X176670Y385639D01*
X176754Y385732D01*
X176778Y385775D01*
X176808Y385813D01*
X176862Y385927D01*
X176923Y386037D01*
X176936Y386084D01*
X176957Y386128D01*
X176983Y386251D01*
X177018Y386373D01*
X177023Y386434D01*
X177030Y386468D01*
X177029Y386516D01*
X177037Y386617D01*
X177037Y410979D01*
X177023Y411105D01*
X177016Y411231D01*
X177003Y411278D01*
X176997Y411326D01*
X176955Y411445D01*
X176920Y411566D01*
X176896Y411608D01*
X176880Y411654D01*
X176811Y411760D01*
X176783Y411810D01*
X176783Y425828D01*
X177676Y426721D01*
X185007Y426721D01*
X185132Y426735D01*
X185258Y426742D01*
X185305Y426755D01*
X185353Y426761D01*
X185472Y426803D01*
X185593Y426838D01*
X185635Y426862D01*
X185681Y426878D01*
X185787Y426947D01*
X185897Y427008D01*
X185944Y427048D01*
X185974Y427067D01*
X186007Y427102D01*
X186084Y427167D01*
X186146Y427229D01*
X186725Y427564D01*
X187371Y427737D01*
X188977Y427737D01*
X188977Y418846D01*
X188977Y409955D01*
X187371Y409955D01*
X187084Y410032D01*
X187034Y410040D01*
X186985Y410055D01*
X186862Y410065D01*
X186739Y410083D01*
X186689Y410079D01*
X186638Y410083D01*
X186515Y410065D01*
X186392Y410055D01*
X186344Y410039D01*
X186293Y410032D01*
X186178Y409986D01*
X186060Y409948D01*
X186017Y409922D01*
X185969Y409903D01*
X185868Y409832D01*
X185762Y409769D01*
X185725Y409733D01*
X185683Y409704D01*
X185600Y409612D01*
X185511Y409526D01*
X185484Y409483D01*
X185450Y409445D01*
X185390Y409337D01*
X185323Y409233D01*
X185306Y409185D01*
X185281Y409140D01*
X185248Y409021D01*
X185206Y408904D01*
X185200Y408854D01*
X185186Y408805D01*
X185167Y408561D01*
X185167Y382618D01*
X172304Y369756D01*
X172242Y369678D01*
X172172Y369605D01*
X172134Y369541D01*
X172088Y369483D01*
X172045Y369392D01*
X171993Y369306D01*
X171971Y369235D01*
X171939Y369168D01*
X171918Y369070D01*
X171887Y368974D01*
X171881Y368900D01*
X171866Y368827D01*
X171867Y368727D01*
X171859Y368627D01*
X171870Y368553D01*
X171872Y368479D01*
X171896Y368382D01*
X171911Y368282D01*
X171938Y368213D01*
X171957Y368141D01*
X172003Y368051D01*
X172040Y367958D01*
X172082Y367897D01*
X172116Y367831D01*
X172181Y367754D01*
X172239Y367672D01*
X172294Y367622D01*
X172342Y367566D01*
X172423Y367506D01*
X172497Y367439D01*
X172562Y367403D01*
X172622Y367358D01*
X172714Y367319D01*
X172802Y367270D01*
X172874Y367250D01*
X172942Y367220D01*
X173041Y367203D01*
X173138Y367175D01*
X173238Y367167D01*
X173285Y367159D01*
X173321Y367161D01*
X173382Y367156D01*
X176273Y367156D01*
X176273Y358647D01*
X168779Y358647D01*
X168779Y362553D01*
X168768Y362653D01*
X168766Y362754D01*
X168748Y362826D01*
X168739Y362900D01*
X168706Y362994D01*
X168681Y363092D01*
X168647Y363158D01*
X168622Y363228D01*
X168567Y363312D01*
X168521Y363401D01*
X168473Y363458D01*
X168433Y363521D01*
X168361Y363590D01*
X168296Y363667D01*
X168236Y363711D01*
X168182Y363763D01*
X168096Y363814D01*
X168015Y363874D01*
X167947Y363903D01*
X167883Y363942D01*
X167787Y363972D01*
X167695Y364012D01*
X167622Y364025D01*
X167551Y364048D01*
X167451Y364056D01*
X167352Y364074D01*
X167278Y364070D01*
X167204Y364076D01*
X167104Y364061D01*
X167004Y364056D01*
X166933Y364035D01*
X166859Y364024D01*
X166766Y363987D01*
X166669Y363959D01*
X166604Y363923D01*
X166535Y363895D01*
X166453Y363838D01*
X166365Y363789D01*
X166289Y363724D01*
X166249Y363696D01*
X166225Y363670D01*
X166179Y363631D01*
X160851Y358302D01*
X160772Y358203D01*
X160688Y358110D01*
X160664Y358067D01*
X160634Y358029D01*
X160580Y357915D01*
X160519Y357805D01*
X160506Y357758D01*
X160485Y357714D01*
X160459Y357591D01*
X160424Y357469D01*
X160419Y357408D01*
X160412Y357374D01*
X160413Y357326D01*
X160405Y357225D01*
X160405Y345953D01*
X159512Y345060D01*
X142248Y345060D01*
X141355Y345953D01*
X141355Y350012D01*
X141352Y350038D01*
X141354Y350064D01*
X141332Y350211D01*
X141315Y350358D01*
X141307Y350383D01*
X141303Y350409D01*
X141248Y350547D01*
X141198Y350686D01*
X141184Y350708D01*
X141174Y350733D01*
X141089Y350854D01*
X141009Y350979D01*
X140990Y350997D01*
X140975Y351019D01*
X140865Y351118D01*
X140758Y351221D01*
X140736Y351235D01*
X140716Y351252D01*
X140586Y351324D01*
X140459Y351400D01*
X140434Y351408D01*
X140411Y351421D01*
X140268Y351461D01*
X140127Y351506D01*
X140101Y351508D01*
X140076Y351516D01*
X139832Y351535D01*
X130048Y351535D01*
X130022Y351532D01*
X129996Y351534D01*
X129849Y351512D01*
X129702Y351495D01*
X129677Y351487D01*
X129651Y351483D01*
X129513Y351428D01*
X129374Y351378D01*
X129352Y351364D01*
X129327Y351354D01*
X129206Y351269D01*
X129081Y351189D01*
X129063Y351170D01*
X129041Y351155D01*
X128942Y351045D01*
X128839Y350938D01*
X128825Y350916D01*
X128808Y350896D01*
X128736Y350766D01*
X128660Y350639D01*
X128652Y350614D01*
X128639Y350591D01*
X128599Y350448D01*
X128554Y350307D01*
X128552Y350281D01*
X128544Y350256D01*
X128525Y350012D01*
X128525Y349708D01*
X120192Y341375D01*
X108408Y341375D01*
G37*
%LPD*%
%LPC*%
G36*
X355047Y475197D02*
X355047Y475197D01*
X355047Y491035D01*
X355738Y490944D01*
X358159Y490295D01*
X360475Y489336D01*
X362646Y488083D01*
X364634Y486556D01*
X366406Y484784D01*
X367933Y482796D01*
X369186Y480625D01*
X370145Y478309D01*
X370794Y475888D01*
X370885Y475197D01*
X355047Y475197D01*
G37*
%LPD*%
%LPC*%
G36*
X355047Y343697D02*
X355047Y343697D01*
X355047Y359535D01*
X355738Y359444D01*
X358159Y358795D01*
X360475Y357836D01*
X362646Y356583D01*
X364634Y355056D01*
X366406Y353284D01*
X367933Y351296D01*
X369186Y349125D01*
X370145Y346809D01*
X370794Y344388D01*
X370885Y343697D01*
X355047Y343697D01*
G37*
%LPD*%
%LPC*%
G36*
X355047Y337603D02*
X355047Y337603D01*
X370885Y337603D01*
X370794Y336912D01*
X370145Y334491D01*
X369186Y332175D01*
X367933Y330004D01*
X367230Y329089D01*
X366406Y328016D01*
X364634Y326244D01*
X362646Y324717D01*
X360475Y323464D01*
X358159Y322505D01*
X355738Y321856D01*
X355047Y321765D01*
X355047Y337603D01*
G37*
%LPD*%
%LPC*%
G36*
X355047Y469103D02*
X355047Y469103D01*
X370885Y469103D01*
X370794Y468412D01*
X370145Y465991D01*
X369186Y463675D01*
X367933Y461504D01*
X366406Y459516D01*
X364634Y457744D01*
X362646Y456217D01*
X360475Y454964D01*
X358159Y454005D01*
X355738Y453356D01*
X355047Y453265D01*
X355047Y469103D01*
G37*
%LPD*%
%LPC*%
G36*
X333115Y475197D02*
X333115Y475197D01*
X333206Y475888D01*
X333855Y478309D01*
X334814Y480625D01*
X336067Y482796D01*
X337092Y484131D01*
X337093Y484131D01*
X337594Y484784D01*
X339366Y486556D01*
X341354Y488083D01*
X343525Y489336D01*
X345841Y490295D01*
X348262Y490944D01*
X348953Y491035D01*
X348953Y475197D01*
X333115Y475197D01*
G37*
%LPD*%
%LPC*%
G36*
X333115Y343697D02*
X333115Y343697D01*
X333206Y344388D01*
X333855Y346809D01*
X334814Y349125D01*
X336067Y351296D01*
X336308Y351608D01*
X336308Y351609D01*
X337594Y353284D01*
X339366Y355056D01*
X341354Y356583D01*
X343525Y357836D01*
X345841Y358795D01*
X348262Y359444D01*
X348953Y359535D01*
X348953Y343697D01*
X333115Y343697D01*
G37*
%LPD*%
%LPC*%
G36*
X348262Y321856D02*
X348262Y321856D01*
X345841Y322505D01*
X343525Y323464D01*
X341354Y324717D01*
X339366Y326244D01*
X337594Y328016D01*
X336067Y330004D01*
X334814Y332175D01*
X333855Y334491D01*
X333206Y336912D01*
X333115Y337603D01*
X348953Y337603D01*
X348953Y321765D01*
X348262Y321856D01*
G37*
%LPD*%
%LPC*%
G36*
X348262Y453356D02*
X348262Y453356D01*
X345841Y454005D01*
X343525Y454964D01*
X341354Y456217D01*
X339366Y457744D01*
X337594Y459516D01*
X336067Y461504D01*
X334814Y463675D01*
X333855Y465991D01*
X333206Y468412D01*
X333115Y469103D01*
X348953Y469103D01*
X348953Y453265D01*
X348262Y453356D01*
G37*
%LPD*%
%LPC*%
G36*
X55747Y431947D02*
X55747Y431947D01*
X55747Y444678D01*
X55836Y444666D01*
X57867Y444122D01*
X59810Y443317D01*
X61631Y442266D01*
X63299Y440986D01*
X64786Y439499D01*
X65208Y438949D01*
X65244Y438912D01*
X65274Y438869D01*
X65365Y438787D01*
X65451Y438698D01*
X65494Y438670D01*
X65532Y438636D01*
X65640Y438576D01*
X65744Y438510D01*
X65792Y438492D01*
X65838Y438467D01*
X65956Y438434D01*
X66072Y438392D01*
X66123Y438386D01*
X66173Y438372D01*
X66417Y438353D01*
X73153Y438353D01*
X73153Y432359D01*
X70161Y432359D01*
X70036Y432345D01*
X69910Y432339D01*
X69863Y432325D01*
X69814Y432319D01*
X69696Y432277D01*
X69575Y432242D01*
X69532Y432218D01*
X69486Y432202D01*
X69381Y432134D01*
X69271Y432072D01*
X69235Y432039D01*
X69194Y432013D01*
X69130Y431947D01*
X55747Y431947D01*
G37*
%LPD*%
%LPC*%
G36*
X218439Y358139D02*
X218439Y358139D01*
X218439Y370841D01*
X222213Y370841D01*
X231141Y361913D01*
X231141Y358139D01*
X218439Y358139D01*
G37*
%LPD*%
%LPC*%
G36*
X200659Y358139D02*
X200659Y358139D01*
X200659Y361913D01*
X209587Y370841D01*
X213361Y370841D01*
X213361Y358139D01*
X200659Y358139D01*
G37*
%LPD*%
%LPC*%
G36*
X218439Y340359D02*
X218439Y340359D01*
X218439Y353061D01*
X231141Y353061D01*
X231141Y349287D01*
X222213Y340359D01*
X218439Y340359D01*
G37*
%LPD*%
%LPC*%
G36*
X209587Y340359D02*
X209587Y340359D01*
X200659Y349287D01*
X200659Y353061D01*
X213361Y353061D01*
X213361Y340359D01*
X209587Y340359D01*
G37*
%LPD*%
%LPC*%
G36*
X155447Y389947D02*
X155447Y389947D01*
X155447Y397441D01*
X163735Y397441D01*
X164381Y397268D01*
X164960Y396933D01*
X165433Y396460D01*
X165768Y395881D01*
X165941Y395235D01*
X165941Y389947D01*
X155447Y389947D01*
G37*
%LPD*%
%LPC*%
G36*
X138859Y389947D02*
X138859Y389947D01*
X138859Y395235D01*
X139032Y395881D01*
X139367Y396460D01*
X139840Y396933D01*
X140419Y397268D01*
X141065Y397441D01*
X149353Y397441D01*
X149353Y389947D01*
X138859Y389947D01*
G37*
%LPD*%
%LPC*%
G36*
X141065Y376359D02*
X141065Y376359D01*
X140419Y376532D01*
X139840Y376867D01*
X139367Y377340D01*
X139032Y377919D01*
X138859Y378565D01*
X138859Y383853D01*
X149353Y383853D01*
X149353Y376359D01*
X141065Y376359D01*
G37*
%LPD*%
%LPC*%
G36*
X320299Y444199D02*
X320299Y444199D01*
X320299Y449541D01*
X332235Y449541D01*
X332881Y449368D01*
X333460Y449033D01*
X333933Y448560D01*
X334268Y447981D01*
X334441Y447335D01*
X334441Y444199D01*
X320299Y444199D01*
G37*
%LPD*%
%LPC*%
G36*
X300559Y444199D02*
X300559Y444199D01*
X300559Y447335D01*
X300732Y447981D01*
X301067Y448560D01*
X301540Y449033D01*
X302119Y449368D01*
X302765Y449541D01*
X314701Y449541D01*
X314701Y444199D01*
X300559Y444199D01*
G37*
%LPD*%
%LPC*%
G36*
X320299Y433259D02*
X320299Y433259D01*
X320299Y438601D01*
X334441Y438601D01*
X334441Y435465D01*
X334268Y434819D01*
X333933Y434240D01*
X333460Y433767D01*
X332881Y433432D01*
X332235Y433259D01*
X320299Y433259D01*
G37*
%LPD*%
%LPC*%
G36*
X302765Y433259D02*
X302765Y433259D01*
X302119Y433432D01*
X301540Y433767D01*
X301067Y434240D01*
X300732Y434819D01*
X300559Y435465D01*
X300559Y438601D01*
X314701Y438601D01*
X314701Y433259D01*
X302765Y433259D01*
G37*
%LPD*%
%LPC*%
G36*
X182367Y358647D02*
X182367Y358647D01*
X182367Y367156D01*
X187655Y367156D01*
X188301Y366983D01*
X188880Y366648D01*
X189353Y366175D01*
X189688Y365596D01*
X189861Y364950D01*
X189861Y358647D01*
X182367Y358647D01*
G37*
%LPD*%
%LPC*%
G36*
X182367Y344044D02*
X182367Y344044D01*
X182367Y352553D01*
X189861Y352553D01*
X189861Y346250D01*
X189688Y345604D01*
X189353Y345025D01*
X188880Y344552D01*
X188301Y344217D01*
X187655Y344044D01*
X182367Y344044D01*
G37*
%LPD*%
%LPC*%
G36*
X170985Y344044D02*
X170985Y344044D01*
X170339Y344217D01*
X169760Y344552D01*
X169287Y345025D01*
X168952Y345604D01*
X168779Y346250D01*
X168779Y352553D01*
X176273Y352553D01*
X176273Y344044D01*
X170985Y344044D01*
G37*
%LPD*%
%LPC*%
G36*
X79247Y444447D02*
X79247Y444447D01*
X79247Y450441D01*
X85035Y450441D01*
X85681Y450268D01*
X86260Y449933D01*
X86733Y449460D01*
X87068Y448881D01*
X87241Y448235D01*
X87241Y444447D01*
X79247Y444447D01*
G37*
%LPD*%
%LPC*%
G36*
X65159Y444447D02*
X65159Y444447D01*
X65159Y448235D01*
X65332Y448881D01*
X65667Y449460D01*
X66140Y449933D01*
X66719Y450268D01*
X67365Y450441D01*
X73153Y450441D01*
X73153Y444447D01*
X65159Y444447D01*
G37*
%LPD*%
%LPC*%
G36*
X79247Y432359D02*
X79247Y432359D01*
X79247Y438353D01*
X87241Y438353D01*
X87241Y434565D01*
X87068Y433919D01*
X86733Y433340D01*
X86260Y432867D01*
X85681Y432532D01*
X85035Y432359D01*
X79247Y432359D01*
G37*
%LPD*%
%LPC*%
G36*
X351999Y340649D02*
X351999Y340649D01*
X351999Y340651D01*
X352001Y340651D01*
X352001Y340649D01*
X351999Y340649D01*
G37*
%LPD*%
%LPC*%
G36*
X351999Y472149D02*
X351999Y472149D01*
X351999Y472151D01*
X352001Y472151D01*
X352001Y472149D01*
X351999Y472149D01*
G37*
%LPD*%
%LPC*%
G36*
X179319Y355599D02*
X179319Y355599D01*
X179319Y355601D01*
X179321Y355601D01*
X179321Y355599D01*
X179319Y355599D01*
G37*
%LPD*%
%LPC*%
G36*
X152399Y386899D02*
X152399Y386899D01*
X152399Y386901D01*
X152401Y386901D01*
X152401Y386899D01*
X152399Y386899D01*
G37*
%LPD*%
%LPC*%
G36*
X76199Y441399D02*
X76199Y441399D01*
X76199Y441401D01*
X76201Y441401D01*
X76201Y441399D01*
X76199Y441399D01*
G37*
%LPD*%
D10*
X114300Y355600D03*
X215900Y355600D03*
D11*
X181102Y418846D03*
X190500Y418846D03*
X199898Y418846D03*
X199898Y444754D03*
X181102Y444754D03*
D12*
X254000Y395220D03*
X254000Y366780D03*
D13*
X150880Y355600D03*
X179320Y355600D03*
D14*
X152400Y425900D03*
X152400Y386900D03*
D15*
X52700Y383900D03*
X52700Y428900D03*
D16*
X76200Y396400D03*
X76200Y416400D03*
X76200Y371400D03*
X76200Y441400D03*
D17*
X352000Y340650D03*
X352000Y472150D03*
D18*
X317500Y371400D03*
X317500Y441400D03*
X317500Y396400D03*
X317500Y416400D03*
D19*
X190500Y418846D02*
X190500Y422903D01*
D20*
X86200Y416400D02*
X76200Y416400D01*
X86200Y416400D02*
X152400Y482600D01*
X228600Y482600D01*
X294800Y416400D02*
X317500Y416400D01*
X294800Y416400D02*
X228600Y482600D01*
X91600Y396400D02*
X76200Y396400D01*
X165100Y469900D02*
X215900Y469900D01*
X289400Y396400D02*
X317500Y396400D01*
X165100Y469900D02*
X91600Y396400D01*
X215900Y469900D02*
X289400Y396400D01*
X181102Y384302D02*
X181102Y418846D01*
X152400Y355600D02*
X150880Y355600D01*
X152400Y355600D02*
X181102Y384302D01*
X150880Y355600D02*
X114300Y355600D01*
X251964Y366780D02*
X254000Y366780D01*
X92000Y371400D02*
X88900Y371400D01*
X76200Y371400D01*
D21*
X254000Y366780D02*
X255520Y366780D01*
D20*
X181102Y444754D02*
X171254Y444754D01*
D21*
X76200Y342900D02*
X88900Y330200D01*
X241300Y330200D01*
X254000Y342900D01*
X254000Y366780D01*
X76200Y371400D02*
X76200Y342900D01*
D20*
X199898Y397002D02*
X199898Y418846D01*
X199898Y397002D02*
X203200Y393700D01*
X227080Y393700D02*
X254000Y366780D01*
X227080Y393700D02*
X203200Y393700D01*
X143400Y425900D02*
X88900Y371400D01*
X143400Y425900D02*
X152400Y425900D01*
X171254Y444754D01*
X199898Y444754D02*
X204466Y444754D01*
X254000Y395220D01*
D21*
X255520Y393700D01*
X266700Y393700D01*
X289000Y371400D02*
X317500Y371400D01*
X289000Y371400D02*
X266700Y393700D01*
M02*
