G04 EAGLE Gerber X2 export*
%TF.Part,Single*%
%TF.FileFunction,Copper,L2,Bot,Mixed*%
%TF.FilePolarity,Positive*%
%TF.GenerationSoftware,Autodesk,EAGLE,9.0.0*%
%TF.CreationDate,2018-06-07T14:32:50Z*%
G75*
%MOMM*%
%FSLAX34Y34*%
%LPD*%
%AMOC8*
5,1,8,0,0,1.08239X$1,22.5*%
G01*
%ADD10P,2.336880X8X112.500000*%
%ADD11P,2.336880X8X292.500000*%
%ADD12P,2.336880X8X22.500000*%
%ADD13C,0.756400*%
%ADD14C,0.203200*%

G36*
X251518Y-1007D02*
X251518Y-1007D01*
X251576Y-1009D01*
X251658Y-987D01*
X251742Y-975D01*
X251795Y-952D01*
X251851Y-937D01*
X251924Y-894D01*
X252001Y-859D01*
X252046Y-821D01*
X252096Y-792D01*
X252154Y-730D01*
X252218Y-676D01*
X252250Y-627D01*
X252290Y-584D01*
X252329Y-509D01*
X252376Y-439D01*
X252393Y-383D01*
X252420Y-331D01*
X252431Y-263D01*
X252461Y-168D01*
X252464Y-68D01*
X252475Y0D01*
X252475Y342900D01*
X252467Y342958D01*
X252469Y343016D01*
X252447Y343098D01*
X252435Y343182D01*
X252412Y343235D01*
X252397Y343291D01*
X252354Y343364D01*
X252319Y343441D01*
X252281Y343486D01*
X252252Y343536D01*
X252190Y343594D01*
X252136Y343658D01*
X252087Y343690D01*
X252044Y343730D01*
X251969Y343769D01*
X251899Y343816D01*
X251843Y343833D01*
X251791Y343860D01*
X251723Y343871D01*
X251628Y343901D01*
X251528Y343904D01*
X251460Y343915D01*
X0Y343915D01*
X-58Y343907D01*
X-116Y343909D01*
X-198Y343887D01*
X-282Y343875D01*
X-335Y343852D01*
X-391Y343837D01*
X-464Y343794D01*
X-541Y343759D01*
X-586Y343721D01*
X-636Y343692D01*
X-694Y343630D01*
X-758Y343576D01*
X-790Y343527D01*
X-830Y343484D01*
X-869Y343409D01*
X-916Y343339D01*
X-933Y343283D01*
X-960Y343231D01*
X-971Y343163D01*
X-1001Y343068D01*
X-1004Y342968D01*
X-1015Y342900D01*
X-1015Y0D01*
X-1007Y-58D01*
X-1009Y-116D01*
X-987Y-198D01*
X-975Y-282D01*
X-952Y-335D01*
X-937Y-391D01*
X-894Y-464D01*
X-859Y-541D01*
X-821Y-586D01*
X-792Y-636D01*
X-730Y-694D01*
X-676Y-758D01*
X-627Y-790D01*
X-584Y-830D01*
X-509Y-869D01*
X-439Y-916D01*
X-383Y-933D01*
X-331Y-960D01*
X-263Y-971D01*
X-168Y-1001D01*
X-68Y-1004D01*
X0Y-1015D01*
X251460Y-1015D01*
X251518Y-1007D01*
G37*
%LPC*%
G36*
X226059Y25399D02*
X226059Y25399D01*
X226059Y26416D01*
X226051Y26471D01*
X226052Y26513D01*
X226052Y26515D01*
X226052Y26532D01*
X226031Y26614D01*
X226019Y26697D01*
X225995Y26751D01*
X225981Y26807D01*
X225938Y26880D01*
X225903Y26957D01*
X225865Y27002D01*
X225835Y27052D01*
X225774Y27110D01*
X225719Y27174D01*
X225671Y27206D01*
X225628Y27246D01*
X225553Y27285D01*
X225483Y27331D01*
X225427Y27349D01*
X225375Y27376D01*
X225307Y27387D01*
X225212Y27417D01*
X225112Y27420D01*
X225044Y27431D01*
X212724Y27431D01*
X212724Y30924D01*
X219901Y38101D01*
X219936Y38147D01*
X219979Y38188D01*
X220021Y38260D01*
X220072Y38328D01*
X220093Y38382D01*
X220122Y38433D01*
X220143Y38514D01*
X220173Y38593D01*
X220178Y38652D01*
X220192Y38708D01*
X220190Y38793D01*
X220197Y38877D01*
X220185Y38934D01*
X220183Y38992D01*
X220157Y39073D01*
X220141Y39155D01*
X220114Y39207D01*
X220096Y39263D01*
X220056Y39319D01*
X220010Y39408D01*
X219941Y39480D01*
X219901Y39536D01*
X213740Y45697D01*
X213740Y55903D01*
X220619Y62782D01*
X220655Y62829D01*
X220697Y62869D01*
X220740Y62942D01*
X220790Y63009D01*
X220811Y63064D01*
X220841Y63114D01*
X220861Y63196D01*
X220892Y63275D01*
X220896Y63333D01*
X220911Y63390D01*
X220908Y63474D01*
X220915Y63558D01*
X220904Y63616D01*
X220902Y63674D01*
X220876Y63754D01*
X220859Y63837D01*
X220832Y63889D01*
X220814Y63945D01*
X220774Y64001D01*
X220728Y64089D01*
X220659Y64162D01*
X220619Y64218D01*
X213740Y71097D01*
X213740Y81303D01*
X219901Y87464D01*
X219936Y87510D01*
X219979Y87551D01*
X220021Y87623D01*
X220072Y87691D01*
X220093Y87746D01*
X220122Y87796D01*
X220143Y87878D01*
X220173Y87957D01*
X220178Y88015D01*
X220192Y88071D01*
X220190Y88156D01*
X220197Y88240D01*
X220185Y88297D01*
X220183Y88356D01*
X220157Y88436D01*
X220141Y88519D01*
X220114Y88570D01*
X220096Y88626D01*
X220056Y88682D01*
X220010Y88771D01*
X219941Y88843D01*
X219901Y88899D01*
X212724Y96076D01*
X212724Y99569D01*
X225044Y99569D01*
X225102Y99577D01*
X225160Y99575D01*
X225242Y99597D01*
X225325Y99609D01*
X225379Y99633D01*
X225435Y99647D01*
X225508Y99690D01*
X225585Y99725D01*
X225629Y99763D01*
X225680Y99793D01*
X225737Y99854D01*
X225802Y99909D01*
X225834Y99957D01*
X225874Y100000D01*
X225913Y100075D01*
X225959Y100145D01*
X225977Y100201D01*
X226004Y100253D01*
X226015Y100321D01*
X226045Y100416D01*
X226048Y100516D01*
X226059Y100584D01*
X226059Y102616D01*
X226051Y102674D01*
X226052Y102732D01*
X226031Y102814D01*
X226019Y102897D01*
X225995Y102951D01*
X225981Y103007D01*
X225938Y103080D01*
X225903Y103157D01*
X225865Y103202D01*
X225835Y103252D01*
X225774Y103310D01*
X225719Y103374D01*
X225671Y103406D01*
X225628Y103446D01*
X225553Y103485D01*
X225483Y103531D01*
X225427Y103549D01*
X225375Y103576D01*
X225307Y103587D01*
X225212Y103617D01*
X225112Y103620D01*
X225044Y103631D01*
X212724Y103631D01*
X212724Y107124D01*
X219901Y114301D01*
X219936Y114347D01*
X219979Y114388D01*
X220021Y114460D01*
X220072Y114528D01*
X220093Y114582D01*
X220122Y114633D01*
X220143Y114714D01*
X220173Y114793D01*
X220178Y114852D01*
X220192Y114908D01*
X220190Y114993D01*
X220197Y115077D01*
X220185Y115134D01*
X220183Y115192D01*
X220157Y115273D01*
X220141Y115355D01*
X220114Y115407D01*
X220096Y115463D01*
X220056Y115519D01*
X220010Y115608D01*
X219941Y115680D01*
X219901Y115736D01*
X213740Y121897D01*
X213740Y132103D01*
X220619Y138982D01*
X220655Y139029D01*
X220697Y139069D01*
X220740Y139142D01*
X220790Y139209D01*
X220811Y139264D01*
X220841Y139314D01*
X220861Y139396D01*
X220892Y139475D01*
X220896Y139533D01*
X220911Y139590D01*
X220908Y139674D01*
X220915Y139758D01*
X220904Y139816D01*
X220902Y139874D01*
X220876Y139954D01*
X220859Y140037D01*
X220832Y140089D01*
X220814Y140145D01*
X220774Y140201D01*
X220728Y140289D01*
X220659Y140362D01*
X220619Y140418D01*
X213740Y147297D01*
X213740Y157503D01*
X219901Y163664D01*
X219936Y163710D01*
X219979Y163751D01*
X220021Y163823D01*
X220072Y163891D01*
X220093Y163946D01*
X220122Y163996D01*
X220143Y164078D01*
X220173Y164157D01*
X220178Y164215D01*
X220192Y164271D01*
X220190Y164356D01*
X220197Y164440D01*
X220185Y164497D01*
X220183Y164556D01*
X220157Y164636D01*
X220141Y164719D01*
X220114Y164770D01*
X220096Y164826D01*
X220056Y164882D01*
X220010Y164971D01*
X219941Y165043D01*
X219901Y165099D01*
X212724Y172276D01*
X212724Y175769D01*
X225044Y175769D01*
X225102Y175777D01*
X225160Y175775D01*
X225242Y175797D01*
X225325Y175809D01*
X225379Y175833D01*
X225435Y175847D01*
X225508Y175890D01*
X225585Y175925D01*
X225629Y175963D01*
X225680Y175993D01*
X225737Y176054D01*
X225802Y176109D01*
X225834Y176157D01*
X225874Y176200D01*
X225913Y176275D01*
X225959Y176345D01*
X225977Y176401D01*
X226004Y176453D01*
X226015Y176521D01*
X226045Y176616D01*
X226048Y176716D01*
X226059Y176784D01*
X226059Y178816D01*
X226051Y178874D01*
X226052Y178932D01*
X226031Y179014D01*
X226019Y179097D01*
X225995Y179151D01*
X225981Y179207D01*
X225938Y179280D01*
X225903Y179357D01*
X225865Y179402D01*
X225835Y179452D01*
X225774Y179510D01*
X225719Y179574D01*
X225671Y179606D01*
X225628Y179646D01*
X225553Y179685D01*
X225483Y179731D01*
X225427Y179749D01*
X225375Y179776D01*
X225307Y179787D01*
X225212Y179817D01*
X225112Y179820D01*
X225044Y179831D01*
X212724Y179831D01*
X212724Y183324D01*
X219901Y190501D01*
X219936Y190547D01*
X219979Y190588D01*
X220021Y190660D01*
X220072Y190728D01*
X220093Y190782D01*
X220122Y190833D01*
X220143Y190914D01*
X220173Y190993D01*
X220178Y191052D01*
X220192Y191108D01*
X220190Y191193D01*
X220197Y191277D01*
X220185Y191334D01*
X220183Y191392D01*
X220157Y191473D01*
X220141Y191555D01*
X220114Y191607D01*
X220096Y191663D01*
X220056Y191719D01*
X220010Y191808D01*
X219941Y191880D01*
X219901Y191936D01*
X213740Y198097D01*
X213740Y208303D01*
X220619Y215182D01*
X220655Y215229D01*
X220697Y215269D01*
X220740Y215342D01*
X220790Y215409D01*
X220811Y215464D01*
X220841Y215514D01*
X220861Y215596D01*
X220892Y215675D01*
X220896Y215733D01*
X220911Y215790D01*
X220908Y215874D01*
X220915Y215958D01*
X220904Y216016D01*
X220902Y216074D01*
X220876Y216154D01*
X220859Y216237D01*
X220832Y216289D01*
X220814Y216345D01*
X220774Y216401D01*
X220728Y216489D01*
X220659Y216562D01*
X220619Y216618D01*
X213740Y223497D01*
X213740Y233703D01*
X219901Y239864D01*
X219936Y239910D01*
X219979Y239951D01*
X220021Y240023D01*
X220072Y240091D01*
X220093Y240146D01*
X220122Y240196D01*
X220143Y240278D01*
X220173Y240357D01*
X220178Y240415D01*
X220192Y240471D01*
X220190Y240556D01*
X220197Y240640D01*
X220185Y240697D01*
X220183Y240756D01*
X220157Y240836D01*
X220141Y240919D01*
X220114Y240970D01*
X220096Y241026D01*
X220056Y241082D01*
X220010Y241171D01*
X219954Y241230D01*
X219942Y241250D01*
X219925Y241266D01*
X219901Y241299D01*
X212724Y248476D01*
X212724Y251969D01*
X225044Y251969D01*
X225102Y251977D01*
X225160Y251975D01*
X225242Y251997D01*
X225325Y252009D01*
X225379Y252033D01*
X225435Y252047D01*
X225508Y252090D01*
X225585Y252125D01*
X225629Y252163D01*
X225680Y252193D01*
X225737Y252254D01*
X225802Y252309D01*
X225834Y252357D01*
X225874Y252400D01*
X225913Y252475D01*
X225959Y252545D01*
X225977Y252601D01*
X226004Y252653D01*
X226015Y252721D01*
X226045Y252816D01*
X226048Y252916D01*
X226059Y252984D01*
X226059Y255016D01*
X226051Y255074D01*
X226052Y255132D01*
X226031Y255214D01*
X226019Y255297D01*
X225995Y255351D01*
X225981Y255407D01*
X225938Y255480D01*
X225903Y255557D01*
X225865Y255602D01*
X225835Y255652D01*
X225774Y255710D01*
X225719Y255774D01*
X225671Y255806D01*
X225628Y255846D01*
X225553Y255885D01*
X225483Y255931D01*
X225427Y255949D01*
X225375Y255976D01*
X225307Y255987D01*
X225212Y256017D01*
X225112Y256020D01*
X225044Y256031D01*
X212724Y256031D01*
X212724Y259524D01*
X219901Y266701D01*
X219936Y266747D01*
X219979Y266788D01*
X220021Y266860D01*
X220072Y266928D01*
X220093Y266982D01*
X220122Y267033D01*
X220143Y267114D01*
X220173Y267193D01*
X220178Y267252D01*
X220192Y267308D01*
X220190Y267393D01*
X220197Y267477D01*
X220185Y267534D01*
X220183Y267592D01*
X220157Y267673D01*
X220141Y267755D01*
X220114Y267807D01*
X220096Y267863D01*
X220056Y267919D01*
X220010Y268008D01*
X219941Y268080D01*
X219901Y268136D01*
X213740Y274297D01*
X213740Y284503D01*
X220619Y291382D01*
X220655Y291429D01*
X220697Y291469D01*
X220740Y291542D01*
X220790Y291609D01*
X220811Y291664D01*
X220841Y291714D01*
X220861Y291796D01*
X220892Y291875D01*
X220896Y291933D01*
X220911Y291990D01*
X220908Y292074D01*
X220915Y292158D01*
X220904Y292216D01*
X220902Y292274D01*
X220876Y292354D01*
X220859Y292437D01*
X220832Y292489D01*
X220814Y292545D01*
X220774Y292601D01*
X220728Y292689D01*
X220659Y292762D01*
X220619Y292818D01*
X213740Y299697D01*
X213740Y309903D01*
X220957Y317120D01*
X231163Y317120D01*
X238380Y309903D01*
X238380Y299697D01*
X231501Y292818D01*
X231466Y292771D01*
X231423Y292731D01*
X231380Y292658D01*
X231330Y292591D01*
X231309Y292536D01*
X231279Y292486D01*
X231259Y292404D01*
X231228Y292325D01*
X231224Y292267D01*
X231209Y292210D01*
X231212Y292126D01*
X231205Y292042D01*
X231216Y291984D01*
X231218Y291926D01*
X231244Y291846D01*
X231261Y291763D01*
X231288Y291711D01*
X231306Y291655D01*
X231346Y291599D01*
X231392Y291511D01*
X231461Y291438D01*
X231501Y291382D01*
X238380Y284503D01*
X238380Y274297D01*
X232219Y268136D01*
X232184Y268090D01*
X232141Y268049D01*
X232099Y267977D01*
X232048Y267909D01*
X232027Y267854D01*
X231998Y267804D01*
X231977Y267722D01*
X231947Y267643D01*
X231942Y267585D01*
X231928Y267529D01*
X231930Y267444D01*
X231923Y267360D01*
X231935Y267303D01*
X231937Y267244D01*
X231963Y267164D01*
X231979Y267081D01*
X232006Y267030D01*
X232024Y266974D01*
X232064Y266918D01*
X232110Y266829D01*
X232179Y266757D01*
X232219Y266701D01*
X239396Y259524D01*
X239396Y256031D01*
X227076Y256031D01*
X227018Y256023D01*
X226960Y256025D01*
X226878Y256003D01*
X226795Y255991D01*
X226741Y255967D01*
X226685Y255953D01*
X226612Y255910D01*
X226535Y255875D01*
X226491Y255837D01*
X226440Y255807D01*
X226383Y255746D01*
X226318Y255691D01*
X226286Y255643D01*
X226246Y255600D01*
X226207Y255525D01*
X226161Y255455D01*
X226143Y255399D01*
X226116Y255347D01*
X226105Y255279D01*
X226075Y255184D01*
X226072Y255084D01*
X226061Y255016D01*
X226061Y252984D01*
X226069Y252926D01*
X226068Y252868D01*
X226089Y252786D01*
X226101Y252703D01*
X226125Y252649D01*
X226139Y252593D01*
X226182Y252520D01*
X226217Y252443D01*
X226255Y252398D01*
X226285Y252348D01*
X226346Y252290D01*
X226401Y252226D01*
X226449Y252194D01*
X226492Y252154D01*
X226567Y252115D01*
X226637Y252069D01*
X226693Y252051D01*
X226745Y252024D01*
X226813Y252013D01*
X226908Y251983D01*
X227008Y251980D01*
X227076Y251969D01*
X239396Y251969D01*
X239396Y248476D01*
X232219Y241299D01*
X232212Y241290D01*
X232211Y241289D01*
X232184Y241253D01*
X232141Y241212D01*
X232099Y241140D01*
X232048Y241072D01*
X232027Y241018D01*
X231998Y240967D01*
X231977Y240886D01*
X231947Y240807D01*
X231942Y240748D01*
X231928Y240692D01*
X231930Y240607D01*
X231923Y240523D01*
X231935Y240466D01*
X231937Y240408D01*
X231963Y240327D01*
X231979Y240245D01*
X232006Y240193D01*
X232024Y240137D01*
X232064Y240081D01*
X232110Y239992D01*
X232179Y239920D01*
X232219Y239864D01*
X238380Y233703D01*
X238380Y223497D01*
X231501Y216618D01*
X231466Y216571D01*
X231423Y216531D01*
X231380Y216458D01*
X231330Y216391D01*
X231309Y216336D01*
X231279Y216286D01*
X231259Y216204D01*
X231228Y216125D01*
X231224Y216067D01*
X231209Y216010D01*
X231212Y215926D01*
X231205Y215842D01*
X231216Y215784D01*
X231218Y215726D01*
X231244Y215646D01*
X231261Y215563D01*
X231288Y215511D01*
X231306Y215455D01*
X231346Y215399D01*
X231392Y215311D01*
X231461Y215238D01*
X231501Y215182D01*
X238380Y208303D01*
X238380Y198097D01*
X232219Y191936D01*
X232184Y191890D01*
X232141Y191849D01*
X232099Y191777D01*
X232048Y191709D01*
X232027Y191654D01*
X231998Y191604D01*
X231977Y191522D01*
X231947Y191443D01*
X231942Y191385D01*
X231928Y191329D01*
X231930Y191244D01*
X231923Y191160D01*
X231935Y191103D01*
X231937Y191044D01*
X231963Y190964D01*
X231979Y190881D01*
X232006Y190830D01*
X232024Y190774D01*
X232064Y190718D01*
X232110Y190629D01*
X232179Y190557D01*
X232219Y190501D01*
X239396Y183324D01*
X239396Y179831D01*
X227076Y179831D01*
X227018Y179823D01*
X226960Y179825D01*
X226878Y179803D01*
X226795Y179791D01*
X226741Y179767D01*
X226685Y179753D01*
X226612Y179710D01*
X226535Y179675D01*
X226491Y179637D01*
X226440Y179607D01*
X226383Y179546D01*
X226318Y179491D01*
X226286Y179443D01*
X226246Y179400D01*
X226207Y179325D01*
X226161Y179255D01*
X226143Y179199D01*
X226116Y179147D01*
X226105Y179079D01*
X226075Y178984D01*
X226072Y178884D01*
X226061Y178816D01*
X226061Y176784D01*
X226069Y176726D01*
X226068Y176668D01*
X226089Y176586D01*
X226101Y176503D01*
X226125Y176449D01*
X226139Y176393D01*
X226182Y176320D01*
X226217Y176243D01*
X226255Y176198D01*
X226285Y176148D01*
X226346Y176090D01*
X226401Y176026D01*
X226449Y175994D01*
X226492Y175954D01*
X226567Y175915D01*
X226637Y175869D01*
X226693Y175851D01*
X226745Y175824D01*
X226813Y175813D01*
X226908Y175783D01*
X227008Y175780D01*
X227076Y175769D01*
X239396Y175769D01*
X239396Y172276D01*
X232219Y165099D01*
X232184Y165053D01*
X232141Y165012D01*
X232099Y164940D01*
X232048Y164872D01*
X232027Y164818D01*
X231998Y164767D01*
X231977Y164686D01*
X231947Y164607D01*
X231942Y164548D01*
X231928Y164492D01*
X231930Y164407D01*
X231923Y164323D01*
X231935Y164266D01*
X231937Y164208D01*
X231963Y164127D01*
X231979Y164045D01*
X232006Y163993D01*
X232024Y163937D01*
X232064Y163881D01*
X232110Y163792D01*
X232179Y163720D01*
X232219Y163664D01*
X238380Y157503D01*
X238380Y147297D01*
X231501Y140418D01*
X231466Y140371D01*
X231423Y140331D01*
X231380Y140258D01*
X231330Y140191D01*
X231309Y140136D01*
X231279Y140086D01*
X231259Y140004D01*
X231228Y139925D01*
X231224Y139867D01*
X231209Y139810D01*
X231212Y139726D01*
X231205Y139642D01*
X231216Y139584D01*
X231218Y139526D01*
X231244Y139446D01*
X231261Y139363D01*
X231288Y139311D01*
X231306Y139255D01*
X231346Y139199D01*
X231392Y139111D01*
X231461Y139038D01*
X231501Y138982D01*
X238380Y132103D01*
X238380Y121897D01*
X232219Y115736D01*
X232184Y115690D01*
X232141Y115649D01*
X232099Y115577D01*
X232048Y115509D01*
X232027Y115454D01*
X231998Y115404D01*
X231977Y115322D01*
X231947Y115243D01*
X231942Y115185D01*
X231928Y115129D01*
X231930Y115044D01*
X231923Y114960D01*
X231935Y114903D01*
X231937Y114844D01*
X231963Y114764D01*
X231979Y114681D01*
X232006Y114630D01*
X232024Y114574D01*
X232064Y114518D01*
X232110Y114429D01*
X232179Y114357D01*
X232219Y114301D01*
X239396Y107124D01*
X239396Y103631D01*
X227076Y103631D01*
X227018Y103623D01*
X226960Y103625D01*
X226878Y103603D01*
X226795Y103591D01*
X226741Y103567D01*
X226685Y103553D01*
X226612Y103510D01*
X226535Y103475D01*
X226491Y103437D01*
X226440Y103407D01*
X226383Y103346D01*
X226318Y103291D01*
X226286Y103243D01*
X226246Y103200D01*
X226207Y103125D01*
X226161Y103055D01*
X226143Y102999D01*
X226116Y102947D01*
X226105Y102879D01*
X226075Y102784D01*
X226072Y102684D01*
X226061Y102616D01*
X226061Y100584D01*
X226069Y100526D01*
X226068Y100468D01*
X226089Y100386D01*
X226101Y100303D01*
X226125Y100249D01*
X226139Y100193D01*
X226182Y100120D01*
X226217Y100043D01*
X226255Y99998D01*
X226285Y99948D01*
X226346Y99890D01*
X226401Y99826D01*
X226449Y99794D01*
X226492Y99754D01*
X226567Y99715D01*
X226637Y99669D01*
X226693Y99651D01*
X226745Y99624D01*
X226813Y99613D01*
X226908Y99583D01*
X227008Y99580D01*
X227076Y99569D01*
X239396Y99569D01*
X239396Y96076D01*
X232219Y88899D01*
X232184Y88853D01*
X232141Y88812D01*
X232099Y88740D01*
X232048Y88672D01*
X232027Y88618D01*
X231998Y88567D01*
X231977Y88486D01*
X231947Y88407D01*
X231942Y88348D01*
X231928Y88292D01*
X231930Y88207D01*
X231923Y88123D01*
X231935Y88066D01*
X231937Y88008D01*
X231963Y87927D01*
X231979Y87845D01*
X232006Y87793D01*
X232024Y87737D01*
X232064Y87681D01*
X232110Y87592D01*
X232179Y87520D01*
X232219Y87464D01*
X238380Y81303D01*
X238380Y71097D01*
X231501Y64218D01*
X231466Y64171D01*
X231423Y64131D01*
X231380Y64058D01*
X231330Y63991D01*
X231309Y63936D01*
X231279Y63886D01*
X231259Y63804D01*
X231228Y63725D01*
X231224Y63667D01*
X231209Y63610D01*
X231212Y63526D01*
X231205Y63442D01*
X231216Y63384D01*
X231218Y63326D01*
X231244Y63246D01*
X231261Y63163D01*
X231288Y63111D01*
X231306Y63055D01*
X231346Y62999D01*
X231392Y62911D01*
X231461Y62838D01*
X231501Y62782D01*
X238380Y55903D01*
X238380Y45697D01*
X232219Y39536D01*
X232184Y39490D01*
X232141Y39449D01*
X232099Y39377D01*
X232048Y39309D01*
X232027Y39254D01*
X231998Y39204D01*
X231977Y39122D01*
X231947Y39043D01*
X231942Y38985D01*
X231928Y38929D01*
X231930Y38844D01*
X231923Y38760D01*
X231935Y38703D01*
X231937Y38644D01*
X231963Y38564D01*
X231979Y38481D01*
X232006Y38430D01*
X232024Y38374D01*
X232064Y38318D01*
X232110Y38229D01*
X232179Y38157D01*
X232219Y38101D01*
X239396Y30924D01*
X239396Y27431D01*
X227076Y27431D01*
X227018Y27423D01*
X226960Y27425D01*
X226878Y27403D01*
X226795Y27391D01*
X226741Y27367D01*
X226685Y27353D01*
X226612Y27310D01*
X226535Y27275D01*
X226491Y27237D01*
X226440Y27207D01*
X226383Y27146D01*
X226318Y27091D01*
X226286Y27043D01*
X226246Y27000D01*
X226207Y26925D01*
X226161Y26855D01*
X226143Y26799D01*
X226116Y26747D01*
X226105Y26679D01*
X226075Y26584D01*
X226072Y26484D01*
X226061Y26416D01*
X226061Y25399D01*
X226059Y25399D01*
G37*
%LPD*%
%LPC*%
G36*
X25399Y25399D02*
X25399Y25399D01*
X25399Y26416D01*
X25391Y26471D01*
X25392Y26513D01*
X25392Y26515D01*
X25392Y26532D01*
X25371Y26614D01*
X25359Y26697D01*
X25335Y26751D01*
X25321Y26807D01*
X25278Y26880D01*
X25243Y26957D01*
X25205Y27002D01*
X25175Y27052D01*
X25114Y27110D01*
X25059Y27174D01*
X25011Y27206D01*
X24968Y27246D01*
X24893Y27285D01*
X24823Y27331D01*
X24767Y27349D01*
X24715Y27376D01*
X24647Y27387D01*
X24552Y27417D01*
X24452Y27420D01*
X24384Y27431D01*
X12064Y27431D01*
X12064Y30924D01*
X19241Y38101D01*
X19276Y38147D01*
X19319Y38188D01*
X19361Y38260D01*
X19412Y38328D01*
X19433Y38382D01*
X19462Y38433D01*
X19483Y38514D01*
X19513Y38593D01*
X19518Y38652D01*
X19532Y38708D01*
X19530Y38793D01*
X19537Y38877D01*
X19525Y38934D01*
X19523Y38992D01*
X19497Y39073D01*
X19481Y39155D01*
X19454Y39207D01*
X19436Y39263D01*
X19396Y39319D01*
X19350Y39408D01*
X19281Y39480D01*
X19241Y39536D01*
X13080Y45697D01*
X13080Y55903D01*
X19959Y62782D01*
X19995Y62829D01*
X20037Y62869D01*
X20080Y62942D01*
X20130Y63009D01*
X20151Y63064D01*
X20181Y63114D01*
X20201Y63196D01*
X20232Y63275D01*
X20236Y63333D01*
X20251Y63390D01*
X20248Y63474D01*
X20255Y63558D01*
X20244Y63616D01*
X20242Y63674D01*
X20216Y63754D01*
X20199Y63837D01*
X20172Y63889D01*
X20154Y63945D01*
X20114Y64001D01*
X20068Y64089D01*
X19999Y64162D01*
X19959Y64218D01*
X13080Y71097D01*
X13080Y81303D01*
X19241Y87464D01*
X19276Y87510D01*
X19319Y87551D01*
X19361Y87623D01*
X19412Y87691D01*
X19433Y87746D01*
X19462Y87796D01*
X19483Y87878D01*
X19513Y87957D01*
X19518Y88015D01*
X19532Y88071D01*
X19530Y88156D01*
X19537Y88240D01*
X19525Y88297D01*
X19523Y88356D01*
X19497Y88436D01*
X19481Y88519D01*
X19454Y88570D01*
X19436Y88626D01*
X19396Y88682D01*
X19350Y88771D01*
X19281Y88843D01*
X19241Y88899D01*
X12064Y96076D01*
X12064Y99569D01*
X24384Y99569D01*
X24442Y99577D01*
X24500Y99575D01*
X24582Y99597D01*
X24665Y99609D01*
X24719Y99633D01*
X24775Y99647D01*
X24848Y99690D01*
X24925Y99725D01*
X24969Y99763D01*
X25020Y99793D01*
X25077Y99854D01*
X25142Y99909D01*
X25174Y99957D01*
X25214Y100000D01*
X25253Y100075D01*
X25299Y100145D01*
X25317Y100201D01*
X25344Y100253D01*
X25355Y100321D01*
X25385Y100416D01*
X25388Y100516D01*
X25399Y100584D01*
X25399Y102616D01*
X25391Y102674D01*
X25392Y102732D01*
X25371Y102814D01*
X25359Y102897D01*
X25335Y102951D01*
X25321Y103007D01*
X25278Y103080D01*
X25243Y103157D01*
X25205Y103202D01*
X25175Y103252D01*
X25114Y103310D01*
X25059Y103374D01*
X25011Y103406D01*
X24968Y103446D01*
X24893Y103485D01*
X24823Y103531D01*
X24767Y103549D01*
X24715Y103576D01*
X24647Y103587D01*
X24552Y103617D01*
X24452Y103620D01*
X24384Y103631D01*
X12064Y103631D01*
X12064Y107124D01*
X19241Y114301D01*
X19276Y114347D01*
X19319Y114388D01*
X19361Y114460D01*
X19412Y114528D01*
X19433Y114582D01*
X19462Y114633D01*
X19483Y114714D01*
X19513Y114793D01*
X19518Y114852D01*
X19532Y114908D01*
X19530Y114993D01*
X19537Y115077D01*
X19525Y115134D01*
X19523Y115192D01*
X19497Y115273D01*
X19481Y115355D01*
X19454Y115407D01*
X19436Y115463D01*
X19396Y115519D01*
X19350Y115608D01*
X19281Y115680D01*
X19241Y115736D01*
X13080Y121897D01*
X13080Y132103D01*
X19959Y138982D01*
X19995Y139029D01*
X20037Y139069D01*
X20080Y139142D01*
X20130Y139209D01*
X20151Y139264D01*
X20181Y139314D01*
X20201Y139396D01*
X20232Y139475D01*
X20236Y139533D01*
X20251Y139590D01*
X20248Y139674D01*
X20255Y139758D01*
X20244Y139816D01*
X20242Y139874D01*
X20216Y139954D01*
X20199Y140037D01*
X20172Y140089D01*
X20154Y140145D01*
X20114Y140201D01*
X20068Y140289D01*
X19999Y140362D01*
X19959Y140418D01*
X13080Y147297D01*
X13080Y157503D01*
X19241Y163664D01*
X19276Y163710D01*
X19319Y163751D01*
X19361Y163823D01*
X19412Y163891D01*
X19433Y163946D01*
X19462Y163996D01*
X19483Y164078D01*
X19513Y164157D01*
X19518Y164215D01*
X19532Y164271D01*
X19530Y164356D01*
X19537Y164440D01*
X19525Y164497D01*
X19523Y164556D01*
X19497Y164636D01*
X19481Y164719D01*
X19454Y164770D01*
X19436Y164826D01*
X19396Y164882D01*
X19350Y164971D01*
X19281Y165043D01*
X19241Y165099D01*
X12064Y172276D01*
X12064Y175769D01*
X24384Y175769D01*
X24442Y175777D01*
X24500Y175775D01*
X24582Y175797D01*
X24665Y175809D01*
X24719Y175833D01*
X24775Y175847D01*
X24848Y175890D01*
X24925Y175925D01*
X24969Y175963D01*
X25020Y175993D01*
X25077Y176054D01*
X25142Y176109D01*
X25174Y176157D01*
X25214Y176200D01*
X25253Y176275D01*
X25299Y176345D01*
X25317Y176401D01*
X25344Y176453D01*
X25355Y176521D01*
X25385Y176616D01*
X25388Y176716D01*
X25399Y176784D01*
X25399Y178816D01*
X25391Y178874D01*
X25392Y178932D01*
X25371Y179014D01*
X25359Y179097D01*
X25335Y179151D01*
X25321Y179207D01*
X25278Y179280D01*
X25243Y179357D01*
X25205Y179402D01*
X25175Y179452D01*
X25114Y179510D01*
X25059Y179574D01*
X25011Y179606D01*
X24968Y179646D01*
X24893Y179685D01*
X24823Y179731D01*
X24767Y179749D01*
X24715Y179776D01*
X24647Y179787D01*
X24552Y179817D01*
X24452Y179820D01*
X24384Y179831D01*
X12064Y179831D01*
X12064Y183324D01*
X19241Y190501D01*
X19276Y190547D01*
X19319Y190588D01*
X19361Y190660D01*
X19412Y190728D01*
X19433Y190782D01*
X19462Y190833D01*
X19483Y190914D01*
X19513Y190993D01*
X19518Y191052D01*
X19532Y191108D01*
X19530Y191193D01*
X19537Y191277D01*
X19525Y191334D01*
X19523Y191392D01*
X19497Y191473D01*
X19481Y191555D01*
X19454Y191607D01*
X19436Y191663D01*
X19396Y191719D01*
X19350Y191808D01*
X19281Y191880D01*
X19241Y191936D01*
X13080Y198097D01*
X13080Y208303D01*
X19959Y215182D01*
X19995Y215229D01*
X20037Y215269D01*
X20080Y215342D01*
X20130Y215409D01*
X20151Y215464D01*
X20181Y215514D01*
X20201Y215596D01*
X20232Y215675D01*
X20236Y215733D01*
X20251Y215790D01*
X20248Y215874D01*
X20255Y215958D01*
X20244Y216016D01*
X20242Y216074D01*
X20216Y216154D01*
X20199Y216237D01*
X20172Y216289D01*
X20154Y216345D01*
X20114Y216401D01*
X20068Y216489D01*
X19999Y216562D01*
X19959Y216618D01*
X13080Y223497D01*
X13080Y233703D01*
X19241Y239864D01*
X19276Y239910D01*
X19319Y239951D01*
X19361Y240023D01*
X19412Y240091D01*
X19433Y240146D01*
X19462Y240196D01*
X19483Y240278D01*
X19513Y240357D01*
X19518Y240415D01*
X19532Y240471D01*
X19530Y240556D01*
X19537Y240640D01*
X19525Y240697D01*
X19523Y240756D01*
X19497Y240836D01*
X19481Y240919D01*
X19454Y240970D01*
X19436Y241026D01*
X19396Y241082D01*
X19350Y241171D01*
X19294Y241230D01*
X19282Y241250D01*
X19265Y241266D01*
X19241Y241299D01*
X12064Y248476D01*
X12064Y251969D01*
X24384Y251969D01*
X24442Y251977D01*
X24500Y251975D01*
X24582Y251997D01*
X24665Y252009D01*
X24719Y252033D01*
X24775Y252047D01*
X24848Y252090D01*
X24925Y252125D01*
X24969Y252163D01*
X25020Y252193D01*
X25077Y252254D01*
X25142Y252309D01*
X25174Y252357D01*
X25214Y252400D01*
X25253Y252475D01*
X25299Y252545D01*
X25317Y252601D01*
X25344Y252653D01*
X25355Y252721D01*
X25385Y252816D01*
X25388Y252916D01*
X25399Y252984D01*
X25399Y255016D01*
X25391Y255074D01*
X25392Y255132D01*
X25371Y255214D01*
X25359Y255297D01*
X25335Y255351D01*
X25321Y255407D01*
X25278Y255480D01*
X25243Y255557D01*
X25205Y255602D01*
X25175Y255652D01*
X25114Y255710D01*
X25059Y255774D01*
X25011Y255806D01*
X24968Y255846D01*
X24893Y255885D01*
X24823Y255931D01*
X24767Y255949D01*
X24715Y255976D01*
X24647Y255987D01*
X24552Y256017D01*
X24452Y256020D01*
X24384Y256031D01*
X12064Y256031D01*
X12064Y259524D01*
X19241Y266701D01*
X19276Y266747D01*
X19319Y266788D01*
X19361Y266860D01*
X19412Y266928D01*
X19433Y266982D01*
X19462Y267033D01*
X19483Y267114D01*
X19513Y267193D01*
X19518Y267252D01*
X19532Y267308D01*
X19530Y267393D01*
X19537Y267477D01*
X19525Y267534D01*
X19523Y267592D01*
X19497Y267673D01*
X19481Y267755D01*
X19454Y267807D01*
X19436Y267863D01*
X19396Y267919D01*
X19350Y268008D01*
X19281Y268080D01*
X19241Y268136D01*
X13080Y274297D01*
X13080Y284503D01*
X19959Y291382D01*
X19995Y291429D01*
X20037Y291469D01*
X20080Y291542D01*
X20130Y291609D01*
X20151Y291664D01*
X20181Y291714D01*
X20201Y291796D01*
X20232Y291875D01*
X20236Y291933D01*
X20251Y291990D01*
X20248Y292074D01*
X20255Y292158D01*
X20244Y292216D01*
X20242Y292274D01*
X20216Y292354D01*
X20199Y292437D01*
X20172Y292489D01*
X20154Y292545D01*
X20114Y292601D01*
X20068Y292689D01*
X19999Y292762D01*
X19959Y292818D01*
X13080Y299697D01*
X13080Y309903D01*
X20297Y317120D01*
X30503Y317120D01*
X37720Y309903D01*
X37720Y299697D01*
X30841Y292818D01*
X30806Y292771D01*
X30763Y292731D01*
X30720Y292658D01*
X30670Y292591D01*
X30649Y292536D01*
X30619Y292486D01*
X30599Y292404D01*
X30568Y292325D01*
X30564Y292267D01*
X30549Y292210D01*
X30552Y292126D01*
X30545Y292042D01*
X30556Y291984D01*
X30558Y291926D01*
X30584Y291846D01*
X30601Y291763D01*
X30628Y291711D01*
X30646Y291655D01*
X30686Y291599D01*
X30732Y291511D01*
X30801Y291438D01*
X30841Y291382D01*
X37720Y284503D01*
X37720Y274297D01*
X31559Y268136D01*
X31524Y268090D01*
X31481Y268049D01*
X31439Y267977D01*
X31388Y267909D01*
X31367Y267854D01*
X31338Y267804D01*
X31317Y267722D01*
X31287Y267643D01*
X31282Y267585D01*
X31268Y267529D01*
X31270Y267444D01*
X31263Y267360D01*
X31275Y267303D01*
X31277Y267244D01*
X31303Y267164D01*
X31319Y267081D01*
X31346Y267030D01*
X31364Y266974D01*
X31404Y266918D01*
X31450Y266829D01*
X31519Y266757D01*
X31559Y266701D01*
X38736Y259524D01*
X38736Y256031D01*
X26416Y256031D01*
X26358Y256023D01*
X26300Y256025D01*
X26218Y256003D01*
X26135Y255991D01*
X26081Y255967D01*
X26025Y255953D01*
X25952Y255910D01*
X25875Y255875D01*
X25831Y255837D01*
X25780Y255807D01*
X25723Y255746D01*
X25658Y255691D01*
X25626Y255643D01*
X25586Y255600D01*
X25547Y255525D01*
X25501Y255455D01*
X25483Y255399D01*
X25456Y255347D01*
X25445Y255279D01*
X25415Y255184D01*
X25412Y255084D01*
X25401Y255016D01*
X25401Y252984D01*
X25409Y252926D01*
X25408Y252868D01*
X25429Y252786D01*
X25441Y252703D01*
X25465Y252649D01*
X25479Y252593D01*
X25522Y252520D01*
X25557Y252443D01*
X25595Y252398D01*
X25625Y252348D01*
X25686Y252290D01*
X25741Y252226D01*
X25789Y252194D01*
X25832Y252154D01*
X25907Y252115D01*
X25977Y252069D01*
X26033Y252051D01*
X26085Y252024D01*
X26153Y252013D01*
X26248Y251983D01*
X26348Y251980D01*
X26416Y251969D01*
X38736Y251969D01*
X38736Y248476D01*
X31559Y241299D01*
X31552Y241290D01*
X31551Y241289D01*
X31524Y241253D01*
X31481Y241212D01*
X31439Y241140D01*
X31388Y241072D01*
X31367Y241018D01*
X31338Y240967D01*
X31317Y240886D01*
X31287Y240807D01*
X31282Y240748D01*
X31268Y240692D01*
X31270Y240607D01*
X31263Y240523D01*
X31275Y240466D01*
X31277Y240408D01*
X31303Y240327D01*
X31319Y240245D01*
X31346Y240193D01*
X31364Y240137D01*
X31404Y240081D01*
X31450Y239992D01*
X31519Y239920D01*
X31559Y239864D01*
X37720Y233703D01*
X37720Y223497D01*
X30841Y216618D01*
X30806Y216571D01*
X30763Y216531D01*
X30720Y216458D01*
X30670Y216391D01*
X30649Y216336D01*
X30619Y216286D01*
X30599Y216204D01*
X30568Y216125D01*
X30564Y216067D01*
X30549Y216010D01*
X30552Y215926D01*
X30545Y215842D01*
X30556Y215784D01*
X30558Y215726D01*
X30584Y215646D01*
X30601Y215563D01*
X30628Y215511D01*
X30646Y215455D01*
X30686Y215399D01*
X30732Y215311D01*
X30801Y215238D01*
X30841Y215182D01*
X37720Y208303D01*
X37720Y198097D01*
X31559Y191936D01*
X31524Y191890D01*
X31481Y191849D01*
X31439Y191777D01*
X31388Y191709D01*
X31367Y191654D01*
X31338Y191604D01*
X31317Y191522D01*
X31287Y191443D01*
X31282Y191385D01*
X31268Y191329D01*
X31270Y191244D01*
X31263Y191160D01*
X31275Y191103D01*
X31277Y191044D01*
X31303Y190964D01*
X31319Y190881D01*
X31346Y190830D01*
X31364Y190774D01*
X31404Y190718D01*
X31450Y190629D01*
X31519Y190557D01*
X31559Y190501D01*
X38736Y183324D01*
X38736Y179831D01*
X26416Y179831D01*
X26358Y179823D01*
X26300Y179825D01*
X26218Y179803D01*
X26135Y179791D01*
X26081Y179767D01*
X26025Y179753D01*
X25952Y179710D01*
X25875Y179675D01*
X25831Y179637D01*
X25780Y179607D01*
X25723Y179546D01*
X25658Y179491D01*
X25626Y179443D01*
X25586Y179400D01*
X25547Y179325D01*
X25501Y179255D01*
X25483Y179199D01*
X25456Y179147D01*
X25445Y179079D01*
X25415Y178984D01*
X25412Y178884D01*
X25401Y178816D01*
X25401Y176784D01*
X25409Y176726D01*
X25408Y176668D01*
X25429Y176586D01*
X25441Y176503D01*
X25465Y176449D01*
X25479Y176393D01*
X25522Y176320D01*
X25557Y176243D01*
X25595Y176198D01*
X25625Y176148D01*
X25686Y176090D01*
X25741Y176026D01*
X25789Y175994D01*
X25832Y175954D01*
X25907Y175915D01*
X25977Y175869D01*
X26033Y175851D01*
X26085Y175824D01*
X26153Y175813D01*
X26248Y175783D01*
X26348Y175780D01*
X26416Y175769D01*
X38736Y175769D01*
X38736Y172276D01*
X31559Y165099D01*
X31524Y165053D01*
X31481Y165012D01*
X31439Y164940D01*
X31388Y164872D01*
X31367Y164818D01*
X31338Y164767D01*
X31317Y164686D01*
X31287Y164607D01*
X31282Y164548D01*
X31268Y164492D01*
X31270Y164407D01*
X31263Y164323D01*
X31275Y164266D01*
X31277Y164208D01*
X31303Y164127D01*
X31319Y164045D01*
X31346Y163993D01*
X31364Y163937D01*
X31404Y163881D01*
X31450Y163792D01*
X31519Y163720D01*
X31559Y163664D01*
X37720Y157503D01*
X37720Y147297D01*
X30841Y140418D01*
X30806Y140371D01*
X30763Y140331D01*
X30720Y140258D01*
X30670Y140191D01*
X30649Y140136D01*
X30619Y140086D01*
X30599Y140004D01*
X30568Y139925D01*
X30564Y139867D01*
X30549Y139810D01*
X30552Y139726D01*
X30545Y139642D01*
X30556Y139584D01*
X30558Y139526D01*
X30584Y139446D01*
X30601Y139363D01*
X30628Y139311D01*
X30646Y139255D01*
X30686Y139199D01*
X30732Y139111D01*
X30801Y139038D01*
X30841Y138982D01*
X37720Y132103D01*
X37720Y121897D01*
X31559Y115736D01*
X31524Y115690D01*
X31481Y115649D01*
X31439Y115577D01*
X31388Y115509D01*
X31367Y115454D01*
X31338Y115404D01*
X31317Y115322D01*
X31287Y115243D01*
X31282Y115185D01*
X31268Y115129D01*
X31270Y115044D01*
X31263Y114960D01*
X31275Y114903D01*
X31277Y114844D01*
X31303Y114764D01*
X31319Y114681D01*
X31346Y114630D01*
X31364Y114574D01*
X31404Y114518D01*
X31450Y114429D01*
X31519Y114357D01*
X31559Y114301D01*
X38736Y107124D01*
X38736Y103631D01*
X26416Y103631D01*
X26358Y103623D01*
X26300Y103625D01*
X26218Y103603D01*
X26135Y103591D01*
X26081Y103567D01*
X26025Y103553D01*
X25952Y103510D01*
X25875Y103475D01*
X25831Y103437D01*
X25780Y103407D01*
X25723Y103346D01*
X25658Y103291D01*
X25626Y103243D01*
X25586Y103200D01*
X25547Y103125D01*
X25501Y103055D01*
X25483Y102999D01*
X25456Y102947D01*
X25445Y102879D01*
X25415Y102784D01*
X25412Y102684D01*
X25401Y102616D01*
X25401Y100584D01*
X25409Y100526D01*
X25408Y100468D01*
X25429Y100386D01*
X25441Y100303D01*
X25465Y100249D01*
X25479Y100193D01*
X25522Y100120D01*
X25557Y100043D01*
X25595Y99998D01*
X25625Y99948D01*
X25686Y99890D01*
X25741Y99826D01*
X25789Y99794D01*
X25832Y99754D01*
X25907Y99715D01*
X25977Y99669D01*
X26033Y99651D01*
X26085Y99624D01*
X26153Y99613D01*
X26248Y99583D01*
X26348Y99580D01*
X26416Y99569D01*
X38736Y99569D01*
X38736Y96076D01*
X31559Y88899D01*
X31524Y88853D01*
X31481Y88812D01*
X31439Y88740D01*
X31388Y88672D01*
X31367Y88618D01*
X31338Y88567D01*
X31317Y88486D01*
X31287Y88407D01*
X31282Y88348D01*
X31268Y88292D01*
X31270Y88207D01*
X31263Y88123D01*
X31275Y88066D01*
X31277Y88008D01*
X31303Y87927D01*
X31319Y87845D01*
X31346Y87793D01*
X31364Y87737D01*
X31404Y87681D01*
X31450Y87592D01*
X31519Y87520D01*
X31559Y87464D01*
X37720Y81303D01*
X37720Y71097D01*
X30841Y64218D01*
X30806Y64171D01*
X30763Y64131D01*
X30720Y64058D01*
X30670Y63991D01*
X30649Y63936D01*
X30619Y63886D01*
X30599Y63804D01*
X30568Y63725D01*
X30564Y63667D01*
X30549Y63610D01*
X30552Y63526D01*
X30545Y63442D01*
X30556Y63384D01*
X30558Y63326D01*
X30584Y63246D01*
X30601Y63163D01*
X30628Y63111D01*
X30646Y63055D01*
X30686Y62999D01*
X30732Y62911D01*
X30801Y62838D01*
X30841Y62782D01*
X37720Y55903D01*
X37720Y45697D01*
X31559Y39536D01*
X31524Y39490D01*
X31481Y39449D01*
X31439Y39377D01*
X31388Y39309D01*
X31367Y39254D01*
X31338Y39204D01*
X31317Y39122D01*
X31287Y39043D01*
X31282Y38985D01*
X31268Y38929D01*
X31270Y38844D01*
X31263Y38760D01*
X31275Y38703D01*
X31277Y38644D01*
X31303Y38564D01*
X31319Y38481D01*
X31346Y38430D01*
X31364Y38374D01*
X31404Y38318D01*
X31450Y38229D01*
X31519Y38157D01*
X31559Y38101D01*
X38736Y30924D01*
X38736Y27431D01*
X26416Y27431D01*
X26358Y27423D01*
X26300Y27425D01*
X26218Y27403D01*
X26135Y27391D01*
X26081Y27367D01*
X26025Y27353D01*
X25952Y27310D01*
X25875Y27275D01*
X25831Y27237D01*
X25780Y27207D01*
X25723Y27146D01*
X25658Y27091D01*
X25626Y27043D01*
X25586Y27000D01*
X25547Y26925D01*
X25501Y26855D01*
X25483Y26799D01*
X25456Y26747D01*
X25445Y26679D01*
X25415Y26584D01*
X25412Y26484D01*
X25401Y26416D01*
X25401Y25399D01*
X25399Y25399D01*
G37*
%LPD*%
%LPC*%
G36*
X108776Y10794D02*
X108776Y10794D01*
X101599Y17971D01*
X101553Y18006D01*
X101512Y18049D01*
X101440Y18091D01*
X101372Y18142D01*
X101318Y18163D01*
X101267Y18192D01*
X101186Y18213D01*
X101107Y18243D01*
X101048Y18248D01*
X100992Y18262D01*
X100907Y18260D01*
X100823Y18267D01*
X100766Y18255D01*
X100708Y18253D01*
X100627Y18227D01*
X100545Y18211D01*
X100493Y18184D01*
X100437Y18166D01*
X100381Y18126D01*
X100292Y18080D01*
X100220Y18011D01*
X100164Y17971D01*
X94003Y11810D01*
X83797Y11810D01*
X76580Y19027D01*
X76580Y29233D01*
X83797Y36450D01*
X94003Y36450D01*
X100164Y30289D01*
X100210Y30254D01*
X100251Y30211D01*
X100323Y30169D01*
X100391Y30118D01*
X100446Y30097D01*
X100496Y30068D01*
X100578Y30047D01*
X100657Y30017D01*
X100715Y30012D01*
X100771Y29998D01*
X100856Y30000D01*
X100940Y29993D01*
X100997Y30005D01*
X101056Y30007D01*
X101136Y30033D01*
X101219Y30049D01*
X101270Y30076D01*
X101326Y30094D01*
X101382Y30134D01*
X101471Y30180D01*
X101543Y30249D01*
X101599Y30289D01*
X108776Y37466D01*
X112269Y37466D01*
X112269Y25146D01*
X112277Y25088D01*
X112275Y25030D01*
X112297Y24948D01*
X112309Y24865D01*
X112333Y24811D01*
X112347Y24755D01*
X112390Y24682D01*
X112425Y24605D01*
X112463Y24561D01*
X112493Y24510D01*
X112554Y24453D01*
X112609Y24388D01*
X112657Y24356D01*
X112700Y24316D01*
X112775Y24277D01*
X112845Y24231D01*
X112901Y24213D01*
X112953Y24186D01*
X113021Y24175D01*
X113116Y24145D01*
X113216Y24142D01*
X113284Y24131D01*
X115316Y24131D01*
X115374Y24139D01*
X115432Y24138D01*
X115514Y24159D01*
X115597Y24171D01*
X115651Y24195D01*
X115707Y24209D01*
X115780Y24252D01*
X115857Y24287D01*
X115902Y24325D01*
X115952Y24355D01*
X116010Y24416D01*
X116074Y24471D01*
X116106Y24519D01*
X116146Y24562D01*
X116185Y24637D01*
X116231Y24707D01*
X116249Y24763D01*
X116276Y24815D01*
X116287Y24883D01*
X116317Y24978D01*
X116320Y25078D01*
X116331Y25146D01*
X116331Y37466D01*
X119824Y37466D01*
X127001Y30289D01*
X127047Y30254D01*
X127088Y30211D01*
X127160Y30169D01*
X127228Y30118D01*
X127282Y30097D01*
X127333Y30068D01*
X127414Y30047D01*
X127493Y30017D01*
X127552Y30012D01*
X127608Y29998D01*
X127693Y30000D01*
X127777Y29993D01*
X127834Y30005D01*
X127892Y30007D01*
X127973Y30033D01*
X128055Y30049D01*
X128107Y30076D01*
X128163Y30094D01*
X128219Y30134D01*
X128308Y30180D01*
X128380Y30249D01*
X128436Y30289D01*
X134597Y36450D01*
X144803Y36450D01*
X151682Y29571D01*
X151729Y29536D01*
X151769Y29493D01*
X151842Y29450D01*
X151909Y29400D01*
X151964Y29379D01*
X152014Y29349D01*
X152096Y29329D01*
X152175Y29298D01*
X152233Y29294D01*
X152290Y29279D01*
X152374Y29282D01*
X152458Y29275D01*
X152516Y29286D01*
X152574Y29288D01*
X152654Y29314D01*
X152737Y29331D01*
X152789Y29358D01*
X152845Y29376D01*
X152901Y29416D01*
X152989Y29462D01*
X153062Y29531D01*
X153118Y29571D01*
X159997Y36450D01*
X169570Y36450D01*
X169599Y36454D01*
X169628Y36451D01*
X169739Y36474D01*
X169851Y36490D01*
X169878Y36502D01*
X169907Y36507D01*
X170007Y36559D01*
X170111Y36606D01*
X170133Y36625D01*
X170159Y36638D01*
X170241Y36716D01*
X170328Y36789D01*
X170344Y36814D01*
X170365Y36834D01*
X170422Y36932D01*
X170485Y37026D01*
X170494Y37054D01*
X170509Y37079D01*
X170537Y37189D01*
X170571Y37297D01*
X170572Y37327D01*
X170579Y37355D01*
X170575Y37468D01*
X170578Y37581D01*
X170571Y37610D01*
X170570Y37639D01*
X170535Y37747D01*
X170506Y37856D01*
X170491Y37882D01*
X170482Y37910D01*
X170437Y37973D01*
X170361Y38101D01*
X170316Y38144D01*
X170288Y38183D01*
X164464Y44006D01*
X164418Y44041D01*
X164377Y44084D01*
X164305Y44126D01*
X164237Y44177D01*
X164183Y44198D01*
X164132Y44227D01*
X164051Y44248D01*
X163972Y44278D01*
X163913Y44283D01*
X163857Y44297D01*
X163772Y44295D01*
X163688Y44302D01*
X163631Y44290D01*
X163573Y44288D01*
X163492Y44262D01*
X163410Y44246D01*
X163358Y44219D01*
X163302Y44201D01*
X163246Y44161D01*
X163157Y44115D01*
X163085Y44046D01*
X163029Y44006D01*
X157503Y38480D01*
X147297Y38480D01*
X140080Y45697D01*
X140080Y55903D01*
X147297Y63120D01*
X157503Y63120D01*
X163029Y57594D01*
X163075Y57559D01*
X163116Y57516D01*
X163188Y57474D01*
X163256Y57423D01*
X163311Y57402D01*
X163361Y57373D01*
X163443Y57352D01*
X163522Y57322D01*
X163580Y57317D01*
X163636Y57303D01*
X163721Y57305D01*
X163805Y57298D01*
X163862Y57310D01*
X163921Y57312D01*
X164001Y57338D01*
X164084Y57354D01*
X164135Y57381D01*
X164191Y57399D01*
X164247Y57439D01*
X164336Y57485D01*
X164408Y57554D01*
X164464Y57594D01*
X171006Y64136D01*
X174499Y64136D01*
X174499Y51816D01*
X174507Y51758D01*
X174505Y51700D01*
X174527Y51618D01*
X174539Y51535D01*
X174563Y51481D01*
X174577Y51425D01*
X174620Y51352D01*
X174655Y51275D01*
X174693Y51231D01*
X174723Y51180D01*
X174784Y51123D01*
X174839Y51058D01*
X174887Y51026D01*
X174930Y50986D01*
X175005Y50947D01*
X175075Y50901D01*
X175131Y50883D01*
X175183Y50856D01*
X175251Y50845D01*
X175346Y50815D01*
X175446Y50812D01*
X175514Y50801D01*
X176531Y50801D01*
X176531Y50799D01*
X175514Y50799D01*
X175456Y50791D01*
X175398Y50792D01*
X175316Y50771D01*
X175233Y50759D01*
X175179Y50735D01*
X175123Y50721D01*
X175050Y50678D01*
X174973Y50643D01*
X174928Y50605D01*
X174878Y50575D01*
X174820Y50514D01*
X174756Y50459D01*
X174724Y50411D01*
X174684Y50368D01*
X174645Y50293D01*
X174599Y50223D01*
X174581Y50167D01*
X174554Y50115D01*
X174543Y50047D01*
X174513Y49952D01*
X174510Y49852D01*
X174499Y49784D01*
X174499Y37464D01*
X171639Y37464D01*
X171610Y37460D01*
X171581Y37463D01*
X171470Y37440D01*
X171358Y37424D01*
X171331Y37412D01*
X171302Y37407D01*
X171202Y37354D01*
X171099Y37308D01*
X171076Y37289D01*
X171050Y37276D01*
X170968Y37198D01*
X170882Y37125D01*
X170865Y37100D01*
X170844Y37080D01*
X170787Y36982D01*
X170724Y36888D01*
X170715Y36860D01*
X170700Y36835D01*
X170672Y36725D01*
X170638Y36617D01*
X170637Y36587D01*
X170630Y36559D01*
X170634Y36446D01*
X170631Y36333D01*
X170638Y36304D01*
X170639Y36275D01*
X170674Y36167D01*
X170703Y36058D01*
X170718Y36032D01*
X170727Y36004D01*
X170772Y35941D01*
X170848Y35813D01*
X170894Y35770D01*
X170922Y35731D01*
X177420Y29233D01*
X177420Y19027D01*
X170203Y11810D01*
X159997Y11810D01*
X153118Y18689D01*
X153071Y18725D01*
X153031Y18767D01*
X152958Y18810D01*
X152891Y18860D01*
X152836Y18881D01*
X152786Y18911D01*
X152704Y18931D01*
X152625Y18962D01*
X152567Y18966D01*
X152510Y18981D01*
X152426Y18978D01*
X152342Y18985D01*
X152284Y18974D01*
X152226Y18972D01*
X152146Y18946D01*
X152063Y18929D01*
X152011Y18902D01*
X151955Y18884D01*
X151899Y18844D01*
X151811Y18798D01*
X151738Y18729D01*
X151682Y18689D01*
X144803Y11810D01*
X134597Y11810D01*
X128436Y17971D01*
X128390Y18006D01*
X128349Y18049D01*
X128277Y18091D01*
X128209Y18142D01*
X128154Y18163D01*
X128104Y18192D01*
X128022Y18213D01*
X127943Y18243D01*
X127885Y18248D01*
X127829Y18262D01*
X127744Y18260D01*
X127660Y18267D01*
X127603Y18255D01*
X127544Y18253D01*
X127464Y18227D01*
X127381Y18211D01*
X127330Y18184D01*
X127274Y18166D01*
X127218Y18126D01*
X127129Y18080D01*
X127057Y18011D01*
X127001Y17971D01*
X119824Y10794D01*
X116331Y10794D01*
X116331Y23114D01*
X116323Y23172D01*
X116325Y23230D01*
X116303Y23312D01*
X116291Y23395D01*
X116267Y23449D01*
X116253Y23505D01*
X116210Y23578D01*
X116175Y23655D01*
X116137Y23699D01*
X116107Y23750D01*
X116046Y23807D01*
X115991Y23872D01*
X115943Y23904D01*
X115900Y23944D01*
X115825Y23983D01*
X115755Y24029D01*
X115699Y24047D01*
X115647Y24074D01*
X115579Y24085D01*
X115484Y24115D01*
X115384Y24118D01*
X115316Y24129D01*
X113284Y24129D01*
X113226Y24121D01*
X113168Y24122D01*
X113086Y24101D01*
X113003Y24089D01*
X112949Y24065D01*
X112893Y24051D01*
X112820Y24008D01*
X112743Y23973D01*
X112698Y23935D01*
X112648Y23905D01*
X112590Y23844D01*
X112526Y23789D01*
X112494Y23741D01*
X112454Y23698D01*
X112415Y23623D01*
X112369Y23553D01*
X112351Y23497D01*
X112324Y23445D01*
X112313Y23377D01*
X112283Y23282D01*
X112280Y23182D01*
X112269Y23114D01*
X112269Y10794D01*
X108776Y10794D01*
G37*
%LPD*%
%LPC*%
G36*
X151344Y126773D02*
X151344Y126773D01*
X149394Y127581D01*
X147832Y129143D01*
X147824Y129157D01*
X147822Y129158D01*
X147822Y129160D01*
X147717Y129258D01*
X147617Y129353D01*
X147615Y129353D01*
X147614Y129354D01*
X147489Y129419D01*
X147364Y129483D01*
X147363Y129483D01*
X147361Y129484D01*
X147346Y129486D01*
X147085Y129538D01*
X147055Y129535D01*
X147030Y129539D01*
X91658Y129539D01*
X89872Y131325D01*
X83065Y138132D01*
X81279Y139918D01*
X81279Y150840D01*
X81279Y150842D01*
X81279Y150843D01*
X81259Y150984D01*
X81239Y151122D01*
X81239Y151123D01*
X81239Y151125D01*
X81180Y151254D01*
X81123Y151381D01*
X81122Y151382D01*
X81121Y151384D01*
X81031Y151490D01*
X80940Y151598D01*
X80938Y151599D01*
X80937Y151600D01*
X80925Y151608D01*
X80902Y151623D01*
X79321Y153204D01*
X78513Y155154D01*
X78513Y157266D01*
X79321Y159216D01*
X80814Y160709D01*
X82764Y161517D01*
X84876Y161517D01*
X86826Y160709D01*
X88319Y159216D01*
X89127Y157266D01*
X89127Y155154D01*
X88319Y153204D01*
X86757Y151642D01*
X86743Y151634D01*
X86742Y151632D01*
X86740Y151632D01*
X86642Y151527D01*
X86547Y151427D01*
X86547Y151425D01*
X86546Y151424D01*
X86481Y151299D01*
X86417Y151174D01*
X86417Y151173D01*
X86416Y151171D01*
X86414Y151156D01*
X86362Y150895D01*
X86365Y150865D01*
X86361Y150840D01*
X86361Y142443D01*
X86373Y142356D01*
X86376Y142269D01*
X86393Y142216D01*
X86401Y142161D01*
X86436Y142082D01*
X86463Y141998D01*
X86491Y141959D01*
X86517Y141902D01*
X86613Y141789D01*
X86658Y141725D01*
X93465Y134918D01*
X93535Y134866D01*
X93599Y134806D01*
X93648Y134780D01*
X93692Y134747D01*
X93774Y134716D01*
X93852Y134676D01*
X93899Y134668D01*
X93958Y134646D01*
X94106Y134634D01*
X94183Y134621D01*
X147030Y134621D01*
X147032Y134621D01*
X147033Y134621D01*
X147174Y134641D01*
X147312Y134661D01*
X147313Y134661D01*
X147315Y134661D01*
X147444Y134720D01*
X147571Y134777D01*
X147572Y134778D01*
X147574Y134779D01*
X147680Y134869D01*
X147788Y134960D01*
X147789Y134962D01*
X147790Y134963D01*
X147798Y134975D01*
X147813Y134998D01*
X149394Y136579D01*
X151344Y137387D01*
X153456Y137387D01*
X155406Y136579D01*
X156899Y135086D01*
X157707Y133136D01*
X157707Y131024D01*
X156899Y129074D01*
X155406Y127581D01*
X153456Y126773D01*
X151344Y126773D01*
G37*
%LPD*%
%LPC*%
G36*
X178561Y52831D02*
X178561Y52831D01*
X178561Y64136D01*
X182054Y64136D01*
X189866Y56324D01*
X189866Y52831D01*
X178561Y52831D01*
G37*
%LPD*%
%LPC*%
G36*
X178561Y37464D02*
X178561Y37464D01*
X178561Y48769D01*
X189866Y48769D01*
X189866Y45276D01*
X182054Y37464D01*
X178561Y37464D01*
G37*
%LPD*%
%LPC*%
G36*
X228091Y12064D02*
X228091Y12064D01*
X228091Y23369D01*
X239396Y23369D01*
X239396Y19876D01*
X231584Y12064D01*
X228091Y12064D01*
G37*
%LPD*%
%LPC*%
G36*
X27431Y12064D02*
X27431Y12064D01*
X27431Y23369D01*
X38736Y23369D01*
X38736Y19876D01*
X30924Y12064D01*
X27431Y12064D01*
G37*
%LPD*%
%LPC*%
G36*
X220536Y12064D02*
X220536Y12064D01*
X212724Y19876D01*
X212724Y23369D01*
X224029Y23369D01*
X224029Y12064D01*
X220536Y12064D01*
G37*
%LPD*%
%LPC*%
G36*
X19876Y12064D02*
X19876Y12064D01*
X12064Y19876D01*
X12064Y23369D01*
X23369Y23369D01*
X23369Y12064D01*
X19876Y12064D01*
G37*
%LPD*%
D10*
X25400Y279400D03*
X25400Y203200D03*
X25400Y127000D03*
X25400Y50800D03*
D11*
X226060Y50800D03*
X226060Y127000D03*
X226060Y203200D03*
X226060Y279400D03*
D10*
X25400Y304800D03*
X25400Y228600D03*
X25400Y152400D03*
X25400Y76200D03*
D11*
X226060Y76200D03*
X226060Y152400D03*
X226060Y228600D03*
X226060Y304800D03*
D10*
X25400Y254000D03*
X25400Y177800D03*
X25400Y101600D03*
X25400Y25400D03*
D11*
X226060Y25400D03*
X226060Y101600D03*
X226060Y177800D03*
X226060Y254000D03*
D12*
X165100Y24130D03*
X139700Y24130D03*
X114300Y24130D03*
X88900Y24130D03*
D10*
X152400Y50800D03*
X176530Y50800D03*
D13*
X130810Y320040D03*
X125730Y111760D03*
X124460Y190500D03*
X85090Y298450D03*
X186690Y161290D03*
X83820Y156210D03*
X152400Y132080D03*
D14*
X92710Y132080D01*
X83820Y140970D01*
X83820Y156210D01*
M02*
