M48
;GenerationSoftware,Autodesk,EAGLE,9.0.0*%
;CreationDate,2018-06-07T14:32:50Z*%
FMAT,2
ICI,OFF
METRIC,TZ,000.000
T2C0.350
T1C1.016
%
G90
M71
T1
X2540Y7620
X22606Y25400
X16510Y2413
X13970Y2413
X11430Y2413
X8890Y2413
X15240Y5080
X2540Y27940
X2540Y20320
X2540Y12700
X2540Y5080
X22606Y5080
X22606Y12700
X22606Y20320
X22606Y27940
X2540Y30480
X2540Y22860
X2540Y15240
X17653Y5080
X22606Y7620
X22606Y15240
X22606Y22860
X22606Y30480
X2540Y25400
X2540Y17780
X2540Y10160
X2540Y2540
X22606Y2540
X22606Y10160
X22606Y17780
T2
X12573Y11176
X12446Y19050
X8509Y29845
X18669Y16129
X8382Y15621
X15240Y13208
X13081Y32004
M30