G04 EAGLE Gerber X2 export*
%TF.Part,Single*%
%TF.FileFunction,Legend,Top,1*%
%TF.FilePolarity,Positive*%
%TF.GenerationSoftware,Autodesk,EAGLE,9.0.0*%
%TF.CreationDate,2018-06-07T14:32:50Z*%
G75*
%MOMM*%
%FSLAX34Y34*%
%LPD*%
%AMOC8*
5,1,8,0,0,1.08239X$1,22.5*%
G01*
%ADD10C,0.076200*%
%ADD11C,0.152400*%
%ADD12C,0.127000*%
%ADD13C,0.200000*%
%ADD14C,0.200000*%
%ADD15C,0.050000*%
%ADD16C,0.203200*%


D10*
X120269Y141412D02*
X120269Y143458D01*
X120267Y143547D01*
X120261Y143636D01*
X120251Y143725D01*
X120238Y143813D01*
X120221Y143901D01*
X120199Y143988D01*
X120174Y144073D01*
X120146Y144158D01*
X120113Y144241D01*
X120077Y144323D01*
X120038Y144403D01*
X119995Y144481D01*
X119949Y144557D01*
X119899Y144632D01*
X119846Y144704D01*
X119790Y144773D01*
X119731Y144840D01*
X119670Y144905D01*
X119605Y144966D01*
X119538Y145025D01*
X119469Y145081D01*
X119397Y145134D01*
X119322Y145184D01*
X119246Y145230D01*
X119168Y145273D01*
X119088Y145312D01*
X119006Y145348D01*
X118923Y145381D01*
X118838Y145409D01*
X118753Y145434D01*
X118666Y145456D01*
X118578Y145473D01*
X118490Y145486D01*
X118401Y145496D01*
X118312Y145502D01*
X118223Y145504D01*
X118134Y145502D01*
X118045Y145496D01*
X117956Y145486D01*
X117868Y145473D01*
X117780Y145456D01*
X117693Y145434D01*
X117608Y145409D01*
X117523Y145381D01*
X117440Y145348D01*
X117358Y145312D01*
X117278Y145273D01*
X117200Y145230D01*
X117124Y145184D01*
X117049Y145134D01*
X116977Y145081D01*
X116908Y145025D01*
X116841Y144966D01*
X116776Y144905D01*
X116715Y144840D01*
X116656Y144773D01*
X116600Y144704D01*
X116547Y144632D01*
X116497Y144557D01*
X116451Y144481D01*
X116408Y144403D01*
X116369Y144323D01*
X116333Y144241D01*
X116300Y144158D01*
X116272Y144073D01*
X116247Y143988D01*
X116225Y143901D01*
X116208Y143813D01*
X116195Y143725D01*
X116185Y143636D01*
X116179Y143547D01*
X116177Y143458D01*
X112903Y143867D02*
X112903Y141412D01*
X112903Y143867D02*
X112905Y143946D01*
X112911Y144025D01*
X112920Y144104D01*
X112933Y144182D01*
X112951Y144259D01*
X112971Y144335D01*
X112996Y144410D01*
X113024Y144484D01*
X113055Y144557D01*
X113091Y144628D01*
X113129Y144697D01*
X113171Y144764D01*
X113216Y144829D01*
X113264Y144892D01*
X113315Y144953D01*
X113369Y145010D01*
X113425Y145066D01*
X113484Y145118D01*
X113546Y145168D01*
X113610Y145214D01*
X113676Y145258D01*
X113744Y145298D01*
X113814Y145334D01*
X113886Y145368D01*
X113960Y145398D01*
X114034Y145424D01*
X114110Y145447D01*
X114187Y145465D01*
X114264Y145481D01*
X114343Y145492D01*
X114421Y145500D01*
X114500Y145504D01*
X114580Y145504D01*
X114659Y145500D01*
X114737Y145492D01*
X114816Y145481D01*
X114893Y145465D01*
X114970Y145447D01*
X115046Y145424D01*
X115120Y145398D01*
X115194Y145368D01*
X115266Y145334D01*
X115336Y145298D01*
X115404Y145258D01*
X115470Y145214D01*
X115534Y145168D01*
X115596Y145118D01*
X115655Y145066D01*
X115711Y145010D01*
X115765Y144953D01*
X115816Y144892D01*
X115864Y144829D01*
X115909Y144764D01*
X115951Y144697D01*
X115989Y144628D01*
X116025Y144557D01*
X116056Y144484D01*
X116084Y144410D01*
X116109Y144335D01*
X116129Y144259D01*
X116147Y144182D01*
X116160Y144104D01*
X116169Y144025D01*
X116175Y143946D01*
X116177Y143867D01*
X116177Y142230D01*
X112903Y148318D02*
X120269Y150773D01*
X112903Y153228D01*
X179197Y143867D02*
X179197Y141412D01*
X179197Y143867D02*
X179195Y143945D01*
X179190Y144023D01*
X179180Y144100D01*
X179167Y144177D01*
X179151Y144253D01*
X179131Y144328D01*
X179107Y144402D01*
X179080Y144475D01*
X179049Y144547D01*
X179015Y144617D01*
X178978Y144686D01*
X178937Y144752D01*
X178893Y144817D01*
X178847Y144879D01*
X178797Y144939D01*
X178745Y144997D01*
X178690Y145052D01*
X178632Y145104D01*
X178572Y145154D01*
X178510Y145200D01*
X178445Y145244D01*
X178379Y145285D01*
X178310Y145322D01*
X178240Y145356D01*
X178168Y145387D01*
X178095Y145414D01*
X178021Y145438D01*
X177946Y145458D01*
X177870Y145474D01*
X177793Y145487D01*
X177716Y145497D01*
X177638Y145502D01*
X177560Y145504D01*
X176742Y145504D01*
X176662Y145502D01*
X176582Y145496D01*
X176502Y145486D01*
X176423Y145473D01*
X176344Y145455D01*
X176267Y145434D01*
X176191Y145408D01*
X176116Y145379D01*
X176042Y145347D01*
X175970Y145311D01*
X175900Y145271D01*
X175833Y145228D01*
X175767Y145182D01*
X175704Y145132D01*
X175643Y145080D01*
X175584Y145025D01*
X175529Y144966D01*
X175477Y144906D01*
X175427Y144842D01*
X175381Y144776D01*
X175338Y144709D01*
X175298Y144639D01*
X175262Y144567D01*
X175230Y144493D01*
X175201Y144419D01*
X175175Y144342D01*
X175154Y144265D01*
X175136Y144186D01*
X175123Y144107D01*
X175113Y144027D01*
X175107Y143947D01*
X175105Y143867D01*
X175105Y141412D01*
X171831Y141412D01*
X171831Y145504D01*
X171831Y148318D02*
X179197Y150773D01*
X171831Y153228D01*
X71355Y177673D02*
X68900Y185039D01*
X73810Y185039D02*
X71355Y177673D01*
X76868Y177673D02*
X76868Y185039D01*
X78914Y185039D01*
X79003Y185037D01*
X79092Y185031D01*
X79181Y185021D01*
X79269Y185008D01*
X79357Y184991D01*
X79444Y184969D01*
X79529Y184944D01*
X79614Y184916D01*
X79697Y184883D01*
X79779Y184847D01*
X79859Y184808D01*
X79937Y184765D01*
X80013Y184719D01*
X80088Y184669D01*
X80160Y184616D01*
X80229Y184560D01*
X80296Y184501D01*
X80361Y184440D01*
X80422Y184375D01*
X80481Y184308D01*
X80537Y184239D01*
X80590Y184167D01*
X80640Y184092D01*
X80686Y184016D01*
X80729Y183938D01*
X80768Y183858D01*
X80804Y183776D01*
X80837Y183693D01*
X80865Y183608D01*
X80890Y183523D01*
X80912Y183436D01*
X80929Y183348D01*
X80942Y183260D01*
X80952Y183171D01*
X80958Y183082D01*
X80960Y182993D01*
X80960Y179719D01*
X80958Y179630D01*
X80952Y179541D01*
X80942Y179452D01*
X80929Y179364D01*
X80912Y179276D01*
X80890Y179189D01*
X80865Y179104D01*
X80837Y179019D01*
X80804Y178936D01*
X80768Y178854D01*
X80729Y178774D01*
X80686Y178696D01*
X80640Y178620D01*
X80590Y178545D01*
X80537Y178473D01*
X80481Y178404D01*
X80422Y178337D01*
X80361Y178272D01*
X80296Y178211D01*
X80229Y178152D01*
X80160Y178096D01*
X80088Y178043D01*
X80013Y177993D01*
X79937Y177947D01*
X79859Y177904D01*
X79779Y177865D01*
X79697Y177829D01*
X79614Y177796D01*
X79529Y177768D01*
X79444Y177743D01*
X79357Y177721D01*
X79269Y177704D01*
X79181Y177691D01*
X79092Y177681D01*
X79003Y177675D01*
X78914Y177673D01*
X76868Y177673D01*
X67489Y236601D02*
X67489Y243967D01*
X66670Y236601D02*
X68307Y236601D01*
X68307Y243967D02*
X66670Y243967D01*
X71539Y243967D02*
X71539Y236601D01*
X75631Y236601D02*
X71539Y243967D01*
X75631Y243967D02*
X75631Y236601D01*
X79098Y240284D02*
X79100Y240437D01*
X79106Y240590D01*
X79115Y240742D01*
X79129Y240895D01*
X79146Y241047D01*
X79167Y241198D01*
X79192Y241349D01*
X79221Y241499D01*
X79253Y241649D01*
X79290Y241797D01*
X79330Y241945D01*
X79373Y242092D01*
X79421Y242237D01*
X79472Y242381D01*
X79526Y242524D01*
X79585Y242666D01*
X79646Y242805D01*
X79712Y242944D01*
X79738Y243014D01*
X79768Y243084D01*
X79801Y243151D01*
X79837Y243217D01*
X79876Y243281D01*
X79919Y243343D01*
X79965Y243402D01*
X80013Y243460D01*
X80064Y243514D01*
X80118Y243567D01*
X80175Y243616D01*
X80234Y243663D01*
X80295Y243706D01*
X80358Y243747D01*
X80423Y243784D01*
X80490Y243819D01*
X80559Y243849D01*
X80629Y243877D01*
X80700Y243900D01*
X80772Y243921D01*
X80845Y243937D01*
X80919Y243950D01*
X80994Y243960D01*
X81069Y243965D01*
X81144Y243967D01*
X81219Y243965D01*
X81294Y243960D01*
X81369Y243950D01*
X81443Y243937D01*
X81516Y243921D01*
X81588Y243900D01*
X81659Y243877D01*
X81729Y243849D01*
X81798Y243819D01*
X81865Y243784D01*
X81930Y243747D01*
X81993Y243706D01*
X82054Y243663D01*
X82113Y243616D01*
X82170Y243567D01*
X82224Y243514D01*
X82275Y243460D01*
X82324Y243402D01*
X82369Y243343D01*
X82412Y243281D01*
X82451Y243217D01*
X82488Y243151D01*
X82520Y243083D01*
X82550Y243014D01*
X82576Y242944D01*
X82641Y242806D01*
X82703Y242666D01*
X82761Y242524D01*
X82816Y242381D01*
X82867Y242237D01*
X82915Y242092D01*
X82958Y241945D01*
X82998Y241798D01*
X83035Y241649D01*
X83067Y241499D01*
X83096Y241349D01*
X83121Y241198D01*
X83142Y241047D01*
X83159Y240895D01*
X83173Y240742D01*
X83182Y240590D01*
X83188Y240437D01*
X83190Y240284D01*
X79097Y240284D02*
X79099Y240131D01*
X79105Y239978D01*
X79114Y239825D01*
X79128Y239673D01*
X79145Y239521D01*
X79166Y239370D01*
X79191Y239219D01*
X79220Y239068D01*
X79252Y238919D01*
X79289Y238770D01*
X79329Y238623D01*
X79372Y238476D01*
X79420Y238331D01*
X79471Y238186D01*
X79526Y238044D01*
X79584Y237902D01*
X79646Y237762D01*
X79711Y237624D01*
X79712Y237624D02*
X79738Y237553D01*
X79768Y237484D01*
X79801Y237417D01*
X79837Y237351D01*
X79876Y237287D01*
X79919Y237225D01*
X79965Y237166D01*
X80013Y237108D01*
X80064Y237054D01*
X80118Y237001D01*
X80175Y236952D01*
X80234Y236905D01*
X80295Y236862D01*
X80358Y236821D01*
X80423Y236784D01*
X80490Y236749D01*
X80559Y236719D01*
X80629Y236691D01*
X80700Y236668D01*
X80772Y236647D01*
X80845Y236631D01*
X80919Y236618D01*
X80994Y236608D01*
X81069Y236603D01*
X81144Y236601D01*
X82576Y237624D02*
X82641Y237762D01*
X82703Y237902D01*
X82761Y238044D01*
X82816Y238187D01*
X82867Y238331D01*
X82915Y238476D01*
X82958Y238623D01*
X82998Y238771D01*
X83035Y238919D01*
X83067Y239069D01*
X83096Y239219D01*
X83121Y239370D01*
X83142Y239521D01*
X83159Y239673D01*
X83173Y239826D01*
X83182Y239978D01*
X83188Y240131D01*
X83190Y240284D01*
X82576Y237624D02*
X82550Y237554D01*
X82520Y237484D01*
X82488Y237417D01*
X82451Y237351D01*
X82412Y237287D01*
X82369Y237225D01*
X82323Y237166D01*
X82275Y237108D01*
X82224Y237054D01*
X82170Y237001D01*
X82113Y236952D01*
X82054Y236905D01*
X81993Y236862D01*
X81930Y236821D01*
X81865Y236784D01*
X81798Y236749D01*
X81729Y236719D01*
X81659Y236691D01*
X81588Y236668D01*
X81516Y236647D01*
X81443Y236631D01*
X81369Y236618D01*
X81294Y236608D01*
X81219Y236603D01*
X81144Y236601D01*
X79507Y238238D02*
X82781Y242330D01*
X176121Y69243D02*
X176121Y68016D01*
X176121Y69243D02*
X180213Y69243D01*
X180213Y66788D01*
X180211Y66710D01*
X180206Y66632D01*
X180196Y66555D01*
X180183Y66478D01*
X180167Y66402D01*
X180147Y66327D01*
X180123Y66253D01*
X180096Y66180D01*
X180065Y66108D01*
X180031Y66038D01*
X179994Y65970D01*
X179953Y65903D01*
X179909Y65838D01*
X179863Y65776D01*
X179813Y65716D01*
X179761Y65658D01*
X179706Y65603D01*
X179648Y65551D01*
X179588Y65501D01*
X179526Y65455D01*
X179461Y65411D01*
X179395Y65370D01*
X179326Y65333D01*
X179256Y65299D01*
X179184Y65268D01*
X179111Y65241D01*
X179037Y65217D01*
X178962Y65197D01*
X178886Y65181D01*
X178809Y65168D01*
X178732Y65158D01*
X178654Y65153D01*
X178576Y65151D01*
X174484Y65151D01*
X174404Y65153D01*
X174324Y65159D01*
X174244Y65169D01*
X174165Y65182D01*
X174086Y65200D01*
X174009Y65221D01*
X173933Y65247D01*
X173858Y65276D01*
X173784Y65308D01*
X173712Y65344D01*
X173642Y65384D01*
X173575Y65427D01*
X173509Y65473D01*
X173446Y65523D01*
X173385Y65575D01*
X173326Y65630D01*
X173271Y65689D01*
X173219Y65749D01*
X173169Y65813D01*
X173123Y65878D01*
X173080Y65946D01*
X173040Y66016D01*
X173004Y66088D01*
X172972Y66162D01*
X172943Y66236D01*
X172918Y66313D01*
X172896Y66390D01*
X172878Y66469D01*
X172865Y66548D01*
X172855Y66627D01*
X172849Y66708D01*
X172847Y66788D01*
X172847Y69243D01*
X172847Y72954D02*
X180213Y72954D01*
X180213Y77046D02*
X172847Y72954D01*
X172847Y77046D02*
X180213Y77046D01*
X180213Y80757D02*
X172847Y80757D01*
X172847Y82803D01*
X172849Y82892D01*
X172855Y82981D01*
X172865Y83070D01*
X172878Y83158D01*
X172895Y83246D01*
X172917Y83333D01*
X172942Y83418D01*
X172970Y83503D01*
X173003Y83586D01*
X173039Y83668D01*
X173078Y83748D01*
X173121Y83826D01*
X173167Y83902D01*
X173217Y83977D01*
X173270Y84049D01*
X173326Y84118D01*
X173385Y84185D01*
X173446Y84250D01*
X173511Y84311D01*
X173578Y84370D01*
X173647Y84426D01*
X173719Y84479D01*
X173794Y84529D01*
X173870Y84575D01*
X173948Y84618D01*
X174028Y84657D01*
X174110Y84693D01*
X174193Y84726D01*
X174278Y84754D01*
X174363Y84779D01*
X174450Y84801D01*
X174538Y84818D01*
X174626Y84831D01*
X174715Y84841D01*
X174804Y84847D01*
X174893Y84849D01*
X178167Y84849D01*
X178256Y84847D01*
X178345Y84841D01*
X178434Y84831D01*
X178522Y84818D01*
X178610Y84801D01*
X178697Y84779D01*
X178782Y84754D01*
X178867Y84726D01*
X178950Y84693D01*
X179032Y84657D01*
X179112Y84618D01*
X179190Y84575D01*
X179266Y84529D01*
X179341Y84479D01*
X179413Y84426D01*
X179482Y84370D01*
X179549Y84311D01*
X179614Y84250D01*
X179675Y84185D01*
X179734Y84118D01*
X179790Y84049D01*
X179843Y83977D01*
X179893Y83902D01*
X179939Y83826D01*
X179982Y83748D01*
X180021Y83668D01*
X180057Y83586D01*
X180090Y83503D01*
X180118Y83418D01*
X180143Y83333D01*
X180165Y83246D01*
X180182Y83158D01*
X180195Y83070D01*
X180205Y82981D01*
X180211Y82892D01*
X180213Y82803D01*
X180213Y80757D01*
X80365Y11049D02*
X82820Y3683D01*
X85275Y11049D01*
X89703Y3683D02*
X91340Y3683D01*
X89703Y3683D02*
X89625Y3685D01*
X89547Y3690D01*
X89470Y3700D01*
X89393Y3713D01*
X89317Y3729D01*
X89242Y3749D01*
X89168Y3773D01*
X89095Y3800D01*
X89023Y3831D01*
X88953Y3865D01*
X88885Y3902D01*
X88818Y3943D01*
X88753Y3987D01*
X88691Y4033D01*
X88631Y4083D01*
X88573Y4135D01*
X88518Y4190D01*
X88466Y4248D01*
X88416Y4308D01*
X88370Y4370D01*
X88326Y4435D01*
X88285Y4502D01*
X88248Y4570D01*
X88214Y4640D01*
X88183Y4712D01*
X88156Y4785D01*
X88132Y4859D01*
X88112Y4934D01*
X88096Y5010D01*
X88083Y5087D01*
X88073Y5164D01*
X88068Y5242D01*
X88066Y5320D01*
X88066Y9412D01*
X88068Y9492D01*
X88074Y9572D01*
X88084Y9652D01*
X88097Y9731D01*
X88115Y9810D01*
X88136Y9887D01*
X88162Y9963D01*
X88191Y10038D01*
X88223Y10112D01*
X88259Y10184D01*
X88299Y10254D01*
X88342Y10321D01*
X88388Y10387D01*
X88438Y10450D01*
X88490Y10511D01*
X88545Y10570D01*
X88604Y10625D01*
X88664Y10677D01*
X88728Y10727D01*
X88794Y10773D01*
X88861Y10816D01*
X88931Y10856D01*
X89003Y10892D01*
X89077Y10924D01*
X89151Y10953D01*
X89228Y10979D01*
X89305Y11000D01*
X89384Y11018D01*
X89463Y11031D01*
X89543Y11041D01*
X89623Y11047D01*
X89703Y11049D01*
X91340Y11049D01*
X95799Y3683D02*
X97436Y3683D01*
X95799Y3683D02*
X95721Y3685D01*
X95643Y3690D01*
X95566Y3700D01*
X95489Y3713D01*
X95413Y3729D01*
X95338Y3749D01*
X95264Y3773D01*
X95191Y3800D01*
X95119Y3831D01*
X95049Y3865D01*
X94981Y3902D01*
X94914Y3943D01*
X94849Y3987D01*
X94787Y4033D01*
X94727Y4083D01*
X94669Y4135D01*
X94614Y4190D01*
X94562Y4248D01*
X94512Y4308D01*
X94466Y4370D01*
X94422Y4435D01*
X94381Y4502D01*
X94344Y4570D01*
X94310Y4640D01*
X94279Y4712D01*
X94252Y4785D01*
X94228Y4859D01*
X94208Y4934D01*
X94192Y5010D01*
X94179Y5087D01*
X94169Y5164D01*
X94164Y5242D01*
X94162Y5320D01*
X94162Y9412D01*
X94164Y9492D01*
X94170Y9572D01*
X94180Y9652D01*
X94193Y9731D01*
X94211Y9810D01*
X94232Y9887D01*
X94258Y9963D01*
X94287Y10038D01*
X94319Y10112D01*
X94355Y10184D01*
X94395Y10254D01*
X94438Y10321D01*
X94484Y10387D01*
X94534Y10450D01*
X94586Y10511D01*
X94641Y10570D01*
X94700Y10625D01*
X94760Y10677D01*
X94824Y10727D01*
X94890Y10773D01*
X94957Y10816D01*
X95027Y10856D01*
X95099Y10892D01*
X95173Y10924D01*
X95247Y10953D01*
X95324Y10979D01*
X95401Y11000D01*
X95480Y11018D01*
X95559Y11031D01*
X95639Y11041D01*
X95719Y11047D01*
X95799Y11049D01*
X97436Y11049D01*
X107316Y7775D02*
X108543Y7775D01*
X108543Y3683D01*
X106088Y3683D01*
X106010Y3685D01*
X105932Y3690D01*
X105855Y3700D01*
X105778Y3713D01*
X105702Y3729D01*
X105627Y3749D01*
X105553Y3773D01*
X105480Y3800D01*
X105408Y3831D01*
X105338Y3865D01*
X105270Y3902D01*
X105203Y3943D01*
X105138Y3987D01*
X105076Y4033D01*
X105016Y4083D01*
X104958Y4135D01*
X104903Y4190D01*
X104851Y4248D01*
X104801Y4308D01*
X104755Y4370D01*
X104711Y4435D01*
X104670Y4502D01*
X104633Y4570D01*
X104599Y4640D01*
X104568Y4712D01*
X104541Y4785D01*
X104517Y4859D01*
X104497Y4934D01*
X104481Y5010D01*
X104468Y5087D01*
X104458Y5164D01*
X104453Y5242D01*
X104451Y5320D01*
X104451Y9412D01*
X104453Y9492D01*
X104459Y9572D01*
X104469Y9652D01*
X104482Y9731D01*
X104500Y9810D01*
X104521Y9887D01*
X104547Y9963D01*
X104576Y10038D01*
X104608Y10112D01*
X104644Y10184D01*
X104684Y10254D01*
X104727Y10321D01*
X104773Y10387D01*
X104823Y10450D01*
X104875Y10511D01*
X104930Y10570D01*
X104989Y10625D01*
X105049Y10677D01*
X105113Y10727D01*
X105179Y10773D01*
X105246Y10816D01*
X105316Y10856D01*
X105388Y10892D01*
X105462Y10924D01*
X105536Y10953D01*
X105613Y10979D01*
X105690Y11000D01*
X105769Y11018D01*
X105848Y11031D01*
X105928Y11041D01*
X106008Y11047D01*
X106088Y11049D01*
X108543Y11049D01*
X112254Y11049D02*
X112254Y3683D01*
X116346Y3683D02*
X112254Y11049D01*
X116346Y11049D02*
X116346Y3683D01*
X120057Y3683D02*
X120057Y11049D01*
X122103Y11049D01*
X122192Y11047D01*
X122281Y11041D01*
X122370Y11031D01*
X122458Y11018D01*
X122546Y11001D01*
X122633Y10979D01*
X122718Y10954D01*
X122803Y10926D01*
X122886Y10893D01*
X122968Y10857D01*
X123048Y10818D01*
X123126Y10775D01*
X123202Y10729D01*
X123277Y10679D01*
X123349Y10626D01*
X123418Y10570D01*
X123485Y10511D01*
X123550Y10450D01*
X123611Y10385D01*
X123670Y10318D01*
X123726Y10249D01*
X123779Y10177D01*
X123829Y10102D01*
X123875Y10026D01*
X123918Y9948D01*
X123957Y9868D01*
X123993Y9786D01*
X124026Y9703D01*
X124054Y9618D01*
X124079Y9533D01*
X124101Y9446D01*
X124118Y9358D01*
X124131Y9270D01*
X124141Y9181D01*
X124147Y9092D01*
X124149Y9003D01*
X124149Y5729D01*
X124147Y5640D01*
X124141Y5551D01*
X124131Y5462D01*
X124118Y5374D01*
X124101Y5286D01*
X124079Y5199D01*
X124054Y5114D01*
X124026Y5029D01*
X123993Y4946D01*
X123957Y4864D01*
X123918Y4784D01*
X123875Y4706D01*
X123829Y4630D01*
X123779Y4555D01*
X123726Y4483D01*
X123670Y4414D01*
X123611Y4347D01*
X123550Y4282D01*
X123485Y4221D01*
X123418Y4162D01*
X123349Y4106D01*
X123277Y4053D01*
X123202Y4003D01*
X123126Y3957D01*
X123048Y3914D01*
X122968Y3875D01*
X122886Y3839D01*
X122803Y3806D01*
X122718Y3778D01*
X122633Y3753D01*
X122546Y3731D01*
X122458Y3714D01*
X122370Y3701D01*
X122281Y3691D01*
X122192Y3685D01*
X122103Y3683D01*
X120057Y3683D01*
X132468Y3683D02*
X132546Y3685D01*
X132624Y3690D01*
X132701Y3700D01*
X132778Y3713D01*
X132854Y3729D01*
X132929Y3749D01*
X133003Y3773D01*
X133076Y3800D01*
X133148Y3831D01*
X133218Y3865D01*
X133287Y3902D01*
X133353Y3943D01*
X133418Y3987D01*
X133480Y4033D01*
X133540Y4083D01*
X133598Y4135D01*
X133653Y4190D01*
X133705Y4248D01*
X133755Y4308D01*
X133801Y4370D01*
X133845Y4435D01*
X133886Y4502D01*
X133923Y4570D01*
X133957Y4640D01*
X133988Y4712D01*
X134015Y4785D01*
X134039Y4859D01*
X134059Y4934D01*
X134075Y5010D01*
X134088Y5087D01*
X134098Y5164D01*
X134103Y5242D01*
X134105Y5320D01*
X132468Y3683D02*
X132354Y3685D01*
X132241Y3690D01*
X132127Y3700D01*
X132014Y3713D01*
X131902Y3730D01*
X131790Y3750D01*
X131679Y3774D01*
X131568Y3802D01*
X131459Y3833D01*
X131351Y3868D01*
X131244Y3907D01*
X131138Y3949D01*
X131034Y3994D01*
X130931Y4043D01*
X130830Y4096D01*
X130731Y4151D01*
X130633Y4210D01*
X130538Y4272D01*
X130445Y4337D01*
X130353Y4405D01*
X130265Y4476D01*
X130178Y4550D01*
X130094Y4627D01*
X130013Y4706D01*
X130217Y9412D02*
X130219Y9490D01*
X130224Y9568D01*
X130234Y9645D01*
X130247Y9722D01*
X130263Y9798D01*
X130283Y9873D01*
X130307Y9947D01*
X130334Y10020D01*
X130365Y10092D01*
X130399Y10162D01*
X130436Y10231D01*
X130477Y10297D01*
X130521Y10362D01*
X130567Y10424D01*
X130617Y10484D01*
X130669Y10542D01*
X130724Y10597D01*
X130782Y10649D01*
X130842Y10699D01*
X130904Y10745D01*
X130969Y10789D01*
X131036Y10830D01*
X131104Y10867D01*
X131174Y10901D01*
X131246Y10932D01*
X131319Y10959D01*
X131393Y10983D01*
X131468Y11003D01*
X131544Y11019D01*
X131621Y11032D01*
X131698Y11042D01*
X131776Y11047D01*
X131854Y11049D01*
X131964Y11047D01*
X132073Y11041D01*
X132183Y11031D01*
X132291Y11018D01*
X132400Y11000D01*
X132507Y10979D01*
X132614Y10953D01*
X132720Y10924D01*
X132825Y10892D01*
X132928Y10855D01*
X133030Y10815D01*
X133131Y10771D01*
X133230Y10723D01*
X133327Y10673D01*
X133422Y10618D01*
X133515Y10560D01*
X133606Y10499D01*
X133695Y10435D01*
X131035Y7979D02*
X130968Y8021D01*
X130903Y8065D01*
X130841Y8113D01*
X130781Y8163D01*
X130723Y8216D01*
X130668Y8272D01*
X130616Y8331D01*
X130566Y8391D01*
X130519Y8455D01*
X130476Y8520D01*
X130435Y8587D01*
X130398Y8656D01*
X130364Y8727D01*
X130333Y8799D01*
X130306Y8873D01*
X130282Y8947D01*
X130262Y9023D01*
X130246Y9100D01*
X130233Y9177D01*
X130223Y9255D01*
X130218Y9334D01*
X130216Y9412D01*
X133286Y6752D02*
X133352Y6710D01*
X133417Y6666D01*
X133479Y6619D01*
X133539Y6568D01*
X133597Y6515D01*
X133652Y6459D01*
X133705Y6401D01*
X133754Y6340D01*
X133801Y6277D01*
X133844Y6212D01*
X133885Y6145D01*
X133922Y6076D01*
X133956Y6005D01*
X133987Y5933D01*
X134014Y5859D01*
X134038Y5784D01*
X134058Y5709D01*
X134074Y5632D01*
X134087Y5555D01*
X134097Y5477D01*
X134102Y5398D01*
X134104Y5320D01*
X133286Y6752D02*
X131035Y7980D01*
X137327Y11049D02*
X137327Y3683D01*
X137327Y11049D02*
X139373Y11049D01*
X139462Y11047D01*
X139551Y11041D01*
X139640Y11031D01*
X139728Y11018D01*
X139816Y11001D01*
X139903Y10979D01*
X139988Y10954D01*
X140073Y10926D01*
X140156Y10893D01*
X140238Y10857D01*
X140318Y10818D01*
X140396Y10775D01*
X140472Y10729D01*
X140547Y10679D01*
X140619Y10626D01*
X140688Y10570D01*
X140755Y10511D01*
X140820Y10450D01*
X140881Y10385D01*
X140940Y10318D01*
X140996Y10249D01*
X141049Y10177D01*
X141099Y10102D01*
X141145Y10026D01*
X141188Y9948D01*
X141227Y9868D01*
X141263Y9786D01*
X141296Y9703D01*
X141324Y9618D01*
X141349Y9533D01*
X141371Y9446D01*
X141388Y9358D01*
X141401Y9270D01*
X141411Y9181D01*
X141417Y9092D01*
X141419Y9003D01*
X141420Y9003D02*
X141420Y5729D01*
X141418Y5640D01*
X141412Y5551D01*
X141402Y5462D01*
X141389Y5374D01*
X141372Y5286D01*
X141350Y5199D01*
X141325Y5114D01*
X141297Y5029D01*
X141264Y4946D01*
X141228Y4864D01*
X141189Y4784D01*
X141146Y4706D01*
X141100Y4630D01*
X141050Y4555D01*
X140997Y4483D01*
X140941Y4414D01*
X140882Y4347D01*
X140821Y4282D01*
X140756Y4221D01*
X140689Y4162D01*
X140620Y4106D01*
X140548Y4053D01*
X140473Y4003D01*
X140397Y3957D01*
X140319Y3914D01*
X140239Y3875D01*
X140157Y3839D01*
X140074Y3806D01*
X139989Y3778D01*
X139904Y3753D01*
X139817Y3731D01*
X139729Y3714D01*
X139641Y3701D01*
X139552Y3691D01*
X139463Y3685D01*
X139374Y3683D01*
X139373Y3683D02*
X137327Y3683D01*
X144477Y3683D02*
X146932Y11049D01*
X149388Y3683D01*
X148774Y5525D02*
X145091Y5525D01*
X159205Y3683D02*
X159283Y3685D01*
X159361Y3690D01*
X159438Y3700D01*
X159515Y3713D01*
X159591Y3729D01*
X159666Y3749D01*
X159740Y3773D01*
X159813Y3800D01*
X159885Y3831D01*
X159955Y3865D01*
X160024Y3902D01*
X160090Y3943D01*
X160155Y3987D01*
X160217Y4033D01*
X160277Y4083D01*
X160335Y4135D01*
X160390Y4190D01*
X160442Y4248D01*
X160492Y4308D01*
X160538Y4370D01*
X160582Y4435D01*
X160623Y4502D01*
X160660Y4570D01*
X160694Y4640D01*
X160725Y4712D01*
X160752Y4785D01*
X160776Y4859D01*
X160796Y4934D01*
X160812Y5010D01*
X160825Y5087D01*
X160835Y5164D01*
X160840Y5242D01*
X160842Y5320D01*
X159205Y3683D02*
X159091Y3685D01*
X158978Y3690D01*
X158864Y3700D01*
X158751Y3713D01*
X158639Y3730D01*
X158527Y3750D01*
X158416Y3774D01*
X158305Y3802D01*
X158196Y3833D01*
X158088Y3868D01*
X157981Y3907D01*
X157875Y3949D01*
X157771Y3994D01*
X157668Y4043D01*
X157567Y4096D01*
X157468Y4151D01*
X157370Y4210D01*
X157275Y4272D01*
X157182Y4337D01*
X157090Y4405D01*
X157002Y4476D01*
X156915Y4550D01*
X156831Y4627D01*
X156750Y4706D01*
X156954Y9412D02*
X156956Y9490D01*
X156961Y9568D01*
X156971Y9645D01*
X156984Y9722D01*
X157000Y9798D01*
X157020Y9873D01*
X157044Y9947D01*
X157071Y10020D01*
X157102Y10092D01*
X157136Y10162D01*
X157173Y10231D01*
X157214Y10297D01*
X157258Y10362D01*
X157304Y10424D01*
X157354Y10484D01*
X157406Y10542D01*
X157461Y10597D01*
X157519Y10649D01*
X157579Y10699D01*
X157641Y10745D01*
X157706Y10789D01*
X157773Y10830D01*
X157841Y10867D01*
X157911Y10901D01*
X157983Y10932D01*
X158056Y10959D01*
X158130Y10983D01*
X158205Y11003D01*
X158281Y11019D01*
X158358Y11032D01*
X158435Y11042D01*
X158513Y11047D01*
X158591Y11049D01*
X158701Y11047D01*
X158810Y11041D01*
X158920Y11031D01*
X159028Y11018D01*
X159137Y11000D01*
X159244Y10979D01*
X159351Y10953D01*
X159457Y10924D01*
X159562Y10892D01*
X159665Y10855D01*
X159767Y10815D01*
X159868Y10771D01*
X159967Y10723D01*
X160064Y10673D01*
X160159Y10618D01*
X160252Y10560D01*
X160343Y10499D01*
X160432Y10435D01*
X157773Y7979D02*
X157706Y8021D01*
X157641Y8065D01*
X157579Y8113D01*
X157519Y8163D01*
X157461Y8216D01*
X157406Y8272D01*
X157354Y8331D01*
X157304Y8391D01*
X157257Y8455D01*
X157214Y8520D01*
X157173Y8587D01*
X157136Y8656D01*
X157102Y8727D01*
X157071Y8799D01*
X157044Y8873D01*
X157020Y8947D01*
X157000Y9023D01*
X156984Y9100D01*
X156971Y9177D01*
X156961Y9255D01*
X156956Y9334D01*
X156954Y9412D01*
X160023Y6752D02*
X160089Y6710D01*
X160154Y6666D01*
X160216Y6619D01*
X160276Y6568D01*
X160334Y6515D01*
X160389Y6459D01*
X160442Y6401D01*
X160491Y6340D01*
X160538Y6277D01*
X160581Y6212D01*
X160622Y6145D01*
X160659Y6076D01*
X160693Y6005D01*
X160724Y5933D01*
X160751Y5859D01*
X160775Y5784D01*
X160795Y5709D01*
X160811Y5632D01*
X160824Y5555D01*
X160834Y5477D01*
X160839Y5398D01*
X160841Y5320D01*
X160023Y6752D02*
X157773Y7980D01*
X165435Y3683D02*
X167072Y3683D01*
X165435Y3683D02*
X165357Y3685D01*
X165279Y3690D01*
X165202Y3700D01*
X165125Y3713D01*
X165049Y3729D01*
X164974Y3749D01*
X164900Y3773D01*
X164827Y3800D01*
X164755Y3831D01*
X164685Y3865D01*
X164617Y3902D01*
X164550Y3943D01*
X164485Y3987D01*
X164423Y4033D01*
X164363Y4083D01*
X164305Y4135D01*
X164250Y4190D01*
X164198Y4248D01*
X164148Y4308D01*
X164102Y4370D01*
X164058Y4435D01*
X164017Y4502D01*
X163980Y4570D01*
X163946Y4640D01*
X163915Y4712D01*
X163888Y4785D01*
X163864Y4859D01*
X163844Y4934D01*
X163828Y5010D01*
X163815Y5087D01*
X163805Y5164D01*
X163800Y5242D01*
X163798Y5320D01*
X163798Y9412D01*
X163800Y9492D01*
X163806Y9572D01*
X163816Y9652D01*
X163829Y9731D01*
X163847Y9810D01*
X163868Y9887D01*
X163894Y9963D01*
X163923Y10038D01*
X163955Y10112D01*
X163991Y10184D01*
X164031Y10254D01*
X164074Y10321D01*
X164120Y10387D01*
X164170Y10450D01*
X164222Y10511D01*
X164277Y10570D01*
X164336Y10625D01*
X164396Y10677D01*
X164460Y10727D01*
X164526Y10773D01*
X164593Y10816D01*
X164663Y10856D01*
X164735Y10892D01*
X164809Y10924D01*
X164883Y10953D01*
X164960Y10979D01*
X165037Y11000D01*
X165116Y11018D01*
X165195Y11031D01*
X165275Y11041D01*
X165355Y11047D01*
X165435Y11049D01*
X167072Y11049D01*
X170177Y11049D02*
X170177Y3683D01*
X173450Y3683D01*
D11*
X27940Y266700D02*
X22860Y266700D01*
X22860Y292100D02*
X27940Y292100D01*
X22860Y292100D02*
X22860Y290830D01*
X27940Y290830D02*
X27940Y292100D01*
X27940Y267970D02*
X27940Y266700D01*
X22860Y266700D02*
X22860Y267970D01*
D12*
X41538Y285006D02*
X33456Y293088D01*
X40640Y284108D02*
X42436Y285904D01*
X34354Y293986D02*
X32558Y292190D01*
X37946Y297578D02*
X46028Y289496D01*
X50518Y293986D02*
X37946Y297578D01*
X42436Y302068D02*
X50518Y293986D01*
X50339Y301889D02*
X50182Y302050D01*
X50028Y302214D01*
X49879Y302382D01*
X49734Y302554D01*
X49593Y302729D01*
X49456Y302908D01*
X49324Y303089D01*
X49196Y303274D01*
X49072Y303462D01*
X48953Y303653D01*
X48838Y303846D01*
X48728Y304042D01*
X48623Y304241D01*
X48522Y304442D01*
X48427Y304646D01*
X48336Y304851D01*
X48250Y305059D01*
X48170Y305269D01*
X48094Y305481D01*
X48055Y305567D01*
X48018Y305653D01*
X47986Y305742D01*
X47957Y305831D01*
X47931Y305921D01*
X47909Y306013D01*
X47891Y306105D01*
X47876Y306198D01*
X47866Y306291D01*
X47859Y306385D01*
X47855Y306479D01*
X47856Y306573D01*
X47860Y306667D01*
X47868Y306760D01*
X47880Y306854D01*
X47895Y306946D01*
X47914Y307038D01*
X47937Y307130D01*
X47964Y307220D01*
X47994Y307309D01*
X48027Y307397D01*
X48064Y307483D01*
X48105Y307568D01*
X48149Y307651D01*
X48196Y307732D01*
X48246Y307812D01*
X48300Y307889D01*
X48356Y307964D01*
X48416Y308037D01*
X48478Y308107D01*
X48543Y308175D01*
X48611Y308240D01*
X48681Y308302D01*
X48754Y308362D01*
X48829Y308418D01*
X48906Y308472D01*
X48986Y308522D01*
X49067Y308569D01*
X49150Y308613D01*
X49235Y308654D01*
X49321Y308691D01*
X49409Y308724D01*
X49498Y308754D01*
X49588Y308781D01*
X49680Y308804D01*
X49772Y308823D01*
X49864Y308838D01*
X49958Y308850D01*
X50051Y308858D01*
X50145Y308862D01*
X50239Y308863D01*
X50333Y308859D01*
X50427Y308852D01*
X50520Y308842D01*
X50613Y308827D01*
X50705Y308809D01*
X50797Y308787D01*
X50887Y308761D01*
X50976Y308732D01*
X51065Y308700D01*
X51151Y308664D01*
X51237Y308624D01*
X51236Y308624D02*
X51448Y308548D01*
X51658Y308468D01*
X51866Y308382D01*
X52071Y308291D01*
X52275Y308196D01*
X52476Y308095D01*
X52675Y307990D01*
X52871Y307880D01*
X53064Y307765D01*
X53255Y307646D01*
X53443Y307522D01*
X53628Y307394D01*
X53809Y307262D01*
X53988Y307125D01*
X54163Y306984D01*
X54335Y306839D01*
X54503Y306690D01*
X54667Y306536D01*
X54828Y306379D01*
X50339Y301889D02*
X50500Y301732D01*
X50664Y301578D01*
X50832Y301429D01*
X51004Y301284D01*
X51179Y301143D01*
X51358Y301006D01*
X51539Y300874D01*
X51724Y300746D01*
X51912Y300622D01*
X52103Y300503D01*
X52296Y300388D01*
X52492Y300278D01*
X52691Y300173D01*
X52892Y300072D01*
X53096Y299977D01*
X53301Y299886D01*
X53509Y299800D01*
X53719Y299720D01*
X53931Y299644D01*
X53930Y299643D02*
X54015Y299604D01*
X54102Y299567D01*
X54190Y299535D01*
X54280Y299506D01*
X54370Y299480D01*
X54462Y299458D01*
X54554Y299440D01*
X54647Y299425D01*
X54740Y299415D01*
X54834Y299408D01*
X54928Y299404D01*
X55022Y299405D01*
X55116Y299409D01*
X55210Y299417D01*
X55303Y299429D01*
X55396Y299444D01*
X55488Y299463D01*
X55579Y299486D01*
X55669Y299513D01*
X55758Y299543D01*
X55846Y299576D01*
X55933Y299613D01*
X56017Y299654D01*
X56101Y299698D01*
X56182Y299745D01*
X56261Y299795D01*
X56339Y299849D01*
X56414Y299905D01*
X56487Y299965D01*
X56557Y300027D01*
X56625Y300092D01*
X57074Y302787D02*
X56998Y302999D01*
X56917Y303209D01*
X56832Y303417D01*
X56741Y303622D01*
X56645Y303826D01*
X56545Y304027D01*
X56440Y304226D01*
X56330Y304422D01*
X56215Y304615D01*
X56096Y304806D01*
X55972Y304994D01*
X55844Y305179D01*
X55711Y305360D01*
X55575Y305539D01*
X55434Y305714D01*
X55288Y305886D01*
X55139Y306054D01*
X54986Y306219D01*
X54829Y306379D01*
X57074Y302787D02*
X57113Y302702D01*
X57150Y302615D01*
X57182Y302527D01*
X57211Y302437D01*
X57237Y302347D01*
X57259Y302255D01*
X57277Y302163D01*
X57292Y302070D01*
X57302Y301977D01*
X57309Y301883D01*
X57313Y301789D01*
X57312Y301695D01*
X57308Y301601D01*
X57300Y301507D01*
X57288Y301414D01*
X57273Y301321D01*
X57254Y301229D01*
X57231Y301138D01*
X57204Y301048D01*
X57174Y300959D01*
X57141Y300871D01*
X57104Y300785D01*
X57063Y300700D01*
X57019Y300616D01*
X56972Y300535D01*
X56922Y300456D01*
X56868Y300378D01*
X56812Y300303D01*
X56752Y300230D01*
X56690Y300160D01*
X56625Y300092D01*
X53033Y300093D02*
X52135Y308175D01*
D11*
X27940Y190500D02*
X22860Y190500D01*
X22860Y215900D02*
X27940Y215900D01*
X22860Y215900D02*
X22860Y214630D01*
X27940Y214630D02*
X27940Y215900D01*
X27940Y191770D02*
X27940Y190500D01*
X22860Y190500D02*
X22860Y191770D01*
D12*
X42808Y207536D02*
X34726Y215618D01*
X41910Y206638D02*
X43706Y208434D01*
X35624Y216516D02*
X33828Y214720D01*
X39216Y220108D02*
X47298Y212026D01*
X51788Y216516D02*
X39216Y220108D01*
X43706Y224598D02*
X51788Y216516D01*
X49364Y226664D02*
X49813Y230705D01*
X57895Y222623D01*
X55650Y220378D02*
X60140Y224868D01*
D11*
X27940Y114300D02*
X22860Y114300D01*
X22860Y139700D02*
X27940Y139700D01*
X22860Y139700D02*
X22860Y138430D01*
X27940Y138430D02*
X27940Y139700D01*
X27940Y115570D02*
X27940Y114300D01*
X22860Y114300D02*
X22860Y115570D01*
D12*
X41410Y130938D02*
X33328Y139020D01*
X40512Y130040D02*
X42308Y131836D01*
X34226Y139918D02*
X32430Y138122D01*
X37818Y143510D02*
X45900Y135428D01*
X50391Y139918D02*
X37818Y143510D01*
X42308Y148000D02*
X50391Y139918D01*
X48639Y154331D02*
X48716Y154405D01*
X48796Y154476D01*
X48878Y154545D01*
X48963Y154610D01*
X49050Y154671D01*
X49139Y154730D01*
X49231Y154785D01*
X49325Y154837D01*
X49420Y154885D01*
X49517Y154930D01*
X49616Y154970D01*
X49716Y155008D01*
X49818Y155041D01*
X49920Y155071D01*
X50024Y155096D01*
X50129Y155118D01*
X50234Y155136D01*
X50340Y155150D01*
X50446Y155160D01*
X50553Y155166D01*
X50660Y155168D01*
X50767Y155166D01*
X50874Y155160D01*
X50980Y155150D01*
X51086Y155136D01*
X51191Y155118D01*
X51296Y155096D01*
X51400Y155071D01*
X51502Y155041D01*
X51604Y155008D01*
X51704Y154970D01*
X51803Y154930D01*
X51900Y154885D01*
X51995Y154837D01*
X52089Y154785D01*
X52181Y154730D01*
X52270Y154671D01*
X52357Y154610D01*
X52442Y154545D01*
X52524Y154476D01*
X52604Y154405D01*
X52681Y154331D01*
X48639Y154331D02*
X48557Y154246D01*
X48477Y154158D01*
X48401Y154068D01*
X48327Y153975D01*
X48256Y153880D01*
X48189Y153783D01*
X48124Y153684D01*
X48063Y153583D01*
X48005Y153479D01*
X47950Y153374D01*
X47899Y153268D01*
X47852Y153159D01*
X47807Y153049D01*
X47767Y152938D01*
X47730Y152826D01*
X47696Y152712D01*
X47667Y152598D01*
X47641Y152482D01*
X47619Y152366D01*
X47600Y152249D01*
X47585Y152132D01*
X47575Y152014D01*
X47568Y151895D01*
X47564Y151777D01*
X47565Y151659D01*
X47569Y151540D01*
X47577Y151422D01*
X47589Y151305D01*
X47605Y151187D01*
X47625Y151071D01*
X47648Y150954D01*
X47675Y150839D01*
X47706Y150725D01*
X47740Y150612D01*
X47778Y150500D01*
X47820Y150389D01*
X47865Y150279D01*
X47914Y150171D01*
X47966Y150065D01*
X53578Y152086D02*
X53579Y152194D01*
X53576Y152302D01*
X53569Y152410D01*
X53558Y152518D01*
X53544Y152625D01*
X53526Y152731D01*
X53504Y152837D01*
X53478Y152942D01*
X53449Y153046D01*
X53416Y153149D01*
X53379Y153250D01*
X53339Y153351D01*
X53295Y153450D01*
X53248Y153547D01*
X53198Y153642D01*
X53144Y153736D01*
X53087Y153828D01*
X53027Y153917D01*
X52963Y154005D01*
X52897Y154090D01*
X52827Y154173D01*
X52755Y154253D01*
X52680Y154331D01*
X53579Y152086D02*
X54252Y143779D01*
X58742Y148269D01*
D11*
X27940Y38100D02*
X22860Y38100D01*
X22860Y63500D02*
X27940Y63500D01*
X22860Y63500D02*
X22860Y62230D01*
X27940Y62230D02*
X27940Y63500D01*
X27940Y39370D02*
X27940Y38100D01*
X22860Y38100D02*
X22860Y39370D01*
D12*
X41952Y55466D02*
X33870Y63548D01*
X41054Y54568D02*
X42850Y56364D01*
X34768Y64446D02*
X32972Y62650D01*
X38360Y68038D02*
X46442Y59956D01*
X50932Y64446D02*
X38360Y68038D01*
X42850Y72529D02*
X50932Y64446D01*
X54794Y68308D02*
X57039Y70553D01*
X57116Y70633D01*
X57190Y70715D01*
X57261Y70800D01*
X57330Y70887D01*
X57395Y70977D01*
X57457Y71069D01*
X57516Y71163D01*
X57571Y71259D01*
X57623Y71357D01*
X57672Y71456D01*
X57717Y71557D01*
X57758Y71660D01*
X57796Y71764D01*
X57830Y71870D01*
X57861Y71976D01*
X57888Y72084D01*
X57911Y72192D01*
X57930Y72301D01*
X57945Y72411D01*
X57957Y72521D01*
X57965Y72632D01*
X57969Y72743D01*
X57969Y72853D01*
X57965Y72964D01*
X57957Y73075D01*
X57945Y73185D01*
X57930Y73295D01*
X57911Y73404D01*
X57888Y73512D01*
X57861Y73620D01*
X57830Y73726D01*
X57796Y73832D01*
X57758Y73936D01*
X57717Y74039D01*
X57672Y74140D01*
X57623Y74239D01*
X57571Y74337D01*
X57516Y74433D01*
X57457Y74527D01*
X57395Y74619D01*
X57330Y74709D01*
X57261Y74796D01*
X57190Y74881D01*
X57116Y74963D01*
X57039Y75043D01*
X56959Y75120D01*
X56877Y75194D01*
X56792Y75265D01*
X56705Y75334D01*
X56615Y75399D01*
X56523Y75461D01*
X56429Y75520D01*
X56333Y75575D01*
X56235Y75627D01*
X56136Y75676D01*
X56035Y75721D01*
X55932Y75762D01*
X55828Y75800D01*
X55722Y75834D01*
X55616Y75865D01*
X55508Y75892D01*
X55400Y75915D01*
X55291Y75934D01*
X55181Y75949D01*
X55071Y75961D01*
X54960Y75969D01*
X54849Y75973D01*
X54739Y75973D01*
X54628Y75969D01*
X54517Y75961D01*
X54407Y75949D01*
X54297Y75934D01*
X54188Y75915D01*
X54080Y75892D01*
X53972Y75865D01*
X53866Y75834D01*
X53760Y75800D01*
X53656Y75762D01*
X53553Y75721D01*
X53452Y75676D01*
X53353Y75627D01*
X53255Y75575D01*
X53159Y75519D01*
X53065Y75461D01*
X52973Y75399D01*
X52883Y75334D01*
X52796Y75265D01*
X52711Y75194D01*
X52629Y75120D01*
X52549Y75043D01*
X49405Y79084D02*
X46711Y76390D01*
X49405Y79084D02*
X49477Y79153D01*
X49551Y79219D01*
X49629Y79283D01*
X49708Y79343D01*
X49790Y79400D01*
X49874Y79454D01*
X49960Y79504D01*
X50048Y79551D01*
X50138Y79595D01*
X50229Y79635D01*
X50322Y79671D01*
X50416Y79704D01*
X50512Y79733D01*
X50608Y79758D01*
X50705Y79779D01*
X50804Y79797D01*
X50902Y79810D01*
X51002Y79820D01*
X51101Y79826D01*
X51201Y79828D01*
X51301Y79826D01*
X51400Y79820D01*
X51500Y79810D01*
X51598Y79797D01*
X51697Y79779D01*
X51794Y79758D01*
X51890Y79733D01*
X51986Y79704D01*
X52080Y79671D01*
X52173Y79635D01*
X52264Y79595D01*
X52354Y79551D01*
X52442Y79504D01*
X52528Y79454D01*
X52612Y79400D01*
X52694Y79343D01*
X52773Y79283D01*
X52851Y79219D01*
X52925Y79153D01*
X52997Y79084D01*
X53066Y79012D01*
X53132Y78938D01*
X53196Y78860D01*
X53256Y78781D01*
X53313Y78699D01*
X53367Y78615D01*
X53417Y78529D01*
X53464Y78441D01*
X53508Y78351D01*
X53548Y78260D01*
X53584Y78167D01*
X53617Y78073D01*
X53646Y77977D01*
X53671Y77881D01*
X53692Y77784D01*
X53710Y77685D01*
X53723Y77587D01*
X53733Y77487D01*
X53739Y77388D01*
X53741Y77288D01*
X53739Y77188D01*
X53733Y77089D01*
X53723Y76989D01*
X53710Y76891D01*
X53692Y76792D01*
X53671Y76695D01*
X53646Y76599D01*
X53617Y76503D01*
X53584Y76409D01*
X53548Y76316D01*
X53508Y76225D01*
X53464Y76135D01*
X53417Y76047D01*
X53367Y75961D01*
X53313Y75877D01*
X53256Y75795D01*
X53196Y75716D01*
X53132Y75638D01*
X53066Y75564D01*
X52997Y75492D01*
X52998Y75492D02*
X51201Y73696D01*
D11*
X223520Y63500D02*
X228600Y63500D01*
X228600Y38100D02*
X223520Y38100D01*
X228600Y38100D02*
X228600Y39370D01*
X223520Y39370D02*
X223520Y38100D01*
X223520Y62230D02*
X223520Y63500D01*
X228600Y63500D02*
X228600Y62230D01*
D12*
X216474Y63484D02*
X208392Y55402D01*
X217372Y62586D02*
X215576Y64382D01*
X207494Y56300D02*
X209290Y54504D01*
X203902Y59892D02*
X211984Y67975D01*
X207494Y72465D02*
X203902Y59892D01*
X199412Y64382D02*
X207494Y72465D01*
X201836Y74530D02*
X193754Y70040D01*
X201836Y74530D02*
X197346Y79020D01*
X196897Y75877D02*
X200489Y79469D01*
D11*
X223520Y139700D02*
X228600Y139700D01*
X228600Y114300D02*
X223520Y114300D01*
X228600Y114300D02*
X228600Y115570D01*
X223520Y115570D02*
X223520Y114300D01*
X223520Y138430D02*
X223520Y139700D01*
X228600Y139700D02*
X228600Y138430D01*
D12*
X215746Y140226D02*
X207664Y132144D01*
X216644Y139328D02*
X214848Y141124D01*
X206766Y133042D02*
X208562Y131246D01*
X203173Y136634D02*
X211256Y144716D01*
X206766Y149206D02*
X203173Y136634D01*
X198683Y141124D02*
X206766Y149206D01*
X202904Y153068D02*
X200210Y155762D01*
X200138Y155831D01*
X200064Y155897D01*
X199986Y155961D01*
X199907Y156021D01*
X199825Y156078D01*
X199741Y156132D01*
X199655Y156182D01*
X199567Y156229D01*
X199477Y156273D01*
X199386Y156313D01*
X199293Y156349D01*
X199199Y156382D01*
X199103Y156411D01*
X199007Y156436D01*
X198910Y156457D01*
X198811Y156475D01*
X198713Y156488D01*
X198613Y156498D01*
X198514Y156504D01*
X198414Y156506D01*
X198314Y156504D01*
X198215Y156498D01*
X198115Y156488D01*
X198017Y156475D01*
X197918Y156457D01*
X197821Y156436D01*
X197725Y156411D01*
X197629Y156382D01*
X197535Y156349D01*
X197442Y156313D01*
X197351Y156273D01*
X197261Y156229D01*
X197173Y156182D01*
X197087Y156132D01*
X197003Y156078D01*
X196921Y156021D01*
X196842Y155961D01*
X196764Y155897D01*
X196690Y155831D01*
X196618Y155762D01*
X195720Y154864D01*
X195651Y154792D01*
X195585Y154718D01*
X195521Y154640D01*
X195461Y154561D01*
X195404Y154479D01*
X195350Y154395D01*
X195300Y154309D01*
X195253Y154221D01*
X195209Y154131D01*
X195169Y154040D01*
X195133Y153947D01*
X195100Y153853D01*
X195071Y153757D01*
X195046Y153661D01*
X195025Y153564D01*
X195007Y153465D01*
X194994Y153367D01*
X194984Y153267D01*
X194978Y153168D01*
X194976Y153068D01*
X194978Y152968D01*
X194984Y152869D01*
X194994Y152769D01*
X195007Y152671D01*
X195025Y152572D01*
X195046Y152475D01*
X195071Y152379D01*
X195100Y152283D01*
X195133Y152189D01*
X195169Y152096D01*
X195209Y152005D01*
X195253Y151915D01*
X195300Y151827D01*
X195350Y151741D01*
X195404Y151657D01*
X195461Y151575D01*
X195521Y151496D01*
X195585Y151418D01*
X195651Y151344D01*
X195720Y151272D01*
X198414Y148578D01*
X194822Y144985D01*
X190332Y149476D01*
D11*
X223520Y215900D02*
X228600Y215900D01*
X228600Y190500D02*
X223520Y190500D01*
X228600Y190500D02*
X228600Y191770D01*
X223520Y191770D02*
X223520Y190500D01*
X223520Y214630D02*
X223520Y215900D01*
X228600Y215900D02*
X228600Y214630D01*
D12*
X216287Y215698D02*
X208205Y207615D01*
X217185Y214800D02*
X215389Y216596D01*
X207307Y208513D02*
X209103Y206717D01*
X203715Y212105D02*
X211797Y220188D01*
X207307Y224678D02*
X203715Y212105D01*
X199225Y216596D02*
X207307Y224678D01*
X198955Y224049D02*
X196261Y226743D01*
X196192Y226815D01*
X196126Y226889D01*
X196062Y226967D01*
X196002Y227046D01*
X195945Y227128D01*
X195891Y227212D01*
X195841Y227298D01*
X195794Y227386D01*
X195750Y227476D01*
X195710Y227567D01*
X195674Y227660D01*
X195641Y227754D01*
X195612Y227850D01*
X195587Y227946D01*
X195566Y228043D01*
X195548Y228142D01*
X195535Y228240D01*
X195525Y228340D01*
X195519Y228439D01*
X195517Y228539D01*
X195519Y228639D01*
X195525Y228738D01*
X195535Y228838D01*
X195548Y228936D01*
X195566Y229035D01*
X195587Y229132D01*
X195612Y229228D01*
X195641Y229324D01*
X195674Y229418D01*
X195710Y229511D01*
X195750Y229602D01*
X195794Y229692D01*
X195841Y229780D01*
X195891Y229866D01*
X195945Y229950D01*
X196002Y230032D01*
X196062Y230111D01*
X196126Y230189D01*
X196192Y230263D01*
X196261Y230335D01*
X196710Y230784D01*
X196711Y230784D02*
X196791Y230861D01*
X196873Y230935D01*
X196958Y231006D01*
X197045Y231075D01*
X197135Y231140D01*
X197227Y231202D01*
X197321Y231260D01*
X197417Y231316D01*
X197515Y231368D01*
X197614Y231416D01*
X197715Y231462D01*
X197818Y231503D01*
X197922Y231541D01*
X198028Y231575D01*
X198134Y231606D01*
X198242Y231633D01*
X198350Y231656D01*
X198459Y231675D01*
X198569Y231690D01*
X198679Y231702D01*
X198790Y231710D01*
X198901Y231714D01*
X199011Y231714D01*
X199122Y231710D01*
X199233Y231702D01*
X199343Y231690D01*
X199453Y231675D01*
X199562Y231656D01*
X199670Y231633D01*
X199778Y231606D01*
X199884Y231575D01*
X199990Y231541D01*
X200094Y231503D01*
X200197Y231462D01*
X200298Y231417D01*
X200397Y231368D01*
X200495Y231316D01*
X200591Y231261D01*
X200685Y231202D01*
X200777Y231140D01*
X200867Y231075D01*
X200954Y231006D01*
X201039Y230935D01*
X201121Y230861D01*
X201201Y230784D01*
X201278Y230704D01*
X201352Y230622D01*
X201423Y230537D01*
X201492Y230450D01*
X201557Y230360D01*
X201619Y230268D01*
X201678Y230174D01*
X201733Y230078D01*
X201785Y229980D01*
X201834Y229881D01*
X201879Y229780D01*
X201920Y229677D01*
X201958Y229573D01*
X201992Y229467D01*
X202023Y229361D01*
X202050Y229253D01*
X202073Y229145D01*
X202092Y229036D01*
X202107Y228926D01*
X202119Y228816D01*
X202127Y228705D01*
X202131Y228594D01*
X202131Y228484D01*
X202127Y228373D01*
X202119Y228262D01*
X202107Y228152D01*
X202092Y228042D01*
X202073Y227933D01*
X202050Y227825D01*
X202023Y227717D01*
X201992Y227611D01*
X201958Y227505D01*
X201920Y227401D01*
X201879Y227298D01*
X201833Y227197D01*
X201785Y227097D01*
X201733Y227000D01*
X201677Y226904D01*
X201619Y226810D01*
X201557Y226718D01*
X201492Y226628D01*
X201423Y226541D01*
X201352Y226456D01*
X201278Y226374D01*
X201201Y226294D01*
X198955Y224049D01*
X198855Y223951D01*
X198752Y223856D01*
X198646Y223765D01*
X198538Y223676D01*
X198428Y223590D01*
X198315Y223507D01*
X198200Y223427D01*
X198083Y223350D01*
X197963Y223277D01*
X197842Y223207D01*
X197719Y223140D01*
X197594Y223077D01*
X197468Y223017D01*
X197339Y222961D01*
X197210Y222909D01*
X197079Y222859D01*
X196946Y222814D01*
X196813Y222772D01*
X196678Y222734D01*
X196542Y222700D01*
X196405Y222669D01*
X196268Y222642D01*
X196130Y222619D01*
X195991Y222600D01*
X195852Y222585D01*
X195713Y222573D01*
X195573Y222565D01*
X195433Y222561D01*
X195293Y222561D01*
X195153Y222565D01*
X195013Y222573D01*
X194874Y222585D01*
X194735Y222600D01*
X194596Y222619D01*
X194458Y222642D01*
X194321Y222669D01*
X194184Y222700D01*
X194048Y222734D01*
X193913Y222772D01*
X193780Y222814D01*
X193647Y222859D01*
X193516Y222909D01*
X193387Y222961D01*
X193258Y223017D01*
X193132Y223077D01*
X193007Y223140D01*
X192884Y223207D01*
X192763Y223277D01*
X192643Y223350D01*
X192526Y223427D01*
X192411Y223507D01*
X192298Y223590D01*
X192188Y223676D01*
X192080Y223765D01*
X191974Y223856D01*
X191871Y223951D01*
X191771Y224049D01*
D11*
X223520Y292100D02*
X228600Y292100D01*
X228600Y266700D02*
X223520Y266700D01*
X228600Y266700D02*
X228600Y267970D01*
X223520Y267970D02*
X223520Y266700D01*
X223520Y290830D02*
X223520Y292100D01*
X228600Y292100D02*
X228600Y290830D01*
D12*
X216829Y292439D02*
X208747Y284357D01*
X217727Y291541D02*
X215931Y293337D01*
X207849Y285255D02*
X209645Y283459D01*
X204257Y288847D02*
X212339Y296929D01*
X207849Y301419D02*
X204257Y288847D01*
X199766Y293337D02*
X207849Y301419D01*
X196803Y298097D02*
X195905Y297199D01*
X191415Y301689D01*
X201742Y307526D01*
D11*
X27940Y292100D02*
X22860Y292100D01*
X22860Y317500D02*
X27940Y317500D01*
X22860Y317500D02*
X22860Y316230D01*
X27940Y316230D02*
X27940Y317500D01*
X27940Y293370D02*
X27940Y292100D01*
X22860Y292100D02*
X22860Y293370D01*
D12*
X40225Y310735D02*
X32142Y318817D01*
X39327Y309837D02*
X41123Y311633D01*
X33040Y319715D02*
X31244Y317919D01*
X36633Y323307D02*
X44715Y315225D01*
X49205Y319715D02*
X36633Y323307D01*
X41123Y327797D02*
X49205Y319715D01*
X49026Y327618D02*
X48869Y327779D01*
X48715Y327943D01*
X48566Y328111D01*
X48421Y328283D01*
X48280Y328458D01*
X48143Y328637D01*
X48011Y328818D01*
X47883Y329003D01*
X47759Y329191D01*
X47640Y329382D01*
X47525Y329575D01*
X47415Y329771D01*
X47310Y329970D01*
X47209Y330171D01*
X47114Y330375D01*
X47023Y330580D01*
X46937Y330788D01*
X46857Y330998D01*
X46781Y331210D01*
X46780Y331209D02*
X46741Y331295D01*
X46704Y331381D01*
X46672Y331470D01*
X46643Y331559D01*
X46617Y331649D01*
X46595Y331741D01*
X46577Y331833D01*
X46562Y331926D01*
X46552Y332019D01*
X46545Y332113D01*
X46541Y332207D01*
X46542Y332301D01*
X46546Y332395D01*
X46554Y332488D01*
X46566Y332582D01*
X46581Y332674D01*
X46600Y332766D01*
X46623Y332858D01*
X46650Y332948D01*
X46680Y333037D01*
X46713Y333125D01*
X46750Y333211D01*
X46791Y333296D01*
X46835Y333379D01*
X46882Y333460D01*
X46932Y333540D01*
X46986Y333617D01*
X47042Y333692D01*
X47102Y333765D01*
X47164Y333835D01*
X47229Y333903D01*
X47230Y333903D02*
X47298Y333968D01*
X47368Y334030D01*
X47441Y334090D01*
X47516Y334146D01*
X47593Y334200D01*
X47673Y334250D01*
X47754Y334297D01*
X47837Y334341D01*
X47922Y334382D01*
X48008Y334419D01*
X48096Y334452D01*
X48185Y334482D01*
X48275Y334509D01*
X48367Y334532D01*
X48459Y334551D01*
X48551Y334566D01*
X48645Y334578D01*
X48738Y334586D01*
X48832Y334590D01*
X48926Y334591D01*
X49020Y334587D01*
X49114Y334580D01*
X49207Y334570D01*
X49300Y334555D01*
X49392Y334537D01*
X49484Y334515D01*
X49574Y334489D01*
X49663Y334460D01*
X49752Y334428D01*
X49838Y334392D01*
X49924Y334352D01*
X49923Y334352D02*
X50135Y334276D01*
X50345Y334196D01*
X50553Y334110D01*
X50758Y334019D01*
X50962Y333924D01*
X51163Y333823D01*
X51362Y333718D01*
X51558Y333608D01*
X51751Y333493D01*
X51942Y333374D01*
X52130Y333250D01*
X52315Y333122D01*
X52496Y332990D01*
X52675Y332853D01*
X52850Y332712D01*
X53022Y332567D01*
X53190Y332418D01*
X53354Y332264D01*
X53515Y332107D01*
X49026Y327618D02*
X49187Y327461D01*
X49351Y327307D01*
X49519Y327158D01*
X49691Y327013D01*
X49866Y326872D01*
X50045Y326735D01*
X50226Y326603D01*
X50411Y326475D01*
X50599Y326351D01*
X50790Y326232D01*
X50983Y326117D01*
X51179Y326007D01*
X51378Y325902D01*
X51579Y325801D01*
X51783Y325706D01*
X51988Y325615D01*
X52196Y325529D01*
X52406Y325449D01*
X52618Y325373D01*
X52617Y325372D02*
X52702Y325333D01*
X52789Y325296D01*
X52877Y325264D01*
X52967Y325235D01*
X53057Y325209D01*
X53149Y325187D01*
X53241Y325169D01*
X53334Y325154D01*
X53427Y325144D01*
X53521Y325137D01*
X53615Y325133D01*
X53709Y325134D01*
X53803Y325138D01*
X53897Y325146D01*
X53990Y325158D01*
X54083Y325173D01*
X54175Y325192D01*
X54266Y325215D01*
X54356Y325242D01*
X54445Y325272D01*
X54533Y325305D01*
X54620Y325342D01*
X54704Y325383D01*
X54788Y325427D01*
X54869Y325474D01*
X54948Y325524D01*
X55026Y325578D01*
X55101Y325634D01*
X55174Y325694D01*
X55244Y325756D01*
X55312Y325821D01*
X55761Y328515D02*
X55685Y328727D01*
X55604Y328937D01*
X55519Y329145D01*
X55428Y329350D01*
X55332Y329554D01*
X55232Y329755D01*
X55127Y329954D01*
X55017Y330150D01*
X54902Y330343D01*
X54783Y330534D01*
X54659Y330722D01*
X54531Y330907D01*
X54398Y331088D01*
X54262Y331267D01*
X54121Y331442D01*
X53975Y331614D01*
X53826Y331782D01*
X53673Y331947D01*
X53516Y332107D01*
X55761Y328516D02*
X55800Y328431D01*
X55837Y328344D01*
X55869Y328256D01*
X55898Y328166D01*
X55924Y328076D01*
X55946Y327984D01*
X55964Y327892D01*
X55979Y327799D01*
X55989Y327706D01*
X55996Y327612D01*
X56000Y327518D01*
X55999Y327424D01*
X55995Y327330D01*
X55987Y327236D01*
X55975Y327143D01*
X55960Y327050D01*
X55941Y326958D01*
X55918Y326867D01*
X55891Y326777D01*
X55861Y326688D01*
X55828Y326600D01*
X55791Y326514D01*
X55750Y326429D01*
X55706Y326345D01*
X55659Y326264D01*
X55609Y326185D01*
X55555Y326107D01*
X55499Y326032D01*
X55439Y325959D01*
X55377Y325889D01*
X55312Y325821D01*
X51719Y325821D02*
X50821Y333904D01*
X58095Y334891D02*
X63483Y340280D01*
X58095Y340280D02*
X63483Y334891D01*
D11*
X27940Y215900D02*
X22860Y215900D01*
X22860Y241300D02*
X27940Y241300D01*
X22860Y241300D02*
X22860Y240030D01*
X27940Y240030D02*
X27940Y241300D01*
X27940Y217170D02*
X27940Y215900D01*
X22860Y215900D02*
X22860Y217170D01*
D12*
X43334Y232936D02*
X35252Y241018D01*
X42436Y232038D02*
X44232Y233834D01*
X36150Y241916D02*
X34354Y240120D01*
X39742Y245508D02*
X47824Y237426D01*
X52314Y241916D02*
X39742Y245508D01*
X44232Y249998D02*
X52314Y241916D01*
X49890Y252064D02*
X50339Y256105D01*
X58421Y248023D01*
X56176Y245778D02*
X60666Y250268D01*
X61205Y257093D02*
X66593Y262481D01*
X66593Y257093D02*
X61205Y262481D01*
D11*
X27940Y139700D02*
X22860Y139700D01*
X22860Y165100D02*
X27940Y165100D01*
X22860Y165100D02*
X22860Y163830D01*
X27940Y163830D02*
X27940Y165100D01*
X27940Y140970D02*
X27940Y139700D01*
X22860Y139700D02*
X22860Y140970D01*
D12*
X42500Y156518D02*
X34418Y164600D01*
X41602Y155620D02*
X43398Y157416D01*
X35316Y165498D02*
X33520Y163702D01*
X38908Y169090D02*
X46990Y161008D01*
X51480Y165498D02*
X38908Y169090D01*
X43398Y173581D02*
X51480Y165498D01*
X49728Y179912D02*
X49805Y179986D01*
X49885Y180057D01*
X49967Y180126D01*
X50052Y180191D01*
X50139Y180252D01*
X50228Y180311D01*
X50320Y180366D01*
X50414Y180418D01*
X50509Y180466D01*
X50606Y180511D01*
X50705Y180551D01*
X50805Y180589D01*
X50907Y180622D01*
X51009Y180652D01*
X51113Y180677D01*
X51218Y180699D01*
X51323Y180717D01*
X51429Y180731D01*
X51535Y180741D01*
X51642Y180747D01*
X51749Y180749D01*
X51856Y180747D01*
X51963Y180741D01*
X52069Y180731D01*
X52175Y180717D01*
X52280Y180699D01*
X52385Y180677D01*
X52489Y180652D01*
X52591Y180622D01*
X52693Y180589D01*
X52793Y180551D01*
X52892Y180511D01*
X52989Y180466D01*
X53084Y180418D01*
X53178Y180366D01*
X53270Y180311D01*
X53359Y180252D01*
X53446Y180191D01*
X53531Y180126D01*
X53613Y180057D01*
X53693Y179986D01*
X53770Y179912D01*
X49729Y179912D02*
X49647Y179827D01*
X49567Y179739D01*
X49491Y179649D01*
X49417Y179556D01*
X49346Y179461D01*
X49279Y179364D01*
X49214Y179265D01*
X49153Y179164D01*
X49095Y179060D01*
X49040Y178955D01*
X48989Y178849D01*
X48942Y178740D01*
X48897Y178630D01*
X48857Y178519D01*
X48820Y178407D01*
X48786Y178293D01*
X48757Y178179D01*
X48731Y178063D01*
X48709Y177947D01*
X48690Y177830D01*
X48675Y177713D01*
X48665Y177595D01*
X48658Y177476D01*
X48654Y177358D01*
X48655Y177240D01*
X48659Y177121D01*
X48667Y177003D01*
X48679Y176886D01*
X48695Y176768D01*
X48715Y176652D01*
X48738Y176535D01*
X48765Y176420D01*
X48796Y176306D01*
X48830Y176193D01*
X48868Y176081D01*
X48910Y175970D01*
X48955Y175860D01*
X49004Y175752D01*
X49056Y175646D01*
X54668Y177666D02*
X54669Y177774D01*
X54666Y177882D01*
X54659Y177990D01*
X54648Y178098D01*
X54634Y178205D01*
X54616Y178311D01*
X54594Y178417D01*
X54568Y178522D01*
X54539Y178626D01*
X54506Y178729D01*
X54469Y178830D01*
X54429Y178931D01*
X54385Y179030D01*
X54338Y179127D01*
X54288Y179222D01*
X54234Y179316D01*
X54177Y179408D01*
X54117Y179497D01*
X54053Y179585D01*
X53987Y179670D01*
X53917Y179753D01*
X53845Y179833D01*
X53770Y179911D01*
X54668Y177667D02*
X55342Y169360D01*
X59832Y173850D01*
X60370Y180675D02*
X65759Y186063D01*
X65759Y180675D02*
X60370Y186063D01*
D11*
X27940Y63500D02*
X22860Y63500D01*
X22860Y88900D02*
X27940Y88900D01*
X22860Y88900D02*
X22860Y87630D01*
X27940Y87630D02*
X27940Y88900D01*
X27940Y64770D02*
X27940Y63500D01*
X22860Y63500D02*
X22860Y64770D01*
D12*
X43041Y79777D02*
X34959Y87859D01*
X42143Y78879D02*
X43939Y80675D01*
X35857Y88757D02*
X34061Y86961D01*
X39449Y92349D02*
X47531Y84267D01*
X52022Y88757D02*
X39449Y92349D01*
X43939Y96839D02*
X52022Y88757D01*
X55883Y92618D02*
X58128Y94863D01*
X58205Y94943D01*
X58279Y95025D01*
X58350Y95110D01*
X58419Y95197D01*
X58484Y95287D01*
X58546Y95379D01*
X58605Y95473D01*
X58660Y95569D01*
X58712Y95667D01*
X58761Y95766D01*
X58806Y95867D01*
X58847Y95970D01*
X58885Y96074D01*
X58919Y96180D01*
X58950Y96286D01*
X58977Y96394D01*
X59000Y96502D01*
X59019Y96611D01*
X59034Y96721D01*
X59046Y96831D01*
X59054Y96942D01*
X59058Y97053D01*
X59058Y97163D01*
X59054Y97274D01*
X59046Y97385D01*
X59034Y97495D01*
X59019Y97605D01*
X59000Y97714D01*
X58977Y97822D01*
X58950Y97930D01*
X58919Y98036D01*
X58885Y98142D01*
X58847Y98246D01*
X58806Y98349D01*
X58761Y98450D01*
X58712Y98549D01*
X58660Y98647D01*
X58605Y98743D01*
X58546Y98837D01*
X58484Y98929D01*
X58419Y99019D01*
X58350Y99106D01*
X58279Y99191D01*
X58205Y99273D01*
X58128Y99353D01*
X58048Y99430D01*
X57966Y99504D01*
X57881Y99575D01*
X57794Y99644D01*
X57704Y99709D01*
X57612Y99771D01*
X57518Y99830D01*
X57422Y99885D01*
X57324Y99937D01*
X57225Y99986D01*
X57124Y100031D01*
X57021Y100072D01*
X56917Y100110D01*
X56811Y100144D01*
X56705Y100175D01*
X56597Y100202D01*
X56489Y100225D01*
X56380Y100244D01*
X56270Y100259D01*
X56160Y100271D01*
X56049Y100279D01*
X55938Y100283D01*
X55828Y100283D01*
X55717Y100279D01*
X55606Y100271D01*
X55496Y100259D01*
X55386Y100244D01*
X55277Y100225D01*
X55169Y100202D01*
X55061Y100175D01*
X54955Y100144D01*
X54849Y100110D01*
X54745Y100072D01*
X54642Y100031D01*
X54541Y99986D01*
X54442Y99937D01*
X54344Y99885D01*
X54248Y99829D01*
X54154Y99771D01*
X54062Y99709D01*
X53972Y99644D01*
X53885Y99575D01*
X53800Y99504D01*
X53718Y99430D01*
X53638Y99353D01*
X50495Y103395D02*
X47801Y100701D01*
X50495Y103395D02*
X50567Y103464D01*
X50641Y103530D01*
X50719Y103594D01*
X50798Y103654D01*
X50880Y103711D01*
X50964Y103765D01*
X51050Y103815D01*
X51138Y103862D01*
X51228Y103906D01*
X51319Y103946D01*
X51412Y103982D01*
X51506Y104015D01*
X51602Y104044D01*
X51698Y104069D01*
X51795Y104090D01*
X51894Y104108D01*
X51992Y104121D01*
X52092Y104131D01*
X52191Y104137D01*
X52291Y104139D01*
X52391Y104137D01*
X52490Y104131D01*
X52590Y104121D01*
X52688Y104108D01*
X52787Y104090D01*
X52884Y104069D01*
X52980Y104044D01*
X53076Y104015D01*
X53170Y103982D01*
X53263Y103946D01*
X53354Y103906D01*
X53444Y103862D01*
X53532Y103815D01*
X53618Y103765D01*
X53702Y103711D01*
X53784Y103654D01*
X53863Y103594D01*
X53941Y103530D01*
X54015Y103464D01*
X54087Y103395D01*
X54156Y103323D01*
X54222Y103249D01*
X54286Y103171D01*
X54346Y103092D01*
X54403Y103010D01*
X54457Y102926D01*
X54507Y102840D01*
X54554Y102752D01*
X54598Y102662D01*
X54638Y102571D01*
X54674Y102478D01*
X54707Y102384D01*
X54736Y102288D01*
X54761Y102192D01*
X54782Y102095D01*
X54800Y101996D01*
X54813Y101898D01*
X54823Y101798D01*
X54829Y101699D01*
X54831Y101599D01*
X54829Y101499D01*
X54823Y101400D01*
X54813Y101300D01*
X54800Y101202D01*
X54782Y101103D01*
X54761Y101006D01*
X54736Y100910D01*
X54707Y100814D01*
X54674Y100720D01*
X54638Y100627D01*
X54598Y100536D01*
X54554Y100446D01*
X54507Y100358D01*
X54457Y100272D01*
X54403Y100188D01*
X54346Y100106D01*
X54286Y100027D01*
X54222Y99949D01*
X54156Y99875D01*
X54087Y99803D01*
X54087Y99802D02*
X52291Y98006D01*
X60912Y103933D02*
X66300Y109322D01*
X60912Y109322D02*
X66300Y103933D01*
D11*
X223520Y88900D02*
X228600Y88900D01*
X228600Y63500D02*
X223520Y63500D01*
X228600Y63500D02*
X228600Y64770D01*
X223520Y64770D02*
X223520Y63500D01*
X223520Y87630D02*
X223520Y88900D01*
X228600Y88900D02*
X228600Y87630D01*
D12*
X215385Y87795D02*
X207303Y79713D01*
X216283Y86897D02*
X214487Y88693D01*
X206405Y80611D02*
X208201Y78815D01*
X202812Y84203D02*
X210895Y92285D01*
X206405Y96775D02*
X202812Y84203D01*
X198322Y88693D02*
X206405Y96775D01*
X200747Y98841D02*
X192665Y94350D01*
X200747Y98841D02*
X196257Y103331D01*
X195808Y100188D02*
X199400Y103780D01*
X191228Y105666D02*
X185840Y111054D01*
X191228Y111054D02*
X185840Y105666D01*
D11*
X223520Y165100D02*
X228600Y165100D01*
X228600Y139700D02*
X223520Y139700D01*
X228600Y139700D02*
X228600Y140970D01*
X223520Y140970D02*
X223520Y139700D01*
X223520Y163830D02*
X223520Y165100D01*
X228600Y165100D02*
X228600Y163830D01*
D12*
X215926Y164537D02*
X207844Y156454D01*
X216824Y163639D02*
X215028Y165435D01*
X206946Y157352D02*
X208742Y155556D01*
X203354Y160944D02*
X211436Y169027D01*
X206946Y173517D02*
X203354Y160944D01*
X198864Y165435D02*
X206946Y173517D01*
X203085Y177378D02*
X200390Y180072D01*
X200318Y180141D01*
X200244Y180207D01*
X200166Y180271D01*
X200087Y180331D01*
X200005Y180388D01*
X199921Y180442D01*
X199835Y180492D01*
X199747Y180539D01*
X199657Y180583D01*
X199566Y180623D01*
X199473Y180659D01*
X199379Y180692D01*
X199283Y180721D01*
X199187Y180746D01*
X199090Y180767D01*
X198991Y180785D01*
X198893Y180798D01*
X198793Y180808D01*
X198694Y180814D01*
X198594Y180816D01*
X198494Y180814D01*
X198395Y180808D01*
X198295Y180798D01*
X198197Y180785D01*
X198098Y180767D01*
X198001Y180746D01*
X197905Y180721D01*
X197809Y180692D01*
X197715Y180659D01*
X197622Y180623D01*
X197531Y180583D01*
X197441Y180539D01*
X197353Y180492D01*
X197267Y180442D01*
X197183Y180388D01*
X197101Y180331D01*
X197022Y180271D01*
X196944Y180207D01*
X196870Y180141D01*
X196798Y180072D01*
X195900Y179174D01*
X195831Y179102D01*
X195765Y179028D01*
X195701Y178950D01*
X195641Y178871D01*
X195584Y178789D01*
X195530Y178705D01*
X195480Y178619D01*
X195433Y178531D01*
X195389Y178441D01*
X195349Y178350D01*
X195313Y178257D01*
X195280Y178163D01*
X195251Y178067D01*
X195226Y177971D01*
X195205Y177874D01*
X195187Y177775D01*
X195174Y177677D01*
X195164Y177577D01*
X195158Y177478D01*
X195156Y177378D01*
X195158Y177278D01*
X195164Y177179D01*
X195174Y177079D01*
X195187Y176981D01*
X195205Y176882D01*
X195226Y176785D01*
X195251Y176689D01*
X195280Y176593D01*
X195313Y176499D01*
X195349Y176406D01*
X195389Y176315D01*
X195433Y176225D01*
X195480Y176137D01*
X195530Y176051D01*
X195584Y175967D01*
X195641Y175885D01*
X195701Y175806D01*
X195765Y175728D01*
X195831Y175654D01*
X195900Y175582D01*
X198594Y172888D01*
X195002Y169296D01*
X190512Y173786D01*
X191769Y182407D02*
X186381Y187795D01*
X191769Y187795D02*
X186381Y182407D01*
D11*
X223520Y241300D02*
X228600Y241300D01*
X228600Y215900D02*
X223520Y215900D01*
X228600Y215900D02*
X228600Y217170D01*
X223520Y217170D02*
X223520Y215900D01*
X223520Y240030D02*
X223520Y241300D01*
X228600Y241300D02*
X228600Y240030D01*
D12*
X216468Y240008D02*
X208386Y231926D01*
X217366Y239110D02*
X215570Y240906D01*
X207488Y232824D02*
X209284Y231028D01*
X203896Y236416D02*
X211978Y244498D01*
X207488Y248988D02*
X203896Y236416D01*
X199405Y240906D02*
X207488Y248988D01*
X199136Y248360D02*
X196442Y251054D01*
X196373Y251126D01*
X196307Y251200D01*
X196243Y251278D01*
X196183Y251357D01*
X196126Y251439D01*
X196072Y251523D01*
X196022Y251609D01*
X195975Y251697D01*
X195931Y251787D01*
X195891Y251878D01*
X195855Y251971D01*
X195822Y252065D01*
X195793Y252161D01*
X195768Y252257D01*
X195747Y252354D01*
X195729Y252453D01*
X195716Y252551D01*
X195706Y252651D01*
X195700Y252750D01*
X195698Y252850D01*
X195700Y252950D01*
X195706Y253049D01*
X195716Y253149D01*
X195729Y253247D01*
X195747Y253346D01*
X195768Y253443D01*
X195793Y253539D01*
X195822Y253635D01*
X195855Y253729D01*
X195891Y253822D01*
X195931Y253913D01*
X195975Y254003D01*
X196022Y254091D01*
X196072Y254177D01*
X196126Y254261D01*
X196183Y254343D01*
X196243Y254422D01*
X196307Y254500D01*
X196373Y254574D01*
X196442Y254646D01*
X196891Y255095D01*
X196971Y255172D01*
X197053Y255246D01*
X197138Y255317D01*
X197225Y255386D01*
X197315Y255451D01*
X197407Y255513D01*
X197501Y255571D01*
X197597Y255627D01*
X197695Y255679D01*
X197794Y255727D01*
X197895Y255773D01*
X197998Y255814D01*
X198102Y255852D01*
X198208Y255886D01*
X198314Y255917D01*
X198422Y255944D01*
X198530Y255967D01*
X198639Y255986D01*
X198749Y256001D01*
X198859Y256013D01*
X198970Y256021D01*
X199081Y256025D01*
X199191Y256025D01*
X199302Y256021D01*
X199413Y256013D01*
X199523Y256001D01*
X199633Y255986D01*
X199742Y255967D01*
X199850Y255944D01*
X199958Y255917D01*
X200064Y255886D01*
X200170Y255852D01*
X200274Y255814D01*
X200377Y255773D01*
X200478Y255728D01*
X200577Y255679D01*
X200675Y255627D01*
X200771Y255572D01*
X200865Y255513D01*
X200957Y255451D01*
X201047Y255386D01*
X201134Y255317D01*
X201219Y255246D01*
X201301Y255172D01*
X201381Y255095D01*
X201458Y255015D01*
X201532Y254933D01*
X201603Y254848D01*
X201672Y254761D01*
X201737Y254671D01*
X201799Y254579D01*
X201858Y254485D01*
X201913Y254389D01*
X201965Y254291D01*
X202014Y254192D01*
X202059Y254091D01*
X202100Y253988D01*
X202138Y253884D01*
X202172Y253778D01*
X202203Y253672D01*
X202230Y253564D01*
X202253Y253456D01*
X202272Y253347D01*
X202287Y253237D01*
X202299Y253127D01*
X202307Y253016D01*
X202311Y252905D01*
X202311Y252795D01*
X202307Y252684D01*
X202299Y252573D01*
X202287Y252463D01*
X202272Y252353D01*
X202253Y252244D01*
X202230Y252136D01*
X202203Y252028D01*
X202172Y251922D01*
X202138Y251816D01*
X202100Y251712D01*
X202059Y251609D01*
X202013Y251508D01*
X201965Y251408D01*
X201913Y251311D01*
X201857Y251215D01*
X201799Y251121D01*
X201737Y251029D01*
X201672Y250939D01*
X201603Y250852D01*
X201532Y250767D01*
X201458Y250685D01*
X201381Y250605D01*
X199136Y248360D01*
X199036Y248262D01*
X198933Y248167D01*
X198827Y248076D01*
X198719Y247987D01*
X198609Y247901D01*
X198496Y247818D01*
X198381Y247738D01*
X198264Y247661D01*
X198144Y247588D01*
X198023Y247518D01*
X197900Y247451D01*
X197775Y247388D01*
X197649Y247328D01*
X197520Y247272D01*
X197391Y247220D01*
X197260Y247170D01*
X197127Y247125D01*
X196994Y247083D01*
X196859Y247045D01*
X196723Y247011D01*
X196586Y246980D01*
X196449Y246953D01*
X196311Y246930D01*
X196172Y246911D01*
X196033Y246896D01*
X195894Y246884D01*
X195754Y246876D01*
X195614Y246872D01*
X195474Y246872D01*
X195334Y246876D01*
X195194Y246884D01*
X195055Y246896D01*
X194916Y246911D01*
X194777Y246930D01*
X194639Y246953D01*
X194502Y246980D01*
X194365Y247011D01*
X194229Y247045D01*
X194094Y247083D01*
X193961Y247125D01*
X193828Y247170D01*
X193697Y247220D01*
X193568Y247272D01*
X193439Y247328D01*
X193313Y247388D01*
X193188Y247451D01*
X193065Y247518D01*
X192944Y247588D01*
X192824Y247661D01*
X192707Y247738D01*
X192592Y247818D01*
X192479Y247901D01*
X192369Y247987D01*
X192261Y248076D01*
X192155Y248167D01*
X192052Y248262D01*
X191952Y248360D01*
X192311Y257879D02*
X186923Y263267D01*
X192311Y263267D02*
X186923Y257879D01*
D11*
X223520Y317500D02*
X228600Y317500D01*
X228600Y292100D02*
X223520Y292100D01*
X228600Y292100D02*
X228600Y293370D01*
X223520Y293370D02*
X223520Y292100D01*
X223520Y316230D02*
X223520Y317500D01*
X228600Y317500D02*
X228600Y316230D01*
D12*
X217106Y319386D02*
X209024Y311304D01*
X218004Y318488D02*
X216208Y320284D01*
X208126Y312202D02*
X209922Y310406D01*
X204534Y315794D02*
X212616Y323876D01*
X208126Y328366D02*
X204534Y315794D01*
X200044Y320284D02*
X208126Y328366D01*
X197080Y325044D02*
X196182Y324146D01*
X191692Y328636D01*
X202019Y334473D01*
X192949Y337257D02*
X187561Y342645D01*
X192949Y342645D02*
X187561Y337257D01*
D11*
X27940Y241300D02*
X22860Y241300D01*
X22860Y266700D02*
X27940Y266700D01*
X22860Y266700D02*
X22860Y265430D01*
X27940Y265430D02*
X27940Y266700D01*
X27940Y242570D02*
X27940Y241300D01*
X22860Y241300D02*
X22860Y242570D01*
D12*
X42808Y259606D02*
X34726Y267688D01*
X41910Y258708D02*
X43706Y260504D01*
X35624Y268586D02*
X33828Y266790D01*
X39216Y272178D02*
X47298Y264096D01*
X51788Y268586D02*
X39216Y272178D01*
X43706Y276668D02*
X51788Y268586D01*
X51609Y276489D02*
X51452Y276650D01*
X51298Y276814D01*
X51149Y276982D01*
X51004Y277154D01*
X50863Y277329D01*
X50726Y277508D01*
X50594Y277689D01*
X50466Y277874D01*
X50342Y278062D01*
X50223Y278253D01*
X50108Y278446D01*
X49998Y278642D01*
X49893Y278841D01*
X49792Y279042D01*
X49697Y279246D01*
X49606Y279451D01*
X49520Y279659D01*
X49440Y279869D01*
X49364Y280081D01*
X49325Y280167D01*
X49288Y280253D01*
X49256Y280342D01*
X49227Y280431D01*
X49201Y280521D01*
X49179Y280613D01*
X49161Y280705D01*
X49146Y280798D01*
X49136Y280891D01*
X49129Y280985D01*
X49125Y281079D01*
X49126Y281173D01*
X49130Y281267D01*
X49138Y281360D01*
X49150Y281454D01*
X49165Y281546D01*
X49184Y281638D01*
X49207Y281730D01*
X49234Y281820D01*
X49264Y281909D01*
X49297Y281997D01*
X49334Y282083D01*
X49375Y282168D01*
X49419Y282251D01*
X49466Y282332D01*
X49516Y282412D01*
X49570Y282489D01*
X49626Y282564D01*
X49686Y282637D01*
X49748Y282707D01*
X49813Y282775D01*
X49881Y282840D01*
X49951Y282902D01*
X50024Y282962D01*
X50099Y283018D01*
X50176Y283072D01*
X50256Y283122D01*
X50337Y283169D01*
X50420Y283213D01*
X50505Y283254D01*
X50591Y283291D01*
X50679Y283324D01*
X50768Y283354D01*
X50858Y283381D01*
X50950Y283404D01*
X51042Y283423D01*
X51134Y283438D01*
X51228Y283450D01*
X51321Y283458D01*
X51415Y283462D01*
X51509Y283463D01*
X51603Y283459D01*
X51697Y283452D01*
X51790Y283442D01*
X51883Y283427D01*
X51975Y283409D01*
X52067Y283387D01*
X52157Y283361D01*
X52246Y283332D01*
X52335Y283300D01*
X52421Y283264D01*
X52507Y283224D01*
X52506Y283224D02*
X52718Y283148D01*
X52928Y283068D01*
X53136Y282982D01*
X53341Y282891D01*
X53545Y282796D01*
X53746Y282695D01*
X53945Y282590D01*
X54141Y282480D01*
X54334Y282365D01*
X54525Y282246D01*
X54713Y282122D01*
X54898Y281994D01*
X55079Y281862D01*
X55258Y281725D01*
X55433Y281584D01*
X55605Y281439D01*
X55773Y281290D01*
X55937Y281136D01*
X56098Y280979D01*
X51609Y276489D02*
X51770Y276332D01*
X51934Y276178D01*
X52102Y276029D01*
X52274Y275884D01*
X52449Y275743D01*
X52628Y275606D01*
X52809Y275474D01*
X52994Y275346D01*
X53182Y275222D01*
X53373Y275103D01*
X53566Y274988D01*
X53762Y274878D01*
X53961Y274773D01*
X54162Y274672D01*
X54366Y274577D01*
X54571Y274486D01*
X54779Y274400D01*
X54989Y274320D01*
X55201Y274244D01*
X55200Y274243D02*
X55285Y274204D01*
X55372Y274167D01*
X55460Y274135D01*
X55550Y274106D01*
X55640Y274080D01*
X55732Y274058D01*
X55824Y274040D01*
X55917Y274025D01*
X56010Y274015D01*
X56104Y274008D01*
X56198Y274004D01*
X56292Y274005D01*
X56386Y274009D01*
X56480Y274017D01*
X56573Y274029D01*
X56666Y274044D01*
X56758Y274063D01*
X56849Y274086D01*
X56939Y274113D01*
X57028Y274143D01*
X57116Y274176D01*
X57203Y274213D01*
X57287Y274254D01*
X57371Y274298D01*
X57452Y274345D01*
X57531Y274395D01*
X57609Y274449D01*
X57684Y274505D01*
X57757Y274565D01*
X57827Y274627D01*
X57895Y274692D01*
X58344Y277387D02*
X58268Y277599D01*
X58187Y277809D01*
X58102Y278017D01*
X58011Y278222D01*
X57915Y278426D01*
X57815Y278627D01*
X57710Y278826D01*
X57600Y279022D01*
X57485Y279215D01*
X57366Y279406D01*
X57242Y279594D01*
X57114Y279779D01*
X56981Y279960D01*
X56845Y280139D01*
X56704Y280314D01*
X56558Y280486D01*
X56409Y280654D01*
X56256Y280819D01*
X56099Y280979D01*
X58344Y277387D02*
X58383Y277302D01*
X58420Y277215D01*
X58452Y277127D01*
X58481Y277037D01*
X58507Y276947D01*
X58529Y276855D01*
X58547Y276763D01*
X58562Y276670D01*
X58572Y276577D01*
X58579Y276483D01*
X58583Y276389D01*
X58582Y276295D01*
X58578Y276201D01*
X58570Y276107D01*
X58558Y276014D01*
X58543Y275921D01*
X58524Y275829D01*
X58501Y275738D01*
X58474Y275648D01*
X58444Y275559D01*
X58411Y275471D01*
X58374Y275385D01*
X58333Y275300D01*
X58289Y275216D01*
X58242Y275135D01*
X58192Y275056D01*
X58138Y274978D01*
X58082Y274903D01*
X58022Y274830D01*
X57960Y274760D01*
X57895Y274692D01*
X54303Y274693D02*
X53405Y282775D01*
X60679Y283763D02*
X66067Y289151D01*
D11*
X27940Y165100D02*
X22860Y165100D01*
X22860Y190500D02*
X27940Y190500D01*
X22860Y190500D02*
X22860Y189230D01*
X27940Y189230D02*
X27940Y190500D01*
X27940Y166370D02*
X27940Y165100D01*
X22860Y165100D02*
X22860Y166370D01*
D12*
X43217Y182997D02*
X35135Y191079D01*
X42319Y182099D02*
X44115Y183895D01*
X36033Y191977D02*
X34237Y190181D01*
X39625Y195569D02*
X47707Y187487D01*
X52198Y191977D02*
X39625Y195569D01*
X44115Y200059D02*
X52198Y191977D01*
X49773Y202125D02*
X50222Y206166D01*
X58304Y198083D01*
X56059Y195838D02*
X60549Y200328D01*
X61088Y207153D02*
X66476Y212542D01*
D11*
X27940Y88900D02*
X22860Y88900D01*
X22860Y114300D02*
X27940Y114300D01*
X22860Y114300D02*
X22860Y113030D01*
X27940Y113030D02*
X27940Y114300D01*
X27940Y90170D02*
X27940Y88900D01*
X22860Y88900D02*
X22860Y90170D01*
D12*
X42489Y107525D02*
X34407Y115607D01*
X41591Y106627D02*
X43387Y108423D01*
X35305Y116505D02*
X33509Y114709D01*
X38897Y120097D02*
X46979Y112015D01*
X51469Y116505D02*
X38897Y120097D01*
X43387Y124588D02*
X51469Y116505D01*
X49717Y130919D02*
X49794Y130993D01*
X49874Y131064D01*
X49956Y131133D01*
X50041Y131198D01*
X50128Y131259D01*
X50217Y131318D01*
X50309Y131373D01*
X50403Y131425D01*
X50498Y131473D01*
X50595Y131518D01*
X50694Y131558D01*
X50794Y131596D01*
X50896Y131629D01*
X50998Y131659D01*
X51102Y131684D01*
X51207Y131706D01*
X51312Y131724D01*
X51418Y131738D01*
X51524Y131748D01*
X51631Y131754D01*
X51738Y131756D01*
X51845Y131754D01*
X51952Y131748D01*
X52058Y131738D01*
X52164Y131724D01*
X52269Y131706D01*
X52374Y131684D01*
X52478Y131659D01*
X52580Y131629D01*
X52682Y131596D01*
X52782Y131558D01*
X52881Y131518D01*
X52978Y131473D01*
X53073Y131425D01*
X53167Y131373D01*
X53259Y131318D01*
X53348Y131259D01*
X53435Y131198D01*
X53520Y131133D01*
X53602Y131064D01*
X53682Y130993D01*
X53759Y130919D01*
X49718Y130919D02*
X49636Y130834D01*
X49556Y130746D01*
X49480Y130656D01*
X49406Y130563D01*
X49335Y130468D01*
X49268Y130371D01*
X49203Y130272D01*
X49142Y130171D01*
X49084Y130067D01*
X49029Y129962D01*
X48978Y129856D01*
X48931Y129747D01*
X48886Y129637D01*
X48846Y129526D01*
X48809Y129414D01*
X48775Y129300D01*
X48746Y129186D01*
X48720Y129070D01*
X48698Y128954D01*
X48679Y128837D01*
X48664Y128720D01*
X48654Y128602D01*
X48647Y128483D01*
X48643Y128365D01*
X48644Y128247D01*
X48648Y128128D01*
X48656Y128010D01*
X48668Y127893D01*
X48684Y127775D01*
X48704Y127659D01*
X48727Y127542D01*
X48754Y127427D01*
X48785Y127313D01*
X48819Y127200D01*
X48857Y127088D01*
X48899Y126977D01*
X48944Y126867D01*
X48993Y126759D01*
X49045Y126653D01*
X54657Y128673D02*
X54658Y128781D01*
X54655Y128889D01*
X54648Y128997D01*
X54637Y129105D01*
X54623Y129212D01*
X54605Y129318D01*
X54583Y129424D01*
X54557Y129529D01*
X54528Y129633D01*
X54495Y129736D01*
X54458Y129837D01*
X54418Y129938D01*
X54374Y130037D01*
X54327Y130134D01*
X54277Y130229D01*
X54223Y130323D01*
X54166Y130415D01*
X54106Y130504D01*
X54042Y130592D01*
X53976Y130677D01*
X53906Y130760D01*
X53834Y130840D01*
X53759Y130918D01*
X54657Y128674D02*
X55331Y120367D01*
X59821Y124857D01*
X60359Y131682D02*
X65748Y137070D01*
D11*
X27940Y12700D02*
X22860Y12700D01*
X22860Y38100D02*
X27940Y38100D01*
X22860Y38100D02*
X22860Y36830D01*
X27940Y36830D02*
X27940Y38100D01*
X27940Y13970D02*
X27940Y12700D01*
X22860Y12700D02*
X22860Y13970D01*
D12*
X43030Y30784D02*
X34948Y38866D01*
X42132Y29886D02*
X43928Y31682D01*
X35846Y39764D02*
X34050Y37968D01*
X39438Y43356D02*
X47521Y35274D01*
X52011Y39764D02*
X39438Y43356D01*
X43928Y47846D02*
X52011Y39764D01*
X55872Y43625D02*
X58117Y45870D01*
X58194Y45950D01*
X58268Y46032D01*
X58339Y46117D01*
X58408Y46204D01*
X58473Y46294D01*
X58535Y46386D01*
X58594Y46480D01*
X58649Y46576D01*
X58701Y46674D01*
X58750Y46773D01*
X58795Y46874D01*
X58836Y46977D01*
X58874Y47081D01*
X58908Y47187D01*
X58939Y47293D01*
X58966Y47401D01*
X58989Y47509D01*
X59008Y47618D01*
X59023Y47728D01*
X59035Y47838D01*
X59043Y47949D01*
X59047Y48060D01*
X59047Y48170D01*
X59043Y48281D01*
X59035Y48392D01*
X59023Y48502D01*
X59008Y48612D01*
X58989Y48721D01*
X58966Y48829D01*
X58939Y48937D01*
X58908Y49043D01*
X58874Y49149D01*
X58836Y49253D01*
X58795Y49356D01*
X58750Y49457D01*
X58701Y49556D01*
X58649Y49654D01*
X58594Y49750D01*
X58535Y49844D01*
X58473Y49936D01*
X58408Y50026D01*
X58339Y50113D01*
X58268Y50198D01*
X58194Y50280D01*
X58117Y50360D01*
X58037Y50437D01*
X57955Y50511D01*
X57870Y50582D01*
X57783Y50651D01*
X57693Y50716D01*
X57601Y50778D01*
X57507Y50837D01*
X57411Y50892D01*
X57313Y50944D01*
X57214Y50993D01*
X57113Y51038D01*
X57010Y51079D01*
X56906Y51117D01*
X56800Y51151D01*
X56694Y51182D01*
X56586Y51209D01*
X56478Y51232D01*
X56369Y51251D01*
X56259Y51266D01*
X56149Y51278D01*
X56038Y51286D01*
X55927Y51290D01*
X55817Y51290D01*
X55706Y51286D01*
X55595Y51278D01*
X55485Y51266D01*
X55375Y51251D01*
X55266Y51232D01*
X55158Y51209D01*
X55050Y51182D01*
X54944Y51151D01*
X54838Y51117D01*
X54734Y51079D01*
X54631Y51038D01*
X54530Y50993D01*
X54431Y50944D01*
X54333Y50892D01*
X54237Y50836D01*
X54143Y50778D01*
X54051Y50716D01*
X53961Y50651D01*
X53874Y50582D01*
X53789Y50511D01*
X53707Y50437D01*
X53627Y50360D01*
X50484Y54402D02*
X47790Y51708D01*
X50484Y54402D02*
X50556Y54471D01*
X50630Y54537D01*
X50708Y54601D01*
X50787Y54661D01*
X50869Y54718D01*
X50953Y54772D01*
X51039Y54822D01*
X51127Y54869D01*
X51217Y54913D01*
X51308Y54953D01*
X51401Y54989D01*
X51495Y55022D01*
X51591Y55051D01*
X51687Y55076D01*
X51784Y55097D01*
X51883Y55115D01*
X51981Y55128D01*
X52081Y55138D01*
X52180Y55144D01*
X52280Y55146D01*
X52380Y55144D01*
X52479Y55138D01*
X52579Y55128D01*
X52677Y55115D01*
X52776Y55097D01*
X52873Y55076D01*
X52969Y55051D01*
X53065Y55022D01*
X53159Y54989D01*
X53252Y54953D01*
X53343Y54913D01*
X53433Y54869D01*
X53521Y54822D01*
X53607Y54772D01*
X53691Y54718D01*
X53773Y54661D01*
X53852Y54601D01*
X53930Y54537D01*
X54004Y54471D01*
X54076Y54402D01*
X54145Y54330D01*
X54211Y54256D01*
X54275Y54178D01*
X54335Y54099D01*
X54392Y54017D01*
X54446Y53933D01*
X54496Y53847D01*
X54543Y53759D01*
X54587Y53669D01*
X54627Y53578D01*
X54663Y53485D01*
X54696Y53391D01*
X54725Y53295D01*
X54750Y53199D01*
X54771Y53102D01*
X54789Y53003D01*
X54802Y52905D01*
X54812Y52805D01*
X54818Y52706D01*
X54820Y52606D01*
X54818Y52506D01*
X54812Y52407D01*
X54802Y52307D01*
X54789Y52209D01*
X54771Y52110D01*
X54750Y52013D01*
X54725Y51917D01*
X54696Y51821D01*
X54663Y51727D01*
X54627Y51634D01*
X54587Y51543D01*
X54543Y51453D01*
X54496Y51365D01*
X54446Y51279D01*
X54392Y51195D01*
X54335Y51113D01*
X54275Y51034D01*
X54211Y50956D01*
X54145Y50882D01*
X54076Y50810D01*
X54076Y50809D02*
X52280Y49013D01*
X60901Y54940D02*
X66289Y60329D01*
D11*
X223520Y38100D02*
X228600Y38100D01*
X228600Y12700D02*
X223520Y12700D01*
X228600Y12700D02*
X228600Y13970D01*
X223520Y13970D02*
X223520Y12700D01*
X223520Y36830D02*
X223520Y38100D01*
X228600Y38100D02*
X228600Y36830D01*
D12*
X215396Y38802D02*
X207314Y30720D01*
X216294Y37904D02*
X214498Y39700D01*
X206416Y31618D02*
X208212Y29822D01*
X202823Y35210D02*
X210906Y43292D01*
X206415Y47782D02*
X202823Y35210D01*
X198333Y39700D02*
X206415Y47782D01*
X200758Y49848D02*
X192676Y45357D01*
X200758Y49848D02*
X196268Y54338D01*
X195819Y51195D02*
X199411Y54787D01*
X191239Y56673D02*
X185851Y62061D01*
D11*
X223520Y114300D02*
X228600Y114300D01*
X228600Y88900D02*
X223520Y88900D01*
X228600Y88900D02*
X228600Y90170D01*
X223520Y90170D02*
X223520Y88900D01*
X223520Y113030D02*
X223520Y114300D01*
X228600Y114300D02*
X228600Y113030D01*
D12*
X215937Y115544D02*
X207855Y107461D01*
X216835Y114646D02*
X215039Y116442D01*
X206957Y108359D02*
X208753Y106563D01*
X203365Y111951D02*
X211447Y120034D01*
X206957Y124524D02*
X203365Y111951D01*
X198875Y116442D02*
X206957Y124524D01*
X203096Y128385D02*
X200401Y131079D01*
X200329Y131148D01*
X200255Y131214D01*
X200177Y131278D01*
X200098Y131338D01*
X200016Y131395D01*
X199932Y131449D01*
X199846Y131499D01*
X199758Y131546D01*
X199668Y131590D01*
X199577Y131630D01*
X199484Y131666D01*
X199390Y131699D01*
X199294Y131728D01*
X199198Y131753D01*
X199101Y131774D01*
X199002Y131792D01*
X198904Y131805D01*
X198804Y131815D01*
X198705Y131821D01*
X198605Y131823D01*
X198505Y131821D01*
X198406Y131815D01*
X198306Y131805D01*
X198208Y131792D01*
X198109Y131774D01*
X198012Y131753D01*
X197916Y131728D01*
X197820Y131699D01*
X197726Y131666D01*
X197633Y131630D01*
X197542Y131590D01*
X197452Y131546D01*
X197364Y131499D01*
X197278Y131449D01*
X197194Y131395D01*
X197112Y131338D01*
X197033Y131278D01*
X196955Y131214D01*
X196881Y131148D01*
X196809Y131079D01*
X195911Y130181D01*
X195842Y130109D01*
X195776Y130035D01*
X195712Y129957D01*
X195652Y129878D01*
X195595Y129796D01*
X195541Y129712D01*
X195491Y129626D01*
X195444Y129538D01*
X195400Y129448D01*
X195360Y129357D01*
X195324Y129264D01*
X195291Y129170D01*
X195262Y129074D01*
X195237Y128978D01*
X195216Y128881D01*
X195198Y128782D01*
X195185Y128684D01*
X195175Y128584D01*
X195169Y128485D01*
X195167Y128385D01*
X195169Y128285D01*
X195175Y128186D01*
X195185Y128086D01*
X195198Y127988D01*
X195216Y127889D01*
X195237Y127792D01*
X195262Y127696D01*
X195291Y127600D01*
X195324Y127506D01*
X195360Y127413D01*
X195400Y127322D01*
X195444Y127232D01*
X195491Y127144D01*
X195541Y127058D01*
X195595Y126974D01*
X195652Y126892D01*
X195712Y126813D01*
X195776Y126735D01*
X195842Y126661D01*
X195911Y126589D01*
X198605Y123895D01*
X195013Y120303D01*
X190523Y124793D01*
X191780Y133414D02*
X186392Y138802D01*
D11*
X223520Y190500D02*
X228600Y190500D01*
X228600Y165100D02*
X223520Y165100D01*
X228600Y165100D02*
X228600Y166370D01*
X223520Y166370D02*
X223520Y165100D01*
X223520Y189230D02*
X223520Y190500D01*
X228600Y190500D02*
X228600Y189230D01*
D12*
X215209Y191015D02*
X207127Y182933D01*
X216107Y190117D02*
X214311Y191913D01*
X206229Y183831D02*
X208025Y182035D01*
X202636Y187423D02*
X210719Y195505D01*
X206229Y199995D02*
X202636Y187423D01*
X198146Y191913D02*
X206229Y199995D01*
X197877Y199367D02*
X195183Y202061D01*
X195114Y202133D01*
X195048Y202207D01*
X194984Y202285D01*
X194924Y202364D01*
X194867Y202446D01*
X194813Y202530D01*
X194763Y202616D01*
X194716Y202704D01*
X194672Y202794D01*
X194632Y202885D01*
X194596Y202978D01*
X194563Y203072D01*
X194534Y203168D01*
X194509Y203264D01*
X194488Y203361D01*
X194470Y203460D01*
X194457Y203558D01*
X194447Y203658D01*
X194441Y203757D01*
X194439Y203857D01*
X194441Y203957D01*
X194447Y204056D01*
X194457Y204156D01*
X194470Y204254D01*
X194488Y204353D01*
X194509Y204450D01*
X194534Y204546D01*
X194563Y204642D01*
X194596Y204736D01*
X194632Y204829D01*
X194672Y204920D01*
X194716Y205010D01*
X194763Y205098D01*
X194813Y205184D01*
X194867Y205268D01*
X194924Y205350D01*
X194984Y205429D01*
X195048Y205507D01*
X195114Y205581D01*
X195183Y205653D01*
X195632Y206102D01*
X195712Y206179D01*
X195794Y206253D01*
X195879Y206324D01*
X195966Y206393D01*
X196056Y206458D01*
X196148Y206520D01*
X196242Y206578D01*
X196338Y206634D01*
X196436Y206686D01*
X196535Y206734D01*
X196636Y206780D01*
X196739Y206821D01*
X196843Y206859D01*
X196949Y206893D01*
X197055Y206924D01*
X197163Y206951D01*
X197271Y206974D01*
X197380Y206993D01*
X197490Y207008D01*
X197600Y207020D01*
X197711Y207028D01*
X197822Y207032D01*
X197932Y207032D01*
X198043Y207028D01*
X198154Y207020D01*
X198264Y207008D01*
X198374Y206993D01*
X198483Y206974D01*
X198591Y206951D01*
X198699Y206924D01*
X198805Y206893D01*
X198911Y206859D01*
X199015Y206821D01*
X199118Y206780D01*
X199219Y206735D01*
X199318Y206686D01*
X199416Y206634D01*
X199512Y206579D01*
X199606Y206520D01*
X199698Y206458D01*
X199788Y206393D01*
X199875Y206324D01*
X199960Y206253D01*
X200042Y206179D01*
X200122Y206102D01*
X200199Y206022D01*
X200273Y205940D01*
X200344Y205855D01*
X200413Y205768D01*
X200478Y205678D01*
X200540Y205586D01*
X200599Y205492D01*
X200654Y205396D01*
X200706Y205298D01*
X200755Y205199D01*
X200800Y205098D01*
X200841Y204995D01*
X200879Y204891D01*
X200913Y204785D01*
X200944Y204679D01*
X200971Y204571D01*
X200994Y204463D01*
X201013Y204354D01*
X201028Y204244D01*
X201040Y204134D01*
X201048Y204023D01*
X201052Y203912D01*
X201052Y203802D01*
X201048Y203691D01*
X201040Y203580D01*
X201028Y203470D01*
X201013Y203360D01*
X200994Y203251D01*
X200971Y203143D01*
X200944Y203035D01*
X200913Y202929D01*
X200879Y202823D01*
X200841Y202719D01*
X200800Y202616D01*
X200754Y202515D01*
X200706Y202415D01*
X200654Y202318D01*
X200598Y202222D01*
X200540Y202128D01*
X200478Y202036D01*
X200413Y201946D01*
X200344Y201859D01*
X200273Y201774D01*
X200199Y201692D01*
X200122Y201612D01*
X197877Y199367D01*
X197777Y199269D01*
X197674Y199174D01*
X197568Y199083D01*
X197460Y198994D01*
X197350Y198908D01*
X197237Y198825D01*
X197122Y198745D01*
X197005Y198668D01*
X196885Y198595D01*
X196764Y198525D01*
X196641Y198458D01*
X196516Y198395D01*
X196390Y198335D01*
X196261Y198279D01*
X196132Y198227D01*
X196001Y198177D01*
X195868Y198132D01*
X195735Y198090D01*
X195600Y198052D01*
X195464Y198018D01*
X195327Y197987D01*
X195190Y197960D01*
X195052Y197937D01*
X194913Y197918D01*
X194774Y197903D01*
X194635Y197891D01*
X194495Y197883D01*
X194355Y197879D01*
X194215Y197879D01*
X194075Y197883D01*
X193935Y197891D01*
X193796Y197903D01*
X193657Y197918D01*
X193518Y197937D01*
X193380Y197960D01*
X193243Y197987D01*
X193106Y198018D01*
X192970Y198052D01*
X192835Y198090D01*
X192702Y198132D01*
X192569Y198177D01*
X192438Y198227D01*
X192309Y198279D01*
X192180Y198335D01*
X192054Y198395D01*
X191929Y198458D01*
X191806Y198525D01*
X191685Y198595D01*
X191565Y198668D01*
X191448Y198745D01*
X191333Y198825D01*
X191220Y198908D01*
X191110Y198994D01*
X191002Y199083D01*
X190896Y199174D01*
X190793Y199269D01*
X190693Y199367D01*
X191052Y208886D02*
X185664Y214274D01*
D11*
X223520Y266700D02*
X228600Y266700D01*
X228600Y241300D02*
X223520Y241300D01*
X228600Y241300D02*
X228600Y242570D01*
X223520Y242570D02*
X223520Y241300D01*
X223520Y265430D02*
X223520Y266700D01*
X228600Y266700D02*
X228600Y265430D01*
D12*
X215750Y267757D02*
X207668Y259674D01*
X216648Y266859D02*
X214852Y268655D01*
X206770Y260572D02*
X208566Y258776D01*
X203178Y264164D02*
X211260Y272247D01*
X206770Y276737D02*
X203178Y264164D01*
X198688Y268655D02*
X206770Y276737D01*
X195724Y273414D02*
X194826Y272516D01*
X190336Y277006D01*
X200664Y282843D01*
X191593Y285627D02*
X186205Y291015D01*
D11*
X152400Y26670D02*
X152400Y21590D01*
X177800Y21590D02*
X177800Y26670D01*
X176530Y26670D01*
X176530Y21590D02*
X177800Y21590D01*
X153670Y21590D02*
X152400Y21590D01*
X152400Y26670D02*
X153670Y26670D01*
X127000Y26670D02*
X127000Y21590D01*
X152400Y21590D02*
X152400Y26670D01*
X151130Y26670D01*
X151130Y21590D02*
X152400Y21590D01*
X128270Y21590D02*
X127000Y21590D01*
X127000Y26670D02*
X128270Y26670D01*
D12*
X139250Y183720D02*
X152850Y183720D01*
X152850Y161720D02*
X139250Y161720D01*
D13*
X125050Y185220D02*
X125052Y185283D01*
X125058Y185345D01*
X125068Y185407D01*
X125081Y185469D01*
X125099Y185529D01*
X125120Y185588D01*
X125145Y185646D01*
X125174Y185702D01*
X125206Y185756D01*
X125241Y185808D01*
X125279Y185857D01*
X125321Y185905D01*
X125365Y185949D01*
X125413Y185991D01*
X125462Y186029D01*
X125514Y186064D01*
X125568Y186096D01*
X125624Y186125D01*
X125682Y186150D01*
X125741Y186171D01*
X125801Y186189D01*
X125863Y186202D01*
X125925Y186212D01*
X125987Y186218D01*
X126050Y186220D01*
X126113Y186218D01*
X126175Y186212D01*
X126237Y186202D01*
X126299Y186189D01*
X126359Y186171D01*
X126418Y186150D01*
X126476Y186125D01*
X126532Y186096D01*
X126586Y186064D01*
X126638Y186029D01*
X126687Y185991D01*
X126735Y185949D01*
X126779Y185905D01*
X126821Y185857D01*
X126859Y185808D01*
X126894Y185756D01*
X126926Y185702D01*
X126955Y185646D01*
X126980Y185588D01*
X127001Y185529D01*
X127019Y185469D01*
X127032Y185407D01*
X127042Y185345D01*
X127048Y185283D01*
X127050Y185220D01*
X127048Y185157D01*
X127042Y185095D01*
X127032Y185033D01*
X127019Y184971D01*
X127001Y184911D01*
X126980Y184852D01*
X126955Y184794D01*
X126926Y184738D01*
X126894Y184684D01*
X126859Y184632D01*
X126821Y184583D01*
X126779Y184535D01*
X126735Y184491D01*
X126687Y184449D01*
X126638Y184411D01*
X126586Y184376D01*
X126532Y184344D01*
X126476Y184315D01*
X126418Y184290D01*
X126359Y184269D01*
X126299Y184251D01*
X126237Y184238D01*
X126175Y184228D01*
X126113Y184222D01*
X126050Y184220D01*
X125987Y184222D01*
X125925Y184228D01*
X125863Y184238D01*
X125801Y184251D01*
X125741Y184269D01*
X125682Y184290D01*
X125624Y184315D01*
X125568Y184344D01*
X125514Y184376D01*
X125462Y184411D01*
X125413Y184449D01*
X125365Y184491D01*
X125321Y184535D01*
X125279Y184583D01*
X125241Y184632D01*
X125206Y184684D01*
X125174Y184738D01*
X125145Y184794D01*
X125120Y184852D01*
X125099Y184911D01*
X125081Y184971D01*
X125068Y185033D01*
X125058Y185095D01*
X125052Y185157D01*
X125050Y185220D01*
D14*
X126780Y236000D03*
D12*
X130280Y260500D02*
X137280Y260500D01*
X152280Y260500D02*
X159280Y260500D01*
X159280Y252500D01*
X130280Y252500D02*
X130280Y260500D01*
D14*
X126780Y191550D03*
D12*
X130280Y216050D02*
X137280Y216050D01*
X152280Y216050D02*
X159280Y216050D01*
X159280Y208050D01*
X130280Y208050D02*
X130280Y216050D01*
D11*
X124460Y157480D02*
X167640Y157480D01*
X124460Y137160D02*
X124360Y137162D01*
X124261Y137168D01*
X124161Y137178D01*
X124063Y137191D01*
X123964Y137209D01*
X123867Y137230D01*
X123771Y137255D01*
X123675Y137284D01*
X123581Y137317D01*
X123488Y137353D01*
X123397Y137393D01*
X123307Y137437D01*
X123219Y137484D01*
X123133Y137534D01*
X123049Y137588D01*
X122967Y137645D01*
X122888Y137705D01*
X122810Y137769D01*
X122736Y137835D01*
X122664Y137904D01*
X122595Y137976D01*
X122529Y138050D01*
X122465Y138128D01*
X122405Y138207D01*
X122348Y138289D01*
X122294Y138373D01*
X122244Y138459D01*
X122197Y138547D01*
X122153Y138637D01*
X122113Y138728D01*
X122077Y138821D01*
X122044Y138915D01*
X122015Y139011D01*
X121990Y139107D01*
X121969Y139204D01*
X121951Y139303D01*
X121938Y139401D01*
X121928Y139501D01*
X121922Y139600D01*
X121920Y139700D01*
X167640Y137160D02*
X167740Y137162D01*
X167839Y137168D01*
X167939Y137178D01*
X168037Y137191D01*
X168136Y137209D01*
X168233Y137230D01*
X168329Y137255D01*
X168425Y137284D01*
X168519Y137317D01*
X168612Y137353D01*
X168703Y137393D01*
X168793Y137437D01*
X168881Y137484D01*
X168967Y137534D01*
X169051Y137588D01*
X169133Y137645D01*
X169212Y137705D01*
X169290Y137769D01*
X169364Y137835D01*
X169436Y137904D01*
X169505Y137976D01*
X169571Y138050D01*
X169635Y138128D01*
X169695Y138207D01*
X169752Y138289D01*
X169806Y138373D01*
X169856Y138459D01*
X169903Y138547D01*
X169947Y138637D01*
X169987Y138728D01*
X170023Y138821D01*
X170056Y138915D01*
X170085Y139011D01*
X170110Y139107D01*
X170131Y139204D01*
X170149Y139303D01*
X170162Y139401D01*
X170172Y139501D01*
X170178Y139600D01*
X170180Y139700D01*
X170180Y154940D02*
X170178Y155040D01*
X170172Y155139D01*
X170162Y155239D01*
X170149Y155337D01*
X170131Y155436D01*
X170110Y155533D01*
X170085Y155629D01*
X170056Y155725D01*
X170023Y155819D01*
X169987Y155912D01*
X169947Y156003D01*
X169903Y156093D01*
X169856Y156181D01*
X169806Y156267D01*
X169752Y156351D01*
X169695Y156433D01*
X169635Y156512D01*
X169571Y156590D01*
X169505Y156664D01*
X169436Y156736D01*
X169364Y156805D01*
X169290Y156871D01*
X169212Y156935D01*
X169133Y156995D01*
X169051Y157052D01*
X168967Y157106D01*
X168881Y157156D01*
X168793Y157203D01*
X168703Y157247D01*
X168612Y157287D01*
X168519Y157323D01*
X168425Y157356D01*
X168329Y157385D01*
X168233Y157410D01*
X168136Y157431D01*
X168037Y157449D01*
X167939Y157462D01*
X167839Y157472D01*
X167740Y157478D01*
X167640Y157480D01*
X124460Y157480D02*
X124360Y157478D01*
X124261Y157472D01*
X124161Y157462D01*
X124063Y157449D01*
X123964Y157431D01*
X123867Y157410D01*
X123771Y157385D01*
X123675Y157356D01*
X123581Y157323D01*
X123488Y157287D01*
X123397Y157247D01*
X123307Y157203D01*
X123219Y157156D01*
X123133Y157106D01*
X123049Y157052D01*
X122967Y156995D01*
X122888Y156935D01*
X122810Y156871D01*
X122736Y156805D01*
X122664Y156736D01*
X122595Y156664D01*
X122529Y156590D01*
X122465Y156512D01*
X122405Y156433D01*
X122348Y156351D01*
X122294Y156267D01*
X122244Y156181D01*
X122197Y156093D01*
X122153Y156003D01*
X122113Y155912D01*
X122077Y155819D01*
X122044Y155725D01*
X122015Y155629D01*
X121990Y155533D01*
X121969Y155436D01*
X121951Y155337D01*
X121938Y155239D01*
X121928Y155139D01*
X121922Y155040D01*
X121920Y154940D01*
X121920Y139700D01*
X170180Y139700D02*
X170180Y154940D01*
X167640Y137160D02*
X124460Y137160D01*
X114808Y278638D02*
X146812Y278638D01*
X146812Y330962D02*
X114808Y330962D01*
X101600Y26670D02*
X101600Y21590D01*
X127000Y21590D02*
X127000Y26670D01*
X125730Y26670D01*
X125730Y21590D02*
X127000Y21590D01*
X102870Y21590D02*
X101600Y21590D01*
X101600Y26670D02*
X102870Y26670D01*
X76200Y26670D02*
X76200Y21590D01*
X101600Y21590D02*
X101600Y26670D01*
X100330Y26670D01*
X100330Y21590D02*
X101600Y21590D01*
X77470Y21590D02*
X76200Y21590D01*
X76200Y26670D02*
X77470Y26670D01*
D15*
X119030Y107860D02*
X119032Y107880D01*
X119038Y107898D01*
X119047Y107916D01*
X119059Y107931D01*
X119074Y107943D01*
X119092Y107952D01*
X119110Y107958D01*
X119130Y107960D01*
X119150Y107958D01*
X119168Y107952D01*
X119186Y107943D01*
X119201Y107931D01*
X119213Y107916D01*
X119222Y107898D01*
X119228Y107880D01*
X119230Y107860D01*
X119228Y107840D01*
X119222Y107822D01*
X119213Y107804D01*
X119201Y107789D01*
X119186Y107777D01*
X119168Y107768D01*
X119150Y107762D01*
X119130Y107760D01*
X119110Y107762D01*
X119092Y107768D01*
X119074Y107777D01*
X119059Y107789D01*
X119047Y107804D01*
X119038Y107822D01*
X119032Y107840D01*
X119030Y107860D01*
X118906Y107860D02*
X118908Y107889D01*
X118914Y107918D01*
X118923Y107946D01*
X118936Y107972D01*
X118952Y107996D01*
X118972Y108018D01*
X118994Y108038D01*
X119018Y108054D01*
X119044Y108067D01*
X119072Y108076D01*
X119101Y108082D01*
X119130Y108084D01*
X119159Y108082D01*
X119188Y108076D01*
X119216Y108067D01*
X119242Y108054D01*
X119266Y108038D01*
X119288Y108018D01*
X119308Y107996D01*
X119324Y107972D01*
X119337Y107946D01*
X119346Y107918D01*
X119352Y107889D01*
X119354Y107860D01*
X119352Y107831D01*
X119346Y107802D01*
X119337Y107774D01*
X119324Y107748D01*
X119308Y107724D01*
X119288Y107702D01*
X119266Y107682D01*
X119242Y107666D01*
X119216Y107653D01*
X119188Y107644D01*
X119159Y107638D01*
X119130Y107636D01*
X119101Y107638D01*
X119072Y107644D01*
X119044Y107653D01*
X119018Y107666D01*
X118994Y107682D01*
X118972Y107702D01*
X118952Y107724D01*
X118936Y107748D01*
X118923Y107774D01*
X118914Y107802D01*
X118908Y107831D01*
X118906Y107860D01*
X118814Y107860D02*
X118816Y107895D01*
X118822Y107930D01*
X118832Y107964D01*
X118845Y107997D01*
X118862Y108028D01*
X118883Y108057D01*
X118907Y108083D01*
X118933Y108107D01*
X118962Y108128D01*
X118993Y108145D01*
X119026Y108158D01*
X119060Y108168D01*
X119095Y108174D01*
X119130Y108176D01*
X119165Y108174D01*
X119200Y108168D01*
X119234Y108158D01*
X119267Y108145D01*
X119298Y108128D01*
X119327Y108107D01*
X119353Y108083D01*
X119377Y108057D01*
X119398Y108028D01*
X119415Y107997D01*
X119428Y107964D01*
X119438Y107930D01*
X119444Y107895D01*
X119446Y107860D01*
X119444Y107825D01*
X119438Y107790D01*
X119428Y107756D01*
X119415Y107723D01*
X119398Y107692D01*
X119377Y107663D01*
X119353Y107637D01*
X119327Y107613D01*
X119298Y107592D01*
X119267Y107575D01*
X119234Y107562D01*
X119200Y107552D01*
X119165Y107546D01*
X119130Y107544D01*
X119095Y107546D01*
X119060Y107552D01*
X119026Y107562D01*
X118993Y107575D01*
X118962Y107592D01*
X118933Y107613D01*
X118907Y107637D01*
X118883Y107663D01*
X118862Y107692D01*
X118845Y107723D01*
X118832Y107756D01*
X118822Y107790D01*
X118816Y107825D01*
X118814Y107860D01*
X118324Y107860D02*
X118326Y107916D01*
X118332Y107972D01*
X118342Y108028D01*
X118355Y108082D01*
X118373Y108136D01*
X118394Y108188D01*
X118418Y108238D01*
X118446Y108287D01*
X118478Y108334D01*
X118513Y108378D01*
X118550Y108420D01*
X118591Y108459D01*
X118634Y108495D01*
X118679Y108528D01*
X118727Y108558D01*
X118777Y108584D01*
X118828Y108607D01*
X118881Y108627D01*
X118935Y108642D01*
X118990Y108654D01*
X119046Y108662D01*
X119102Y108666D01*
X119158Y108666D01*
X119214Y108662D01*
X119270Y108654D01*
X119325Y108642D01*
X119379Y108627D01*
X119432Y108607D01*
X119483Y108584D01*
X119533Y108558D01*
X119581Y108528D01*
X119626Y108495D01*
X119669Y108459D01*
X119710Y108420D01*
X119747Y108378D01*
X119782Y108334D01*
X119814Y108287D01*
X119842Y108238D01*
X119866Y108188D01*
X119887Y108136D01*
X119905Y108082D01*
X119918Y108028D01*
X119928Y107972D01*
X119934Y107916D01*
X119936Y107860D01*
X119934Y107804D01*
X119928Y107748D01*
X119918Y107692D01*
X119905Y107638D01*
X119887Y107584D01*
X119866Y107532D01*
X119842Y107482D01*
X119814Y107433D01*
X119782Y107386D01*
X119747Y107342D01*
X119710Y107300D01*
X119669Y107261D01*
X119626Y107225D01*
X119581Y107192D01*
X119533Y107162D01*
X119483Y107136D01*
X119432Y107113D01*
X119379Y107093D01*
X119325Y107078D01*
X119270Y107066D01*
X119214Y107058D01*
X119158Y107054D01*
X119102Y107054D01*
X119046Y107058D01*
X118990Y107066D01*
X118935Y107078D01*
X118881Y107093D01*
X118828Y107113D01*
X118777Y107136D01*
X118727Y107162D01*
X118679Y107192D01*
X118634Y107225D01*
X118591Y107261D01*
X118550Y107300D01*
X118513Y107342D01*
X118478Y107386D01*
X118446Y107433D01*
X118418Y107482D01*
X118394Y107532D01*
X118373Y107584D01*
X118355Y107638D01*
X118342Y107692D01*
X118332Y107748D01*
X118326Y107804D01*
X118324Y107860D01*
D11*
X149860Y38100D02*
X154940Y38100D01*
X154940Y63500D02*
X149860Y63500D01*
X149860Y62230D01*
X154940Y62230D02*
X154940Y63500D01*
X154940Y39370D02*
X154940Y38100D01*
X149860Y38100D02*
X149860Y39370D01*
D10*
X139319Y46899D02*
X131953Y44443D01*
X131953Y49354D02*
X139319Y46899D01*
X136454Y52246D02*
X136454Y57157D01*
X133999Y54701D02*
X138910Y54701D01*
D11*
X173990Y38100D02*
X179070Y38100D01*
X179070Y63500D02*
X173990Y63500D01*
X173990Y62230D01*
X179070Y62230D02*
X179070Y63500D01*
X179070Y39370D02*
X179070Y38100D01*
X173990Y38100D02*
X173990Y39370D01*
D16*
X98700Y91250D02*
X91800Y91250D01*
X91800Y68770D02*
X98700Y68770D01*
X115750Y95510D02*
X74750Y95510D01*
X115750Y95510D02*
X115750Y64510D01*
X74750Y64510D01*
X74750Y95510D01*
D11*
X73660Y58420D02*
X116840Y58420D01*
X73660Y38100D02*
X73560Y38102D01*
X73461Y38108D01*
X73361Y38118D01*
X73263Y38131D01*
X73164Y38149D01*
X73067Y38170D01*
X72971Y38195D01*
X72875Y38224D01*
X72781Y38257D01*
X72688Y38293D01*
X72597Y38333D01*
X72507Y38377D01*
X72419Y38424D01*
X72333Y38474D01*
X72249Y38528D01*
X72167Y38585D01*
X72088Y38645D01*
X72010Y38709D01*
X71936Y38775D01*
X71864Y38844D01*
X71795Y38916D01*
X71729Y38990D01*
X71665Y39068D01*
X71605Y39147D01*
X71548Y39229D01*
X71494Y39313D01*
X71444Y39399D01*
X71397Y39487D01*
X71353Y39577D01*
X71313Y39668D01*
X71277Y39761D01*
X71244Y39855D01*
X71215Y39951D01*
X71190Y40047D01*
X71169Y40144D01*
X71151Y40243D01*
X71138Y40341D01*
X71128Y40441D01*
X71122Y40540D01*
X71120Y40640D01*
X116840Y38100D02*
X116940Y38102D01*
X117039Y38108D01*
X117139Y38118D01*
X117237Y38131D01*
X117336Y38149D01*
X117433Y38170D01*
X117529Y38195D01*
X117625Y38224D01*
X117719Y38257D01*
X117812Y38293D01*
X117903Y38333D01*
X117993Y38377D01*
X118081Y38424D01*
X118167Y38474D01*
X118251Y38528D01*
X118333Y38585D01*
X118412Y38645D01*
X118490Y38709D01*
X118564Y38775D01*
X118636Y38844D01*
X118705Y38916D01*
X118771Y38990D01*
X118835Y39068D01*
X118895Y39147D01*
X118952Y39229D01*
X119006Y39313D01*
X119056Y39399D01*
X119103Y39487D01*
X119147Y39577D01*
X119187Y39668D01*
X119223Y39761D01*
X119256Y39855D01*
X119285Y39951D01*
X119310Y40047D01*
X119331Y40144D01*
X119349Y40243D01*
X119362Y40341D01*
X119372Y40441D01*
X119378Y40540D01*
X119380Y40640D01*
X119380Y55880D02*
X119378Y55980D01*
X119372Y56079D01*
X119362Y56179D01*
X119349Y56277D01*
X119331Y56376D01*
X119310Y56473D01*
X119285Y56569D01*
X119256Y56665D01*
X119223Y56759D01*
X119187Y56852D01*
X119147Y56943D01*
X119103Y57033D01*
X119056Y57121D01*
X119006Y57207D01*
X118952Y57291D01*
X118895Y57373D01*
X118835Y57452D01*
X118771Y57530D01*
X118705Y57604D01*
X118636Y57676D01*
X118564Y57745D01*
X118490Y57811D01*
X118412Y57875D01*
X118333Y57935D01*
X118251Y57992D01*
X118167Y58046D01*
X118081Y58096D01*
X117993Y58143D01*
X117903Y58187D01*
X117812Y58227D01*
X117719Y58263D01*
X117625Y58296D01*
X117529Y58325D01*
X117433Y58350D01*
X117336Y58371D01*
X117237Y58389D01*
X117139Y58402D01*
X117039Y58412D01*
X116940Y58418D01*
X116840Y58420D01*
X73660Y58420D02*
X73560Y58418D01*
X73461Y58412D01*
X73361Y58402D01*
X73263Y58389D01*
X73164Y58371D01*
X73067Y58350D01*
X72971Y58325D01*
X72875Y58296D01*
X72781Y58263D01*
X72688Y58227D01*
X72597Y58187D01*
X72507Y58143D01*
X72419Y58096D01*
X72333Y58046D01*
X72249Y57992D01*
X72167Y57935D01*
X72088Y57875D01*
X72010Y57811D01*
X71936Y57745D01*
X71864Y57676D01*
X71795Y57604D01*
X71729Y57530D01*
X71665Y57452D01*
X71605Y57373D01*
X71548Y57291D01*
X71494Y57207D01*
X71444Y57121D01*
X71397Y57033D01*
X71353Y56943D01*
X71313Y56852D01*
X71277Y56759D01*
X71244Y56665D01*
X71215Y56569D01*
X71190Y56473D01*
X71169Y56376D01*
X71151Y56277D01*
X71138Y56179D01*
X71128Y56079D01*
X71122Y55980D01*
X71120Y55880D01*
X71120Y40640D01*
X119380Y40640D02*
X119380Y55880D01*
X116840Y38100D02*
X73660Y38100D01*
X64770Y189230D02*
X64770Y232410D01*
X85090Y189230D02*
X85088Y189130D01*
X85082Y189031D01*
X85072Y188931D01*
X85059Y188833D01*
X85041Y188734D01*
X85020Y188637D01*
X84995Y188541D01*
X84966Y188445D01*
X84933Y188351D01*
X84897Y188258D01*
X84857Y188167D01*
X84813Y188077D01*
X84766Y187989D01*
X84716Y187903D01*
X84662Y187819D01*
X84605Y187737D01*
X84545Y187658D01*
X84481Y187580D01*
X84415Y187506D01*
X84346Y187434D01*
X84274Y187365D01*
X84200Y187299D01*
X84122Y187235D01*
X84043Y187175D01*
X83961Y187118D01*
X83877Y187064D01*
X83791Y187014D01*
X83703Y186967D01*
X83613Y186923D01*
X83522Y186883D01*
X83429Y186847D01*
X83335Y186814D01*
X83239Y186785D01*
X83143Y186760D01*
X83046Y186739D01*
X82947Y186721D01*
X82849Y186708D01*
X82749Y186698D01*
X82650Y186692D01*
X82550Y186690D01*
X85090Y232410D02*
X85088Y232510D01*
X85082Y232609D01*
X85072Y232709D01*
X85059Y232807D01*
X85041Y232906D01*
X85020Y233003D01*
X84995Y233099D01*
X84966Y233195D01*
X84933Y233289D01*
X84897Y233382D01*
X84857Y233473D01*
X84813Y233563D01*
X84766Y233651D01*
X84716Y233737D01*
X84662Y233821D01*
X84605Y233903D01*
X84545Y233982D01*
X84481Y234060D01*
X84415Y234134D01*
X84346Y234206D01*
X84274Y234275D01*
X84200Y234341D01*
X84122Y234405D01*
X84043Y234465D01*
X83961Y234522D01*
X83877Y234576D01*
X83791Y234626D01*
X83703Y234673D01*
X83613Y234717D01*
X83522Y234757D01*
X83429Y234793D01*
X83335Y234826D01*
X83239Y234855D01*
X83143Y234880D01*
X83046Y234901D01*
X82947Y234919D01*
X82849Y234932D01*
X82749Y234942D01*
X82650Y234948D01*
X82550Y234950D01*
X67310Y234950D02*
X67210Y234948D01*
X67111Y234942D01*
X67011Y234932D01*
X66913Y234919D01*
X66814Y234901D01*
X66717Y234880D01*
X66621Y234855D01*
X66525Y234826D01*
X66431Y234793D01*
X66338Y234757D01*
X66247Y234717D01*
X66157Y234673D01*
X66069Y234626D01*
X65983Y234576D01*
X65899Y234522D01*
X65817Y234465D01*
X65738Y234405D01*
X65660Y234341D01*
X65586Y234275D01*
X65514Y234206D01*
X65445Y234134D01*
X65379Y234060D01*
X65315Y233982D01*
X65255Y233903D01*
X65198Y233821D01*
X65144Y233737D01*
X65094Y233651D01*
X65047Y233563D01*
X65003Y233473D01*
X64963Y233382D01*
X64927Y233289D01*
X64894Y233195D01*
X64865Y233099D01*
X64840Y233003D01*
X64819Y232906D01*
X64801Y232807D01*
X64788Y232709D01*
X64778Y232609D01*
X64772Y232510D01*
X64770Y232410D01*
X64770Y189230D02*
X64772Y189130D01*
X64778Y189031D01*
X64788Y188931D01*
X64801Y188833D01*
X64819Y188734D01*
X64840Y188637D01*
X64865Y188541D01*
X64894Y188445D01*
X64927Y188351D01*
X64963Y188258D01*
X65003Y188167D01*
X65047Y188077D01*
X65094Y187989D01*
X65144Y187903D01*
X65198Y187819D01*
X65255Y187737D01*
X65315Y187658D01*
X65379Y187580D01*
X65445Y187506D01*
X65514Y187434D01*
X65586Y187365D01*
X65660Y187299D01*
X65738Y187235D01*
X65817Y187175D01*
X65899Y187118D01*
X65983Y187064D01*
X66069Y187014D01*
X66157Y186967D01*
X66247Y186923D01*
X66338Y186883D01*
X66431Y186847D01*
X66525Y186814D01*
X66621Y186785D01*
X66717Y186760D01*
X66814Y186739D01*
X66913Y186721D01*
X67011Y186708D01*
X67111Y186698D01*
X67210Y186692D01*
X67310Y186690D01*
X82550Y186690D01*
X82550Y234950D02*
X67310Y234950D01*
X85090Y232410D02*
X85090Y189230D01*
M02*
