G04 EAGLE Gerber X2 export*
%TF.Part,Single*%
%TF.FileFunction,Copper,L1,Top,Mixed*%
%TF.FilePolarity,Positive*%
%TF.GenerationSoftware,Autodesk,EAGLE,9.0.0*%
%TF.CreationDate,2018-06-07T14:32:50Z*%
G75*
%MOMM*%
%FSLAX34Y34*%
%LPD*%
%AMOC8*
5,1,8,0,0,1.08239X$1,22.5*%
G01*
%ADD10P,2.336880X8X112.500000*%
%ADD11P,2.336880X8X292.500000*%
%ADD12R,1.100000X1.000000*%
%ADD13P,2.336880X8X22.500000*%
%ADD14R,1.190000X0.400000*%
%ADD15R,1.000000X1.100000*%
%ADD16R,1.000000X1.400000*%
%ADD17R,1.168400X1.600200*%
%ADD18R,1.600200X0.355600*%
%ADD19R,0.300000X1.000000*%
%ADD20R,1.050000X1.080000*%
%ADD21R,1.080000X1.050000*%
%ADD22R,1.200000X2.540000*%
%ADD23R,1.600200X1.168400*%
%ADD24C,0.756400*%
%ADD25C,0.203200*%
%ADD26C,0.304800*%


D10*
X25400Y279400D03*
X25400Y203200D03*
X25400Y127000D03*
X25400Y50800D03*
D11*
X226060Y50800D03*
X226060Y127000D03*
X226060Y203200D03*
X226060Y279400D03*
D10*
X25400Y304800D03*
X25400Y228600D03*
X25400Y152400D03*
X25400Y76200D03*
D11*
X226060Y76200D03*
X226060Y152400D03*
X226060Y228600D03*
X226060Y304800D03*
D10*
X25400Y254000D03*
X25400Y177800D03*
X25400Y101600D03*
X25400Y25400D03*
D11*
X226060Y25400D03*
X226060Y101600D03*
X226060Y177800D03*
X226060Y254000D03*
D12*
X176530Y242960D03*
X176530Y259960D03*
X176530Y198510D03*
X176530Y215510D03*
D13*
X165100Y24130D03*
X139700Y24130D03*
D14*
X136450Y179220D03*
X136450Y172720D03*
X136450Y166220D03*
X155650Y166220D03*
X155650Y179220D03*
D15*
X116840Y162950D03*
X116840Y179950D03*
D12*
X113030Y248040D03*
X113030Y265040D03*
X113030Y215510D03*
X113030Y198510D03*
D16*
X144780Y265000D03*
X154280Y243000D03*
X135280Y243000D03*
X144780Y220550D03*
X154280Y198550D03*
X135280Y198550D03*
D15*
X175260Y179950D03*
X175260Y162950D03*
D17*
X161290Y147320D03*
X146050Y147320D03*
X130810Y147320D03*
D18*
X104267Y327025D03*
X104267Y320675D03*
X104267Y314325D03*
X104267Y307975D03*
X104267Y301625D03*
X104267Y295275D03*
X104267Y288925D03*
X104267Y282575D03*
X157353Y282575D03*
X157353Y288925D03*
X157353Y295275D03*
X157353Y301625D03*
X157353Y307975D03*
X157353Y314325D03*
X157353Y320675D03*
X157353Y327025D03*
D13*
X114300Y24130D03*
X88900Y24130D03*
D15*
X176530Y327270D03*
X176530Y310270D03*
X85090Y327270D03*
X85090Y310270D03*
D19*
X119130Y122660D03*
X125730Y122660D03*
X132330Y122660D03*
X119130Y100860D03*
X125730Y100860D03*
X132330Y100860D03*
D10*
X152400Y50800D03*
X176530Y50800D03*
D20*
X125870Y86360D03*
X143370Y86360D03*
D12*
X160020Y103260D03*
X160020Y120260D03*
X146050Y103260D03*
X146050Y120260D03*
D21*
X81280Y103010D03*
X81280Y120510D03*
D22*
X83820Y80010D03*
X106680Y80010D03*
D21*
X95250Y120510D03*
X95250Y103010D03*
X109220Y103010D03*
X109220Y120510D03*
D17*
X110490Y48260D03*
X95250Y48260D03*
X80010Y48260D03*
D12*
X160020Y87240D03*
X160020Y70240D03*
D15*
X143120Y71120D03*
X126120Y71120D03*
D23*
X74930Y226060D03*
X74930Y210820D03*
X74930Y195580D03*
D20*
X83680Y167640D03*
X66180Y167640D03*
D24*
X130810Y320040D03*
D25*
X157353Y320040D02*
X157353Y320675D01*
X157353Y320040D02*
X130810Y320040D01*
X157353Y320675D02*
X166125Y320675D01*
X136450Y172720D02*
X124070Y172720D01*
X116840Y179950D01*
X176530Y310270D02*
X166125Y320675D01*
D26*
X81280Y120510D02*
X81280Y114300D01*
X83820Y111760D01*
X95250Y111760D01*
X125730Y111760D02*
X132241Y111760D01*
X125730Y111760D02*
X95250Y111760D01*
X95250Y120510D01*
X136878Y107123D02*
X136878Y92852D01*
X136878Y107123D02*
X132241Y111760D01*
X136878Y92852D02*
X143370Y86360D01*
X160020Y87240D02*
X160020Y103260D01*
X160020Y87240D02*
X144250Y87240D01*
X143370Y86360D01*
D24*
X125730Y111760D03*
D26*
X125730Y122660D01*
D24*
X124460Y190500D03*
D25*
X124460Y187570D01*
X116840Y179950D01*
D24*
X85090Y298450D03*
D25*
X85090Y310270D01*
D24*
X186690Y161290D03*
D25*
X176920Y161290D02*
X175260Y162950D01*
X176920Y161290D02*
X186690Y161290D01*
X66180Y167640D02*
X55880Y167640D01*
X45466Y178054D01*
X45466Y249174D02*
X40640Y254000D01*
X25400Y254000D01*
X45466Y249174D02*
X45466Y178054D01*
D26*
X7620Y17780D02*
X19050Y6350D01*
X7620Y17780D02*
X7620Y76200D01*
X7620Y152400D01*
X7620Y228600D01*
X25400Y228600D01*
X25400Y152400D02*
X7620Y152400D01*
X7620Y76200D02*
X25400Y76200D01*
X19050Y6350D02*
X68580Y6350D01*
X232410Y6350D01*
X243840Y17780D01*
X243840Y76200D01*
X243840Y152400D01*
X243840Y228600D01*
X243840Y304800D01*
X226060Y304800D01*
X226060Y228600D02*
X243840Y228600D01*
X243840Y152400D02*
X226060Y152400D01*
X226060Y76200D02*
X243840Y76200D01*
X104267Y327025D02*
X104022Y327270D01*
X7620Y304800D02*
X7620Y228600D01*
X7620Y304800D02*
X7620Y312420D01*
X243840Y312420D02*
X243840Y304800D01*
X113030Y248040D02*
X113030Y215510D01*
X25400Y304800D02*
X7620Y304800D01*
D25*
X85335Y327025D02*
X104267Y327025D01*
X85335Y327025D02*
X85090Y327270D01*
X157353Y327025D02*
X175505Y327025D01*
X176530Y327270D01*
D26*
X31750Y336550D02*
X7620Y312420D01*
X219710Y336550D02*
X243840Y312420D01*
X85090Y336550D02*
X31750Y336550D01*
X85090Y336550D02*
X176530Y336550D01*
X219710Y336550D01*
D25*
X85090Y336550D02*
X85090Y327270D01*
X176530Y327270D02*
X176530Y336550D01*
D26*
X74624Y135280D02*
X68260Y128916D01*
X68260Y101070D01*
X72390Y96940D01*
X146050Y142240D02*
X146050Y147320D01*
X146050Y142240D02*
X139090Y135280D01*
X104140Y135280D01*
X74624Y135280D01*
X104482Y206962D02*
X113030Y215510D01*
X104482Y135622D02*
X104140Y135280D01*
X104482Y135622D02*
X104482Y206962D01*
X68260Y101070D02*
X68260Y59690D01*
X68260Y6670D01*
X68580Y6350D01*
X95250Y48260D02*
X95250Y55880D01*
X91821Y59309D01*
X68641Y59309D02*
X68260Y59690D01*
X68641Y59309D02*
X91821Y59309D01*
D25*
X113030Y198510D02*
X122995Y208475D01*
X135070Y220550D01*
X144780Y220550D01*
X122995Y208475D02*
X122995Y252167D01*
X106478Y257500D02*
X104990Y258988D01*
X104990Y271092D01*
X106478Y272580D01*
X106478Y257500D02*
X117662Y257500D01*
X122995Y252167D01*
X136576Y314325D02*
X157353Y314325D01*
X136576Y314325D02*
X128524Y306273D01*
X128524Y280924D01*
X120180Y272580D01*
X106478Y272580D01*
X104267Y282575D02*
X93715Y282575D01*
X89085Y277945D01*
X74748Y141152D02*
X64196Y130600D01*
X64196Y89596D02*
X25400Y50800D01*
X64196Y89596D02*
X64196Y130600D01*
X74748Y141152D02*
X89082Y141152D01*
X99060Y151130D01*
X99060Y259080D01*
X89085Y269055D02*
X89085Y277945D01*
X89085Y269055D02*
X99060Y259080D01*
X209169Y143891D02*
X226060Y127000D01*
X209169Y143891D02*
X209169Y274015D01*
X194259Y288925D01*
X157353Y288925D01*
X157353Y301625D02*
X191617Y301625D01*
X213842Y279400D02*
X226060Y279400D01*
X213842Y279400D02*
X191617Y301625D01*
X212725Y216535D02*
X226060Y203200D01*
X212725Y216535D02*
X212725Y275488D01*
X192938Y295275D01*
X157353Y295275D01*
X157353Y282575D02*
X195580Y282575D01*
X205613Y71247D02*
X226060Y50800D01*
X205613Y272542D02*
X195580Y282575D01*
X205613Y272542D02*
X205613Y71247D01*
X33020Y134620D02*
X25400Y127000D01*
X33020Y134620D02*
X63187Y134620D01*
X95036Y288925D02*
X104267Y288925D01*
X85529Y279418D02*
X85529Y267582D01*
X95504Y257607D01*
X95504Y152603D01*
X87609Y144708D02*
X73275Y144708D01*
X87609Y144708D02*
X95504Y152603D01*
X85529Y279418D02*
X95036Y288925D01*
X73275Y144708D02*
X63187Y134620D01*
X73275Y144708D02*
X73275Y144708D01*
X51304Y149356D02*
X41910Y158750D01*
X34290Y203200D02*
X25400Y203200D01*
X34290Y203200D02*
X41910Y195580D01*
X41910Y158750D01*
X91491Y256591D02*
X81973Y266109D01*
X91491Y256591D02*
X91491Y153619D01*
X87228Y149356D01*
X51304Y149356D01*
X95885Y295275D02*
X95885Y295275D01*
X91847Y291237D01*
X91847Y291237D01*
X89764Y289154D01*
X89763Y289154D01*
X81973Y281363D01*
X95885Y295275D02*
X104267Y295275D01*
X81973Y281363D02*
X81973Y266109D01*
X97206Y301625D02*
X104267Y301625D01*
X97206Y301625D02*
X88290Y292710D01*
X88291Y292710D01*
X88290Y292710D02*
X78417Y282836D01*
X78417Y264636D01*
X87935Y255118D01*
X83820Y210820D02*
X74930Y210820D01*
X83820Y210820D02*
X87935Y214935D01*
X87935Y255118D01*
X113030Y265040D02*
X113070Y265000D01*
X144780Y265000D01*
X135255Y307975D02*
X157353Y307975D01*
X135255Y307975D02*
X132080Y304800D01*
X132080Y277700D01*
X144780Y265000D01*
X154280Y243000D02*
X154320Y242960D01*
X176530Y242960D01*
X190500Y242960D01*
X202057Y35687D02*
X190500Y24130D01*
X165100Y24130D01*
X202057Y231403D02*
X190500Y242960D01*
X202057Y231403D02*
X202057Y35687D01*
X154320Y198510D02*
X154280Y198550D01*
X154320Y198510D02*
X176530Y198510D01*
X153035Y37465D02*
X139700Y24130D01*
X176920Y198120D02*
X176530Y198510D01*
X198501Y51181D02*
X184785Y37465D01*
X153035Y37465D01*
X176920Y198120D02*
X190500Y198120D01*
X198501Y190119D01*
X198501Y51181D01*
X161290Y147320D02*
X161290Y153670D01*
X165100Y157480D01*
X148400Y208090D02*
X148228Y208090D01*
X148400Y208090D02*
X154940Y214630D01*
X144780Y204642D02*
X144780Y198120D01*
X144780Y204642D02*
X148228Y208090D01*
X154940Y214630D02*
X154940Y226060D01*
X144780Y236220D01*
X144780Y249092D02*
X155648Y259960D01*
X144780Y242570D02*
X144780Y236220D01*
X144780Y242570D02*
X144780Y249092D01*
X155648Y259960D02*
X176530Y259960D01*
X144350Y243000D02*
X135280Y243000D01*
X144350Y243000D02*
X144780Y242570D01*
X155820Y215510D02*
X176530Y215510D01*
X155820Y215510D02*
X154940Y214630D01*
X144350Y198550D02*
X135280Y198550D01*
X144350Y198550D02*
X144780Y198120D01*
X165100Y169790D02*
X165100Y157480D01*
X165080Y169790D02*
X165100Y169790D01*
X155800Y179070D02*
X155650Y179220D01*
X165100Y182880D02*
X158970Y189010D01*
X148228Y189010D01*
X165100Y179070D02*
X165100Y169790D01*
X165100Y179070D02*
X165100Y180340D01*
X165100Y182880D01*
X144780Y192458D02*
X144780Y198120D01*
X144780Y192458D02*
X148228Y189010D01*
X155650Y179220D02*
X164950Y179220D01*
X165100Y179070D01*
X165490Y179950D02*
X175260Y179950D01*
X165490Y179950D02*
X165100Y180340D01*
X130810Y162950D02*
X116840Y162950D01*
X130810Y162950D02*
X133180Y162950D01*
X136450Y166220D01*
X130810Y162950D02*
X130810Y147320D01*
X136600Y179070D02*
X136450Y179220D01*
X136600Y179070D02*
X143510Y179070D01*
X143360Y166220D02*
X136450Y166220D01*
X146050Y176530D02*
X143510Y179070D01*
X146050Y168910D02*
X143360Y166220D01*
X146050Y168910D02*
X146050Y176530D01*
D26*
X126120Y71120D02*
X126120Y63500D01*
X125870Y71370D02*
X125870Y86360D01*
X125870Y71370D02*
X126120Y71120D01*
X125870Y86360D02*
X125870Y100720D01*
X125730Y100860D01*
X138820Y50800D02*
X152400Y50800D01*
X138820Y50800D02*
X126120Y63500D01*
D25*
X111370Y100860D02*
X109220Y103010D01*
D26*
X113520Y95250D02*
X119130Y100860D01*
X101600Y95250D02*
X95250Y101600D01*
X95250Y103010D01*
X109220Y95250D02*
X113520Y95250D01*
X109220Y95250D02*
X106680Y95250D01*
X101600Y95250D01*
X109220Y95250D02*
X109220Y103010D01*
X106680Y95250D02*
X106680Y80010D01*
D25*
X146050Y103260D02*
X146050Y104390D01*
X132330Y118110D01*
X132330Y122660D01*
X160020Y120260D02*
X160020Y117230D01*
X151980Y109190D02*
X146050Y103260D01*
X151980Y109190D02*
X151980Y109312D01*
X153468Y110800D01*
X153590Y110800D01*
X160020Y117230D01*
X111370Y122660D02*
X109220Y120510D01*
X111370Y122660D02*
X119130Y122660D01*
D26*
X83820Y80010D02*
X83820Y68580D01*
X88519Y63881D01*
X106299Y63881D01*
X83820Y80010D02*
X83820Y100470D01*
X81280Y103010D01*
X76200Y103010D01*
X72832Y106378D01*
X72832Y127023D02*
X76518Y130708D01*
X135992Y130708D01*
X72832Y127023D02*
X72832Y106378D01*
X146050Y120260D02*
X146050Y120650D01*
X135992Y130708D01*
X110490Y59690D02*
X110490Y48260D01*
X110490Y59690D02*
X106299Y63881D01*
X80010Y48260D02*
X80010Y33020D01*
X88900Y24130D01*
D25*
X143120Y71120D02*
X144000Y70240D01*
X152400Y70240D01*
X160020Y70240D01*
X152400Y70240D02*
X152400Y76200D01*
X154940Y78740D01*
X165612Y78740D02*
X168060Y81188D01*
X165612Y78740D02*
X154940Y78740D01*
X168060Y81188D02*
X168060Y127000D01*
D24*
X83820Y156210D03*
X152400Y132080D03*
D25*
X162980Y132080D02*
X168060Y127000D01*
X162980Y132080D02*
X152400Y132080D01*
X83680Y167640D02*
X83680Y186830D01*
X74930Y195580D01*
X83820Y167500D02*
X83820Y156210D01*
X83820Y167500D02*
X83680Y167640D01*
X62230Y279400D02*
X25400Y279400D01*
X74930Y263094D02*
X74930Y226060D01*
X74930Y263094D02*
X74861Y263163D01*
X74861Y266769D02*
X62230Y279400D01*
X74861Y266769D02*
X74861Y263163D01*
M02*
