G04 EAGLE Gerber X2 export*
%TF.Part,Single*%
%TF.FileFunction,Soldermask,Top,1*%
%TF.FilePolarity,Negative*%
%TF.GenerationSoftware,Autodesk,EAGLE,9.0.0*%
%TF.CreationDate,2018-06-07T14:32:50Z*%
G75*
%MOMM*%
%FSLAX34Y34*%
%LPD*%
%AMOC8*
5,1,8,0,0,1.08239X$1,22.5*%
G01*
%ADD10P,2.556822X8X112.500000*%
%ADD11P,2.556822X8X292.500000*%
%ADD12R,1.303200X1.203200*%
%ADD13P,2.556822X8X22.500000*%
%ADD14R,1.393200X0.603200*%
%ADD15R,1.203200X1.303200*%
%ADD16R,1.203200X1.603200*%
%ADD17R,1.371600X1.803400*%
%ADD18R,1.803400X0.558800*%
%ADD19R,0.503200X1.203200*%
%ADD20R,1.253200X1.283200*%
%ADD21R,1.283200X1.253200*%
%ADD22R,1.403200X2.743200*%
%ADD23R,1.803400X1.371600*%
%ADD24C,0.959600*%


D10*
X25400Y279400D03*
X25400Y203200D03*
X25400Y127000D03*
X25400Y50800D03*
D11*
X226060Y50800D03*
X226060Y127000D03*
X226060Y203200D03*
X226060Y279400D03*
D10*
X25400Y304800D03*
X25400Y228600D03*
X25400Y152400D03*
X25400Y76200D03*
D11*
X226060Y76200D03*
X226060Y152400D03*
X226060Y228600D03*
X226060Y304800D03*
D10*
X25400Y254000D03*
X25400Y177800D03*
X25400Y101600D03*
X25400Y25400D03*
D11*
X226060Y25400D03*
X226060Y101600D03*
X226060Y177800D03*
X226060Y254000D03*
D12*
X176530Y242960D03*
X176530Y259960D03*
X176530Y198510D03*
X176530Y215510D03*
D13*
X165100Y24130D03*
X139700Y24130D03*
D14*
X136450Y179220D03*
X136450Y172720D03*
X136450Y166220D03*
X155650Y166220D03*
X155650Y179220D03*
D15*
X116840Y162950D03*
X116840Y179950D03*
D12*
X113030Y248040D03*
X113030Y265040D03*
X113030Y215510D03*
X113030Y198510D03*
D16*
X144780Y265000D03*
X154280Y243000D03*
X135280Y243000D03*
X144780Y220550D03*
X154280Y198550D03*
X135280Y198550D03*
D15*
X175260Y179950D03*
X175260Y162950D03*
D17*
X161290Y147320D03*
X146050Y147320D03*
X130810Y147320D03*
D18*
X104267Y327025D03*
X104267Y320675D03*
X104267Y314325D03*
X104267Y307975D03*
X104267Y301625D03*
X104267Y295275D03*
X104267Y288925D03*
X104267Y282575D03*
X157353Y282575D03*
X157353Y288925D03*
X157353Y295275D03*
X157353Y301625D03*
X157353Y307975D03*
X157353Y314325D03*
X157353Y320675D03*
X157353Y327025D03*
D13*
X114300Y24130D03*
X88900Y24130D03*
D15*
X176530Y327270D03*
X176530Y310270D03*
X85090Y327270D03*
X85090Y310270D03*
D19*
X119130Y122660D03*
X125730Y122660D03*
X132330Y122660D03*
X119130Y100860D03*
X125730Y100860D03*
X132330Y100860D03*
D10*
X152400Y50800D03*
X176530Y50800D03*
D20*
X125870Y86360D03*
X143370Y86360D03*
D12*
X160020Y103260D03*
X160020Y120260D03*
X146050Y103260D03*
X146050Y120260D03*
D21*
X81280Y103010D03*
X81280Y120510D03*
D22*
X83820Y80010D03*
X106680Y80010D03*
D21*
X95250Y120510D03*
X95250Y103010D03*
X109220Y103010D03*
X109220Y120510D03*
D17*
X110490Y48260D03*
X95250Y48260D03*
X80010Y48260D03*
D12*
X160020Y87240D03*
X160020Y70240D03*
D15*
X143120Y71120D03*
X126120Y71120D03*
D23*
X74930Y226060D03*
X74930Y210820D03*
X74930Y195580D03*
D20*
X83680Y167640D03*
X66180Y167640D03*
D24*
X130810Y320040D03*
X125730Y111760D03*
X124460Y190500D03*
X85090Y298450D03*
X186690Y161290D03*
X83820Y156210D03*
X152400Y132080D03*
M02*
