G04 EAGLE Gerber X2 export*
%TF.Part,Single*%
%TF.FileFunction,Profile,NP*%
%TF.FilePolarity,Positive*%
%TF.GenerationSoftware,Autodesk,EAGLE,8.7.0*%
%TF.CreationDate,2018-03-20T01:19:31Z*%
G75*
%MOMM*%
%FSLAX34Y34*%
%LPD*%
%AMOC8*
5,1,8,0,0,1.08239X$1,22.5*%
G01*
%ADD10C,0.254000*%


D10*
X0Y0D02*
X317500Y0D01*
X317500Y368300D01*
X0Y368300D01*
X0Y0D01*
X57070Y25119D02*
X57007Y24561D01*
X56882Y24014D01*
X56697Y23484D01*
X56453Y22978D01*
X56154Y22502D01*
X55804Y22063D01*
X55407Y21666D01*
X54968Y21316D01*
X54492Y21017D01*
X53986Y20773D01*
X53456Y20588D01*
X52909Y20463D01*
X52351Y20400D01*
X51789Y20400D01*
X51231Y20463D01*
X50684Y20588D01*
X50154Y20773D01*
X49648Y21017D01*
X49172Y21316D01*
X48733Y21666D01*
X48336Y22063D01*
X47986Y22502D01*
X47687Y22978D01*
X47443Y23484D01*
X47258Y24014D01*
X47133Y24561D01*
X47070Y25119D01*
X47070Y25681D01*
X47133Y26239D01*
X47258Y26786D01*
X47443Y27316D01*
X47687Y27822D01*
X47986Y28298D01*
X48336Y28737D01*
X48733Y29134D01*
X49172Y29484D01*
X49648Y29783D01*
X50154Y30027D01*
X50684Y30212D01*
X51231Y30337D01*
X51789Y30400D01*
X52351Y30400D01*
X52909Y30337D01*
X53456Y30212D01*
X53986Y30027D01*
X54492Y29783D01*
X54968Y29484D01*
X55407Y29134D01*
X55804Y28737D01*
X56154Y28298D01*
X56453Y27822D01*
X56697Y27316D01*
X56882Y26786D01*
X57007Y26239D01*
X57070Y25681D01*
X57070Y25119D01*
X270430Y25119D02*
X270367Y24561D01*
X270242Y24014D01*
X270057Y23484D01*
X269813Y22978D01*
X269514Y22502D01*
X269164Y22063D01*
X268767Y21666D01*
X268328Y21316D01*
X267852Y21017D01*
X267346Y20773D01*
X266816Y20588D01*
X266269Y20463D01*
X265711Y20400D01*
X265149Y20400D01*
X264591Y20463D01*
X264044Y20588D01*
X263514Y20773D01*
X263008Y21017D01*
X262532Y21316D01*
X262093Y21666D01*
X261696Y22063D01*
X261346Y22502D01*
X261047Y22978D01*
X260803Y23484D01*
X260618Y24014D01*
X260493Y24561D01*
X260430Y25119D01*
X260430Y25681D01*
X260493Y26239D01*
X260618Y26786D01*
X260803Y27316D01*
X261047Y27822D01*
X261346Y28298D01*
X261696Y28737D01*
X262093Y29134D01*
X262532Y29484D01*
X263008Y29783D01*
X263514Y30027D01*
X264044Y30212D01*
X264591Y30337D01*
X265149Y30400D01*
X265711Y30400D01*
X266269Y30337D01*
X266816Y30212D01*
X267346Y30027D01*
X267852Y29783D01*
X268328Y29484D01*
X268767Y29134D01*
X269164Y28737D01*
X269514Y28298D01*
X269813Y27822D01*
X270057Y27316D01*
X270242Y26786D01*
X270367Y26239D01*
X270430Y25681D01*
X270430Y25119D01*
X57070Y342619D02*
X57007Y342061D01*
X56882Y341514D01*
X56697Y340984D01*
X56453Y340478D01*
X56154Y340002D01*
X55804Y339563D01*
X55407Y339166D01*
X54968Y338816D01*
X54492Y338517D01*
X53986Y338273D01*
X53456Y338088D01*
X52909Y337963D01*
X52351Y337900D01*
X51789Y337900D01*
X51231Y337963D01*
X50684Y338088D01*
X50154Y338273D01*
X49648Y338517D01*
X49172Y338816D01*
X48733Y339166D01*
X48336Y339563D01*
X47986Y340002D01*
X47687Y340478D01*
X47443Y340984D01*
X47258Y341514D01*
X47133Y342061D01*
X47070Y342619D01*
X47070Y343181D01*
X47133Y343739D01*
X47258Y344286D01*
X47443Y344816D01*
X47687Y345322D01*
X47986Y345798D01*
X48336Y346237D01*
X48733Y346634D01*
X49172Y346984D01*
X49648Y347283D01*
X50154Y347527D01*
X50684Y347712D01*
X51231Y347837D01*
X51789Y347900D01*
X52351Y347900D01*
X52909Y347837D01*
X53456Y347712D01*
X53986Y347527D01*
X54492Y347283D01*
X54968Y346984D01*
X55407Y346634D01*
X55804Y346237D01*
X56154Y345798D01*
X56453Y345322D01*
X56697Y344816D01*
X56882Y344286D01*
X57007Y343739D01*
X57070Y343181D01*
X57070Y342619D01*
X270430Y342619D02*
X270367Y342061D01*
X270242Y341514D01*
X270057Y340984D01*
X269813Y340478D01*
X269514Y340002D01*
X269164Y339563D01*
X268767Y339166D01*
X268328Y338816D01*
X267852Y338517D01*
X267346Y338273D01*
X266816Y338088D01*
X266269Y337963D01*
X265711Y337900D01*
X265149Y337900D01*
X264591Y337963D01*
X264044Y338088D01*
X263514Y338273D01*
X263008Y338517D01*
X262532Y338816D01*
X262093Y339166D01*
X261696Y339563D01*
X261346Y340002D01*
X261047Y340478D01*
X260803Y340984D01*
X260618Y341514D01*
X260493Y342061D01*
X260430Y342619D01*
X260430Y343181D01*
X260493Y343739D01*
X260618Y344286D01*
X260803Y344816D01*
X261047Y345322D01*
X261346Y345798D01*
X261696Y346237D01*
X262093Y346634D01*
X262532Y346984D01*
X263008Y347283D01*
X263514Y347527D01*
X264044Y347712D01*
X264591Y347837D01*
X265149Y347900D01*
X265711Y347900D01*
X266269Y347837D01*
X266816Y347712D01*
X267346Y347527D01*
X267852Y347283D01*
X268328Y346984D01*
X268767Y346634D01*
X269164Y346237D01*
X269514Y345798D01*
X269813Y345322D01*
X270057Y344816D01*
X270242Y344286D01*
X270367Y343739D01*
X270430Y343181D01*
X270430Y342619D01*
X57070Y25119D02*
X57007Y24561D01*
X56882Y24014D01*
X56697Y23484D01*
X56453Y22978D01*
X56154Y22502D01*
X55804Y22063D01*
X55407Y21666D01*
X54968Y21316D01*
X54492Y21017D01*
X53986Y20773D01*
X53456Y20588D01*
X52909Y20463D01*
X52351Y20400D01*
X51789Y20400D01*
X51231Y20463D01*
X50684Y20588D01*
X50154Y20773D01*
X49648Y21017D01*
X49172Y21316D01*
X48733Y21666D01*
X48336Y22063D01*
X47986Y22502D01*
X47687Y22978D01*
X47443Y23484D01*
X47258Y24014D01*
X47133Y24561D01*
X47070Y25119D01*
X47070Y25681D01*
X47133Y26239D01*
X47258Y26786D01*
X47443Y27316D01*
X47687Y27822D01*
X47986Y28298D01*
X48336Y28737D01*
X48733Y29134D01*
X49172Y29484D01*
X49648Y29783D01*
X50154Y30027D01*
X50684Y30212D01*
X51231Y30337D01*
X51789Y30400D01*
X52351Y30400D01*
X52909Y30337D01*
X53456Y30212D01*
X53986Y30027D01*
X54492Y29783D01*
X54968Y29484D01*
X55407Y29134D01*
X55804Y28737D01*
X56154Y28298D01*
X56453Y27822D01*
X56697Y27316D01*
X56882Y26786D01*
X57007Y26239D01*
X57070Y25681D01*
X57070Y25119D01*
X270430Y25119D02*
X270367Y24561D01*
X270242Y24014D01*
X270057Y23484D01*
X269813Y22978D01*
X269514Y22502D01*
X269164Y22063D01*
X268767Y21666D01*
X268328Y21316D01*
X267852Y21017D01*
X267346Y20773D01*
X266816Y20588D01*
X266269Y20463D01*
X265711Y20400D01*
X265149Y20400D01*
X264591Y20463D01*
X264044Y20588D01*
X263514Y20773D01*
X263008Y21017D01*
X262532Y21316D01*
X262093Y21666D01*
X261696Y22063D01*
X261346Y22502D01*
X261047Y22978D01*
X260803Y23484D01*
X260618Y24014D01*
X260493Y24561D01*
X260430Y25119D01*
X260430Y25681D01*
X260493Y26239D01*
X260618Y26786D01*
X260803Y27316D01*
X261047Y27822D01*
X261346Y28298D01*
X261696Y28737D01*
X262093Y29134D01*
X262532Y29484D01*
X263008Y29783D01*
X263514Y30027D01*
X264044Y30212D01*
X264591Y30337D01*
X265149Y30400D01*
X265711Y30400D01*
X266269Y30337D01*
X266816Y30212D01*
X267346Y30027D01*
X267852Y29783D01*
X268328Y29484D01*
X268767Y29134D01*
X269164Y28737D01*
X269514Y28298D01*
X269813Y27822D01*
X270057Y27316D01*
X270242Y26786D01*
X270367Y26239D01*
X270430Y25681D01*
X270430Y25119D01*
X57070Y342619D02*
X57007Y342061D01*
X56882Y341514D01*
X56697Y340984D01*
X56453Y340478D01*
X56154Y340002D01*
X55804Y339563D01*
X55407Y339166D01*
X54968Y338816D01*
X54492Y338517D01*
X53986Y338273D01*
X53456Y338088D01*
X52909Y337963D01*
X52351Y337900D01*
X51789Y337900D01*
X51231Y337963D01*
X50684Y338088D01*
X50154Y338273D01*
X49648Y338517D01*
X49172Y338816D01*
X48733Y339166D01*
X48336Y339563D01*
X47986Y340002D01*
X47687Y340478D01*
X47443Y340984D01*
X47258Y341514D01*
X47133Y342061D01*
X47070Y342619D01*
X47070Y343181D01*
X47133Y343739D01*
X47258Y344286D01*
X47443Y344816D01*
X47687Y345322D01*
X47986Y345798D01*
X48336Y346237D01*
X48733Y346634D01*
X49172Y346984D01*
X49648Y347283D01*
X50154Y347527D01*
X50684Y347712D01*
X51231Y347837D01*
X51789Y347900D01*
X52351Y347900D01*
X52909Y347837D01*
X53456Y347712D01*
X53986Y347527D01*
X54492Y347283D01*
X54968Y346984D01*
X55407Y346634D01*
X55804Y346237D01*
X56154Y345798D01*
X56453Y345322D01*
X56697Y344816D01*
X56882Y344286D01*
X57007Y343739D01*
X57070Y343181D01*
X57070Y342619D01*
X270430Y342619D02*
X270367Y342061D01*
X270242Y341514D01*
X270057Y340984D01*
X269813Y340478D01*
X269514Y340002D01*
X269164Y339563D01*
X268767Y339166D01*
X268328Y338816D01*
X267852Y338517D01*
X267346Y338273D01*
X266816Y338088D01*
X266269Y337963D01*
X265711Y337900D01*
X265149Y337900D01*
X264591Y337963D01*
X264044Y338088D01*
X263514Y338273D01*
X263008Y338517D01*
X262532Y338816D01*
X262093Y339166D01*
X261696Y339563D01*
X261346Y340002D01*
X261047Y340478D01*
X260803Y340984D01*
X260618Y341514D01*
X260493Y342061D01*
X260430Y342619D01*
X260430Y343181D01*
X260493Y343739D01*
X260618Y344286D01*
X260803Y344816D01*
X261047Y345322D01*
X261346Y345798D01*
X261696Y346237D01*
X262093Y346634D01*
X262532Y346984D01*
X263008Y347283D01*
X263514Y347527D01*
X264044Y347712D01*
X264591Y347837D01*
X265149Y347900D01*
X265711Y347900D01*
X266269Y347837D01*
X266816Y347712D01*
X267346Y347527D01*
X267852Y347283D01*
X268328Y346984D01*
X268767Y346634D01*
X269164Y346237D01*
X269514Y345798D01*
X269813Y345322D01*
X270057Y344816D01*
X270242Y344286D01*
X270367Y343739D01*
X270430Y343181D01*
X270430Y342619D01*
M02*
